

<svg xmlns="http://www.w3.org/2000/svg" xmlns:xlink="http://www.w3.org/1999/xlink" viewBox="0 0 400 400" version="1.1">
    <defs>
        <rect x="-61" y="-69"  id="rect-1" />
        <circle id="path-2" cx="134.5" cy="134.5" r="134.5" />
        <polygon id="path-3" points="0 323 338.705189 323 338.705189 0.149250499 0 0.149250499" />
    </defs>
    <g id="HomeDesktop_Quebec" stroke="none" stroke-width="1" fill="none" fill-rule="evenodd">
        <rect id="Rectangle-2" fill="#000000" x="-9" y="2186" />
        <g id="Group-11" opacity="0.4" >
            <path d="M168.946167,121.037817 L224.053833,121.037817 L224.053833,80.9621834 L168.946167,80.9621834 L168.946167,121.037817 Z M167,123 L226,123 L226,79 L167,79 L167,123 Z" id="Fill-1" fill="#FEFEFE" />
            <path d="M172.005146,89.0134917 L177.995523,89.0134917 L177.995523,84.9865083 L172.005146,84.9865083 L172.005146,89.0134917 Z M170,91 L180,91 L180,83 L170,83 L170,91 Z" id="Fill-2" fill="#FEFEFE" />
            <path d="M186.005146,89.0134917 L191.995523,89.0134917 L191.995523,84.9865083 L186.005146,84.9865083 L186.005146,89.0134917 Z M184,91 L194,91 L194,83 L184,83 L184,91 Z" id="Fill-3" fill="#FEFEFE" />
            <path d="M200.004745,89.0134917 L205.995255,89.0134917 L205.995255,84.9865083 L200.004745,84.9865083 L200.004745,89.0134917 Z M198,91 L208,91 L208,83 L198,83 L198,91 Z" id="Fill-4" fill="#FEFEFE" />
            <path d="M214.004745,89.0134917 L219.995255,89.0134917 L219.995255,84.9865083 L214.004745,84.9865083 L214.004745,89.0134917 Z M212,91 L222,91 L222,83 L212,83 L212,91 Z" id="Fill-5" fill="#FEFEFE" />
            <path d="M172.005146,99.0134917 L177.995523,99.0134917 L177.995523,94.9865083 L172.005146,94.9865083 L172.005146,99.0134917 Z M170,101 L180,101 L180,93 L170,93 L170,101 Z" id="Fill-6" fill="#FEFEFE" />
            <path d="M186.005146,99.0134917 L191.995523,99.0134917 L191.995523,94.9865083 L186.005146,94.9865083 L186.005146,99.0134917 Z M184,101 L194,101 L194,93 L184,93 L184,101 Z" id="Fill-7" fill="#FEFEFE" />
            <path d="M200.004745,99.0134917 L205.995255,99.0134917 L205.995255,94.9865083 L200.004745,94.9865083 L200.004745,99.0134917 Z M198,101 L208,101 L208,93 L198,93 L198,101 Z" id="Fill-8" fill="#FEFEFE" />
            <path d="M214.004745,99.0134917 L219.995255,99.0134917 L219.995255,94.9865083 L214.004745,94.9865083 L214.004745,99.0134917 Z M212,101 L222,101 L222,93 L212,93 L212,101 Z" id="Fill-9" fill="#FEFEFE" />
            <path d="M172.005146,108.013409 L177.995523,108.013409 L177.995523,103.986591 L172.005146,103.986591 L172.005146,108.013409 Z M170,110 L180,110 L180,102 L170,102 L170,110 Z" id="Fill-10" fill="#FEFEFE" />
            <path d="M186.005146,108.013409 L191.995523,108.013409 L191.995523,103.986591 L186.005146,103.986591 L186.005146,108.013409 Z M184,110 L194,110 L194,102 L184,102 L184,110 Z" id="Fill-11" fill="#FEFEFE" />
            <path d="M200.004745,108.013409 L205.995255,108.013409 L205.995255,103.986591 L200.004745,103.986591 L200.004745,108.013409 Z M198,110 L208,110 L208,102 L198,102 L198,110 Z" id="Fill-12" fill="#FEFEFE" />
            <path d="M214.004745,108.013409 L219.995255,108.013409 L219.995255,103.986591 L214.004745,103.986591 L214.004745,108.013409 Z M212,110 L222,110 L222,102 L212,102 L212,110 Z" id="Fill-13" fill="#FEFEFE" />
            <path d="M172.005146,117.013492 L177.995523,117.013492 L177.995523,112.986508 L172.005146,112.986508 L172.005146,117.013492 Z M170,119 L180,119 L180,111 L170,111 L170,119 Z" id="Fill-14" fill="#FEFEFE" />
            <path d="M186.005146,117.013492 L191.995523,117.013492 L191.995523,112.986508 L186.005146,112.986508 L186.005146,117.013492 Z M184,119 L194,119 L194,111 L184,111 L184,119 Z" id="Fill-15" fill="#FEFEFE" />
            <path d="M200.004745,117.013492 L205.995255,117.013492 L205.995255,112.986508 L200.004745,112.986508 L200.004745,117.013492 Z M198,119 L208,119 L208,111 L198,111 L198,119 Z" id="Fill-16" fill="#FEFEFE" />
            <path d="M214.004745,117.013492 L219.995255,117.013492 L219.995255,112.986508 L214.004745,112.986508 L214.004745,117.013492 Z M212,119 L222,119 L222,111 L212,111 L212,119 Z" id="Fill-17" fill="#FEFEFE" />
            <path d="M172.938163,79.9712446 L218.061837,79.9712446 L218.061837,61.0287554 L172.938163,61.0287554 L172.938163,79.9712446 Z M171,82 L220,82 L220,59 L171,59 L171,82 Z" id="Fill-18" fill="#FEFEFE" />
            <path d="M175.859096,68.0041817 L180.140904,68.0041817 L180.140904,64.9958183 L175.859096,64.9958183 L175.859096,68.0041817 Z M174,70 L182,70 L182,63 L174,63 L174,70 Z" id="Fill-19" fill="#FEFEFE" />
            <path d="M186.859096,68.0041817 L191.140904,68.0041817 L191.140904,64.9958183 L186.859096,64.9958183 L186.859096,68.0041817 Z M185,70 L193,70 L193,63 L185,63 L185,70 Z" id="Fill-20" fill="#FEFEFE" />
            <path d="M199.858786,68.0041817 L204.140594,68.0041817 L204.140594,64.9958183 L199.858786,64.9958183 L199.858786,68.0041817 Z M198,70 L206,70 L206,63 L198,63 L198,70 Z" id="Fill-21" fill="#FEFEFE" />
            <path d="M210.858786,68.0041817 L215.140594,68.0041817 L215.140594,64.9958183 L210.858786,64.9958183 L210.858786,68.0041817 Z M209,70 L217,70 L217,63 L209,63 L209,70 Z" id="Fill-22" fill="#FEFEFE" />
            <path d="M175.859096,76.0041817 L180.140904,76.0041817 L180.140904,72.9958183 L175.859096,72.9958183 L175.859096,76.0041817 Z M174,78 L182,78 L182,71 L174,71 L174,78 Z" id="Fill-23" fill="#FEFEFE" />
            <path d="M186.859096,76.0041817 L191.140904,76.0041817 L191.140904,72.9958183 L186.859096,72.9958183 L186.859096,76.0041817 Z M185,78 L193,78 L193,71 L185,71 L185,78 Z" id="Fill-24" fill="#FEFEFE" />
            <path d="M199.858786,76.0041817 L204.140594,76.0041817 L204.140594,72.9958183 L199.858786,72.9958183 L199.858786,76.0041817 Z M198,78 L206,78 L206,71 L198,71 L198,78 Z" id="Fill-25" fill="#FEFEFE" />
            <path d="M210.858786,76.0041817 L215.140594,76.0041817 L215.140594,72.9958183 L210.858786,72.9958183 L210.858786,76.0041817 Z M209,78 L217,78 L217,71 L209,71 L209,78 Z" id="Fill-26" fill="#FEFEFE" />
            <path d="M179.9443,59.9712446 L211.0557,59.9712446 L211.0557,41.0287554 L179.9443,41.0287554 L179.9443,59.9712446 Z M178,62 L213,62 L213,39 L178,39 L178,62 Z" id="Fill-27" fill="#FEFEFE" />
            <path d="M184.046581,47.0040869 L192.952737,47.0040869 L192.952737,43.9959131 L184.046581,43.9959131 L184.046581,47.0040869 Z M182,49 L195,49 L195,42 L182,42 L182,49 Z" id="Fill-28" fill="#FEFEFE" />
            <path d="M184.046581,56.0041817 L192.952737,56.0041817 L192.952737,52.9958183 L184.046581,52.9958183 L184.046581,56.0041817 Z M182,58 L195,58 L195,51 L182,51 L182,58 Z" id="Fill-29" fill="#FEFEFE" />
            <path d="M198.047209,47.0040869 L206.953473,47.0040869 L206.953473,43.9959131 L198.047209,43.9959131 L198.047209,47.0040869 Z M196,49 L209,49 L209,42 L196,42 L196,49 Z" id="Fill-30" fill="#FEFEFE" />
            <path d="M198.047209,56.0041817 L206.953473,56.0041817 L206.953473,52.9958183 L198.047209,52.9958183 L198.047209,56.0041817 Z M196,58 L209,58 L209,51 L196,51 L196,58 Z" id="Fill-31" fill="#FEFEFE" />
            <g id="Group-272">
                <path d="M163.330813,120.535315 L163.330813,207.814944 C163.914628,207.636037 164.545213,207.608314 165.134835,207.770459 C165.179992,207.783031 165.222246,207.799794 165.266113,207.813977 L165.266113,122.469447 L225.610048,122.469447 L225.610048,230.042631 C226.185477,229.657739 226.842834,229.39244 227.545348,229.273491 L227.545348,120.535315 L163.330813,120.535315 Z" id="Fill-32" fill="#FEFEFE" />
                <mask id="mask-4" fill="white">
                    <use xlink:href="#path-3" />
                </mask>
                <g id="Clip-35" />
                <path d="M169.510644,132.508655 L176.047764,132.508655 L176.047764,128.015989 L169.510644,128.015989 L169.510644,132.508655 Z M167.575022,134.442786 L177.982741,134.442786 L177.982741,126.081857 L167.575022,126.081857 L167.575022,134.442786 Z" id="Fill-34" fill="#FEFEFE" mask="url(#mask-4)" />
                <path d="M184.616626,132.508655 L191.153746,132.508655 L191.153746,128.015989 L184.616626,128.015989 L184.616626,132.508655 Z M182.681326,134.442786 L193.089046,134.442786 L193.089046,126.081857 L182.681326,126.081857 L182.681326,134.442786 Z" id="Fill-36" fill="#FEFEFE" mask="url(#mask-4)" />
                <path d="M199.722608,132.508655 L206.259728,132.508655 L206.259728,128.015989 L199.722608,128.015989 L199.722608,132.508655 Z M197.786986,134.442786 L208.194705,134.442786 L208.194705,126.081857 L197.786986,126.081857 L197.786986,134.442786 Z" id="Fill-37" fill="#FEFEFE" mask="url(#mask-4)" />
                <path d="M214.828912,132.508655 L221.366032,132.508655 L221.366032,128.015989 L214.828912,128.015989 L214.828912,132.508655 Z M212.89329,134.442786 L223.30101,134.442786 L223.30101,126.081857 L212.89329,126.081857 L212.89329,134.442786 Z" id="Fill-38" fill="#FEFEFE" mask="url(#mask-4)" />
                <path d="M169.510644,142.646729 L176.047764,142.646729 L176.047764,138.154063 L169.510644,138.154063 L169.510644,142.646729 Z M167.575022,144.58086 L177.982741,144.58086 L177.982741,136.219931 L167.575022,136.219931 L167.575022,144.58086 Z" id="Fill-39" fill="#FEFEFE" mask="url(#mask-4)" />
                <path d="M184.616626,142.646729 L191.153746,142.646729 L191.153746,138.154063 L184.616626,138.154063 L184.616626,142.646729 Z M182.681326,144.58086 L193.089046,144.58086 L193.089046,136.219931 L182.681326,136.219931 L182.681326,144.58086 Z" id="Fill-40" fill="#FEFEFE" mask="url(#mask-4)" />
                <path d="M199.722608,142.646729 L206.259728,142.646729 L206.259728,138.154063 L199.722608,138.154063 L199.722608,142.646729 Z M197.786986,144.58086 L208.194705,144.58086 L208.194705,136.219931 L197.786986,136.219931 L197.786986,144.58086 Z" id="Fill-41" fill="#FEFEFE" mask="url(#mask-4)" />
                <path d="M214.828912,142.646729 L221.366032,142.646729 L221.366032,138.154063 L214.828912,138.154063 L214.828912,142.646729 Z M212.89329,144.58086 L223.30101,144.58086 L223.30101,136.219931 L212.89329,136.219931 L212.89329,144.58086 Z" id="Fill-42" fill="#FEFEFE" mask="url(#mask-4)" />
                <path d="M169.510644,152.784802 L176.047764,152.784802 L176.047764,148.291814 L169.510644,148.291814 L169.510644,152.784802 Z M167.575022,154.718934 L177.982741,154.718934 L177.982741,146.358005 L167.575022,146.358005 L167.575022,154.718934 Z" id="Fill-43" fill="#FEFEFE" mask="url(#mask-4)" />
                <path d="M184.616626,152.784802 L191.153746,152.784802 L191.153746,148.291814 L184.616626,148.291814 L184.616626,152.784802 Z M182.681326,154.718934 L193.089046,154.718934 L193.089046,146.358005 L182.681326,146.358005 L182.681326,154.718934 Z" id="Fill-44" fill="#FEFEFE" mask="url(#mask-4)" />
                <path d="M199.722608,152.784802 L206.259728,152.784802 L206.259728,148.291814 L199.722608,148.291814 L199.722608,152.784802 Z M197.786986,154.718934 L208.194705,154.718934 L208.194705,146.358005 L197.786986,146.358005 L197.786986,154.718934 Z" id="Fill-45" fill="#FEFEFE" mask="url(#mask-4)" />
                <path d="M214.828912,152.784802 L221.366032,152.784802 L221.366032,148.291814 L214.828912,148.291814 L214.828912,152.784802 Z M212.89329,154.718934 L223.30101,154.718934 L223.30101,146.358005 L212.89329,146.358005 L212.89329,154.718934 Z" id="Fill-46" fill="#FEFEFE" mask="url(#mask-4)" />
                <path d="M169.510644,162.922876 L176.047764,162.922876 L176.047764,158.429888 L169.510644,158.429888 L169.510644,162.922876 Z M167.575022,164.857008 L177.982741,164.857008 L177.982741,156.496079 L167.575022,156.496079 L167.575022,164.857008 Z" id="Fill-47" fill="#FEFEFE" mask="url(#mask-4)" />
                <path d="M184.616626,162.922876 L191.153746,162.922876 L191.153746,158.429888 L184.616626,158.429888 L184.616626,162.922876 Z M182.681326,164.857008 L193.089046,164.857008 L193.089046,156.496079 L182.681326,156.496079 L182.681326,164.857008 Z" id="Fill-48" fill="#FEFEFE" mask="url(#mask-4)" />
                <path d="M199.722608,162.922876 L206.259728,162.922876 L206.259728,158.429888 L199.722608,158.429888 L199.722608,162.922876 Z M197.786986,164.857008 L208.194705,164.857008 L208.194705,156.496079 L197.786986,156.496079 L197.786986,164.857008 Z" id="Fill-49" fill="#FEFEFE" mask="url(#mask-4)" />
                <path d="M214.828912,162.922876 L221.366032,162.922876 L221.366032,158.429888 L214.828912,158.429888 L214.828912,162.922876 Z M212.89329,164.857008 L223.30101,164.857008 L223.30101,156.496079 L212.89329,156.496079 L212.89329,164.857008 Z" id="Fill-50" fill="#FEFEFE" mask="url(#mask-4)" />
                <path d="M169.510644,173.06095 L176.047764,173.06095 L176.047764,168.567962 L169.510644,168.567962 L169.510644,173.06095 Z M167.575022,174.995082 L177.982741,174.995082 L177.982741,166.634153 L167.575022,166.634153 L167.575022,174.995082 Z" id="Fill-51" fill="#FEFEFE" mask="url(#mask-4)" />
                <path d="M184.616626,173.06095 L191.153746,173.06095 L191.153746,168.567962 L184.616626,168.567962 L184.616626,173.06095 Z M182.681326,174.995082 L193.089046,174.995082 L193.089046,166.634153 L182.681326,166.634153 L182.681326,174.995082 Z" id="Fill-52" fill="#FEFEFE" mask="url(#mask-4)" />
                <path d="M199.722608,173.06095 L206.259728,173.06095 L206.259728,168.567962 L199.722608,168.567962 L199.722608,173.06095 Z M197.786986,174.995082 L208.194705,174.995082 L208.194705,166.634153 L197.786986,166.634153 L197.786986,174.995082 Z" id="Fill-53" fill="#FEFEFE" mask="url(#mask-4)" />
                <path d="M214.828912,173.06095 L221.366032,173.06095 L221.366032,168.567962 L214.828912,168.567962 L214.828912,173.06095 Z M212.89329,174.995082 L223.30101,174.995082 L223.30101,166.634153 L212.89329,166.634153 L212.89329,174.995082 Z" id="Fill-54" fill="#FEFEFE" mask="url(#mask-4)" />
                <path d="M169.510612,183.198798 L176.047732,183.198798 L176.047732,178.70581 L169.510612,178.70581 L169.510612,183.198798 Z M167.575312,185.13293 L177.983031,185.13293 L177.983031,176.772001 L167.575312,176.772001 L167.575312,185.13293 Z" id="Fill-55" fill="#FEFEFE" mask="url(#mask-4)" />
                <path d="M184.616626,183.198702 L191.153746,183.198702 L191.153746,178.705714 L184.616626,178.705714 L184.616626,183.198702 Z M182.681326,185.132833 L193.089046,185.132833 L193.089046,176.771904 L182.681326,176.771904 L182.681326,185.132833 Z" id="Fill-56" fill="#FEFEFE" mask="url(#mask-4)" />
                <path d="M199.722608,183.198702 L206.259728,183.198702 L206.259728,178.705714 L199.722608,178.705714 L199.722608,183.198702 Z M197.786986,185.132833 L208.194705,185.132833 L208.194705,176.771904 L197.786986,176.771904 L197.786986,185.132833 Z" id="Fill-57" fill="#FEFEFE" mask="url(#mask-4)" />
                <path d="M214.828912,183.198702 L221.366032,183.198702 L221.366032,178.705714 L214.828912,178.705714 L214.828912,183.198702 Z M212.89329,185.132833 L223.30101,185.132833 L223.30101,176.771904 L212.89329,176.771904 L212.89329,185.132833 Z" id="Fill-58" fill="#FEFEFE" mask="url(#mask-4)" />
                <path d="M169.510644,193.336453 L176.047764,193.336453 L176.047764,188.843465 L169.510644,188.843465 L169.510644,193.336453 Z M167.575022,195.270585 L177.982741,195.270585 L177.982741,186.909656 L167.575022,186.909656 L167.575022,195.270585 Z" id="Fill-59" fill="#FEFEFE" mask="url(#mask-4)" />
                <path d="M184.616626,193.336453 L191.153746,193.336453 L191.153746,188.843465 L184.616626,188.843465 L184.616626,193.336453 Z M182.681326,195.270585 L193.089046,195.270585 L193.089046,186.909656 L182.681326,186.909656 L182.681326,195.270585 Z" id="Fill-60" fill="#FEFEFE" mask="url(#mask-4)" />
                <path d="M199.722608,193.336453 L206.259728,193.336453 L206.259728,188.843465 L199.722608,188.843465 L199.722608,193.336453 Z M197.786986,195.270585 L208.194705,195.270585 L208.194705,186.909656 L197.786986,186.909656 L197.786986,195.270585 Z" id="Fill-61" fill="#FEFEFE" mask="url(#mask-4)" />
                <path d="M214.828912,193.336453 L221.366032,193.336453 L221.366032,188.843465 L214.828912,188.843465 L214.828912,193.336453 Z M212.89329,195.270585 L223.30101,195.270585 L223.30101,186.909656 L212.89329,186.909656 L212.89329,195.270585 Z" id="Fill-62" fill="#FEFEFE" mask="url(#mask-4)" />
                <path d="M169.510644,203.474849 L176.047764,203.474849 L176.047764,198.981861 L169.510644,198.981861 L169.510644,203.474849 Z M167.575022,205.408981 L177.982741,205.408981 L177.982741,197.048052 L167.575022,197.048052 L167.575022,205.408981 Z" id="Fill-63" fill="#FEFEFE" mask="url(#mask-4)" />
                <path d="M184.616626,203.474849 L191.153746,203.474849 L191.153746,198.981861 L184.616626,198.981861 L184.616626,203.474849 Z M182.681326,205.408981 L193.089046,205.408981 L193.089046,197.048052 L182.681326,197.048052 L182.681326,205.408981 Z" id="Fill-64" fill="#FEFEFE" mask="url(#mask-4)" />
                <path d="M199.722608,203.474849 L206.259728,203.474849 L206.259728,198.981861 L199.722608,198.981861 L199.722608,203.474849 Z M197.786986,205.408981 L208.194705,205.408981 L208.194705,197.048052 L197.786986,197.048052 L197.786986,205.408981 Z" id="Fill-65" fill="#FEFEFE" mask="url(#mask-4)" />
                <path d="M214.828912,203.474849 L221.366032,203.474849 L221.366032,198.981861 L214.828912,198.981861 L214.828912,203.474849 Z M212.89329,205.408981 L223.30101,205.408981 L223.30101,197.048052 L212.89329,197.048052 L212.89329,205.408981 Z" id="Fill-66" fill="#FEFEFE" mask="url(#mask-4)" />
                <path d="M169.510322,213.612923 L176.047441,213.612923 L176.047441,209.119935 L169.510322,209.119935 L169.510322,213.612923 Z M167.575344,207.185803 L167.575344,208.54711 C167.743393,208.660256 167.903055,208.788232 168.050138,208.935226 C168.684594,209.569621 169.002951,210.418382 169.008111,211.308728 C169.012304,211.988252 168.790713,212.62297 168.418813,213.147442 C168.785552,213.874353 168.883284,214.744713 168.705559,215.547055 L177.982741,215.547055 L177.982741,207.185803 L167.575344,207.185803 Z" id="Fill-67" fill="#FEFEFE" mask="url(#mask-4)" />
                <path d="M184.616626,213.612923 L191.153746,213.612923 L191.153746,209.119935 L184.616626,209.119935 L184.616626,213.612923 Z M182.681326,215.547055 L193.089046,215.547055 L193.089046,207.186126 L182.681326,207.186126 L182.681326,215.547055 Z" id="Fill-68" fill="#FEFEFE" mask="url(#mask-4)" />
                <path d="M199.722608,213.612923 L206.259728,213.612923 L206.259728,209.119935 L199.722608,209.119935 L199.722608,213.612923 Z M197.786986,215.547055 L208.194705,215.547055 L208.194705,207.186126 L197.786986,207.186126 L197.786986,215.547055 Z" id="Fill-69" fill="#FEFEFE" mask="url(#mask-4)" />
                <path d="M214.828912,213.612923 L221.366032,213.612923 L221.366032,209.119935 L214.828912,209.119935 L214.828912,213.612923 Z M212.89329,215.547055 L223.30101,215.547055 L223.30101,207.186126 L212.89329,207.186126 L212.89329,215.547055 Z" id="Fill-70" fill="#FEFEFE" mask="url(#mask-4)" />
                <path d="M187.134161,217.323748 C187.597988,217.698003 187.941503,218.196686 188.03085,218.833016 C188.050848,218.974852 188.06633,219.116366 188.084715,219.25788 L191.153456,219.25788 L191.153456,223.750546 L188.429521,223.750546 C188.45081,224.395579 188.462099,225.040289 188.46726,225.684677 L193.088755,225.684677 L193.088755,217.323748 L187.134161,217.323748 Z" id="Fill-71" fill="#FEFEFE" mask="url(#mask-4)" />
                <path d="M199.722608,223.750675 L206.259728,223.750675 L206.259728,219.257687 L199.722608,219.257687 L199.722608,223.750675 Z M197.786986,225.684806 L208.194705,225.684806 L208.194705,217.323877 L197.786986,217.323877 L197.786986,225.684806 Z" id="Fill-72" fill="#FEFEFE" mask="url(#mask-4)" />
                <path d="M214.828912,223.750675 L221.366032,223.750675 L221.366032,219.257687 L214.828912,219.257687 L214.828912,223.750675 Z M212.89329,225.684806 L223.30101,225.684806 L223.30101,217.323877 L212.89329,217.323877 L212.89329,225.684806 Z" id="Fill-73" fill="#FEFEFE" mask="url(#mask-4)" />
                <path d="M188.467743,227.461887 C188.463873,228.106275 188.457099,228.750985 188.449358,229.396018 L191.153617,229.396018 L191.153617,233.888684 L188.434198,233.888684 C188.439682,234.28776 188.4471,234.687158 188.458712,235.086879 C188.465808,235.332513 188.466453,235.577503 188.471292,235.822816 L193.088917,235.822816 L193.088917,227.461887 L188.467743,227.461887 Z" id="Fill-74" fill="#FEFEFE" mask="url(#mask-4)" />
                <path d="M199.722608,233.888749 L206.259728,233.888749 L206.259728,229.39576 L199.722608,229.39576 L199.722608,233.888749 Z M197.786986,235.82288 L208.194705,235.82288 L208.194705,227.461951 L197.786986,227.461951 L197.786986,235.82288 Z" id="Fill-75" fill="#FEFEFE" mask="url(#mask-4)" />
                <path d="M220.046706,233.888845 L214.828816,233.888845 L214.828816,229.395857 L221.365936,229.395857 L221.365936,230.634346 C221.863308,230.204324 222.507117,229.939993 223.301235,229.927421 L223.301235,227.462048 L212.893516,227.462048 L212.893516,235.822977 L219.872852,235.822977 C219.916396,235.177622 219.974455,234.532911 220.046706,233.888845" id="Fill-76" fill="#FEFEFE" mask="url(#mask-4)" />
                <path d="M188.488935,237.599703 C188.488612,238.244736 188.483452,238.889446 188.473453,239.533834 L191.15352,239.533834 L191.15352,244.0265 L188.367979,244.0265 C188.351206,244.671211 188.336046,245.315921 188.323144,245.960632 L193.08882,245.960632 L193.08882,237.599703 L188.488935,237.599703 Z" id="Fill-77" fill="#FEFEFE" mask="url(#mask-4)" />
                <path d="M199.722608,244.0265 L206.259728,244.0265 L206.259728,239.533512 L199.722608,239.533512 L199.722608,244.0265 Z M197.786986,245.960632 L208.194705,245.960632 L208.194705,237.599703 L197.786986,237.599703 L197.786986,245.960632 Z" id="Fill-78" fill="#FEFEFE" mask="url(#mask-4)" />
                <path d="M219.575945,244.026661 L214.828977,244.026661 L214.828977,239.533673 L219.714641,239.533673 C219.731414,238.888963 219.752379,238.244252 219.778506,237.599864 L212.893677,237.599864 L212.893677,245.960793 L219.524659,245.960793 C219.53111,245.312859 219.551753,244.666859 219.575945,244.026661" id="Fill-79" fill="#FEFEFE" mask="url(#mask-4)" />
                <path d="M188.298211,247.737841 C188.292728,248.382229 188.29305,249.02694 188.299824,249.671973 L191.153746,249.671973 L191.153746,254.164638 L188.476259,254.164638 C188.5169,254.809349 188.561089,255.454059 188.604956,256.09877 L193.089046,256.09877 L193.089046,247.737841 L188.298211,247.737841 Z" id="Fill-80" fill="#FEFEFE" mask="url(#mask-4)" />
                <path d="M199.722608,254.164896 L206.259728,254.164896 L206.259728,249.671908 L199.722608,249.671908 L199.722608,254.164896 Z M197.786986,256.099028 L208.194705,256.099028 L208.194705,247.738099 L197.786986,247.738099 L197.786986,256.099028 Z" id="Fill-81" fill="#FEFEFE" mask="url(#mask-4)" />
                <path d="M220.300811,254.1648 L214.828751,254.1648 L214.828751,249.671811 L219.736349,249.671811 C219.642164,249.033548 219.58475,248.387226 219.553785,247.738002 L212.893451,247.738002 L212.893451,256.098931 L219.941168,256.098931 C219.980196,255.426498 220.088251,254.773729 220.300811,254.1648" id="Fill-82" fill="#FEFEFE" mask="url(#mask-4)" />
                <path d="M188.72201,257.875657 C188.762328,258.520367 188.797809,259.165078 188.826838,259.809789 L191.153714,259.809789 L191.153714,264.302454 L188.858771,264.302454 C188.83458,264.898167 188.798454,265.493879 188.742975,266.08927 C188.73846,266.138268 188.733944,266.187588 188.729106,266.236586 L193.089013,266.236586 L193.089013,257.875657 L188.72201,257.875657 Z" id="Fill-83" fill="#FEFEFE" mask="url(#mask-4)" />
                <path d="M199.722608,264.302648 L206.259728,264.302648 L206.259728,259.80966 L199.722608,259.80966 L199.722608,264.302648 Z M197.786986,266.236779 L208.194705,266.236779 L208.194705,257.87585 L197.786986,257.87585 L197.786986,266.236779 Z" id="Fill-84" fill="#FEFEFE" mask="url(#mask-4)" />
                <path d="M220.334421,264.302615 L214.828816,264.302615 L214.828816,259.809627 L220.162502,259.809627 C220.088638,259.186192 220.010903,258.534068 219.963811,257.875818 L212.893516,257.875818 L212.893516,266.236747 L220.234753,266.236747 C220.270556,265.592037 220.307649,264.947004 220.334421,264.302615" id="Fill-85" fill="#FEFEFE" mask="url(#mask-4)" />
                <path d="M188.560896,268.013795 C188.500257,268.655605 188.440907,269.300638 188.386396,269.947927 L191.153552,269.947927 L191.153552,274.440593 L188.145452,274.440593 C188.13771,275.087237 188.147387,275.73227 188.173836,276.374724 L193.088852,276.374724 L193.088852,268.013795 L188.560896,268.013795 Z" id="Fill-86" fill="#FEFEFE" mask="url(#mask-4)" />
                <path d="M205.050714,274.440754 L199.722511,274.440754 L199.722511,269.947766 L206.259631,269.947766 L206.259631,273.875987 C206.784097,273.727382 207.342431,273.676127 207.905604,273.745111 C208.002369,273.756716 208.098488,273.761551 208.194931,273.769932 L208.194931,268.013956 L197.787212,268.013956 L197.787212,276.374886 L203.561501,276.374886 C203.845345,275.563195 204.377552,274.9014 205.050714,274.440754" id="Fill-87" fill="#FEFEFE" mask="url(#mask-4)" />
                <path d="M214.82888,273.716776 L214.82888,269.947798 L220.16934,269.947798 C220.13902,269.305344 220.137407,268.660311 220.15547,268.013666 L212.89358,268.013666 L212.89358,273.616846 C213.531584,273.619425 214.178942,273.665522 214.82888,273.716776" id="Fill-88" fill="#FEFEFE" mask="url(#mask-4)" />
                <path d="M188.299856,278.151611 C188.343723,278.581311 188.395008,279.009721 188.461131,279.435875 C188.494676,279.653464 188.513384,279.870732 188.516932,280.085743 L191.153456,280.085743 L191.153456,282.842525 C191.792105,282.805777 192.438172,282.752588 193.088755,282.69263 L193.088755,278.151611 L188.299856,278.151611 Z" id="Fill-89" fill="#FEFEFE" mask="url(#mask-4)" />
                <path d="M199.722576,282.324533 L199.722576,280.085775 L203.527698,280.085775 C203.433513,279.442354 203.327394,278.801834 203.310299,278.151643 L197.787276,278.151643 L197.787276,282.319697 C198.436247,282.296488 199.082314,282.294876 199.722576,282.324533" id="Fill-90" fill="#FEFEFE" mask="url(#mask-4)" />
                <polygon id="Fill-91" fill="#FEFEFE" mask="url(#mask-4)" points="186.917697 40.0790778 188.852997 40.0790778 188.852997 0.149250499 186.917697 0.149250499" />
                <path d="M41.7810243,147.953922 L41.7810243,322.473207 L62.9086912,322.473207 C62.0052288,322.257874 61.635264,321.335615 61.7981518,320.539075 L43.716324,320.539075 L43.716324,149.888053 L98.8591413,149.888053 L98.8591413,256.146672 C99.5055314,256.175684 100.150954,256.213722 100.794441,256.272713 L100.794441,147.953922 L41.7810243,147.953922 Z" id="Fill-92" fill="#FEFEFE" mask="url(#mask-4)" />
                <path d="M43.7161627,147.953986 L98.85898,147.953986 L98.85898,144.634694 L43.7161627,144.634694 L43.7161627,147.953986 Z M41.7811855,149.888118 L100.794602,149.888118 L100.794602,142.700562 L41.7811855,142.700562 L41.7811855,149.888118 Z" id="Fill-93" fill="#FEFEFE" mask="url(#mask-4)" />
                <path d="M43.7161627,142.70024 L98.85898,142.70024 L98.85898,133.456057 L43.7161627,133.456057 L43.7161627,142.70024 Z M41.7811855,144.634371 L100.794602,144.634371 L100.794602,131.521925 L41.7811855,131.521925 L41.7811855,144.634371 Z" id="Fill-94" fill="#FEFEFE" mask="url(#mask-4)" />
                <path d="M43.7161627,142.70024 L98.85898,142.70024 L98.85898,139.045375 L43.7161627,139.045375 L43.7161627,142.70024 Z M41.7811855,144.634371 L100.794602,144.634371 L100.794602,137.111244 L41.7811855,137.111244 L41.7811855,144.634371 Z" id="Fill-95" fill="#FEFEFE" mask="url(#mask-4)" />
                <path d="M48.4863539,158.838957 L53.2391275,158.838957 L53.2391275,154.089052 L48.4863539,154.089052 L48.4863539,158.838957 Z M46.5510542,160.773089 L55.1744272,160.773089 L55.1744272,152.15492 L46.5510542,152.15492 L46.5510542,160.773089 Z" id="Fill-96" fill="#FEFEFE" mask="url(#mask-4)" />
                <path d="M58.6989305,158.838957 L63.4517041,158.838957 L63.4517041,154.089052 L58.6989305,154.089052 L58.6989305,158.838957 Z M56.7636308,160.773089 L65.3870038,160.773089 L65.3870038,152.15492 L56.7636308,152.15492 L56.7636308,160.773089 Z" id="Fill-97" fill="#FEFEFE" mask="url(#mask-4)" />
                <path d="M68.9115071,158.838957 L73.6642807,158.838957 L73.6642807,154.089052 L68.9115071,154.089052 L68.9115071,158.838957 Z M66.9762074,160.773089 L75.5995804,160.773089 L75.5995804,152.15492 L66.9762074,152.15492 L66.9762074,160.773089 Z" id="Fill-98" fill="#FEFEFE" mask="url(#mask-4)" />
                <path d="M79.1237612,158.838957 L83.8765347,158.838957 L83.8765347,154.089052 L79.1237612,154.089052 L79.1237612,158.838957 Z M77.188784,160.773089 L85.812157,160.773089 L85.812157,152.15492 L77.188784,152.15492 L77.188784,160.773089 Z" id="Fill-99" fill="#FEFEFE" mask="url(#mask-4)" />
                <path d="M89.3363378,158.838957 L94.0891113,158.838957 L94.0891113,154.089052 L89.3363378,154.089052 L89.3363378,158.838957 Z M87.4010381,160.773089 L96.024411,160.773089 L96.024411,152.15492 L87.4010381,152.15492 L87.4010381,160.773089 Z" id="Fill-100" fill="#FEFEFE" mask="url(#mask-4)" />
                <path d="M48.4863539,168.682721 L53.2391275,168.682721 L53.2391275,163.932815 L48.4863539,163.932815 L48.4863539,168.682721 Z M46.5510542,170.616852 L55.1744272,170.616852 L55.1744272,161.998684 L46.5510542,161.998684 L46.5510542,170.616852 Z" id="Fill-101" fill="#FEFEFE" mask="url(#mask-4)" />
                <path d="M58.6989305,168.682721 L63.4517041,168.682721 L63.4517041,163.932815 L58.6989305,163.932815 L58.6989305,168.682721 Z M56.7636308,170.616852 L65.3870038,170.616852 L65.3870038,161.998684 L56.7636308,161.998684 L56.7636308,170.616852 Z" id="Fill-102" fill="#FEFEFE" mask="url(#mask-4)" />
                <path d="M68.9115071,168.682721 L73.6642807,168.682721 L73.6642807,163.932815 L68.9115071,163.932815 L68.9115071,168.682721 Z M66.9762074,170.616852 L75.5995804,170.616852 L75.5995804,161.998684 L66.9762074,161.998684 L66.9762074,170.616852 Z" id="Fill-103" fill="#FEFEFE" mask="url(#mask-4)" />
                <path d="M79.1237612,168.682721 L83.8765347,168.682721 L83.8765347,163.932815 L79.1237612,163.932815 L79.1237612,168.682721 Z M77.188784,170.616852 L85.812157,170.616852 L85.812157,161.998684 L77.188784,161.998684 L77.188784,170.616852 Z" id="Fill-104" fill="#FEFEFE" mask="url(#mask-4)" />
                <path d="M89.3363378,168.682721 L94.0891113,168.682721 L94.0891113,163.932815 L89.3363378,163.932815 L89.3363378,168.682721 Z M87.4010381,170.616852 L96.024411,170.616852 L96.024411,161.998684 L87.4010381,161.998684 L87.4010381,170.616852 Z" id="Fill-105" fill="#FEFEFE" mask="url(#mask-4)" />
                <path d="M48.4863539,178.526484 L53.2391275,178.526484 L53.2391275,173.776579 L48.4863539,173.776579 L48.4863539,178.526484 Z M46.5510542,180.460616 L55.1744272,180.460616 L55.1744272,171.842447 L46.5510542,171.842447 L46.5510542,180.460616 Z" id="Fill-106" fill="#FEFEFE" mask="url(#mask-4)" />
                <path d="M58.6989305,178.526484 L63.4517041,178.526484 L63.4517041,173.776579 L58.6989305,173.776579 L58.6989305,178.526484 Z M56.7636308,180.460616 L65.3870038,180.460616 L65.3870038,171.842447 L56.7636308,171.842447 L56.7636308,180.460616 Z" id="Fill-107" fill="#FEFEFE" mask="url(#mask-4)" />
                <path d="M68.9115071,178.526484 L73.6642807,178.526484 L73.6642807,173.776579 L68.9115071,173.776579 L68.9115071,178.526484 Z M66.9762074,180.460616 L75.5995804,180.460616 L75.5995804,171.842447 L66.9762074,171.842447 L66.9762074,180.460616 Z" id="Fill-108" fill="#FEFEFE" mask="url(#mask-4)" />
                <path d="M79.1237612,178.526484 L83.8765347,178.526484 L83.8765347,173.776579 L79.1237612,173.776579 L79.1237612,178.526484 Z M77.188784,180.460616 L85.812157,180.460616 L85.812157,171.842447 L77.188784,171.842447 L77.188784,180.460616 Z" id="Fill-109" fill="#FEFEFE" mask="url(#mask-4)" />
                <path d="M89.3363378,178.526484 L94.0891113,178.526484 L94.0891113,173.776579 L89.3363378,173.776579 L89.3363378,178.526484 Z M87.4010381,180.460616 L96.024411,180.460616 L96.024411,171.842447 L87.4010381,171.842447 L87.4010381,180.460616 Z" id="Fill-110" fill="#FEFEFE" mask="url(#mask-4)" />
                <path d="M48.4863539,188.369925 L53.2391275,188.369925 L53.2391275,183.62002 L48.4863539,183.62002 L48.4863539,188.369925 Z M46.5510542,190.304057 L55.1744272,190.304057 L55.1744272,181.685888 L46.5510542,181.685888 L46.5510542,190.304057 Z" id="Fill-111" fill="#FEFEFE" mask="url(#mask-4)" />
                <path d="M58.6989305,188.369925 L63.4517041,188.369925 L63.4517041,183.62002 L58.6989305,183.62002 L58.6989305,188.369925 Z M56.7636308,190.304057 L65.3870038,190.304057 L65.3870038,181.685888 L56.7636308,181.685888 L56.7636308,190.304057 Z" id="Fill-112" fill="#FEFEFE" mask="url(#mask-4)" />
                <path d="M68.9115071,188.369925 L73.6642807,188.369925 L73.6642807,183.62002 L68.9115071,183.62002 L68.9115071,188.369925 Z M66.9762074,190.304057 L75.5995804,190.304057 L75.5995804,181.685888 L66.9762074,181.685888 L66.9762074,190.304057 Z" id="Fill-113" fill="#FEFEFE" mask="url(#mask-4)" />
                <path d="M79.1237612,188.369925 L83.8765347,188.369925 L83.8765347,183.62002 L79.1237612,183.62002 L79.1237612,188.369925 Z M77.188784,190.304057 L85.812157,190.304057 L85.812157,181.685888 L77.188784,181.685888 L77.188784,190.304057 Z" id="Fill-114" fill="#FEFEFE" mask="url(#mask-4)" />
                <path d="M89.3363378,188.369925 L94.0891113,188.369925 L94.0891113,183.62002 L89.3363378,183.62002 L89.3363378,188.369925 Z M87.4010381,190.304057 L96.024411,190.304057 L96.024411,181.685888 L87.4010381,181.685888 L87.4010381,190.304057 Z" id="Fill-115" fill="#FEFEFE" mask="url(#mask-4)" />
                <path d="M48.4863539,198.213689 L53.2391275,198.213689 L53.2391275,193.463783 L48.4863539,193.463783 L48.4863539,198.213689 Z M46.5510542,200.14782 L55.1744272,200.14782 L55.1744272,191.529652 L46.5510542,191.529652 L46.5510542,200.14782 Z" id="Fill-116" fill="#FEFEFE" mask="url(#mask-4)" />
                <path d="M58.6989305,198.213689 L63.4517041,198.213689 L63.4517041,193.463783 L58.6989305,193.463783 L58.6989305,198.213689 Z M56.7636308,200.14782 L65.3870038,200.14782 L65.3870038,191.529652 L56.7636308,191.529652 L56.7636308,200.14782 Z" id="Fill-117" fill="#FEFEFE" mask="url(#mask-4)" />
                <path d="M68.9115071,198.213689 L73.6642807,198.213689 L73.6642807,193.463783 L68.9115071,193.463783 L68.9115071,198.213689 Z M66.9762074,200.14782 L75.5995804,200.14782 L75.5995804,191.529652 L66.9762074,191.529652 L66.9762074,200.14782 Z" id="Fill-118" fill="#FEFEFE" mask="url(#mask-4)" />
                <path d="M79.1237612,198.213689 L83.8765347,198.213689 L83.8765347,193.463783 L79.1237612,193.463783 L79.1237612,198.213689 Z M77.188784,200.14782 L85.812157,200.14782 L85.812157,191.529652 L77.188784,191.529652 L77.188784,200.14782 Z" id="Fill-119" fill="#FEFEFE" mask="url(#mask-4)" />
                <path d="M89.3363378,198.213689 L94.0891113,198.213689 L94.0891113,193.463783 L89.3363378,193.463783 L89.3363378,198.213689 Z M87.4010381,200.14782 L96.024411,200.14782 L96.024411,191.529652 L87.4010381,191.529652 L87.4010381,200.14782 Z" id="Fill-120" fill="#FEFEFE" mask="url(#mask-4)" />
                <path d="M48.4863539,208.057452 L53.2391275,208.057452 L53.2391275,203.307547 L48.4863539,203.307547 L48.4863539,208.057452 Z M46.5510542,209.991584 L55.1744272,209.991584 L55.1744272,201.373415 L46.5510542,201.373415 L46.5510542,209.991584 Z" id="Fill-121" fill="#FEFEFE" mask="url(#mask-4)" />
                <path d="M58.6989305,208.057452 L63.4517041,208.057452 L63.4517041,203.307547 L58.6989305,203.307547 L58.6989305,208.057452 Z M56.7636308,209.991584 L65.3870038,209.991584 L65.3870038,201.373415 L56.7636308,201.373415 L56.7636308,209.991584 Z" id="Fill-122" fill="#FEFEFE" mask="url(#mask-4)" />
                <path d="M68.9115071,208.057452 L73.6642807,208.057452 L73.6642807,203.307547 L68.9115071,203.307547 L68.9115071,208.057452 Z M66.9762074,209.991584 L75.5995804,209.991584 L75.5995804,201.373415 L66.9762074,201.373415 L66.9762074,209.991584 Z" id="Fill-123" fill="#FEFEFE" mask="url(#mask-4)" />
                <path d="M79.1237612,208.057452 L83.8765347,208.057452 L83.8765347,203.307547 L79.1237612,203.307547 L79.1237612,208.057452 Z M77.188784,209.991584 L85.812157,209.991584 L85.812157,201.373415 L77.188784,201.373415 L77.188784,209.991584 Z" id="Fill-124" fill="#FEFEFE" mask="url(#mask-4)" />
                <path d="M89.3363378,208.057452 L94.0891113,208.057452 L94.0891113,203.307547 L89.3363378,203.307547 L89.3363378,208.057452 Z M87.4010381,209.991584 L96.024411,209.991584 L96.024411,201.373415 L87.4010381,201.373415 L87.4010381,209.991584 Z" id="Fill-125" fill="#FEFEFE" mask="url(#mask-4)" />
                <path d="M48.4863539,217.901216 L53.2391275,217.901216 L53.2391275,213.15131 L48.4863539,213.15131 L48.4863539,217.901216 Z M46.5510542,219.835347 L55.1744272,219.835347 L55.1744272,211.217179 L46.5510542,211.217179 L46.5510542,219.835347 Z" id="Fill-126" fill="#FEFEFE" mask="url(#mask-4)" />
                <path d="M58.6989305,217.901216 L63.4517041,217.901216 L63.4517041,213.15131 L58.6989305,213.15131 L58.6989305,217.901216 Z M56.7636308,219.835347 L65.3870038,219.835347 L65.3870038,211.217179 L56.7636308,211.217179 L56.7636308,219.835347 Z" id="Fill-127" fill="#FEFEFE" mask="url(#mask-4)" />
                <path d="M68.9115071,217.901216 L73.6642807,217.901216 L73.6642807,213.15131 L68.9115071,213.15131 L68.9115071,217.901216 Z M66.9762074,219.835347 L75.5995804,219.835347 L75.5995804,211.217179 L66.9762074,211.217179 L66.9762074,219.835347 Z" id="Fill-128" fill="#FEFEFE" mask="url(#mask-4)" />
                <path d="M79.1237612,217.901216 L83.8765347,217.901216 L83.8765347,213.15131 L79.1237612,213.15131 L79.1237612,217.901216 Z M77.188784,219.835347 L85.812157,219.835347 L85.812157,211.217179 L77.188784,211.217179 L77.188784,219.835347 Z" id="Fill-129" fill="#FEFEFE" mask="url(#mask-4)" />
                <path d="M89.3363378,217.901216 L94.0891113,217.901216 L94.0891113,213.15131 L89.3363378,213.15131 L89.3363378,217.901216 Z M87.4010381,219.835347 L96.024411,219.835347 L96.024411,211.217179 L87.4010381,211.217179 L87.4010381,219.835347 Z" id="Fill-130" fill="#FEFEFE" mask="url(#mask-4)" />
                <path d="M48.4863539,227.744979 L53.2391275,227.744979 L53.2391275,222.995074 L48.4863539,222.995074 L48.4863539,227.744979 Z M46.5510542,229.679111 L55.1744272,229.679111 L55.1744272,221.060942 L46.5510542,221.060942 L46.5510542,229.679111 Z" id="Fill-131" fill="#FEFEFE" mask="url(#mask-4)" />
                <path d="M58.6989305,227.744979 L63.4517041,227.744979 L63.4517041,222.995074 L58.6989305,222.995074 L58.6989305,227.744979 Z M56.7636308,229.679111 L65.3870038,229.679111 L65.3870038,221.060942 L56.7636308,221.060942 L56.7636308,229.679111 Z" id="Fill-132" fill="#FEFEFE" mask="url(#mask-4)" />
                <path d="M68.9115071,227.744979 L73.6642807,227.744979 L73.6642807,222.995074 L68.9115071,222.995074 L68.9115071,227.744979 Z M66.9762074,229.679111 L75.5995804,229.679111 L75.5995804,221.060942 L66.9762074,221.060942 L66.9762074,229.679111 Z" id="Fill-133" fill="#FEFEFE" mask="url(#mask-4)" />
                <path d="M79.1237612,227.744979 L83.8765347,227.744979 L83.8765347,222.995074 L79.1237612,222.995074 L79.1237612,227.744979 Z M77.188784,229.679111 L85.812157,229.679111 L85.812157,221.060942 L77.188784,221.060942 L77.188784,229.679111 Z" id="Fill-134" fill="#FEFEFE" mask="url(#mask-4)" />
                <path d="M89.3363378,227.744979 L94.0891113,227.744979 L94.0891113,222.995074 L89.3363378,222.995074 L89.3363378,227.744979 Z M87.4010381,229.679111 L96.024411,229.679111 L96.024411,221.060942 L87.4010381,221.060942 L87.4010381,229.679111 Z" id="Fill-135" fill="#FEFEFE" mask="url(#mask-4)" />
                <path d="M48.4863539,237.588743 L53.2391275,237.588743 L53.2391275,232.838837 L48.4863539,232.838837 L48.4863539,237.588743 Z M46.5510542,239.522874 L55.1744272,239.522874 L55.1744272,230.904706 L46.5510542,230.904706 L46.5510542,239.522874 Z" id="Fill-136" fill="#FEFEFE" mask="url(#mask-4)" />
                <path d="M58.6989305,237.588743 L63.4517041,237.588743 L63.4517041,232.838837 L58.6989305,232.838837 L58.6989305,237.588743 Z M56.7636308,239.522874 L65.3870038,239.522874 L65.3870038,230.904706 L56.7636308,230.904706 L56.7636308,239.522874 Z" id="Fill-137" fill="#FEFEFE" mask="url(#mask-4)" />
                <path d="M68.9115071,237.588743 L73.6642807,237.588743 L73.6642807,232.838837 L68.9115071,232.838837 L68.9115071,237.588743 Z M66.9762074,239.522874 L75.5995804,239.522874 L75.5995804,230.904706 L66.9762074,230.904706 L66.9762074,239.522874 Z" id="Fill-138" fill="#FEFEFE" mask="url(#mask-4)" />
                <path d="M79.1237612,237.588743 L83.8765347,237.588743 L83.8765347,232.838837 L79.1237612,232.838837 L79.1237612,237.588743 Z M77.188784,239.522874 L85.812157,239.522874 L85.812157,230.904706 L77.188784,230.904706 L77.188784,239.522874 Z" id="Fill-139" fill="#FEFEFE" mask="url(#mask-4)" />
                <path d="M89.3363378,237.588743 L94.0891113,237.588743 L94.0891113,232.838837 L89.3363378,232.838837 L89.3363378,237.588743 Z M87.4010381,239.522874 L96.024411,239.522874 L96.024411,230.904706 L87.4010381,230.904706 L87.4010381,239.522874 Z" id="Fill-140" fill="#FEFEFE" mask="url(#mask-4)" />
                <path d="M48.4863539,247.432184 L53.2391275,247.432184 L53.2391275,242.682278 L48.4863539,242.682278 L48.4863539,247.432184 Z M46.5510542,249.366315 L55.1744272,249.366315 L55.1744272,240.748147 L46.5510542,240.748147 L46.5510542,249.366315 Z" id="Fill-141" fill="#FEFEFE" mask="url(#mask-4)" />
                <path d="M58.6989305,247.432184 L63.4517041,247.432184 L63.4517041,242.682278 L58.6989305,242.682278 L58.6989305,247.432184 Z M56.7636308,249.366315 L65.3870038,249.366315 L65.3870038,240.748147 L56.7636308,240.748147 L56.7636308,249.366315 Z" id="Fill-142" fill="#FEFEFE" mask="url(#mask-4)" />
                <path d="M68.9115071,247.432184 L73.6642807,247.432184 L73.6642807,242.682278 L68.9115071,242.682278 L68.9115071,247.432184 Z M66.9762074,249.366315 L75.5995804,249.366315 L75.5995804,240.748147 L66.9762074,240.748147 L66.9762074,249.366315 Z" id="Fill-143" fill="#FEFEFE" mask="url(#mask-4)" />
                <path d="M79.1237612,247.432184 L83.8765347,247.432184 L83.8765347,242.682278 L79.1237612,242.682278 L79.1237612,247.432184 Z M77.188784,249.366315 L85.812157,249.366315 L85.812157,240.748147 L77.188784,240.748147 L77.188784,249.366315 Z" id="Fill-144" fill="#FEFEFE" mask="url(#mask-4)" />
                <path d="M89.3363378,247.432184 L94.0891113,247.432184 L94.0891113,242.682278 L89.3363378,242.682278 L89.3363378,247.432184 Z M87.4010381,249.366315 L96.024411,249.366315 L96.024411,240.748147 L87.4010381,240.748147 L87.4010381,249.366315 Z" id="Fill-145" fill="#FEFEFE" mask="url(#mask-4)" />
                <path d="M48.4863539,257.275947 L53.2391275,257.275947 L53.2391275,252.526042 L48.4863539,252.526042 L48.4863539,257.275947 Z M46.5510542,259.210079 L55.1744272,259.210079 L55.1744272,250.59191 L46.5510542,250.59191 L46.5510542,259.210079 Z" id="Fill-146" fill="#FEFEFE" mask="url(#mask-4)" />
                <path d="M56.7635341,250.591813 L56.7635341,259.209982 L58.3837025,259.209982 C58.3795093,259.145833 58.3737034,259.082329 58.3737034,259.017214 C58.3737034,258.379273 58.5688461,257.780981 58.8994598,257.27585 L58.6988338,257.27585 L58.6988338,252.525945 L63.4516073,252.525945 L63.4516073,256.288154 C63.5635322,256.358105 63.6715864,256.433214 63.7738347,256.515737 C64.3057196,256.349079 64.8434104,256.208854 65.386907,256.095385 L65.386907,250.591813 L56.7635341,250.591813 Z" id="Fill-147" fill="#FEFEFE" mask="url(#mask-4)" />
                <path d="M68.9114426,255.655918 L68.9114426,252.525849 L73.6642162,252.525849 L73.6642162,255.613367 C74.3096386,255.623683 74.954416,255.633676 75.5995159,255.644636 L75.5995159,250.591717 L66.9761429,250.591717 L66.9761429,255.831602 C67.6176948,255.749401 68.2634398,255.692667 68.9114426,255.655918" id="Fill-148" fill="#FEFEFE" mask="url(#mask-4)" />
                <path d="M79.1239547,255.715651 L79.1239547,252.525945 L83.8767283,252.525945 L83.8767283,255.877151 C84.5224733,255.906807 85.1672506,255.934208 85.812028,255.960641 L85.812028,250.591813 L77.188655,250.591813 L77.188655,255.674067 C77.8337549,255.686316 78.4788548,255.700178 79.1239547,255.715651" id="Fill-149" fill="#FEFEFE" mask="url(#mask-4)" />
                <path d="M89.3364023,256.077527 L89.3364023,252.525816 L94.0891758,252.525816 L94.0891758,256.104605 C94.1304622,256.104282 94.1714261,256.104927 94.2123899,256.104282 C94.8171711,256.093645 95.4213071,256.088809 96.0244755,256.088165 L96.0244755,250.591685 L87.4011026,250.591685 L87.4011026,256.019181 C88.0462025,256.041423 88.6913024,256.062054 89.3364023,256.077527" id="Fill-150" fill="#FEFEFE" mask="url(#mask-4)" />
                <path d="M48.4863539,267.119711 L53.2391275,267.119711 L53.2391275,262.369805 L48.4863539,262.369805 L48.4863539,267.119711 Z M46.5510542,269.053842 L55.1744272,269.053842 L55.1744272,260.435674 L46.5510542,260.435674 L46.5510542,269.053842 Z" id="Fill-151" fill="#FEFEFE" mask="url(#mask-4)" />
                <path d="M59.0235126,268.605059 C59.0186743,268.34105 59.0760882,268.080587 59.1986572,267.853971 C59.229622,267.738568 59.2605868,267.622843 59.291229,267.50744 C59.3296125,267.363347 59.3867038,267.235694 59.4544393,267.119646 L58.6987048,267.119646 L58.6987048,262.369741 L59.7902138,262.369741 C59.7827951,262.309138 59.7711833,262.249502 59.7711833,262.187288 L59.7711833,261.650244 C59.3276772,261.338204 58.9593251,260.92301 58.7148323,260.435609 L56.763405,260.435609 L56.763405,269.053778 L59.0399626,269.053778 C59.0148037,268.913876 59.0064174,268.764625 59.0235126,268.605059" id="Fill-152" fill="#FEFEFE" mask="url(#mask-4)" />
                <path d="M48.4863862,276.963248 L53.2391598,276.963248 L53.2391598,272.213343 L48.4863862,272.213343 L48.4863862,276.963248 Z M46.5510865,278.89738 L55.1744595,278.89738 L55.1744595,270.279211 L46.5510865,270.279211 L46.5510865,278.89738 Z" id="Fill-153" fill="#FEFEFE" mask="url(#mask-4)" />
                <path d="M59.0071593,278.45469 C59.2368148,278.225495 59.4458272,278.037884 59.6071022,277.80192 C59.715479,277.51728 59.8435313,277.2407 59.987066,276.963152 L58.6988015,276.963152 L58.6988015,272.213247 L59.4138948,272.213247 C58.9268443,271.943113 58.5884894,271.460547 58.5884894,270.837112 L58.5884894,270.783278 C58.5884894,270.6192 58.6191317,270.447062 58.6755779,270.279115 L56.7635018,270.279115 L56.7635018,278.897283 L58.6842868,278.897283 C58.7604086,278.745132 58.8655598,278.595881 59.0071593,278.45469" id="Fill-154" fill="#FEFEFE" mask="url(#mask-4)" />
                <path d="M48.4863539,286.806915 L53.2391275,286.806915 L53.2391275,282.05701 L48.4863539,282.05701 L48.4863539,286.806915 Z M46.5510542,288.741047 L55.1744272,288.741047 L55.1744272,280.122878 L46.5510542,280.122878 L46.5510542,288.741047 Z" id="Fill-155" fill="#FEFEFE" mask="url(#mask-4)" />
                <path d="M59.6634839,287.990056 C59.6763859,287.914302 59.6947713,287.838226 59.7212204,287.762151 C59.8389511,287.423033 59.9689387,287.116473 60.1369873,286.807012 L58.698737,286.807012 L58.698737,282.482293 C58.5303659,282.238915 58.42715,281.936546 58.42715,281.582277 L58.42715,280.668722 C58.42715,280.466928 58.4590824,280.285764 58.5142384,280.122975 L56.7634373,280.122975 L56.7634373,288.741144 L59.5967161,288.741144 C59.5525267,288.511949 59.5667189,288.259545 59.6634839,287.990056" id="Fill-156" fill="#FEFEFE" mask="url(#mask-4)" />
                <path d="M48.4863539,296.650679 L53.2391275,296.650679 L53.2391275,291.900773 L48.4863539,291.900773 L48.4863539,296.650679 Z M46.5510542,298.58481 L55.1744272,298.58481 L55.1744272,289.966642 L46.5510542,289.966642 L46.5510542,298.58481 Z" id="Fill-157" fill="#FEFEFE" mask="url(#mask-4)" />
                <path d="M60.012999,296.65084 L58.6989305,296.65084 L58.6989305,291.900935 L58.7579572,291.900935 C58.6328078,291.650142 58.5370105,291.351964 58.4847574,290.982867 C58.430569,290.597652 58.5028202,290.256923 58.650548,289.966803 L56.7636308,289.966803 L56.7636308,298.584972 L59.8372093,298.584972 C59.8910752,297.939939 59.9549401,297.29555 60.012999,296.65084" id="Fill-158" fill="#FEFEFE" mask="url(#mask-4)" />
                <path d="M48.4863539,306.494442 L53.2391275,306.494442 L53.2391275,301.744859 L48.4863539,301.744859 L48.4863539,306.494442 Z M46.5510542,308.428574 L55.1744272,308.428574 L55.1744272,299.810728 L46.5510542,299.810728 L46.5510542,308.428574 Z" id="Fill-159" fill="#FEFEFE" mask="url(#mask-4)" />
                <path d="M60.2192375,308.355818 C60.1415029,308.173043 60.0937656,307.970604 60.0937656,307.746567 L60.0937656,306.833334 C60.0937656,306.713096 60.1056999,306.600594 60.1260206,306.494216 L58.698737,306.494216 L58.698737,302.448013 C58.650032,302.341958 58.6106809,302.229778 58.5922955,302.10406 C58.5219796,301.618593 58.4594049,301.14473 58.42715,300.65475 C58.4052166,300.317889 58.472952,300.03744 58.6000367,299.810502 L56.7634373,299.810502 L56.7634373,308.428348 L60.2443964,308.428348 C60.2363326,308.403849 60.2263336,308.381284 60.2192375,308.355818" id="Fill-160" fill="#FEFEFE" mask="url(#mask-4)" />
                <path d="M48.4863539,316.338206 L53.2391275,316.338206 L53.2391275,311.5883 L48.4863539,311.5883 L48.4863539,316.338206 Z M46.5510542,318.272337 L55.1744272,318.272337 L55.1744272,309.654169 L46.5510542,309.654169 L46.5510542,318.272337 Z" id="Fill-161" fill="#FEFEFE" mask="url(#mask-4)" />
                <path d="M59.2114302,314.175846 C58.9282313,313.886694 58.7498612,313.495677 58.7498612,313.065655 C58.7498612,312.776824 58.8340467,312.507658 58.9717755,312.272016 C58.962099,312.195295 58.9575833,312.11922 58.965002,312.044755 C58.9801618,311.892281 58.9827422,311.735617 59.0291894,311.58959 C59.1059563,311.316555 59.2440077,311.079301 59.4439887,310.878152 C59.5310772,310.777254 59.6439696,310.692153 59.765571,310.620912 L57.7312484,310.620912 L57.7312484,317.305271 L60.0294168,317.305271 C60.0548983,316.882664 60.1161828,316.458122 60.1761771,316.035514 C59.3939934,315.761512 59.0727337,314.918875 59.2114302,314.175846" id="Fill-162" fill="#FEFEFE" mask="url(#mask-4)" />
                <path d="M60.1763383,316.035675 C59.3941547,315.761673 59.0725724,314.919036 59.2115914,314.175685 C58.9283926,313.886532 58.7500225,313.495838 58.7500225,313.065494 C58.7500225,312.776663 58.834208,312.507497 58.9719368,312.271855 C58.9622603,312.195457 58.9574221,312.119058 58.9648407,312.044917 C58.9803231,311.89212 58.982581,311.735778 59.0293507,311.589429 C59.1057951,311.316394 59.244169,311.079463 59.4438274,310.878313 C59.6315515,310.661368 59.9312004,310.510183 60.2027874,310.437008 C60.2363326,310.427983 60.2702004,310.427015 60.3040681,310.420246 C60.3060034,310.388655 60.306326,310.357064 60.3089064,310.325474 C60.3289045,310.075648 60.4072841,309.852256 60.5214668,309.654007 L56.7634373,309.654007 L56.7634373,318.272176 L60.054737,318.272176 C59.9647456,317.537206 60.0708645,316.782895 60.1763383,316.035675" id="Fill-163" fill="#FEFEFE" mask="url(#mask-4)" />
                <path d="M45.464835,131.52199 L97.1108883,131.52199 L83.6053992,99.5549826 L58.9703241,99.5549826 L45.464835,131.52199 Z M100.028675,133.456121 L42.5470481,133.456121 L57.6868978,97.6208509 L84.8888255,97.6208509 L100.028675,133.456121 Z" id="Fill-164" fill="#FEFEFE" mask="url(#mask-4)" />
                <polygon id="Fill-165" fill="#FEFEFE" mask="url(#mask-4)" points="46.4049391 127.133703 96.1708487 127.133703 96.1708487 125.199571 46.4049391 125.199571" />
                <polygon id="Fill-166" fill="#FEFEFE" mask="url(#mask-4)" points="49.9797602 120.000302 92.5960276 120.000302 92.5960276 118.066171 49.9797602 118.066171" />
                <polygon id="Fill-167" fill="#FEFEFE" mask="url(#mask-4)" points="52.9362531 112.866902 89.6392122 112.866902 89.6392122 110.93277 52.9362531 110.93277" />
                <polygon id="Fill-168" fill="#FEFEFE" mask="url(#mask-4)" points="55.7182464 105.733502 86.8572188 105.733502 86.8572188 103.79937 55.7182464 103.79937" />
                <path d="M62.0428059,97.6211088 L80.5326594,97.6211088 L80.5326594,82.8372505 L62.0428059,82.8372505 L62.0428059,97.6211088 Z M60.1075062,99.5552405 L82.4679591,99.5552405 L82.4679591,80.9031188 L60.1075062,80.9031188 L60.1075062,99.5552405 Z" id="Fill-169" fill="#FEFEFE" mask="url(#mask-4)" />
                <path d="M332.57674,320.53914 L336.76989,320.53914 L336.76989,31.223978 L332.57674,31.223978 L332.57674,320.53914 Z M330.641441,322.473271 L338.705189,322.473271 L338.705189,29.2898463 L330.641441,29.2898463 L330.641441,322.473271 Z" id="Fill-170" fill="#FEFEFE" mask="url(#mask-4)" />
                <path d="M258.806857,230.557239 L258.806857,31.2240103 L263.000006,31.2240103 L263.000006,229.800671 C263.692521,229.903825 264.350523,230.156229 264.935306,230.526937 L264.935306,29.2898785 L256.871557,29.2898785 L256.871557,230.634604 C257.245392,230.543055 257.633097,230.4889 258.032092,230.4889 C258.295615,230.4889 258.553332,230.5163 258.806857,230.557239" id="Fill-171" fill="#FEFEFE" mask="url(#mask-4)" />
                <path d="M263.000006,41.2728884 L263.000006,229.800445 C263.692521,229.903921 264.350523,230.156326 264.935306,230.526712 L264.935306,43.2070202 L330.641312,43.2070202 L330.641312,320.539269 L266.744488,320.539269 C266.685462,320.604707 266.629338,320.673046 266.566763,320.735583 C266.382265,320.918681 266.183574,321.076957 265.978432,321.224918 C266.115839,321.642691 266.224861,322.059174 266.30324,322.4734 L332.576611,322.4734 L332.576611,41.2728884 L263.000006,41.2728884 Z" id="Fill-172" fill="#FEFEFE" mask="url(#mask-4)" />
                <path d="M271.739949,320.53914 L323.836927,320.53914 L323.836927,43.2068912 L271.739949,43.2068912 L271.739949,320.53914 Z M269.804649,322.473271 L325.772226,322.473271 L325.772226,41.2727595 L269.804649,41.2727595 L269.804649,322.473271 Z" id="Fill-173" fill="#FEFEFE" mask="url(#mask-4)" />
                <path d="M271.739949,60.7807345 L323.836927,60.7807345 L323.836927,53.1441377 L271.739949,53.1441377 L271.739949,60.7807345 Z M269.804649,62.7148663 L325.772226,62.7148663 L325.772226,51.210006 L269.804649,51.210006 L269.804649,62.7148663 Z" id="Fill-174" fill="#FEFEFE" mask="url(#mask-4)" />
                <path d="M271.739949,75.4881946 L323.836927,75.4881946 L323.836927,67.8515978 L271.739949,67.8515978 L271.739949,75.4881946 Z M269.804649,77.4223263 L325.772226,77.4223263 L325.772226,65.9174661 L269.804649,65.9174661 L269.804649,77.4223263 Z" id="Fill-175" fill="#FEFEFE" mask="url(#mask-4)" />
                <path d="M271.739949,90.1956547 L323.836927,90.1956547 L323.836927,82.5590579 L271.739949,82.5590579 L271.739949,90.1956547 Z M269.804649,92.1297864 L325.772226,92.1297864 L325.772226,80.6249261 L269.804649,80.6249261 L269.804649,92.1297864 Z" id="Fill-176" fill="#FEFEFE" mask="url(#mask-4)" />
                <path d="M271.739949,104.903115 L323.836927,104.903115 L323.836927,97.266518 L271.739949,97.266518 L271.739949,104.903115 Z M269.804649,106.837247 L325.772226,106.837247 L325.772226,95.3323862 L269.804649,95.3323862 L269.804649,106.837247 Z" id="Fill-177" fill="#FEFEFE" mask="url(#mask-4)" />
                <path d="M271.739949,119.610252 L323.836927,119.610252 L323.836927,111.973656 L271.739949,111.973656 L271.739949,119.610252 Z M269.804649,121.544384 L325.772226,121.544384 L325.772226,110.039524 L269.804649,110.039524 L269.804649,121.544384 Z" id="Fill-178" fill="#FEFEFE" mask="url(#mask-4)" />
                <path d="M271.739949,134.318035 L323.836927,134.318035 L323.836927,126.681438 L271.739949,126.681438 L271.739949,134.318035 Z M269.804649,136.252167 L325.772226,136.252167 L325.772226,124.747306 L269.804649,124.747306 L269.804649,136.252167 Z" id="Fill-179" fill="#FEFEFE" mask="url(#mask-4)" />
                <path d="M271.739949,149.025495 L323.836927,149.025495 L323.836927,141.388898 L271.739949,141.388898 L271.739949,149.025495 Z M269.804649,150.959627 L325.772226,150.959627 L325.772226,139.454766 L269.804649,139.454766 L269.804649,150.959627 Z" id="Fill-180" fill="#FEFEFE" mask="url(#mask-4)" />
                <path d="M271.739949,163.732633 L323.836927,163.732633 L323.836927,156.096036 L271.739949,156.096036 L271.739949,163.732633 Z M269.804649,165.666764 L325.772226,165.666764 L325.772226,154.161904 L269.804649,154.161904 L269.804649,165.666764 Z" id="Fill-181" fill="#FEFEFE" mask="url(#mask-4)" />
                <path d="M271.739949,178.440093 L323.836927,178.440093 L323.836927,170.803496 L271.739949,170.803496 L271.739949,178.440093 Z M269.804649,180.374225 L325.772226,180.374225 L325.772226,168.869364 L269.804649,168.869364 L269.804649,180.374225 Z" id="Fill-182" fill="#FEFEFE" mask="url(#mask-4)" />
                <path d="M271.739949,193.147553 L323.836927,193.147553 L323.836927,185.510956 L271.739949,185.510956 L271.739949,193.147553 Z M269.804649,195.081685 L325.772226,195.081685 L325.772226,183.576824 L269.804649,183.576824 L269.804649,195.081685 Z" id="Fill-183" fill="#FEFEFE" mask="url(#mask-4)" />
                <path d="M271.739949,207.855013 L323.836927,207.855013 L323.836927,200.218739 L271.739949,200.218739 L271.739949,207.855013 Z M269.804649,209.789145 L325.772226,209.789145 L325.772226,198.284607 L269.804649,198.284607 L269.804649,209.789145 Z" id="Fill-184" fill="#FEFEFE" mask="url(#mask-4)" />
                <path d="M271.739949,222.562473 L323.836927,222.562473 L323.836927,214.925876 L271.739949,214.925876 L271.739949,222.562473 Z M269.804649,224.496605 L325.772226,224.496605 L325.772226,212.991745 L269.804649,212.991745 L269.804649,224.496605 Z" id="Fill-185" fill="#FEFEFE" mask="url(#mask-4)" />
                <path d="M269.804746,227.698914 L269.804746,230.072416 C270.539837,230.185563 271.18784,230.449572 271.740045,230.835109 L271.740045,229.633046 L323.837024,229.633046 L323.837024,237.269643 L271.256543,237.269643 C271.232029,237.917255 271.330407,238.5639 271.256543,239.203775 L325.772323,239.203775 L325.772323,227.698914 L269.804746,227.698914 Z" id="Fill-186" fill="#FEFEFE" mask="url(#mask-4)" />
                <path d="M278.034414,242.406375 C278.450181,242.976299 278.752733,243.631647 278.89788,244.340506 L323.83683,244.340506 L323.83683,251.977103 L270.934122,251.977103 C270.917027,252.621814 271.09959,253.266524 271.095397,253.911235 L325.77213,253.911235 L325.77213,242.406375 L278.034414,242.406375 Z" id="Fill-187" fill="#FEFEFE" mask="url(#mask-4)" />
                <path d="M278.082926,257.113835 C278.309678,257.690851 278.433215,258.308806 278.433215,258.936754 L278.433215,259.017343 C278.433215,259.027658 278.431925,259.037651 278.431602,259.047966 L323.836959,259.047966 L323.836959,266.684563 L278.611263,266.684563 C278.382575,267.413086 277.985193,268.070691 277.471048,268.618695 L325.772259,268.618695 L325.772259,257.113835 L278.082926,257.113835 Z" id="Fill-188" fill="#FEFEFE" mask="url(#mask-4)" />
                <path d="M278.018674,271.821295 C278.095118,272.225206 278.129631,272.634597 278.1106,273.039798 C278.099311,273.283498 278.071249,273.521074 278.034801,273.755426 L323.836894,273.755426 L323.836894,281.392023 L278.109955,281.392023 C277.983838,282.095725 277.710639,282.753007 277.31745,283.326155 L325.772194,283.326155 L325.772194,271.821295 L278.018674,271.821295 Z" id="Fill-189" fill="#FEFEFE" mask="url(#mask-4)" />
                <path d="M271.471555,286.528755 C271.458008,287.169919 271.452847,287.814952 271.453815,288.462887 L323.836894,288.462887 L323.836894,296.099161 L278.867303,296.099161 C278.77215,296.798027 278.528303,297.452731 278.168982,298.033293 L325.772194,298.033293 L325.772194,286.528755 L271.471555,286.528755 Z" id="Fill-190" fill="#FEFEFE" mask="url(#mask-4)" />
                <path d="M271.149005,301.236215 C271.109654,301.880925 273.898098,302.525636 273.84649,303.170347 L323.836894,303.170347 L323.836894,310.806621 L271.202871,310.806621 C271.128039,311.471962 271.010631,312.121831 270.822907,312.740753 L325.772194,312.740753 L325.772194,301.236215 L271.149005,301.236215 Z" id="Fill-191" fill="#FEFEFE" mask="url(#mask-4)" />
                <path d="M162.948881,322.473271 L163.273756,322.473271 C163.229969,321.851448 163.243388,321.230914 163.317544,320.611347 C163.167819,321.230269 163.050581,321.851448 162.948881,322.473271" id="Fill-192" fill="#FEFEFE" mask="url(#mask-4)" />
                <path d="M167.404264,283.385887 C168.049041,283.439076 168.694141,283.486785 169.339564,283.53127 L169.339564,207.683004 L123.465219,207.683004 L123.465219,216.833381 C124.079677,216.594194 124.759935,216.522953 125.400519,216.626107 L125.400519,209.617136 L167.404264,209.617136 L167.404264,283.385887 Z" id="Fill-193" fill="#FEFEFE" mask="url(#mask-4)" />
                <path d="M136.097082,320.53914 C136.193202,321.031054 136.189008,321.556815 136.100307,322.089024 C136.079019,322.216999 136.057731,322.345296 136.036442,322.473271 L156.469014,322.473271 C156.48869,321.828239 156.494818,321.183528 156.493692,320.53914 L136.097082,320.53914 Z" id="Fill-194" fill="#FEFEFE" mask="url(#mask-4)" />
                <path d="M156.493399,320.53914 L145.721843,320.53914 L145.721843,217.427031 L187.393684,217.427031 L187.393684,283.39833 C188.037172,283.434112 188.682271,283.467314 189.328984,283.495359 L189.328984,215.492899 L143.786544,215.492899 L143.786544,322.473271 L156.469208,322.473271 C156.488883,321.828239 156.495012,321.183528 156.493399,320.53914" id="Fill-195" fill="#FEFEFE" mask="url(#mask-4)" />
                <path d="M162.948881,322.473271 L163.273756,322.473271 C163.229969,321.851448 163.243388,321.230914 163.317544,320.611347 C163.167819,321.230269 163.050581,321.851448 162.948881,322.473271" id="Fill-196" fill="#FEFEFE" mask="url(#mask-4)" />
                <path d="M159.304615,282.694887 L159.304615,222.203305 L163.77548,222.203305 L163.77548,283.032715 C164.420258,283.104923 165.065035,283.173262 165.71078,283.235154 L165.71078,220.269173 L157.369316,220.269173 L157.369316,283.86697 C157.841206,283.226128 158.52856,282.846716 159.304615,282.694887" id="Fill-197" fill="#FEFEFE" mask="url(#mask-4)" />
                <path d="M163.317705,320.611283 C163.167274,321.230205 163.050036,321.851384 162.949043,322.473207 L163.273918,322.473207 C163.229424,321.851384 163.243549,321.23085 163.317705,320.611283" id="Fill-198" fill="#FEFEFE" mask="url(#mask-4)" />
                <path d="M149.269667,320.53914 L153.740854,320.53914 L153.740854,222.203369 L149.269667,222.203369 L149.269667,320.53914 Z M147.334367,322.473271 L155.676154,322.473271 L155.676154,220.269238 L147.334367,220.269238 L147.334367,322.473271 Z" id="Fill-199" fill="#FEFEFE" mask="url(#mask-4)" />
                <path d="M179.374544,283.134418 L179.374544,222.203466 L183.845409,222.203466 L183.845409,283.205981 C184.489864,283.23596 185.134964,283.270774 185.780709,283.3072 L185.780709,220.269334 L177.439245,220.269334 L177.439245,283.23048 C178.084667,283.181482 178.729767,283.150536 179.374544,283.134418" id="Fill-200" fill="#FEFEFE" mask="url(#mask-4)" />
                <path d="M169.339564,283.531141 L169.339564,222.203369 L173.810429,222.203369 L173.810429,283.762592 C173.958156,283.707791 174.113303,283.662017 174.279094,283.631393 C174.768724,283.541134 175.257388,283.468926 175.745728,283.405422 L175.745728,220.269238 L167.404264,220.269238 L167.404264,283.385758 C168.049041,283.439269 168.694141,283.486656 169.339564,283.531141" id="Fill-201" fill="#FEFEFE" mask="url(#mask-4)" />
                <path d="M111.916867,256.4385 C112.430689,256.493623 112.944511,256.537141 113.458655,256.57389 L113.458655,217.427063 L135.407212,217.427063 L135.407212,256.919132 C136.52259,257.364627 137.166399,258.275925 137.342512,259.267813 L137.342512,215.492931 L111.523356,215.492931 L111.523356,256.432698 C111.652698,256.424961 111.783653,256.424317 111.916867,256.4385" id="Fill-202" fill="#FEFEFE" mask="url(#mask-4)" />
                <path d="M137.086471,320.230323 C136.730699,320.323162 136.378797,320.344759 136.038507,320.311235 C136.187525,320.866975 136.203007,321.473003 136.100436,322.089024 C136.079148,322.216999 136.05786,322.345296 136.036249,322.473271 L137.342254,322.473271 L137.342254,320.163596 C137.2571,320.185838 137.171947,320.208081 137.086471,320.230323" id="Fill-203" fill="#FEFEFE" mask="url(#mask-4)" />
                <path d="M127.21483,256.458196 L127.21483,222.203434 L131.685695,222.203434 L131.685695,256.486886 C132.331118,256.51203 132.976217,256.551679 133.620995,256.602289 L133.620995,220.269302 L125.27953,220.269302 L125.27953,256.510418 C125.92463,256.489787 126.56973,256.47109 127.21483,256.458196" id="Fill-204" fill="#FEFEFE" mask="url(#mask-4)" />
                <path d="M117.179882,256.708215 L117.179882,222.203305 L121.651069,222.203305 L121.651069,256.63504 C122.296169,256.613765 122.941269,256.590878 123.586369,256.567668 L123.586369,220.269173 L115.244582,220.269173 L115.244582,256.666953 C115.889682,256.690485 116.534782,256.704347 117.179882,256.708215" id="Fill-205" fill="#FEFEFE" mask="url(#mask-4)" />
                <path d="M218.887526,229.096002 L218.887526,273.953675 C218.890429,273.953675 218.89301,273.95303 218.895913,273.95303 C219.5394,273.957543 220.181274,273.978819 220.822826,274.006219 L220.822826,231.030134 L269.660114,231.030134 L269.660114,320.539172 L250.457425,320.539172 C250.389367,320.650707 250.323245,320.763854 250.245188,320.868619 C249.672339,321.637114 249.007563,322.141922 248.280858,322.473304 L271.595414,322.473304 L271.595414,229.096002 L218.887526,229.096002 Z" id="Fill-206" fill="#FEFEFE" mask="url(#mask-4)" />
                <path d="M220.822858,236.080764 L277.290388,236.080764 L277.290388,231.030102 L220.822858,231.030102 L220.822858,236.080764 Z M218.887559,238.014896 L279.225688,238.014896 L279.225688,229.09597 L218.887559,229.09597 L218.887559,238.014896 Z" id="Fill-207" fill="#FEFEFE" mask="url(#mask-4)" />
                <path d="M220.822858,248.146523 L277.290388,248.146523 L277.290388,243.095538 L220.822858,243.095538 L220.822858,248.146523 Z M218.887559,250.080655 L279.225688,250.080655 L279.225688,241.161406 L218.887559,241.161406 L218.887559,250.080655 Z" id="Fill-208" fill="#FEFEFE" mask="url(#mask-4)" />
                <path d="M220.822858,260.211637 L277.290388,260.211637 L277.290388,255.160652 L220.822858,255.160652 L220.822858,260.211637 Z M218.887559,262.145768 L279.225688,262.145768 L279.225688,253.22652 L218.887559,253.22652 L218.887559,262.145768 Z" id="Fill-209" fill="#FEFEFE" mask="url(#mask-4)" />
                <path d="M220.822858,272.277073 L277.290388,272.277073 L277.290388,267.22641 L220.822858,267.22641 L220.822858,272.277073 Z M218.887559,265.292278 L218.887559,273.953643 C218.890461,273.953643 218.893042,273.952998 218.895945,273.952998 C220.651584,273.965248 222.399482,274.077105 224.14609,274.211205 L279.225688,274.211205 L279.225688,265.292278 L218.887559,265.292278 Z" id="Fill-210" fill="#FEFEFE" mask="url(#mask-4)" />
                <path d="M240.386222,277.357682 C240.402027,278.005616 240.352677,278.646781 240.309456,279.291814 L277.290453,279.291814 L277.290453,284.342799 L250.563964,284.342799 C251.016824,284.800866 251.289378,285.426235 251.283895,286.276931 L279.225752,286.276931 L279.225752,277.357682 L240.386222,277.357682 Z" id="Fill-211" fill="#FEFEFE" mask="url(#mask-4)" />
                <path d="M250.930542,289.423344 C250.837002,290.061608 250.753784,290.702772 250.722497,291.357476 L277.290614,291.357476 L277.290614,296.408139 L250.916672,296.408139 C250.960861,297.052527 251.005373,297.697237 251.050208,298.34227 L279.225914,298.34227 L279.225914,289.423344 L250.930542,289.423344 Z" id="Fill-212" fill="#FEFEFE" mask="url(#mask-4)" />
                <path d="M251.218579,301.488684 C251.24148,302.133072 251.25664,302.777782 251.260188,303.422815 L277.290614,303.422815 L277.290614,308.4738 L251.008921,308.4738 C250.955701,309.117866 250.914414,309.762254 250.908608,310.407932 L279.225914,310.407932 L279.225914,301.488684 L251.218579,301.488684 Z" id="Fill-213" fill="#FEFEFE" mask="url(#mask-4)" />
                <path d="M251.128039,313.554023 C251.192226,314.180359 251.254801,314.832806 251.291894,315.488155 L277.290388,315.488155 L277.290388,320.53914 L250.457458,320.53914 C250.3894,320.650675 250.323277,320.763821 250.24522,320.868587 C249.672371,321.637082 249.007596,322.14189 248.280891,322.473271 L279.225688,322.473271 L279.225688,313.554023 L251.128039,313.554023 Z" id="Fill-214" fill="#FEFEFE" mask="url(#mask-4)" />
                <path d="M240.465054,282.156811 C240.500857,282.19356 240.53666,282.228696 240.57214,282.269313 C241.054675,282.825698 241.116927,283.532301 240.862113,284.090943 L250.325406,284.090943 L250.325406,320.539011 L155.656995,320.539011 L155.656995,284.090943 L204.06884,284.090943 C203.985299,283.818875 203.836281,283.399168 203.95627,283.577753 C203.611786,283.065853 203.614044,282.564591 203.817573,282.156811 L153.721695,282.156811 L153.721695,322.473143 L252.260705,322.473143 L252.260705,282.156811 L240.465054,282.156811 Z" id="Fill-215" fill="#FEFEFE" mask="url(#mask-4)" />
                <path d="M155.657027,289.090899 L204.357554,289.090899 C204.359812,289.046736 204.363037,289.002896 204.362392,288.958733 C204.361425,288.931978 204.327879,288.635733 204.339491,288.658943 C204.27982,288.337555 204.204665,288.02068 204.116287,287.705738 C204.065001,287.522641 204.055325,287.337931 204.070485,287.156767 L153.721727,287.156767 L153.721727,317.473315 L203.39571,317.473315 C203.064129,316.772515 203.161216,315.910214 203.874052,315.539184 L155.657027,315.539184 L155.657027,289.090899 Z" id="Fill-216" fill="#FEFEFE" mask="url(#mask-4)" />
                <path d="M240.324809,287.156767 C240.837341,287.678016 240.935073,288.473266 240.53995,289.090899 L250.32547,289.090899 L250.32547,315.539184 L240.258364,315.539184 C240.267395,315.554334 240.278362,315.567551 240.286425,315.583024 C240.309004,315.625575 240.331582,315.668126 240.354161,315.710354 C240.676388,316.316704 240.605105,316.985269 240.244817,317.473315 L252.26077,317.473315 L252.26077,287.156767 L240.324809,287.156767 Z" id="Fill-217" fill="#FEFEFE" mask="url(#mask-4)" />
                <path d="M204.684716,320.53914 L238.988872,320.53914 L238.988872,274.694415 L204.684716,274.694415 L204.684716,320.53914 Z M202.749417,322.473271 L240.924171,322.473271 L240.924171,272.760283 L202.749417,272.760283 L202.749417,322.473271 Z" id="Fill-218" fill="#FEFEFE" mask="url(#mask-4)" />
                <path d="M210.120651,320.53914 L233.552937,320.53914 L233.552937,280.545164 L210.120651,280.545164 L210.120651,320.53914 Z M208.185351,322.473271 L235.488237,322.473271 L235.488237,278.611032 L208.185351,278.611032 L208.185351,322.473271 Z" id="Fill-219" fill="#FEFEFE" mask="url(#mask-4)" />
                <path d="M210.120651,291.325369 L233.552937,291.325369 L233.552937,289.090802 L210.120651,289.090802 L210.120651,291.325369 Z M208.185351,293.259501 L235.488237,293.259501 L235.488237,287.156671 L208.185351,287.156671 L208.185351,293.259501 Z" id="Fill-220" fill="#FEFEFE" mask="url(#mask-4)" />
                <path d="M210.120651,309.885297 L233.552937,309.885297 L233.552937,307.650731 L210.120651,307.650731 L210.120651,309.885297 Z M208.185351,311.819429 L235.488237,311.819429 L235.488237,305.716599 L208.185351,305.716599 L208.185351,311.819429 Z" id="Fill-221" fill="#FEFEFE" mask="url(#mask-4)" />
                <path d="M59.6985128,260.07109 L137.191139,260.07109 L137.191139,257.408757 L59.6985128,257.408757 L59.6985128,260.07109 Z M57.7632131,262.005222 L139.126439,262.005222 L139.126439,255.474626 L57.7632131,255.474626 L57.7632131,262.005222 Z" id="Fill-222" fill="#FEFEFE" mask="url(#mask-4)" />
                <path d="M61.5531751,266.264502 L135.336477,266.264502 L135.336477,262.005222 L61.5531751,262.005222 L61.5531751,266.264502 Z M59.6178754,268.198634 L137.271776,268.198634 L137.271776,260.07109 L59.6178754,260.07109 L59.6178754,268.198634 Z" id="Fill-223" fill="#FEFEFE" mask="url(#mask-4)" />
                <path d="M69.2943739,266.264502 L127.595278,266.264502 L127.595278,262.005222 L69.2943739,262.005222 L69.2943739,266.264502 Z M67.3590742,268.198634 L129.530578,268.198634 L129.530578,260.07109 L67.3590742,260.07109 L67.3590742,268.198634 Z" id="Fill-224" fill="#FEFEFE" mask="url(#mask-4)" />
                <path d="M74.6970856,266.264502 L122.192566,266.264502 L122.192566,262.005222 L74.6970856,262.005222 L74.6970856,266.264502 Z M72.7617859,268.198634 L124.127866,268.198634 L124.127866,260.07109 L72.7617859,260.07109 L72.7617859,268.198634 Z" id="Fill-225" fill="#FEFEFE" mask="url(#mask-4)" />
                <path d="M82.8414719,266.264502 L114.04818,266.264502 L114.04818,262.005222 L82.8414719,262.005222 L82.8414719,266.264502 Z M80.9061722,268.198634 L115.98348,268.198634 L115.98348,260.07109 L80.9061722,260.07109 L80.9061722,268.198634 Z" id="Fill-226" fill="#FEFEFE" mask="url(#mask-4)" />
                <path d="M87.5345737,266.264502 L109.355078,266.264502 L109.355078,262.005222 L87.5345737,262.005222 L87.5345737,266.264502 Z M85.599274,268.198634 L111.290378,268.198634 L111.290378,260.07109 L85.599274,260.07109 L85.599274,268.198634 Z" id="Fill-227" fill="#FEFEFE" mask="url(#mask-4)" />
                <path d="M59.6985128,270.9696 L137.191139,270.9696 L137.191139,268.306945 L59.6985128,268.306945 L59.6985128,270.9696 Z M57.7632131,272.903732 L139.126439,272.903732 L139.126439,266.372813 L57.7632131,266.372813 L57.7632131,272.903732 Z" id="Fill-228" fill="#FEFEFE" mask="url(#mask-4)" />
                <path d="M61.5531751,277.16269 L135.336477,277.16269 L135.336477,272.903732 L61.5531751,272.903732 L61.5531751,277.16269 Z M59.6178754,279.096821 L137.271776,279.096821 L137.271776,270.9696 L59.6178754,270.9696 L59.6178754,279.096821 Z" id="Fill-229" fill="#FEFEFE" mask="url(#mask-4)" />
                <path d="M69.2943739,277.16269 L127.595278,277.16269 L127.595278,272.903732 L69.2943739,272.903732 L69.2943739,277.16269 Z M67.3590742,279.096821 L129.530578,279.096821 L129.530578,270.9696 L67.3590742,270.9696 L67.3590742,279.096821 Z" id="Fill-230" fill="#FEFEFE" mask="url(#mask-4)" />
                <path d="M74.6970856,277.16269 L122.192566,277.16269 L122.192566,272.903732 L74.6970856,272.903732 L74.6970856,277.16269 Z M72.7617859,279.096821 L124.127866,279.096821 L124.127866,270.9696 L72.7617859,270.9696 L72.7617859,279.096821 Z" id="Fill-231" fill="#FEFEFE" mask="url(#mask-4)" />
                <path d="M82.8414719,277.16269 L114.04818,277.16269 L114.04818,272.903732 L82.8414719,272.903732 L82.8414719,277.16269 Z M80.9061722,279.096821 L115.98348,279.096821 L115.98348,270.9696 L80.9061722,270.9696 L80.9061722,279.096821 Z" id="Fill-232" fill="#FEFEFE" mask="url(#mask-4)" />
                <path d="M87.5345737,277.16269 L109.355078,277.16269 L109.355078,272.903732 L87.5345737,272.903732 L87.5345737,277.16269 Z M85.599274,279.096821 L111.290378,279.096821 L111.290378,270.9696 L85.599274,270.9696 L85.599274,279.096821 Z" id="Fill-233" fill="#FEFEFE" mask="url(#mask-4)" />
                <path d="M59.6985128,281.759154 L137.191139,281.759154 L137.191139,279.096821 L59.6985128,279.096821 L59.6985128,281.759154 Z M57.7632131,283.693285 L139.126439,283.693285 L139.126439,277.16269 L57.7632131,277.16269 L57.7632131,283.693285 Z" id="Fill-234" fill="#FEFEFE" mask="url(#mask-4)" />
                <path d="M61.5531751,287.952566 L135.336477,287.952566 L135.336477,283.693285 L61.5531751,283.693285 L61.5531751,287.952566 Z M59.6178754,289.886698 L137.271776,289.886698 L137.271776,281.759154 L59.6178754,281.759154 L59.6178754,289.886698 Z" id="Fill-235" fill="#FEFEFE" mask="url(#mask-4)" />
                <path d="M69.2943739,287.952566 L127.595278,287.952566 L127.595278,283.693285 L69.2943739,283.693285 L69.2943739,287.952566 Z M67.3590742,289.886698 L129.530578,289.886698 L129.530578,281.759154 L67.3590742,281.759154 L67.3590742,289.886698 Z" id="Fill-236" fill="#FEFEFE" mask="url(#mask-4)" />
                <path d="M74.6970856,287.952566 L122.192566,287.952566 L122.192566,283.693285 L74.6970856,283.693285 L74.6970856,287.952566 Z M72.7617859,289.886698 L124.127866,289.886698 L124.127866,281.759154 L72.7617859,281.759154 L72.7617859,289.886698 Z" id="Fill-237" fill="#FEFEFE" mask="url(#mask-4)" />
                <path d="M82.8414719,287.952566 L114.04818,287.952566 L114.04818,283.693285 L82.8414719,283.693285 L82.8414719,287.952566 Z M80.9061722,289.886698 L115.98348,289.886698 L115.98348,281.759154 L80.9061722,281.759154 L80.9061722,289.886698 Z" id="Fill-238" fill="#FEFEFE" mask="url(#mask-4)" />
                <path d="M87.5345737,287.952566 L109.355078,287.952566 L109.355078,283.693285 L87.5345737,283.693285 L87.5345737,287.952566 Z M85.599274,289.886698 L111.290378,289.886698 L111.290378,281.759154 L85.599274,281.759154 L85.599274,289.886698 Z" id="Fill-239" fill="#FEFEFE" mask="url(#mask-4)" />
                <path d="M59.6985128,292.657664 L137.191139,292.657664 L137.191139,289.995331 L59.6985128,289.995331 L59.6985128,292.657664 Z M57.7632131,294.591795 L139.126439,294.591795 L139.126439,288.0612 L57.7632131,288.0612 L57.7632131,294.591795 Z" id="Fill-240" fill="#FEFEFE" mask="url(#mask-4)" />
                <path d="M61.5531751,298.851076 L135.336477,298.851076 L135.336477,294.591795 L61.5531751,294.591795 L61.5531751,298.851076 Z M59.6178754,300.785208 L137.271776,300.785208 L137.271776,292.657664 L59.6178754,292.657664 L59.6178754,300.785208 Z" id="Fill-241" fill="#FEFEFE" mask="url(#mask-4)" />
                <path d="M69.2943739,298.851076 L127.595278,298.851076 L127.595278,294.591795 L69.2943739,294.591795 L69.2943739,298.851076 Z M67.3590742,300.785208 L129.530578,300.785208 L129.530578,292.657664 L67.3590742,292.657664 L67.3590742,300.785208 Z" id="Fill-242" fill="#FEFEFE" mask="url(#mask-4)" />
                <path d="M74.6970856,298.851076 L122.192566,298.851076 L122.192566,294.591795 L74.6970856,294.591795 L74.6970856,298.851076 Z M72.7617859,300.785208 L124.127866,300.785208 L124.127866,292.657664 L72.7617859,292.657664 L72.7617859,300.785208 Z" id="Fill-243" fill="#FEFEFE" mask="url(#mask-4)" />
                <path d="M82.8414719,298.851076 L114.04818,298.851076 L114.04818,294.591795 L82.8414719,294.591795 L82.8414719,298.851076 Z M80.9061722,300.785208 L115.98348,300.785208 L115.98348,292.657664 L80.9061722,292.657664 L80.9061722,300.785208 Z" id="Fill-244" fill="#FEFEFE" mask="url(#mask-4)" />
                <path d="M87.5345737,298.851076 L109.355078,298.851076 L109.355078,294.591795 L87.5345737,294.591795 L87.5345737,298.851076 Z M85.599274,300.785208 L111.290378,300.785208 L111.290378,292.657664 L85.599274,292.657664 L85.599274,300.785208 Z" id="Fill-245" fill="#FEFEFE" mask="url(#mask-4)" />
                <path d="M59.6985128,303.447218 L137.191139,303.447218 L137.191139,300.784885 L59.6985128,300.784885 L59.6985128,303.447218 Z M57.7632131,305.381349 L139.126439,305.381349 L139.126439,298.850753 L57.7632131,298.850753 L57.7632131,305.381349 Z" id="Fill-246" fill="#FEFEFE" mask="url(#mask-4)" />
                <path d="M61.5531751,309.64063 L135.336477,309.64063 L135.336477,305.381349 L61.5531751,305.381349 L61.5531751,309.64063 Z M59.6178754,311.574761 L137.271776,311.574761 L137.271776,303.447218 L59.6178754,303.447218 L59.6178754,311.574761 Z" id="Fill-247" fill="#FEFEFE" mask="url(#mask-4)" />
                <path d="M69.2943739,309.64063 L127.595278,309.64063 L127.595278,305.381349 L69.2943739,305.381349 L69.2943739,309.64063 Z M67.3590742,311.574761 L129.530578,311.574761 L129.530578,303.447218 L67.3590742,303.447218 L67.3590742,311.574761 Z" id="Fill-248" fill="#FEFEFE" mask="url(#mask-4)" />
                <path d="M74.6970856,309.64063 L122.192566,309.64063 L122.192566,305.381349 L74.6970856,305.381349 L74.6970856,309.64063 Z M72.7617859,311.574761 L124.127866,311.574761 L124.127866,303.447218 L72.7617859,303.447218 L72.7617859,311.574761 Z" id="Fill-249" fill="#FEFEFE" mask="url(#mask-4)" />
                <path d="M82.8414719,309.64063 L114.04818,309.64063 L114.04818,305.381349 L82.8414719,305.381349 L82.8414719,309.64063 Z M80.9061722,311.574761 L115.98348,311.574761 L115.98348,303.447218 L80.9061722,303.447218 L80.9061722,311.574761 Z" id="Fill-250" fill="#FEFEFE" mask="url(#mask-4)" />
                <path d="M87.5345737,309.64063 L109.355078,309.64063 L109.355078,305.381349 L87.5345737,305.381349 L87.5345737,309.64063 Z M85.599274,311.574761 L111.290378,311.574761 L111.290378,303.447218 L85.599274,303.447218 L85.599274,311.574761 Z" id="Fill-251" fill="#FEFEFE" mask="url(#mask-4)" />
                <path d="M59.6985128,314.345728 L137.191139,314.345728 L137.191139,311.683395 L59.6985128,311.683395 L59.6985128,314.345728 Z M57.7632131,316.279859 L139.126439,316.279859 L139.126439,309.749263 L57.7632131,309.749263 L57.7632131,316.279859 Z" id="Fill-252" fill="#FEFEFE" mask="url(#mask-4)" />
                <path d="M61.5531751,320.53914 L135.336477,320.53914 L135.336477,316.279859 L61.5531751,316.279859 L61.5531751,320.53914 Z M59.6178754,322.473271 L137.271776,322.473271 L137.271776,314.345728 L59.6178754,314.345728 L59.6178754,322.473271 Z" id="Fill-253" fill="#FEFEFE" mask="url(#mask-4)" />
                <path d="M69.2943739,320.53914 L127.595278,320.53914 L127.595278,316.279859 L69.2943739,316.279859 L69.2943739,320.53914 Z M67.3590742,322.473271 L129.530578,322.473271 L129.530578,314.345728 L67.3590742,314.345728 L67.3590742,322.473271 Z" id="Fill-254" fill="#FEFEFE" mask="url(#mask-4)" />
                <path d="M74.6970856,320.53914 L122.192566,320.53914 L122.192566,316.279859 L74.6970856,316.279859 L74.6970856,320.53914 Z M72.7617859,322.473271 L124.127866,322.473271 L124.127866,314.345728 L72.7617859,314.345728 L72.7617859,322.473271 Z" id="Fill-255" fill="#FEFEFE" mask="url(#mask-4)" />
                <path d="M82.8414719,320.53914 L114.04818,320.53914 L114.04818,316.279859 L82.8414719,316.279859 L82.8414719,320.53914 Z M80.9061722,322.473271 L115.98348,322.473271 L115.98348,314.345728 L80.9061722,314.345728 L80.9061722,322.473271 Z" id="Fill-256" fill="#FEFEFE" mask="url(#mask-4)" />
                <path d="M87.5345737,320.53914 L109.355078,320.53914 L109.355078,316.279859 L87.5345737,316.279859 L87.5345737,320.53914 Z M85.599274,322.473271 L111.290378,322.473271 L111.290378,314.345728 L85.599274,314.345728 L85.599274,322.473271 Z" id="Fill-257" fill="#FEFEFE" mask="url(#mask-4)" />
                <path d="M36.0940815,238.140518 C36.4911405,238.684331 36.6395135,239.400605 36.5388779,240.07465 L41.3697086,240.07465 L41.3697086,321.065772 L1.93539648,321.065772 L1.93539648,240.07465 L7.5319607,240.07465 C7.5442176,239.942484 7.56453825,239.807417 7.59937364,239.667515 C7.72645833,239.151747 7.84547926,238.656931 7.90611865,238.140518 L9.67649857e-05,238.140518 L9.67649857e-05,322.999903 L43.3050083,322.999903 L43.3050083,238.140518 L36.0940815,238.140518 Z" id="Fill-258" fill="#FEFEFE" mask="url(#mask-4)" />
                <path d="M8.25437583,321.065868 L10.6257631,321.065868 L10.6257631,231.752822 L8.25437583,231.752822 L8.25437583,321.065868 Z M6.31907612,323 L12.5610628,323 L12.5610628,229.818691 L6.31907612,229.818691 L6.31907612,323 Z" id="Fill-259" fill="#FEFEFE" mask="url(#mask-4)" />
                <path d="M32.679471,321.065868 L35.0508582,321.065868 L35.0508582,231.752822 L32.679471,231.752822 L32.679471,321.065868 Z M30.7438487,323 L36.9858354,323 L36.9858354,229.818691 L30.7438487,229.818691 L30.7438487,323 Z" id="Fill-260" fill="#FEFEFE" mask="url(#mask-4)" />
                <path d="M12.5610628,321.065868 L30.7441713,321.065868 L30.7441713,236.690016 L12.5610628,236.690016 L12.5610628,321.065868 Z M10.6257631,323 L32.679471,323 L32.679471,234.755884 L10.6257631,234.755884 L10.6257631,323 Z" id="Fill-261" fill="#FEFEFE" mask="url(#mask-4)" />
                <path d="M17.0951475,321.065868 L26.209764,321.065868 L26.209764,245.269824 L17.0951475,245.269824 L17.0951475,321.065868 Z M15.1598478,323 L28.1450637,323 L28.1450637,243.335693 L15.1598478,243.335693 L15.1598478,323 Z" id="Fill-262" fill="#FEFEFE" mask="url(#mask-4)" />
                <path d="M17.0951475,251.170538 L26.209764,251.170538 L26.209764,248.796714 L17.0951475,248.796714 L17.0951475,251.170538 Z M15.1598478,253.10467 L28.1450637,253.10467 L28.1450637,246.862582 L15.1598478,246.862582 L15.1598478,253.10467 Z" id="Fill-263" fill="#FEFEFE" mask="url(#mask-4)" />
                <path d="M17.0951475,259.427991 L26.209764,259.427991 L26.209764,257.054167 L17.0951475,257.054167 L17.0951475,259.427991 Z M15.1598478,261.362123 L28.1450637,261.362123 L28.1450637,255.120035 L15.1598478,255.120035 L15.1598478,261.362123 Z" id="Fill-264" fill="#FEFEFE" mask="url(#mask-4)" />
                <path d="M17.0951475,267.685122 L26.209764,267.685122 L26.209764,265.31162 L17.0951475,265.31162 L17.0951475,267.685122 Z M15.1598478,269.619253 L28.1450637,269.619253 L28.1450637,263.377488 L15.1598478,263.377488 L15.1598478,269.619253 Z" id="Fill-265" fill="#FEFEFE" mask="url(#mask-4)" />
                <path d="M17.0951475,275.942575 L26.209764,275.942575 L26.209764,273.56875 L17.0951475,273.56875 L17.0951475,275.942575 Z M15.1598478,277.876707 L28.1450637,277.876707 L28.1450637,271.634619 L15.1598478,271.634619 L15.1598478,277.876707 Z" id="Fill-266" fill="#FEFEFE" mask="url(#mask-4)" />
                <path d="M17.0951475,284.20035 L26.209764,284.20035 L26.209764,281.826526 L17.0951475,281.826526 L17.0951475,284.20035 Z M15.1598478,286.134482 L28.1450637,286.134482 L28.1450637,279.892394 L15.1598478,279.892394 L15.1598478,286.134482 Z" id="Fill-267" fill="#FEFEFE" mask="url(#mask-4)" />
                <path d="M17.0951475,292.457481 L26.209764,292.457481 L26.209764,290.083979 L17.0951475,290.083979 L17.0951475,292.457481 Z M15.1598478,294.391613 L28.1450637,294.391613 L28.1450637,288.149847 L15.1598478,288.149847 L15.1598478,294.391613 Z" id="Fill-268" fill="#FEFEFE" mask="url(#mask-4)" />
                <path d="M17.0951475,308.972387 L26.209764,308.972387 L26.209764,306.598563 L17.0951475,306.598563 L17.0951475,308.972387 Z M15.1598478,310.906519 L28.1450637,310.906519 L28.1450637,304.664431 L15.1598478,304.664431 L15.1598478,310.906519 Z" id="Fill-269" fill="#FEFEFE" mask="url(#mask-4)" />
                <path d="M17.0951475,300.714934 L26.209764,300.714934 L26.209764,298.34111 L17.0951475,298.34111 L17.0951475,300.714934 Z M15.1598478,302.649066 L28.1450637,302.649066 L28.1450637,296.406978 L15.1598478,296.406978 L15.1598478,302.649066 Z" id="Fill-270" fill="#FEFEFE" mask="url(#mask-4)" />
                <path d="M17.0951475,317.22984 L26.209764,317.22984 L26.209764,314.856338 L17.0951475,314.856338 L17.0951475,317.22984 Z M15.1598478,319.163972 L28.1450637,319.163972 L28.1450637,312.922207 L15.1598478,312.922207 L15.1598478,319.163972 Z" id="Fill-271" fill="#FEFEFE" mask="url(#mask-4)" />
            </g>
        </g>
    </g>
</svg>
