<?xml version="1.0" encoding="UTF-8"?>
<svg width="49px" height="55px" viewBox="0 0 49 55" version="1.1" xmlns="http://www.w3.org/2000/svg" xmlns:xlink="http://www.w3.org/1999/xlink">
    <!-- Generator: Sketch 57.1 (83088) - https://sketch.com -->
    <title>Page 1 Copy 7</title>
    <desc>Created with Sketch.</desc>
    <defs>
        <polygon id="path-1" points="0 54.9168647 49 54.9168647 49 0 0 0"></polygon>
    </defs>
    <g id="landing-toronto" stroke="none" stroke-width="1" fill="none" fill-rule="evenodd">
        <g id="HomeDesktop_Toronto-Copy-5" transform="translate(-158.000000, -2153.000000)">
            <g id="paquete-1-copy-3" transform="translate(44.000000, 1576.000000)">
                <g id="actividades" transform="translate(112.000000, 317.000000)">
                    <g id="Page-1-Copy-7" transform="translate(2.000000, 260.000000)">
                        <path d="M48.2767528,54.9168647 L0.723247232,54.9168647 C0.323833948,54.9168647 0,54.5917657 0,54.1907921 C0,53.7898185 0.323833948,53.4647195 0.723247232,53.4647195 L48.2767528,53.4647195 C48.6761661,53.4647195 49,53.7898185 49,54.1907921 C49,54.5917657 48.6761661,54.9168647 48.2767528,54.9168647 Z" id="Fill-1" fill="#FEFEFE"></path>
                        <polygon id="Fill-3" fill="#FEFEFE" points="46.8302583 53.1016832 45.3837638 53.1016832 45.3837638 50.560429 3.79704797 50.560429 3.79704797 53.1016832 2.35055351 53.1016832 2.35055351 49.1082838 46.8302583 49.1082838"></polygon>
                        <mask id="mask-2" fill="white">
                            <use xlink:href="#path-1"></use>
                        </mask>
                        <g id="Clip-6"></g>
                        <polygon id="Fill-5" fill="#FEFEFE" mask="url(#mask-2)" points="5.24354244 53.1016832 6.6900369 53.1016832 6.6900369 49.8343564 5.24354244 49.8343564"></polygon>
                        <polygon id="Fill-7" fill="#FEFEFE" mask="url(#mask-2)" points="8.67896679 53.1016832 10.1254613 53.1016832 10.1254613 49.8343564 8.67896679 49.8343564"></polygon>
                        <polygon id="Fill-8" fill="#FEFEFE" mask="url(#mask-2)" points="12.1143911 53.1016832 13.5608856 53.1016832 13.5608856 49.8343564 12.1143911 49.8343564"></polygon>
                        <polygon id="Fill-9" fill="#FEFEFE" mask="url(#mask-2)" points="15.3690037 53.1016832 16.8154982 53.1016832 16.8154982 50.0158746 15.3690037 50.0158746"></polygon>
                        <polygon id="Fill-10" fill="#FEFEFE" mask="url(#mask-2)" points="18.804428 53.1016832 20.2509225 53.1016832 20.2509225 50.0158746 18.804428 50.0158746"></polygon>
                        <polygon id="Fill-11" fill="#FEFEFE" mask="url(#mask-2)" points="22.2398524 53.1016832 23.6863469 53.1016832 23.6863469 50.0158746 22.2398524 50.0158746"></polygon>
                        <polygon id="Fill-12" fill="#FEFEFE" mask="url(#mask-2)" points="25.4944649 53.1016832 26.9409594 53.1016832 26.9409594 50.0158746 25.4944649 50.0158746"></polygon>
                        <polygon id="Fill-13" fill="#FEFEFE" mask="url(#mask-2)" points="28.9298893 53.1016832 30.3763838 53.1016832 30.3763838 50.0158746 28.9298893 50.0158746"></polygon>
                        <polygon id="Fill-14" fill="#FEFEFE" mask="url(#mask-2)" points="32.3653137 53.1016832 33.8118081 53.1016832 33.8118081 50.0158746 32.3653137 50.0158746"></polygon>
                        <polygon id="Fill-15" fill="#FEFEFE" mask="url(#mask-2)" points="35.6199262 53.1016832 37.0664207 53.1016832 37.0664207 50.0158746 35.6199262 50.0158746"></polygon>
                        <polygon id="Fill-16" fill="#FEFEFE" mask="url(#mask-2)" points="39.0553506 53.1016832 40.501845 53.1016832 40.501845 50.1973927 39.0553506 50.1973927"></polygon>
                        <polygon id="Fill-17" fill="#FEFEFE" mask="url(#mask-2)" points="42.4907749 53.1016832 43.9372694 53.1016832 43.9372694 50.1973927 42.4907749 50.1973927"></polygon>
                        <path d="M18.9852399,34.0422772 L12.4760148,34.0422772 C12.0766015,34.0422772 11.7527675,33.7171782 11.7527675,33.3162046 C11.7527675,32.915231 12.0766015,32.590132 12.4760148,32.590132 L18.9852399,32.590132 C19.3846531,32.590132 19.7084871,32.915231 19.7084871,33.3162046 C19.7084871,33.7171782 19.3846531,34.0422772 18.9852399,34.0422772" id="Fill-18" fill="#FEFEFE" mask="url(#mask-2)"></path>
                        <path d="M5.78597786,50.560429 C5.38656458,50.560429 5.06273063,50.23533 5.06273063,49.8343564 L5.06273063,37.7868152 C5.06273063,37.5468482 5.18080074,37.3223102 5.37824723,37.1870792 L11.769583,32.8083168 C12.0073506,32.6449505 12.3192509,32.639505 12.5629852,32.7937954 L19.1239225,36.9465677 L30.2789262,36.9465677 L25.5859557,34.0422772 L21.8782288,34.0422772 C21.4788155,34.0422772 21.1549815,33.7171782 21.1549815,33.3162046 C21.1549815,32.915231 21.4788155,32.590132 21.8782288,32.590132 L25.7909963,32.590132 C25.9249779,32.590132 26.0562472,32.6275248 26.1703395,32.6981353 L33.2098856,37.054571 C33.485262,37.2250165 33.6143616,37.5582838 33.5263063,37.8706766 C33.4380701,38.1830693 33.1538339,38.3987129 32.8303616,38.3987129 L18.9149041,38.3987129 C18.7783911,38.3987129 18.6445904,38.359868 18.5292325,38.2868977 L12.1930443,34.2762541 L6.50922509,38.170363 L6.50922509,49.8343564 C6.50922509,50.23533 6.18539114,50.560429 5.78597786,50.560429" id="Fill-19" fill="#FEFEFE" mask="url(#mask-2)"></path>
                        <path d="M32.1845018,50.0158746 C31.7850886,50.0158746 31.4612546,49.6907756 31.4612546,49.289802 L31.4612546,38.2171947 C31.4612546,37.8162211 31.7850886,37.4911221 32.1845018,37.4911221 C32.5839151,37.4911221 32.9077491,37.8162211 32.9077491,38.2171947 L32.9077491,49.289802 C32.9077491,49.6907756 32.5839151,50.0158746 32.1845018,50.0158746" id="Fill-20" fill="#FEFEFE" mask="url(#mask-2)"></path>
                        <path d="M22.601476,42.3921122 L24.0479705,42.3921122 L24.0479705,38.9432673 L22.601476,38.9432673 L22.601476,42.3921122 Z M21.1549815,43.8442574 L25.4944649,43.8442574 L25.4944649,37.4911221 L21.1549815,37.4911221 L21.1549815,43.8442574 Z" id="Fill-21" fill="#FEFEFE" mask="url(#mask-2)"></path>
                        <path d="M27.4833948,42.3921122 L28.9298893,42.3921122 L28.9298893,38.9432673 L27.4833948,38.9432673 L27.4833948,42.3921122 Z M26.0369004,43.8442574 L30.3763838,43.8442574 L30.3763838,37.4911221 L26.0369004,37.4911221 L26.0369004,43.8442574 Z" id="Fill-22" fill="#FEFEFE" mask="url(#mask-2)"></path>
                        <path d="M22.601476,49.1082838 L24.0479705,49.1082838 L24.0479705,45.8409571 L22.601476,45.8409571 L22.601476,49.1082838 Z M21.1549815,50.560429 L25.4944649,50.560429 L25.4944649,44.3888119 L21.1549815,44.3888119 L21.1549815,50.560429 Z" id="Fill-23" fill="#FEFEFE" mask="url(#mask-2)"></path>
                        <path d="M27.4833948,49.1082838 L28.9298893,49.1082838 L28.9298893,45.8409571 L27.4833948,45.8409571 L27.4833948,49.1082838 Z M26.0369004,50.560429 L30.3763838,50.560429 L30.3763838,44.3888119 L26.0369004,44.3888119 L26.0369004,50.560429 Z" id="Fill-24" fill="#FEFEFE" mask="url(#mask-2)"></path>
                        <path d="M19.5276753,33.0043927 L20.7933579,33.5877921 L20.7933579,31.8640957 L19.5276753,31.8640957 L19.5276753,33.0043927 Z M21.341941,35.3661254 C21.2412288,35.3661254 21.1385277,35.3448878 21.0407085,35.2996898 L18.5026531,34.1298053 C18.2457196,34.011637 18.0811808,33.7538812 18.0811808,33.4701683 L18.0811808,31.1380231 C18.0811808,30.7370495 18.4050148,30.4119505 18.804428,30.4119505 L21.5166052,30.4119505 C21.9160185,30.4119505 22.2398524,30.7370495 22.2398524,31.1380231 L22.2398524,34.586868 C22.2398524,34.9464554 21.9793026,35.2452343 21.6373875,35.3027756 C21.5449926,35.3441617 21.4444613,35.3661254 21.341941,35.3661254 L21.341941,35.3661254 Z" id="Fill-25" fill="#FEFEFE" mask="url(#mask-2)"></path>
                        <path d="M29.7062771,36.5650891 C29.7012144,36.5650891 29.6959708,36.5650891 29.6910889,36.5649076 C29.2916756,36.5567393 28.9745317,36.2249241 28.9828491,35.824132 L29.3332624,18.7445446 L28.865683,17.1243135 C28.754303,16.7389505 28.975255,16.3365248 29.3589376,16.2247096 C29.7422587,16.113802 30.1436609,16.3348911 30.2548601,16.7200726 L30.7533583,18.4468548 C30.7736092,18.5172838 30.7833731,18.5904356 30.7817458,18.663769 L30.4289819,35.853901 C30.4208454,36.2497921 30.0986387,36.5650891 29.7062771,36.5650891" id="Fill-26" fill="#FEFEFE" mask="url(#mask-2)"></path>
                        <path d="M37.9418753,49.8804439 C37.5495137,49.8804439 37.2274878,49.5655099 37.2191705,49.1696188 L36.5774694,18.6640413 C36.5756613,18.5787277 36.5890413,18.4934142 36.6167055,18.4124571 L37.2584066,16.541731 C37.3884103,16.1625396 37.7992148,15.9608729 38.1778347,16.091566 C38.5555506,16.2222591 38.7560708,16.6355759 38.6260672,17.0145858 L38.0263144,18.7627871 L38.6653033,49.1391238 C38.6738015,49.5399158 38.3568384,49.871731 37.9574251,49.8802624 C37.9523624,49.8804439 37.9471188,49.8804439 37.9418753,49.8804439" id="Fill-27" fill="#FEFEFE" mask="url(#mask-2)"></path>
                        <path d="M32.1845018,23.5142244 C31.7850886,23.5142244 31.4612546,23.1891254 31.4612546,22.7881518 L31.4612546,21.3360066 C31.4612546,20.935033 31.7850886,20.609934 32.1845018,20.609934 C32.5839151,20.609934 32.9077491,20.935033 32.9077491,21.3360066 L32.9077491,22.7881518 C32.9077491,23.1891254 32.5839151,23.5142244 32.1845018,23.5142244" id="Fill-28" fill="#FEFEFE" mask="url(#mask-2)"></path>
                        <polygon id="Fill-29" fill="#FEFEFE" mask="url(#mask-2)" points="34.3542435 39.3063036 35.800738 39.3063036 35.800738 36.7650495 34.3542435 36.7650495"></polygon>
                        <path d="M35.0774908,38.580231 C34.6780775,38.580231 34.3542435,38.255132 34.3542435,37.8541584 L34.3542435,36.7650495 C34.3542435,36.3640759 34.6780775,36.0389769 35.0774908,36.0389769 C35.4769041,36.0389769 35.800738,36.3640759 35.800738,36.7650495 L35.800738,37.8541584 C35.800738,38.255132 35.4769041,38.580231 35.0774908,38.580231" id="Fill-30" fill="#FEFEFE" mask="url(#mask-2)"></path>
                        <polygon id="Fill-31" fill="#FEFEFE" mask="url(#mask-2)" points="28.3874539 17.5241254 38.8745387 17.5241254 38.8745387 16.0719802 28.3874539 16.0719802"></polygon>
                        <polygon id="Fill-32" fill="#FEFEFE" mask="url(#mask-2)" points="37.9704797 17.1610891 36.5239852 17.1610891 36.5239852 14.9828713 30.7380074 14.9828713 30.7380074 17.1610891 29.2915129 17.1610891 29.2915129 13.5307261 37.9704797 13.5307261"></polygon>
                        <polygon id="Fill-33" fill="#FEFEFE" mask="url(#mask-2)" points="36.8856089 14.2567987 35.4391144 14.2567987 35.4391144 10.5819637 33.8412804 9.19534653 32.1845018 10.6347855 32.1845018 14.2567987 30.7380074 14.2567987 30.7380074 9.97115512 33.8409188 7.27561056 36.8856089 9.9179703"></polygon>
                        <path d="M33.6309963,8.81125413 C33.231583,8.81125413 32.9077491,8.48615512 32.9077491,8.08518152 L32.9077491,5.9069637 C32.9077491,5.5059901 33.231583,5.18089109 33.6309963,5.18089109 C34.0304096,5.18089109 34.3542435,5.5059901 34.3542435,5.9069637 L34.3542435,8.08518152 C34.3542435,8.48615512 34.0304096,8.81125413 33.6309963,8.81125413" id="Fill-34" fill="#FEFEFE" mask="url(#mask-2)"></path>
                        <path d="M35.9815498,11.5340264 L31.4612546,11.5340264 C31.0618413,11.5340264 30.7380074,11.2089274 30.7380074,10.8079538 C30.7380074,10.4069802 31.0618413,10.0818812 31.4612546,10.0818812 L35.9815498,10.0818812 C36.3809631,10.0818812 36.704797,10.4069802 36.704797,10.8079538 C36.704797,11.2089274 36.3809631,11.5340264 35.9815498,11.5340264" id="Fill-35" fill="#FEFEFE" mask="url(#mask-2)"></path>
                        <polygon id="Fill-36" fill="#FEFEFE" mask="url(#mask-2)" points="18.2619926 50.560429 19.7084871 50.560429 19.7084871 36.9465677 18.2619926 36.9465677"></polygon>
                        <polygon id="Fill-37" fill="#FEFEFE" mask="url(#mask-2)" points="4.50563137 39.6815743 3.66847269 38.4973498 6.79362399 36.2708482 7.63078266 37.4550726"></polygon>
                        <path d="M31.8850232,0.76330198 C31.8651339,0.361965347 32.172514,0.0207112211 32.5703,0.000925742574 C32.9698941,-0.0192227723 33.3098203,0.287724422 33.3297096,0.688879538 C33.351407,1.08803795 33.0440269,1.43128878 32.6444328,1.45107426 L32.6064624,1.45107426 C32.2249494,1.45107426 31.9049125,1.15175083 31.8850232,0.76330198 L31.8850232,0.76330198 Z M35.35661,1.62732838 C34.9642483,1.5545396 34.7038793,1.17698185 34.7762041,0.781453795 C34.8485288,0.387559406 35.2246173,0.125991749 35.6187871,0.198780528 C36.0111487,0.271206271 36.2715177,0.650760726 36.199193,1.04465512 C36.1341007,1.39498515 35.8303369,1.63985314 35.4886026,1.63985314 C35.4452077,1.63985314 35.4000048,1.63640429 35.35661,1.62732838 L35.35661,1.62732838 Z M29.0697834,1.42021617 C28.9576801,1.03557921 29.1746542,0.630793729 29.5579753,0.518070957 C29.9412963,0.40389604 30.3445066,0.623533003 30.45661,1.00835149 C30.5705214,1.39316997 30.3517391,1.79595875 29.9684181,1.91031518 C29.8997096,1.9304637 29.8310011,1.9395396 29.7622926,1.9395396 C29.4512963,1.9395396 29.1638055,1.73442409 29.0697834,1.42021617 L29.0697834,1.42021617 Z M37.9494513,2.43508416 L37.9494513,2.43508416 C37.5860196,2.27171782 37.4214808,1.84133828 37.5842114,1.47485314 C37.7469421,1.10982013 38.1736579,0.944820132 38.5388978,1.10800495 C38.9041376,1.27155281 39.0668683,1.69975413 38.9059458,2.06660231 C38.7848018,2.33706436 38.5208166,2.49680033 38.2441745,2.49680033 C38.1465362,2.49680033 38.0452815,2.47665182 37.9494513,2.43508416 L37.9494513,2.43508416 Z M26.4859827,2.72170132 C26.2870897,2.37318647 26.4046173,1.9304637 26.7499679,1.72879703 C27.0971266,1.52930858 27.5383074,1.64711386 27.7390085,1.99381353 C27.9379015,2.3405132 27.8203738,2.78541419 27.4750232,2.98689934 C27.3611118,3.05206436 27.2363517,3.08292244 27.1133996,3.08292244 C26.8638793,3.08292244 26.6215915,2.95404455 26.4859827,2.72170132 L26.4859827,2.72170132 Z M40.2837317,3.82914356 L40.2837317,3.82914356 C39.9673111,3.58590924 39.9076432,3.12830198 40.149931,2.81064521 C40.3940269,2.49298845 40.8478646,2.43308746 41.1642852,2.67831848 C41.4807059,2.92155281 41.5403738,3.37698185 41.298086,3.6964538 C41.1552446,3.88178383 40.9400786,3.97980363 40.7231044,3.97980363 C40.5694144,3.97980363 40.4157244,3.93061221 40.2837317,3.82914356 L40.2837317,3.82914356 Z M24.2764624,4.5915198 C24.0016284,4.30090924 24.0142852,3.83985314 24.3035841,3.56412706 C24.5946911,3.28803795 25.052145,3.30092574 25.326979,3.59117327 C25.6018129,3.88341749 25.5891561,4.34283993 25.2998572,4.61856601 C25.158824,4.75125578 24.9798203,4.81642079 24.8008166,4.81642079 C24.6109642,4.81642079 24.4193037,4.74217987 24.2764624,4.5915198 L24.2764624,4.5915198 Z M42.2310749,5.73127228 C41.9779384,5.42087624 42.0267576,4.96363201 42.3359458,4.71132178 C42.6451339,4.45883003 43.1007797,4.50602475 43.3539162,4.81642079 C43.6052446,5.12881353 43.5582336,5.58605776 43.2472373,5.8385495 C43.1134365,5.9474604 42.952514,6.00010066 42.7915915,6.00010066 C42.5818498,6.00010066 42.3739162,5.90934158 42.2310749,5.73127228 L42.2310749,5.73127228 Z M22.5587502,6.92566172 C22.2242483,6.70602475 22.1302262,6.25604125 22.3472004,5.92005116 C22.5659827,5.58442409 23.0145768,5.48985314 23.3488978,5.70767492 C23.6833996,5.92731188 23.7774218,6.37765842 23.5604476,6.71328548 C23.4212225,6.92765842 23.1897834,7.04383003 22.9529199,7.04383003 C22.8173111,7.04383003 22.6817022,7.00571122 22.5587502,6.92566172 L22.5587502,6.92566172 Z M43.6829937,8.03491914 L43.6829937,8.03491914 C43.5094144,7.6735165 43.6612963,7.23986964 44.0229199,7.06742739 C44.3827354,6.89316997 44.8148756,7.0454637 44.9866469,7.4085 C45.1602262,7.76990264 45.0065362,8.2035495 44.6467207,8.37599175 C44.5454661,8.42518317 44.4405952,8.44678383 44.3357244,8.44678383 C44.0645066,8.44678383 43.8059458,8.29630528 43.6829937,8.03491914 L43.6829937,8.03491914 Z M21.4324734,9.59779043 C21.0562041,9.463467 20.8591192,9.04942409 20.9929199,8.67186634 C21.1267207,8.29267492 21.5389716,8.09482013 21.9168683,8.22914356 C22.2929568,8.36328548 22.4900417,8.77896205 22.356241,9.1565198 C22.2513701,9.45439109 21.9711118,9.63935809 21.6745804,9.63935809 C21.5932151,9.63935809 21.5118498,9.62665182 21.4324734,9.59779043 L21.4324734,9.59779043 Z M44.5563148,10.6142921 C44.4731413,10.2220314 44.7226616,9.83721287 45.1132151,9.75371452 C45.5037686,9.67021617 45.8888978,9.92071122 45.9720712,10.3127904 C46.0552446,10.7050512 45.8057244,11.0915033 45.4151708,11.1750017 C45.3645435,11.1840776 45.3139162,11.1895231 45.2632889,11.1895231 C44.9287871,11.1895231 44.6286395,10.9553647 44.5563148,10.6142921 L44.5563148,10.6142921 Z M20.9621819,12.4619653 C20.5643959,12.4203977 20.2769052,12.0646221 20.3184919,11.6652822 C20.3600786,11.2657607 20.7144697,10.9773284 21.1122557,11.0170809 C21.5100417,11.0608267 21.7975325,11.4164208 21.7559458,11.8159422 C21.7179753,12.1896881 21.4033627,12.4657772 21.0381229,12.4657772 C21.0128092,12.4657772 20.9874956,12.4657772 20.9621819,12.4619653 L20.9621819,12.4619653 Z M45.5110011,14.0738465 C45.111407,14.0647706 44.7949863,13.7307772 44.8058351,13.3298036 C44.8148756,12.9302822 45.1457613,12.6126254 45.5471635,12.6217013 C45.9449494,12.6327739 46.2613701,12.9649521 46.2523295,13.3661073 C46.2414808,13.7600017 45.9196358,14.0738465 45.5290823,14.0738465 L45.5110011,14.0738465 Z M20.3546542,14.7309422 C20.3040269,14.3317838 20.5842852,13.9687475 20.9804439,13.9179224 C21.376241,13.8652822 21.7378646,14.1466353 21.7903,14.5441601 C21.8409273,14.9415033 21.560669,15.3063548 21.1646911,15.3571799 C21.1339531,15.3609917 21.101407,15.3628069 21.0708498,15.3628069 C20.7126616,15.3628069 20.4016653,15.0959752 20.3546542,14.7309422 L20.3546542,14.7309422 Z M44.9342114,16.9184175 C44.5490823,16.8149521 44.3194513,16.4172459 44.4207059,16.0289785 C44.5237686,15.6423449 44.9197465,15.4116353 45.3066838,15.5152822 C45.6918129,15.6167508 45.9214439,16.0160908 45.8201893,16.4027244 C45.7333996,16.7276419 45.4404845,16.9420149 45.1204476,16.9420149 C45.0589716,16.9420149 44.9974956,16.9347541 44.9342114,16.9184175 L44.9342114,16.9184175 Z M21.1032151,17.7062063 C20.9603738,17.3320974 21.14661,16.9111568 21.5190823,16.7677574 C21.8915546,16.6243581 22.311038,16.8111403 22.4538793,17.1870644 C22.5967207,17.5608102 22.4104845,17.9802987 22.0362041,18.123698 C21.9512225,18.1561898 21.8644328,18.1725264 21.7776432,18.1725264 C21.4865362,18.1725264 21.2135103,17.9948201 21.1032151,17.7062063 L21.1032151,17.7062063 Z M43.7083074,19.5468003 C43.3575325,19.3562063 43.227348,18.9151172 43.4172004,18.5629719 C43.6088609,18.20883 44.0482336,18.0783185 44.3990085,18.2705462 C44.7497834,18.4613218 44.8799679,18.9024109 44.6883074,19.2543746 L44.6901155,19.2543746 C44.5581229,19.4977904 44.3104107,19.633929 44.0536579,19.633929 C43.9361303,19.633929 43.8186026,19.6067013 43.7083074,19.5468003 L43.7083074,19.5468003 Z M22.5243959,20.4217178 L22.5243959,20.4217178 C22.2983812,20.0913548 22.3817354,19.6391931 22.7106321,19.4122954 C23.0397096,19.183764 23.489931,19.268896 23.7177539,19.5994406 C23.9419605,19.9298036 23.8587871,20.3816023 23.5297096,20.6085 C23.4049494,20.6958102 23.2621081,20.7355627 23.1210749,20.7355627 C22.8914439,20.7355627 22.6654292,20.6268333 22.5243959,20.4217178 L22.5243959,20.4217178 Z M41.9056137,21.8157772 C41.6090823,21.5471304 41.5837686,21.0878894 41.8513701,20.7900182 C42.1171635,20.4923284 42.5764255,20.4670974 42.8729568,20.7355627 C43.1694882,21.0025759 43.1948018,21.4616353 42.9272004,21.7613218 C42.784359,21.9210578 42.5872742,22.0009257 42.3883812,22.0009257 C42.21661,22.0009257 42.0430306,21.9410248 41.9056137,21.8157772 L41.9056137,21.8157772 Z M24.5368314,22.7288135 L24.5368314,22.7288135 C24.2403,22.4599851 24.2167945,22.0009257 24.4843959,21.7030545 C24.7519974,21.4055462 25.2094513,21.3819488 25.5059827,21.6504142 L25.5059827,21.6522294 C25.802514,21.9210578 25.8260196,22.378302 25.5584181,22.6761733 C25.4155768,22.8359092 25.2184919,22.9155957 25.021407,22.9155957 C24.8478277,22.9155957 24.6760565,22.8538795 24.5368314,22.7288135 L24.5368314,22.7288135 Z M39.6273849,23.6017343 C39.4013701,23.2715528 39.4827354,22.8195726 39.8118129,22.5926749 C40.1408904,22.363962 40.5911118,22.4474604 40.8171266,22.7776419 C41.0449494,23.1063713 40.9635841,23.55817 40.6345066,23.7870644 C40.5079384,23.8740116 40.365097,23.9159422 40.2240638,23.9159422 C39.9944328,23.9159422 39.7684181,23.8068498 39.6273849,23.6017343 L39.6273849,23.6017343 Z M27.0284181,24.5038795 C26.6776432,24.3116518 26.5492668,23.8705627 26.7409273,23.5200512 C26.9325878,23.1680875 27.3719605,23.0373944 27.7209273,23.2298036 C28.0717022,23.4220314 28.2018867,23.863302 28.0102262,24.2152657 C27.8782336,24.4566848 27.6305214,24.5928234 27.3737686,24.5928234 C27.256241,24.5928234 27.1387133,24.5657772 27.0284181,24.5038795 L27.0284181,24.5038795 Z M29.8653554,25.6476254 L29.8671635,25.6476254 C29.4802262,25.5423449 29.2505952,25.1446386 29.3554661,24.758005 C29.4585288,24.3697376 29.8563148,24.1408432 30.2414439,24.2443086 C30.6283812,24.3479554 30.8562041,24.7472954 30.7513332,25.133929 C30.6663517,25.4588465 30.3734365,25.6712228 30.0533996,25.6712228 C29.9919236,25.6712228 29.9286395,25.663962 29.8653554,25.6476254 L29.8653554,25.6476254 Z" id="Fill-38" fill="#FEFEFE" mask="url(#mask-2)"></path>
                    </g>
                </g>
            </g>
        </g>
    </g>
</svg>