<?xml version="1.0" encoding="utf-8"?>
<!-- Generator: Adobe Illustrator 24.0.3, SVG Export Plug-In . SVG Version: 6.00 Build 0)  -->
<svg version="1.1" id="Capa_1" xmlns="http://www.w3.org/2000/svg" xmlns:xlink="http://www.w3.org/1999/xlink" x="0px" y="0px"
	 viewBox="0 0 48 40.4" style="enable-background:new 0 0 48 40.4;" xml:space="preserve">
<style type="text/css">
	.st0{fill-rule:evenodd;clip-rule:evenodd;fill:#FEFEFE;}
	.st1{filter:url(#Adobe_OpacityMaskFilter);}
	.st2{fill-rule:evenodd;clip-rule:evenodd;fill:#FFFFFF;}
	.st3{mask:url(#mask-52_38_);fill-rule:evenodd;clip-rule:evenodd;fill:#FEFEFE;}
	.st4{filter:url(#Adobe_OpacityMaskFilter_1_);}
	.st5{mask:url(#mask-52_37_);fill-rule:evenodd;clip-rule:evenodd;fill:#FEFEFE;}
	.st6{filter:url(#Adobe_OpacityMaskFilter_2_);}
	.st7{mask:url(#mask-52_36_);fill-rule:evenodd;clip-rule:evenodd;fill:#FEFEFE;}
	.st8{filter:url(#Adobe_OpacityMaskFilter_3_);}
	.st9{mask:url(#mask-52_35_);fill-rule:evenodd;clip-rule:evenodd;fill:#FEFEFE;}
	.st10{filter:url(#Adobe_OpacityMaskFilter_4_);}
	.st11{mask:url(#mask-52_34_);fill-rule:evenodd;clip-rule:evenodd;fill:#FEFEFE;}
	.st12{filter:url(#Adobe_OpacityMaskFilter_5_);}
	.st13{mask:url(#mask-52_33_);fill-rule:evenodd;clip-rule:evenodd;fill:#FEFEFE;}
	.st14{filter:url(#Adobe_OpacityMaskFilter_6_);}
	.st15{mask:url(#mask-52_32_);fill-rule:evenodd;clip-rule:evenodd;fill:#FEFEFE;}
	.st16{filter:url(#Adobe_OpacityMaskFilter_7_);}
	.st17{mask:url(#mask-52_31_);fill-rule:evenodd;clip-rule:evenodd;fill:#FEFEFE;}
	.st18{filter:url(#Adobe_OpacityMaskFilter_8_);}
	.st19{mask:url(#mask-52_30_);fill-rule:evenodd;clip-rule:evenodd;fill:#FEFEFE;}
	.st20{filter:url(#Adobe_OpacityMaskFilter_9_);}
	.st21{mask:url(#mask-52_29_);fill-rule:evenodd;clip-rule:evenodd;fill:#FEFEFE;}
	.st22{filter:url(#Adobe_OpacityMaskFilter_10_);}
	.st23{mask:url(#mask-52_28_);fill-rule:evenodd;clip-rule:evenodd;fill:#FEFEFE;}
	.st24{filter:url(#Adobe_OpacityMaskFilter_11_);}
	.st25{mask:url(#mask-52_27_);fill-rule:evenodd;clip-rule:evenodd;fill:#FEFEFE;}
	.st26{filter:url(#Adobe_OpacityMaskFilter_12_);}
	.st27{mask:url(#mask-52_26_);fill-rule:evenodd;clip-rule:evenodd;fill:#FEFEFE;}
	.st28{filter:url(#Adobe_OpacityMaskFilter_13_);}
	.st29{mask:url(#mask-52_25_);fill-rule:evenodd;clip-rule:evenodd;fill:#FEFEFE;}
	.st30{filter:url(#Adobe_OpacityMaskFilter_14_);}
	.st31{mask:url(#mask-52_24_);fill-rule:evenodd;clip-rule:evenodd;fill:#FEFEFE;}
	.st32{filter:url(#Adobe_OpacityMaskFilter_15_);}
	.st33{mask:url(#mask-52_23_);fill-rule:evenodd;clip-rule:evenodd;fill:#FEFEFE;}
	.st34{filter:url(#Adobe_OpacityMaskFilter_16_);}
	.st35{mask:url(#mask-52_22_);fill-rule:evenodd;clip-rule:evenodd;fill:#FEFEFE;}
	.st36{filter:url(#Adobe_OpacityMaskFilter_17_);}
	.st37{mask:url(#mask-52_21_);fill-rule:evenodd;clip-rule:evenodd;fill:#FEFEFE;}
	.st38{filter:url(#Adobe_OpacityMaskFilter_18_);}
	.st39{mask:url(#mask-52_20_);fill-rule:evenodd;clip-rule:evenodd;fill:#FEFEFE;}
</style>
<title>Page 1 Copy 5</title>
<desc>Created with Sketch.</desc>
<g id="Page-1_6_" transform="translate(157.000000, 4652.000000)">
	<path id="Fill-1_14_" class="st0" d="M-111.9-4613.5h-42.6c-0.3,0-0.5-0.2-0.5-0.5s0.2-0.5,0.5-0.5h42.6c0.3,0,0.5,0.2,0.5,0.5
		S-111.6-4613.5-111.9-4613.5z"/>
	<path id="Fill-3_10_" class="st0" d="M-151-4612.9c-0.3,0-0.5-0.2-0.5-0.5v-37.3c0-0.1-0.1-0.2-0.1-0.2h-0.3c0,0-0.1,0.1-0.1,0.2
		v37.3c0,0.3-0.2,0.5-0.5,0.5s-0.5-0.2-0.5-0.5v-37.3c0-0.7,0.5-1.3,1.2-1.3h0.3c0.7,0,1.2,0.6,1.2,1.3v37.3
		C-150.5-4613.1-150.7-4612.9-151-4612.9"/>
	<path id="Fill-5_6_" class="st0" d="M-144.9-4612.9c-0.3,0-0.5-0.2-0.5-0.5v-37.3c0-0.7,0.5-1.3,1.2-1.3h0.3c0.7,0,1.2,0.6,1.2,1.3
		v37.2c0,0.3-0.2,0.5-0.5,0.5s-0.5-0.2-0.5-0.5v-37.2c0-0.1-0.1-0.2-0.1-0.2h-0.3c0,0-0.1,0.1-0.1,0.2v37.3
		C-144.4-4613.1-144.6-4612.9-144.9-4612.9"/>
	<path id="Fill-7_6_" class="st0" d="M-122.2-4612.9c-0.3,0-0.5-0.2-0.5-0.5v-37.3c0-0.1-0.1-0.2-0.1-0.2h-0.3c0,0-0.1,0.1-0.1,0.2
		v37.2c0,0.3-0.2,0.5-0.5,0.5s-0.5-0.2-0.5-0.5v-37.2c0-0.7,0.5-1.3,1.2-1.3h0.3c0.7,0,1.2,0.6,1.2,1.3v37.3
		C-121.7-4613.1-121.9-4612.9-122.2-4612.9"/>
	<path id="Fill-9_3_" class="st0" d="M-114.5-4612.9c-0.3,0-0.5-0.2-0.5-0.5v-37.3c0-0.1-0.1-0.2-0.1-0.2h-0.3c0,0-0.1,0.1-0.1,0.2
		v37.2c0,0.3-0.2,0.5-0.5,0.5s-0.5-0.2-0.5-0.5v-37.2c0-0.7,0.5-1.3,1.2-1.3h0.3c0.7,0,1.2,0.6,1.2,1.3v37.3
		C-114-4613.1-114.2-4612.9-114.5-4612.9"/>
	<path id="Fill-11_3_" class="st0" d="M-115.1-4626h-37.5c-0.3,0-0.5-0.2-0.5-0.5s0.2-0.5,0.5-0.5h37.5c0.3,0,0.5,0.2,0.5,0.5
		S-114.8-4626-115.1-4626"/>
	<path id="Fill-13_3_" class="st0" d="M-114.9-4634.6h-37.7c-0.3,0-0.5-0.2-0.5-0.5c0-0.3,0.2-0.5,0.5-0.5h37.7
		c0.3,0,0.5,0.2,0.5,0.5C-114.4-4634.9-114.7-4634.6-114.9-4634.6"/>
	<path id="Fill-15_3_" class="st0" d="M-145.7-4650h-5c-0.3,0-0.5-0.2-0.5-0.5s0.2-0.5,0.5-0.5h5c0.3,0,0.5,0.2,0.5,0.5
		S-145.4-4650-145.7-4650"/>
	<path id="Fill-17_3_" class="st0" d="M-144.6-4641.3h-8c-0.3,0-0.5-0.2-0.5-0.5c0-0.3,0.2-0.5,0.5-0.5h8c0.3,0,0.5,0.2,0.5,0.5
		C-144-4641.6-144.3-4641.3-144.6-4641.3"/>
	<path id="Fill-19_2_" class="st0" d="M-144.3-4643.3h-8.3c-0.3,0-0.5-0.2-0.5-0.5c0-0.3,0.2-0.5,0.5-0.5h8.3c0.3,0,0.5,0.2,0.5,0.5
		C-143.8-4643.5-144-4643.3-144.3-4643.3"/>
	<path id="Fill-21_2_" class="st0" d="M-115.3-4650h-6.6c-0.3,0-0.5-0.2-0.5-0.5s0.2-0.5,0.5-0.5h6.6c0.3,0,0.5,0.2,0.5,0.5
		S-115-4650-115.3-4650"/>
	<path id="Fill-23_2_" class="st0" d="M-115.1-4641.3h-8.7c-0.3,0-0.5-0.2-0.5-0.5c0-0.3,0.2-0.5,0.5-0.5h8.7c0.3,0,0.5,0.2,0.5,0.5
		C-114.6-4641.6-114.8-4641.3-115.1-4641.3"/>
	<path id="Fill-25_2_" class="st0" d="M-115.1-4643.3h-8.7c-0.3,0-0.5-0.2-0.5-0.5c0-0.3,0.2-0.5,0.5-0.5h8.7c0.3,0,0.5,0.2,0.5,0.5
		C-114.6-4643.5-114.8-4643.3-115.1-4643.3"/>
	<path id="Fill-27" class="st0" d="M-142.6-4614.3l0-0.5c0,0,0-3.7,0-6c0-0.1,0-0.2,0-0.3c0-1.1,0-2.5,2.5-3.7l0.5-0.2l0.5,1
		l-0.5,0.2c-1.9,0.9-1.9,1.7-1.9,2.8c0,0.1,0,0.2,0,0.3c0,2.4,0,6,0,6l0,0.5L-142.6-4614.3z"/>
	<path id="Fill-29" class="st0" d="M-137.3-4614.3l-1.1,0l0-0.5c0,0,0-3.7,0-6c0-0.1,0-0.2,0-0.3c0-1,0-1.8-1.9-2.8l-0.5-0.2l0.5-1
		l0.5,0.2c2.5,1.2,2.5,2.6,2.5,3.7c0,0.1,0,0.2,0,0.3c0,2.4,0,6,0,6L-137.3-4614.3z"/>
	<path id="Fill-31" class="st0" d="M-136.8-4614.3l0-0.5c0,0,0-3.7,0-6c0-0.1,0-0.2,0-0.3c0-1.1,0-2.5,2.5-3.7l0.5-0.2l0.5,1
		l-0.5,0.2c-1.9,0.9-1.9,1.7-1.9,2.8c0,0.1,0,0.2,0,0.3c0,2.4,0,6,0,6l0,0.5L-136.8-4614.3z"/>
	<path id="Fill-33" class="st0" d="M-131-4614.4l-1.1,0l0-0.5c0,0,0-3.7,0-6c0-0.1,0-0.2,0-0.3c0-1,0-1.8-1.5-2.7l-0.5-0.3l0.5-0.9
		l0.5,0.3c2,1.1,2,2.6,2,3.6c0,0.1,0,0.2,0,0.3c0,2.4,0,6,0,6L-131-4614.4z"/>
	<path id="Fill-35" class="st0" d="M-130.1-4614.3l0-0.5c0,0,0-3.7,0-6c0-0.1,0-0.2,0-0.3c0-1.1,0-2.5,2.5-3.7l0.5-0.2l0.5,1
		l-0.5,0.2c-1.9,0.9-1.9,1.7-1.9,2.8c0,0.1,0,0.2,0,0.3c0,2.4,0,6,0,6l0,0.5L-130.1-4614.3z"/>
	<path id="Fill-37" class="st0" d="M-125-4614.3l-1.1,0l0-0.5c0,0,0-3.7,0-6c0-0.1,0-0.2,0-0.3c0-1,0-1.9-1.6-2.8l-0.5-0.3l0.5-0.9
		l0.5,0.3c2.2,1.2,2.2,2.6,2.2,3.7c0,0.1,0,0.2,0,0.3c0,2.4,0,6,0,6L-125-4614.3z"/>
	<path id="Fill-39" class="st0" d="M-136.7-4627.2h-1.1v-3.8c0-0.7-0.8-1.4-1.4-1.6c-0.7,0.2-1.4,0.9-1.4,1.6v3.8h-1.1v-3.8
		c0-1.3,1.2-2.4,2.4-2.7l0.1,0l0.1,0c1.1,0.3,2.3,1.4,2.3,2.7V-4627.2z"/>
	<path id="Fill-41" class="st0" d="M-137.9-4614h-1.1v-1.9c0-0.1-0.2-0.3-0.3-0.4c-0.2,0.1-0.3,0.3-0.3,0.4v1.9h-1.1v-1.9
		c0-0.7,0.7-1.3,1.3-1.4l0.1,0l0.1,0c0.6,0.1,1.3,0.7,1.3,1.4V-4614z"/>
	<path id="Fill-43" class="st0" d="M-132.1-4614h-1.1v-1.9c0-0.1-0.2-0.3-0.3-0.4c-0.2,0.1-0.3,0.3-0.3,0.4v1.9h-1.1v-1.9
		c0-0.7,0.7-1.3,1.3-1.4l0.1,0l0.1,0c0.6,0.1,1.3,0.7,1.3,1.4V-4614z"/>
	<path id="Fill-45_2_" class="st0" d="M-126.3-4614h-1.1v-1.9c0-0.1-0.2-0.3-0.3-0.4c-0.2,0.1-0.3,0.3-0.3,0.4v1.9h-1.1v-1.9
		c0-0.7,0.7-1.3,1.3-1.4l0.1,0l0.1,0c0.6,0.1,1.3,0.7,1.3,1.4V-4614z"/>
	<path id="Fill-47_2_" class="st0" d="M-138.6-4618.4h-1.1v-2.2c0-0.2-0.2-0.4-0.5-0.5c-0.2,0.1-0.5,0.3-0.5,0.5v2.2h-1.1v-2.2
		c0-0.8,0.7-1.5,1.4-1.6l0.1,0l0.1,0c0.7,0.2,1.4,0.8,1.4,1.6V-4618.4z"/>
	<path id="Fill-49_2_" class="st0" d="M-131.8-4618.4h-1.1v-2.2c0-0.2-0.2-0.4-0.5-0.5c-0.2,0.1-0.5,0.3-0.5,0.5v2.2h-1.1v-2.2
		c0-0.8,0.7-1.5,1.4-1.6l0.1,0l0.1,0c0.7,0.2,1.4,0.8,1.4,1.6V-4618.4z"/>
	<path id="Fill-51_2_" class="st0" d="M-126.1-4618.4h-1.1v-2.2c0-0.2-0.2-0.4-0.5-0.5c-0.2,0.1-0.5,0.3-0.5,0.5v2.2h-1.1v-2.2
		c0-0.8,0.7-1.5,1.4-1.6l0.1,0l0.1,0c0.7,0.2,1.4,0.8,1.4,1.6V-4618.4z"/>
	<path id="Fill-53_2_" class="st0" d="M-130.9-4627.2h-1.1v-3.8c0-0.7-0.8-1.4-1.4-1.6c-0.7,0.2-1.4,0.9-1.4,1.6v3.8h-1.1v-3.8
		c0-1.3,1.2-2.4,2.4-2.7l0.1,0l0.1,0c1.1,0.3,2.3,1.4,2.3,2.7V-4627.2z"/>
	<path id="Fill-55_2_" class="st0" d="M-125.2-4627.2h-1.1v-3.8c0-0.7-0.8-1.4-1.4-1.6c-0.7,0.2-1.4,0.9-1.4,1.6v3.8h-1.1v-3.8
		c0-1.3,1.2-2.4,2.4-2.7l0.1,0l0.1,0c1.1,0.3,2.3,1.4,2.3,2.7V-4627.2z"/>
	<g id="Clip-58">
	</g>
	<defs>
		<filter id="Adobe_OpacityMaskFilter" filterUnits="userSpaceOnUse" x="-141.6" y="-4637.6" width="15.5" height="1.1">
			<feColorMatrix  type="matrix" values="1 0 0 0 0  0 1 0 0 0  0 0 1 0 0  0 0 0 1 0"/>
		</filter>
	</defs>
	<mask maskUnits="userSpaceOnUse" x="-141.6" y="-4637.6" width="15.5" height="1.1" id="mask-52_38_">
		<g class="st1">
			<polygon id="path-51_38_" class="st2" points="-157,-4610.7 -109,-4610.7 -109,-4652 -157,-4652 			"/>
		</g>
	</mask>
	<path id="Fill-57_2_" class="st3" d="M-141.6-4636.5h1.1v-1.1h-1.1V-4636.5z M-139.7-4636.5h1.1v-1.1h-1.1V-4636.5z M-137.8-4636.5
		h1.1v-1.1h-1.1V-4636.5z M-135.9-4636.5h1.1v-1.1h-1.1V-4636.5z M-133-4636.5h1.1v-1.1h-1.1V-4636.5z M-131.1-4636.5h1.1v-1.1h-1.1
		V-4636.5z M-129.2-4636.5h1.1v-1.1h-1.1V-4636.5z M-127.2-4636.5h1.1v-1.1h-1.1V-4636.5z"/>
	<defs>
		<filter id="Adobe_OpacityMaskFilter_1_" filterUnits="userSpaceOnUse" x="-149.3" y="-4652" width="3" height="1.1">
			<feColorMatrix  type="matrix" values="1 0 0 0 0  0 1 0 0 0  0 0 1 0 0  0 0 0 1 0"/>
		</filter>
	</defs>
	<mask maskUnits="userSpaceOnUse" x="-149.3" y="-4652" width="3" height="1.1" id="mask-52_37_">
		<g class="st4">
			<polygon id="path-51_37_" class="st2" points="-157,-4610.7 -109,-4610.7 -109,-4652 -157,-4652 			"/>
		</g>
	</mask>
	<path id="Fill-59_2_" class="st5" d="M-149.3-4650.9h1.1v-1.1h-1.1V-4650.9z M-147.4-4650.9h1.1v-1.1h-1.1V-4650.9z"/>
	<defs>
		<filter id="Adobe_OpacityMaskFilter_2_" filterUnits="userSpaceOnUse" x="-120.5" y="-4652" width="3" height="1.1">
			<feColorMatrix  type="matrix" values="1 0 0 0 0  0 1 0 0 0  0 0 1 0 0  0 0 0 1 0"/>
		</filter>
	</defs>
	<mask maskUnits="userSpaceOnUse" x="-120.5" y="-4652" width="3" height="1.1" id="mask-52_36_">
		<g class="st6">
			<polygon id="path-51_36_" class="st2" points="-157,-4610.7 -109,-4610.7 -109,-4652 -157,-4652 			"/>
		</g>
	</mask>
	<path id="Fill-60_3_" class="st7" d="M-120.5-4650.9h1.1v-1.1h-1.1V-4650.9z M-118.6-4650.9h1.1v-1.1h-1.1V-4650.9z"/>
	<defs>
		<filter id="Adobe_OpacityMaskFilter_3_" filterUnits="userSpaceOnUse" x="-157" y="-4612.6" width="48" height="1.1">
			<feColorMatrix  type="matrix" values="1 0 0 0 0  0 1 0 0 0  0 0 1 0 0  0 0 0 1 0"/>
		</filter>
	</defs>
	<mask maskUnits="userSpaceOnUse" x="-157" y="-4612.6" width="48" height="1.1" id="mask-52_35_">
		<g class="st8">
			<polygon id="path-51_35_" class="st2" points="-157,-4610.7 -109,-4610.7 -109,-4652 -157,-4652 			"/>
		</g>
	</mask>
	<path id="Fill-61_2_" class="st9" d="M-109.5-4611.6h-46.9c-0.3,0-0.5-0.2-0.5-0.5c0-0.3,0.2-0.5,0.5-0.5h46.9
		c0.3,0,0.5,0.2,0.5,0.5C-109-4611.8-109.2-4611.6-109.5-4611.6"/>
	<defs>
		<filter id="Adobe_OpacityMaskFilter_4_" filterUnits="userSpaceOnUse" x="-149.3" y="-4633.8" width="2.8" height="5.6">
			<feColorMatrix  type="matrix" values="1 0 0 0 0  0 1 0 0 0  0 0 1 0 0  0 0 0 1 0"/>
		</filter>
	</defs>
	<mask maskUnits="userSpaceOnUse" x="-149.3" y="-4633.8" width="2.8" height="5.6" id="mask-52_34_">
		<g class="st10">
			<polygon id="path-51_34_" class="st2" points="-157,-4610.7 -109,-4610.7 -109,-4652 -157,-4652 			"/>
		</g>
	</mask>
	<path id="Fill-62_3_" class="st11" d="M-146.5-4628.2h-1.1v-3.9c0-0.2-0.1-0.4-0.3-0.6c-0.1,0.1-0.3,0.3-0.3,0.6v3.9h-1.1l0-4
		c0.1-0.8,0.6-1.3,1-1.5l0-0.1l0.5,0v0.5l0.5,0.1c0.1-0.3-0.1-0.5-0.3-0.6l0,0c1,0.5,1.1,1.2,1.1,1.6V-4628.2z"/>
	<defs>
		<filter id="Adobe_OpacityMaskFilter_5_" filterUnits="userSpaceOnUse" x="-149.3" y="-4629" width="3.4" height="1.1">
			<feColorMatrix  type="matrix" values="1 0 0 0 0  0 1 0 0 0  0 0 1 0 0  0 0 0 1 0"/>
		</filter>
	</defs>
	<mask maskUnits="userSpaceOnUse" x="-149.3" y="-4629" width="3.4" height="1.1" id="mask-52_33_">
		<g class="st12">
			<polygon id="path-51_33_" class="st2" points="-157,-4610.7 -109,-4610.7 -109,-4652 -157,-4652 			"/>
		</g>
	</mask>
	<polygon id="Fill-63_2_" class="st13" points="-149.3,-4627.9 -146,-4627.9 -146,-4629 -149.3,-4629 	"/>
	<defs>
		<filter id="Adobe_OpacityMaskFilter_6_" filterUnits="userSpaceOnUse" x="-149.3" y="-4640.5" width="2.8" height="4.7">
			<feColorMatrix  type="matrix" values="1 0 0 0 0  0 1 0 0 0  0 0 1 0 0  0 0 0 1 0"/>
		</filter>
	</defs>
	<mask maskUnits="userSpaceOnUse" x="-149.3" y="-4640.5" width="2.8" height="4.7" id="mask-52_32_">
		<g class="st14">
			<polygon id="path-51_32_" class="st2" points="-157,-4610.7 -109,-4610.7 -109,-4652 -157,-4652 			"/>
		</g>
	</mask>
	<path id="Fill-64_3_" class="st15" d="M-146.5-4635.8h-1.1v-3.2c0-0.1,0-0.2-0.3-0.3c-0.1,0-0.3,0.2-0.3,0.4v3.2h-1.1v-3.3l0,0
		c0.1-0.7,0.6-1,1-1.2l0-0.1l0.5,0v0.5l0.2-0.4c1.1,0.3,1.2,1.1,1.2,1.4V-4635.8z"/>
	<defs>
		<filter id="Adobe_OpacityMaskFilter_7_" filterUnits="userSpaceOnUse" x="-149.3" y="-4649.1" width="2.8" height="4.7">
			<feColorMatrix  type="matrix" values="1 0 0 0 0  0 1 0 0 0  0 0 1 0 0  0 0 0 1 0"/>
		</filter>
	</defs>
	<mask maskUnits="userSpaceOnUse" x="-149.3" y="-4649.1" width="2.8" height="4.7" id="mask-52_31_">
		<g class="st16">
			<polygon id="path-51_31_" class="st2" points="-157,-4610.7 -109,-4610.7 -109,-4652 -157,-4652 			"/>
		</g>
	</mask>
	<path id="Fill-65_2_" class="st17" d="M-146.5-4644.5h-1.1v-3.2c0-0.1,0-0.2-0.3-0.3c-0.1,0-0.3,0.2-0.3,0.4v3.2h-1.1v-3.3l0,0
		c0.1-0.7,0.6-1,1-1.2l0-0.1l0.5,0v0.5l0.2-0.4c1.1,0.3,1.2,1.1,1.2,1.4V-4644.5z"/>
	<defs>
		<filter id="Adobe_OpacityMaskFilter_8_" filterUnits="userSpaceOnUse" x="-149.3" y="-4624.2" width="2.8" height="5.6">
			<feColorMatrix  type="matrix" values="1 0 0 0 0  0 1 0 0 0  0 0 1 0 0  0 0 0 1 0"/>
		</filter>
	</defs>
	<mask maskUnits="userSpaceOnUse" x="-149.3" y="-4624.2" width="2.8" height="5.6" id="mask-52_30_">
		<g class="st18">
			<polygon id="path-51_30_" class="st2" points="-157,-4610.7 -109,-4610.7 -109,-4652 -157,-4652 			"/>
		</g>
	</mask>
	<path id="Fill-66_3_" class="st19" d="M-146.5-4618.6h-1.1v-3.9c0-0.2-0.1-0.4-0.3-0.6c-0.1,0.1-0.3,0.3-0.3,0.6v3.9h-1.1l0-4
		c0.1-0.8,0.6-1.3,1-1.5l0-0.1l0.5,0v0.5l0.5,0.1c0.1-0.3-0.1-0.5-0.3-0.6l0,0c1,0.5,1.1,1.2,1.1,1.6V-4618.6z"/>
	<defs>
		<filter id="Adobe_OpacityMaskFilter_9_" filterUnits="userSpaceOnUse" x="-149.3" y="-4618.4" width="3.4" height="1.1">
			<feColorMatrix  type="matrix" values="1 0 0 0 0  0 1 0 0 0  0 0 1 0 0  0 0 0 1 0"/>
		</filter>
	</defs>
	<mask maskUnits="userSpaceOnUse" x="-149.3" y="-4618.4" width="3.4" height="1.1" id="mask-52_29_">
		<g class="st20">
			<polygon id="path-51_29_" class="st2" points="-157,-4610.7 -109,-4610.7 -109,-4652 -157,-4652 			"/>
		</g>
	</mask>
	<polygon id="Fill-67_2_" class="st21" points="-149.3,-4617.3 -146,-4617.3 -146,-4618.4 -149.3,-4618.4 	"/>
	<defs>
		<filter id="Adobe_OpacityMaskFilter_10_" filterUnits="userSpaceOnUse" x="-120.5" y="-4633.8" width="2.8" height="5.6">
			<feColorMatrix  type="matrix" values="1 0 0 0 0  0 1 0 0 0  0 0 1 0 0  0 0 0 1 0"/>
		</filter>
	</defs>
	<mask maskUnits="userSpaceOnUse" x="-120.5" y="-4633.8" width="2.8" height="5.6" id="mask-52_28_">
		<g class="st22">
			<polygon id="path-51_28_" class="st2" points="-157,-4610.7 -109,-4610.7 -109,-4652 -157,-4652 			"/>
		</g>
	</mask>
	<path id="Fill-68_3_" class="st23" d="M-117.7-4628.2h-1.1v-3.9c0-0.2-0.1-0.4-0.3-0.6c-0.1,0.1-0.3,0.3-0.3,0.6v3.9h-1.1l0-4
		c0.1-0.8,0.6-1.3,1-1.5l0-0.1l0.5,0v0.5l0.5,0.1c0.1-0.3-0.1-0.5-0.3-0.6l0,0c1,0.5,1.1,1.2,1.1,1.6V-4628.2z"/>
	<defs>
		<filter id="Adobe_OpacityMaskFilter_11_" filterUnits="userSpaceOnUse" x="-120.5" y="-4629" width="3.4" height="1.1">
			<feColorMatrix  type="matrix" values="1 0 0 0 0  0 1 0 0 0  0 0 1 0 0  0 0 0 1 0"/>
		</filter>
	</defs>
	<mask maskUnits="userSpaceOnUse" x="-120.5" y="-4629" width="3.4" height="1.1" id="mask-52_27_">
		<g class="st24">
			<polygon id="path-51_27_" class="st2" points="-157,-4610.7 -109,-4610.7 -109,-4652 -157,-4652 			"/>
		</g>
	</mask>
	<polygon id="Fill-69_2_" class="st25" points="-120.5,-4627.9 -117.2,-4627.9 -117.2,-4629 -120.5,-4629 	"/>
	<defs>
		<filter id="Adobe_OpacityMaskFilter_12_" filterUnits="userSpaceOnUse" x="-120.5" y="-4640.5" width="2.8" height="4.7">
			<feColorMatrix  type="matrix" values="1 0 0 0 0  0 1 0 0 0  0 0 1 0 0  0 0 0 1 0"/>
		</filter>
	</defs>
	<mask maskUnits="userSpaceOnUse" x="-120.5" y="-4640.5" width="2.8" height="4.7" id="mask-52_26_">
		<g class="st26">
			<polygon id="path-51_26_" class="st2" points="-157,-4610.7 -109,-4610.7 -109,-4652 -157,-4652 			"/>
		</g>
	</mask>
	<path id="Fill-70_3_" class="st27" d="M-117.7-4635.8h-1.1v-3.2c0-0.1,0-0.2-0.3-0.3c-0.1,0-0.3,0.2-0.3,0.4v3.2h-1.1v-3.3l0,0
		c0.1-0.7,0.6-1,1-1.2l0-0.1l0.5,0v0.5l0.2-0.4c1.1,0.3,1.2,1.1,1.2,1.4V-4635.8z"/>
	<defs>
		<filter id="Adobe_OpacityMaskFilter_13_" filterUnits="userSpaceOnUse" x="-120.5" y="-4649.1" width="2.8" height="4.7">
			<feColorMatrix  type="matrix" values="1 0 0 0 0  0 1 0 0 0  0 0 1 0 0  0 0 0 1 0"/>
		</filter>
	</defs>
	<mask maskUnits="userSpaceOnUse" x="-120.5" y="-4649.1" width="2.8" height="4.7" id="mask-52_25_">
		<g class="st28">
			<polygon id="path-51_25_" class="st2" points="-157,-4610.7 -109,-4610.7 -109,-4652 -157,-4652 			"/>
		</g>
	</mask>
	<path id="Fill-71" class="st29" d="M-117.7-4644.5h-1.1v-3.2c0-0.1,0-0.2-0.3-0.3c-0.1,0-0.3,0.2-0.3,0.4v3.2h-1.1v-3.3l0,0
		c0.1-0.7,0.6-1,1-1.2l0-0.1l0.5,0v0.5l0.2-0.4c1.1,0.3,1.2,1.1,1.2,1.4V-4644.5z"/>
	<defs>
		<filter id="Adobe_OpacityMaskFilter_14_" filterUnits="userSpaceOnUse" x="-120.5" y="-4624.2" width="2.8" height="5.6">
			<feColorMatrix  type="matrix" values="1 0 0 0 0  0 1 0 0 0  0 0 1 0 0  0 0 0 1 0"/>
		</filter>
	</defs>
	<mask maskUnits="userSpaceOnUse" x="-120.5" y="-4624.2" width="2.8" height="5.6" id="mask-52_24_">
		<g class="st30">
			<polygon id="path-51_24_" class="st2" points="-157,-4610.7 -109,-4610.7 -109,-4652 -157,-4652 			"/>
		</g>
	</mask>
	<path id="Fill-72_1_" class="st31" d="M-117.7-4618.6h-1.1v-3.9c0-0.2-0.1-0.4-0.3-0.6c-0.1,0.1-0.3,0.3-0.3,0.6v3.9h-1.1l0-4
		c0.1-0.8,0.6-1.3,1-1.5l0-0.1l0.5,0v0.5l0.5,0.1c0.1-0.3-0.1-0.5-0.3-0.6l0,0c1,0.5,1.1,1.2,1.1,1.6V-4618.6z"/>
	<defs>
		<filter id="Adobe_OpacityMaskFilter_15_" filterUnits="userSpaceOnUse" x="-120.5" y="-4618.4" width="3.4" height="1.1">
			<feColorMatrix  type="matrix" values="1 0 0 0 0  0 1 0 0 0  0 0 1 0 0  0 0 0 1 0"/>
		</filter>
	</defs>
	<mask maskUnits="userSpaceOnUse" x="-120.5" y="-4618.4" width="3.4" height="1.1" id="mask-52_23_">
		<g class="st32">
			<polygon id="path-51_23_" class="st2" points="-157,-4610.7 -109,-4610.7 -109,-4652 -157,-4652 			"/>
		</g>
	</mask>
	<polygon id="Fill-73" class="st33" points="-120.5,-4617.3 -117.2,-4617.3 -117.2,-4618.4 -120.5,-4618.4 	"/>
	<defs>
		<filter id="Adobe_OpacityMaskFilter_16_" filterUnits="userSpaceOnUse" x="-128.2" y="-4629.9" width="2" height="1.1">
			<feColorMatrix  type="matrix" values="1 0 0 0 0  0 1 0 0 0  0 0 1 0 0  0 0 0 1 0"/>
		</filter>
	</defs>
	<mask maskUnits="userSpaceOnUse" x="-128.2" y="-4629.9" width="2" height="1.1" id="mask-52_22_">
		<g class="st34">
			<polygon id="path-51_22_" class="st2" points="-157,-4610.7 -109,-4610.7 -109,-4652 -157,-4652 			"/>
		</g>
	</mask>
	<polygon id="Fill-74_1_" class="st35" points="-128.2,-4628.9 -126.2,-4628.9 -126.2,-4629.9 -128.2,-4629.9 	"/>
	<defs>
		<filter id="Adobe_OpacityMaskFilter_17_" filterUnits="userSpaceOnUse" x="-134.9" y="-4629.9" width="2.1" height="1.1">
			<feColorMatrix  type="matrix" values="1 0 0 0 0  0 1 0 0 0  0 0 1 0 0  0 0 0 1 0"/>
		</filter>
	</defs>
	<mask maskUnits="userSpaceOnUse" x="-134.9" y="-4629.9" width="2.1" height="1.1" id="mask-52_21_">
		<g class="st36">
			<polygon id="path-51_21_" class="st2" points="-157,-4610.7 -109,-4610.7 -109,-4652 -157,-4652 			"/>
		</g>
	</mask>
	<polygon id="Fill-75" class="st37" points="-134.9,-4628.9 -132.8,-4628.9 -132.8,-4629.9 -134.9,-4629.9 	"/>
	<defs>
		<filter id="Adobe_OpacityMaskFilter_18_" filterUnits="userSpaceOnUse" x="-140.7" y="-4629.9" width="2" height="1.1">
			<feColorMatrix  type="matrix" values="1 0 0 0 0  0 1 0 0 0  0 0 1 0 0  0 0 0 1 0"/>
		</filter>
	</defs>
	<mask maskUnits="userSpaceOnUse" x="-140.7" y="-4629.9" width="2" height="1.1" id="mask-52_20_">
		<g class="st38">
			<polygon id="path-51_20_" class="st2" points="-157,-4610.7 -109,-4610.7 -109,-4652 -157,-4652 			"/>
		</g>
	</mask>
	<polygon id="Fill-76_1_" class="st39" points="-140.7,-4628.9 -138.7,-4628.9 -138.7,-4629.9 -140.7,-4629.9 	"/>
</g>
</svg>
