<?xml version="1.0" encoding="utf-8"?>
<!-- Generator: Adobe Illustrator 24.0.3, SVG Export Plug-In . SVG Version: 6.00 Build 0)  -->
<svg version="1.1" id="Capa_1" xmlns="http://www.w3.org/2000/svg" xmlns:xlink="http://www.w3.org/1999/xlink" x="0px" y="0px"
	 viewBox="0 0 42 107" style="enable-background:new 0 0 42 107;" xml:space="preserve">
<style type="text/css">
	.st0{fill-rule:evenodd;clip-rule:evenodd;fill:#F07033;}
</style>
<title>Page 1</title>
<desc>Created with Sketch.</desc>
<g id="landing-toronto">
	<g id="HomeDesktop_Toronto-Copy-5" transform="translate(-479.000000, -900.000000)">
		<g id="paquete-1" transform="translate(6.000000, 574.000000)">
			<g id="Page-1" transform="translate(473.000000, 326.000000)">
				<path id="Fill-1" class="st0" d="M21,21.7c-5.2,0-9.4-4.2-9.4-9.4s4.2-9.4,9.4-9.4s9.4,4.2,9.4,9.4S26.2,21.7,21,21.7 M21,0
					C14.2,0,8.7,5.5,8.7,12.3S14.2,24.6,21,24.6s12.3-5.5,12.3-12.3S27.8,0,21,0"/>
				<g id="Group-5" transform="translate(0.000000, 30.206759)">
					<g id="Clip-4">
					</g>
					<path id="Fill-3" class="st0" d="M30.4,73.9h-8V43.6h-2.9V74h-8V17.5H8.7v26H2.9v-29C2.9,8.2,8.1,3,14.5,3h13
						c6.4,0,11.6,5.2,11.6,11.6v29h-5.8v-26h-2.9V73.9z M14.5,0.2C6.5,0.2,0,6.7,0,14.6V45c0,0.8,0.6,1.4,1.4,1.4h7.3v29
						c0,0.8,0.6,1.4,1.4,1.4h21.7c0.8,0,1.4-0.6,1.4-1.4v-29h7.3c0.8,0,1.4-0.6,1.4-1.4V14.6c0-8-6.5-14.4-14.5-14.4
						C27.4,0.2,14.5,0.2,14.5,0.2z"/>
				</g>
			</g>
		</g>
	</g>
</g>
</svg>
