<?xml version="1.0" encoding="UTF-8"?>
<svg width="60px" height="31px" viewBox="0 0 60 31" version="1.1" xmlns="http://www.w3.org/2000/svg" xmlns:xlink="http://www.w3.org/1999/xlink">
    <!-- Generator: Sketch 57.1 (83088) - https://sketch.com -->
    <title>Group</title>
    <desc>Created with Sketch.</desc>
    <defs>
        <polygon id="path-1" points="0 0.182666667 59.901902 0.182666667 59.901902 24.7058039 0 24.7058039"></polygon>
        <polygon id="path-3" points="0 0.0867254902 19.3446275 0.0867254902 19.3446275 18.5273137 0 18.5273137"></polygon>
        <polygon id="path-5" points="0.170843137 0.086745098 18.9215686 0.086745098 18.9215686 18.5273333 0.170843137 18.5273333"></polygon>
        <polygon id="path-7" points="0 30.2388235 59.9019608 30.2388235 59.9019608 0 0 0"></polygon>
    </defs>
    <g id="Landing-Quebec" stroke="none" stroke-width="1" fill="none" fill-rule="evenodd">
        <g id="HomeDesktop_Quebec" transform="translate(-153.000000, -2187.000000)">
            <g id="Group" transform="translate(153.000000, 2187.000000)">
                <g id="Group-3" transform="translate(0.000000, 5.532941)">
                    <mask id="mask-2" fill="white">
                        <use xlink:href="#path-1"></use>
                    </mask>
                    <g id="Clip-2"></g>
                    <path d="M41.3889608,0.182666667 C41.4060196,0.276196078 41.4154314,0.375215686 41.4154314,0.480313725 C41.4154314,0.576392157 41.409549,0.670705882 41.3985686,0.762862745 C41.3885686,0.848352941 41.3728824,0.92972549 41.3542549,1.00894118 C41.3530784,1.0132549 41.3526863,1.01796078 41.3515098,1.02247059 C41.3224902,1.14227451 41.2803333,1.25286275 41.2322941,1.35913725 L58.7254314,1.35913725 L58.7254314,23.5293333 L1.17641176,23.5293333 L1.17641176,1.35913725 L19.2701373,1.35913725 C19.2564118,1.26031373 19.2513137,1.15580392 19.2585686,1.04403922 C19.2779804,0.742862745 19.3197451,0.462470588 19.3879804,0.182666667 L-5.88235294e-05,0.182666667 L-5.88235294e-05,24.7058039 L59.901902,24.7058039 L59.901902,0.182666667 L41.3889608,0.182666667 Z" id="Fill-1" fill="#FEFEFE" mask="url(#mask-2)"></path>
                </g>
                <g id="Group-6" transform="translate(0.000000, 8.670196)">
                    <mask id="mask-4" fill="white">
                        <use xlink:href="#path-3"></use>
                    </mask>
                    <g id="Clip-5"></g>
                    <path d="M18.9603137,17.3508431 L1.17639216,17.3508431 L1.17639216,1.26319608 L19.2907059,1.26319608 C19.1665882,0.883 19.1840392,0.450843137 19.3446275,0.0867254902 L-7.84313725e-05,0.0867254902 L-7.84313725e-05,18.5273137 L19.2493333,18.5273137 C18.9914902,18.1873137 18.9052157,17.7561373 18.9603137,17.3508431" id="Fill-4" fill="#FEFEFE" mask="url(#mask-4)"></path>
                </g>
                <g id="Group-9" transform="translate(40.980392, 8.670196)">
                    <mask id="mask-6" fill="white">
                        <use xlink:href="#path-5"></use>
                    </mask>
                    <g id="Clip-8"></g>
                    <path d="M0.170843137,0.086745098 C0.373392157,0.456941176 0.431235294,0.888705882 0.274372549,1.26321569 L17.7451569,1.26321569 L17.7451569,17.3508627 L0.267901961,17.3508627 C0.423784314,17.7218431 0.448294118,18.1479216 0.282803922,18.5273333 L18.9216275,18.5273333 L18.9216275,0.086745098 L0.170843137,0.086745098 Z" id="Fill-7" fill="#FEFEFE" mask="url(#mask-6)"></path>
                </g>
                <mask id="mask-8" fill="white">
                    <use xlink:href="#path-7"></use>
                </mask>
                <g id="Clip-11"></g>
                <path d="M19.6078431,29.0623529 L40.4613725,29.0623529 L40.4613725,1.17647059 L19.6078431,1.17647059 L19.6078431,29.0623529 Z M18.4313725,30.2388235 L41.6378431,30.2388235 L41.6378431,0 L18.4313725,0 L18.4313725,30.2388235 Z" id="Fill-10" fill="#FEFEFE" mask="url(#mask-8)"></path>
                <path d="M22.912549,29.0623529 L37.1570588,29.0623529 L37.1570588,4.73529412 L22.912549,4.73529412 L22.912549,29.0623529 Z M21.7358824,30.2388235 L38.3333333,30.2388235 L38.3333333,3.55882353 L21.7358824,3.55882353 L21.7358824,30.2388235 Z" id="Fill-12" fill="#FEFEFE" mask="url(#mask-8)"></path>
                <path d="M22.912549,11.292549 L37.1570588,11.292549 L37.1570588,9.93333333 L22.912549,9.93333333 L22.912549,11.292549 Z M21.7358824,12.4690196 L38.3333333,12.4690196 L38.3333333,8.75686275 L21.7358824,8.75686275 L21.7358824,12.4690196 Z" id="Fill-13" fill="#FEFEFE" mask="url(#mask-8)"></path>
                <path d="M22.912549,22.5819608 L37.1570588,22.5819608 L37.1570588,21.2227451 L22.912549,21.2227451 L22.912549,22.5819608 Z M21.7358824,23.7584314 L38.3333333,23.7584314 L38.3333333,20.0462745 L21.7358824,20.0462745 L21.7358824,23.7584314 Z" id="Fill-14" fill="#FEFEFE" mask="url(#mask-8)"></path>
            </g>
        </g>
    </g>
</svg>