<?xml version="1.0" encoding="utf-8"?>
<!-- Generator: Adobe Illustrator 24.0.3, SVG Export Plug-In . SVG Version: 6.00 Build 0)  -->
<svg version="1.1" id="Capa_1" xmlns="http://www.w3.org/2000/svg" xmlns:xlink="http://www.w3.org/1999/xlink" x="0px" y="0px"
	 viewBox="0 0 48 58" style="enable-background:new 0 0 48 58;" xml:space="preserve">
<style type="text/css">
	.st0{fill:#FFFFFF;}
</style>
<title>Page 1 Copy 5</title>
<desc>Created with Sketch.</desc>
<g id="_x30_02-forest" transform="translate(162.000000, 4563.000000)">
	<path id="Shape_41_" class="st0" d="M-114.2-4524l-2.7-5.2c0.1,0,0.2-0.1,0.3-0.1c0.9-0.4,1.4-1.4,0.9-2.3
		c-0.6-1.1-2.3-4.4-2.9-5.5c0.2-0.1,0.4-0.1,0.6-0.2c0.9-0.3,1.3-1.3,0.9-2.1l-7.7-14.9c-0.4-0.7-1.5-0.7-1.9,0l-1.2,2.3
		c-0.2,0.4,0,0.9,0.4,1.1c0.4,0.2,1,0,1.2-0.4l0.6-1.1l7,13.5c-0.4,0.1-0.8,0.3-1.3,0.4c-0.5,0.2-0.8,0.7-0.5,1.2l0.7,1.4
		c-0.2,0.2-0.4,0.3-0.6,0.5c-1.3,1.1-1.5,1.2-3.1,0.6c-1.3-0.4-2-0.6-3.2-0.3c0-0.2-0.1-0.3-0.2-0.5c-1.9-3.6-1.7-3.3-3.4-6.7
		c0.3-0.1,0.6-0.2,0.8-0.3c0.9-0.4,1.4-1.4,0.9-2.3l-0.5-0.9l0.9-1.8c0.2-0.4,0-0.9-0.4-1.1c-0.4-0.2-1,0-1.2,0.4l-0.3,0.7
		c-0.8-1.5-6.9-13.3-7.6-14.7c-0.4-0.8-1.5-0.8-1.9,0l-8.6,16.7l-2.2-4.2c-0.4-0.7-1.5-0.7-1.8,0l-6.9,13.4c-0.4,0.8,0,1.7,0.8,2
		c0.1,0.1,0.3,0.1,0.4,0.2c-0.8,1.6-1.7,3.3-2.5,4.9c-0.4,0.8,0,1.9,0.9,2.2c0.1,0,0.1,0.1,0.2,0.1l-2.4,4.6c-0.5,0.9,0,2,0.9,2.3
		c2,0.7,4.1,1.3,6.2,1.5l0,1.5c0,0.5,0.4,0.9,0.9,0.9c0.5,0,0.9-0.4,0.9-0.8l0-1.4c1,0.1,2.1,0.1,3.1,0l0.2,7.2c0,0.5,0.1,1,0.4,1.4
		h-4.3c0.2-0.4,0.4-0.9,0.4-1.4l0.1-1.7c0-0.5-0.4-0.9-0.9-0.9c-0.5,0-0.9,0.4-0.9,0.8l-0.1,1.7c0,0.8-0.7,1.4-1.5,1.4h-1.1
		c-1.4,0-2.7,0.8-3.3,2.1l-0.7,1.7c-0.2,0.6,0.2,1.2,0.8,1.2h43.9c0.6,0,1-0.6,0.8-1.2l-0.7-1.7c-0.5-1.3-1.8-2.1-3.3-2.1h-0.3
		c-1,0-1.8-0.7-1.8-1.7l-0.2-8.2c2.4-0.3,4.7-0.8,6.9-1.7C-114.2-4521.9-113.7-4523.1-114.2-4524z M-138.7-4515.7
		c-0.5,0-0.9,0.4-0.9,0.9v4.9h-2.4c0.4-0.6,0.7-1.3,0.7-2.1l0.3-9.7c0.5,0,0.9,0.1,1.4,0.1v3.4c0,0.5,0.4,0.9,0.9,0.9
		c0.5,0,0.9-0.4,0.9-0.9v-3.4c0.4,0,0.8,0,1.2,0c0.1,0.1,0.2,0.1,0.2,0.1l0.3,9.5c0,0.8,0.3,1.5,0.7,2.1h-2.4v-4.9
		C-137.8-4515.4-138.2-4515.7-138.7-4515.7z M-131.3-4510h-0.7c-1.2,0-2.2-0.9-2.3-2.1l-0.3-8.9c1.7,0.5,3.5,0.9,5.3,1.1l-0.2,8.2
		C-129.6-4510.7-130.3-4510-131.3-4510z M-150.4-4525.5c-0.2-0.1-0.2-0.2-0.1-0.4l1.5-3c1.4,0.1,1.7,0.3,2.8,1.3
		c1,0.9,1.9,1.6,3.3,1.6c1.6,0,3.1-1,4.2-1c1.3,0,3,1.3,4.8,0.9c1.8-0.3,2.9-2.1,4.1-2.6c0.4-0.2,0.9-0.2,1.4-0.2l1.5,3
		c0.1,0.1,0,0.3-0.1,0.4C-134.5-4522.7-142.8-4522.7-150.4-4525.5z M-130.2-4532.4l1,1.9c-0.4,0.1-0.8,0.1-1.2,0.3
		c-1.6,0.6-2.6,2.3-3.8,2.5c-1.1,0.2-2.8-0.9-4.5-0.9c-1.7,0-3.3,1.2-4.5,0.9c-1.1-0.2-2.2-1.9-3.8-2.5c-0.4-0.2-0.8-0.2-1.2-0.3
		c1.9-3.7,0.4-0.8,1-1.9C-141.6-4530.8-135.8-4530.8-130.2-4532.4z M-128.6-4534.7c-6.5,2.4-13.6,2.4-20.2,0c-0.1,0-0.1-0.1-0.1-0.2
		l1.8-3.5c0.2,0,0.4,0.1,0.6,0.1c0.4,0.2,0.8,0.5,1.3,0.9c0.9,0.8,1.7,1.4,2.9,1.4c1.4,0,2.7-0.8,3.6-0.8c1.1,0,2.6,1.1,4.2,0.8
		c1.6-0.3,2.5-1.9,3.6-2.3c0.2-0.1,0.4-0.1,0.6-0.1l1.8,3.5C-128.5-4534.8-128.5-4534.7-128.6-4534.7z M-138.7-4560.5l3.9,7.6
		c-0.6,0.4-1.2,1.1-1.6,1.2c-0.5,0.1-1.4-0.5-2.4-0.5c-1,0-1.9,0.6-2.4,0.5c-0.4-0.1-0.9-0.7-1.5-1.1L-138.7-4560.5z M-143.4-4551.3
		c0.5,0.4,1.1,1.1,2,1.2c1.1,0.2,2.1-0.5,2.7-0.5c0.6,0,1.6,0.7,2.7,0.5c0.9-0.2,1.5-0.9,2-1.3c1.5,3-0.8-1.5,3.7,7.2
		c-2.3,0.9-4.9,1.4-7.5,1.5c-0.5,0-0.9,0.4-0.8,0.9c0,0.5,0.4,0.8,0.9,0.8c1.9-0.1,3.8-0.3,5.6-0.8l0.9,1.8
		c-0.9,0.2-1.5,0.7-2.2,1.4c-1.3,1.2-1.5,1.2-3.2,0.6c-0.7-0.2-1.4-0.5-2.1-0.5c-0.7,0-1.4,0.2-2.1,0.5c-1.7,0.6-1.9,0.5-3.2-0.6
		c-0.7-0.6-1.3-1.1-2.2-1.3c0.6-1.1,0.4-0.7,0.9-1.8c1.1,0.3,2.2,0.5,3.4,0.6c0.5,0.1,0.9-0.3,1-0.7c0.1-0.5-0.3-0.9-0.8-1
		c-1.9-0.2-3.7-0.7-5.4-1.3L-143.4-4551.3z M-151.4-4547.9l3.7,7.1c-0.8,1.6-1.8,3.4-2.7,5.2c-0.5,1,0,2.1,1,2.5
		c0.2,0.1,0.4,0.1,0.6,0.2l-0.5,1c-0.1,0-0.2-0.1-0.3-0.1c-1.4-0.5-1.8-0.5-3.2,0c-0.4,0.1-0.9,0.3-1.2,0.2
		c-0.6-0.1-1.4-1.3-2.5-1.6l0.5-1.1c0.2-0.5,0-1-0.5-1.2c-0.3-0.1-0.7-0.2-1-0.3L-151.4-4547.9z M-160.2-4521.8l2.8-5.5
		c0.2-0.5,0-1-0.5-1.2c-0.3-0.1-0.6-0.2-1-0.3l1.6-3c0.4,0.1,0.6,0.2,1.2,0.7c0.7,0.6,1.3,1.1,2.3,1.1c1,0,2-0.6,2.6-0.6
		c0.3,0,0.7,0.2,1.1,0.3c-0.3,0.6-1.2,2.3-2,3.8c-0.5,1,0,2.3,1.1,2.7c2.7,1,5.5,1.7,8.3,2l0,0.2
		C-148.4-4519.7-154.6-4519.7-160.2-4521.8z M-147.8-4511.4l-0.2-7.3c1.8-0.2,3.5-0.6,5.3-1.2l-0.2,7.8c0,1.2-1,2.1-2.3,2.1h-1.1
		C-147.1-4510-147.8-4510.6-147.8-4511.4z M-118.2-4507.2l0.2,0.6h-41.3l0.2-0.6c0.3-0.6,0.9-1.1,1.6-1.1h37.6
		C-119.1-4508.3-118.5-4507.9-118.2-4507.2z M-123.6-4511.6c0,0.6,0.2,1.2,0.5,1.6h-5.1c0.3-0.5,0.5-1,0.5-1.6l0.2-8.1
		c1.2,0.1,2.4,0.1,3.7,0L-123.6-4511.6z M-115.8-4523.1c-5.3,2-11.1,2.3-16.8,0.9c2.1-0.4,4.2-0.9,6.3-1.7c1.1-0.4,1.6-1.7,1.1-2.7
		c-2.1-4-1.4-2.8-3.2-6.3c0.5-0.1,1-0.2,1.4-0.4c1.4-0.5,1.5-0.5,2.9,0c0.9,0.3,1.7,0.6,2.6,0.4c1-0.2,1.8-0.9,2.5-1.5l1.8,3.4
		c-0.4,0.1-0.8,0.3-1.2,0.4c-0.5,0.2-0.8,0.7-0.5,1.2l3.2,6.1C-115.7-4523.2-115.8-4523.2-115.8-4523.1z"/>
</g>
</svg>
