<?xml version="1.0" encoding="UTF-8"?>
<svg width="48px" height="41px" viewBox="0 0 48 41" version="1.1" xmlns="http://www.w3.org/2000/svg" xmlns:xlink="http://www.w3.org/1999/xlink">
    <!-- Generator: Sketch 57.1 (83088) - https://sketch.com -->
    <title>train</title>
    <desc>Created with Sketch.</desc>
    <g id="Landing-Quebec" stroke="none" stroke-width="1" fill="none" fill-rule="evenodd">
        <g id="HomeDesktop_Quebec" transform="translate(-162.000000, -3210.000000)" fill="#FFFFFF" fill-rule="nonzero">
            <g id="train" transform="translate(162.000000, 3210.000000)">
                <path d="M13.3178003,18 C12.591208,18 12,18.5603023 12,19.249103 L12,22.750897 C12,23.4396977 12.591208,24 13.3178003,24 L17.6820988,24 C18.408792,24 19,23.4396977 19,22.750897 L19,19.249103 C19,18.560398 18.408792,18 17.6820988,18 L13.3178003,18 Z M17.48614,22.5650864 L13.51386,22.5650864 L13.51386,19.4349136 L17.48614,19.4349136 L17.48614,22.5650864 Z" id="Shape"></path>
                <path d="M4.31780028,18 C3.59120803,18 3,18.5603023 3,19.249103 L3,22.750897 C3,23.439602 3.59120803,24 4.31780028,24 L8.68209877,24 C9.40879197,24 10,23.4396977 10,22.750897 L10,19.249103 C10,18.5603023 9.40879197,18 8.68209877,18 L4.31780028,18 Z M8.486039,22.5650864 L4.51386004,22.5650864 L4.51386004,19.4349136 L8.48613996,19.4349136 L8.48613996,22.5650864 L8.486039,22.5650864 Z" id="Shape"></path>
                <path d="M21.3172683,24 L25.6798051,24 C26.4078196,24 27,23.4399566 27,22.7514744 L27,19.2485256 C27,18.5600434 26.4078196,18 25.6798051,18 L21.3172683,18 C20.5909694,18 20,18.5600434 20,19.2485256 L20,22.7513787 C20,23.439861 20.5909694,24 21.3172683,24 Z M21.5132489,19.4342504 L25.4867511,19.4342504 L25.4867511,22.5657496 L21.5132489,22.5657496 L21.5132489,19.4342504 Z" id="Shape"></path>
                <path d="M46.212934,36.2514741 L44.4660868,36.2514741 C44.393618,34.5056716 44.0321173,29.8215741 42.2352075,25.048675 C42.2344575,25.0466911 42.2337075,25.0448017 42.2330512,25.0428179 C42.2189887,25.0055023 42.2052074,24.9681867 42.1909574,24.9308711 C41.2901119,22.5686531 40.1576097,20.5264043 38.8113571,18.8239635 C38.7564194,18.6511782 38.6374505,18.5073951 38.4825752,18.4207663 C37.9121053,17.7401112 37.3065729,17.115949 36.6642904,16.5542314 C33.7404096,13.9972166 30.0934338,12.7004293 25.8244254,12.699768 L22.670013,12.699768 C22.2817935,12.699768 21.9670742,13.0169032 21.9670742,13.4081027 C21.9670742,13.7993023 22.2816998,14.1164375 22.670013,14.1164375 L25.8243317,14.1164375 C30.1627152,14.1170988 33.7375971,15.530273 36.5170088,18.3318702 L32.6038762,18.3318702 C31.5641866,18.3318702 30.7182787,19.2383082 30.7182787,20.3525798 L30.7182787,21.9996613 C30.7182787,22.7489015 31.0152793,23.4118908 31.6009367,23.9702074 C33.5190655,25.7988599 38.2136059,26.0258709 40.425454,26.0257764 C40.684392,26.0257764 40.9088299,26.0226589 41.0912678,26.0185967 C41.3893933,26.8554105 41.6429876,27.6894846 41.8583318,28.5029643 L27.7979605,28.4124622 C26.9531776,28.4073608 26.6860834,28.2265456 26.3162389,27.9762005 C25.8331442,27.649146 25.2318305,27.2420755 23.6984525,27.2420755 L1.42247153,27.2420755 L1.42181528,26.8300926 L1.4067215,14.1085021 L14.2858404,14.1121864 C14.2954967,14.1125643 14.3049654,14.1136979 14.3147155,14.1136979 L14.3173405,14.1136979 C14.3262467,14.1136979 14.3349655,14.1126587 14.343778,14.1122808 L19.3611941,14.1136979 L19.3613816,14.1136979 C19.7495073,14.1136979 20.0642267,13.7966572 20.0643204,13.4054576 C20.0645079,13.014258 19.7497886,12.6970283 19.3615691,12.6969339 L15.0151231,12.6957058 L14.9964668,7.55371301 C14.981748,3.38863275 11.6179914,0 7.49813964,0 C3.36366282,0 0,3.38976638 0,7.55645263 L0,13.4001673 L0,13.4005452 L0,13.4010175 L0.0159375311,26.8322654 L0.0265313018,33.5143053 L0.0265313018,36.9599033 L0.0265313018,37.3536536 L0.0265313018,39.4747846 C0.0265313018,40.315755 0.704251375,41 1.5373155,41 L46.2128403,41 C47.1983422,41 48,40.1932277 48,39.2015779 L48,38.0499907 C48,37.0582464 47.1984359,36.2514741 46.212934,36.2514741 L46.212934,36.2514741 Z M32.5670324,22.9410531 C32.2647818,22.6529202 32.1240627,22.3538287 32.1240627,21.9997558 L32.1240627,20.3526743 C32.1240627,20.0253363 32.3438132,19.7487287 32.6037824,19.7487287 L37.7625738,19.7487287 C38.8362009,21.1218476 39.7655464,22.7445559 40.5484542,24.6146806 C38.0466368,24.6293234 33.9688788,24.2773289 32.5670324,22.9410531 Z M23.6984525,28.658934 C24.8034859,28.658934 25.1411741,28.887551 25.5322999,29.1522554 C25.995707,29.4659897 26.5209893,29.8214797 27.789148,29.8292262 L42.2024887,29.9219956 C42.3964578,30.8007539 42.5473019,31.6386068 42.6647708,32.4108977 L40.6135168,32.4108977 C40.2252973,32.4108977 39.910578,32.7280329 39.910578,33.1192324 C39.910578,33.510432 40.2252036,33.8275672 40.6135168,33.8275672 L42.8548025,33.8275672 C42.9745214,34.863051 43.0303965,35.7030767 43.0560841,36.2510962 L33.4285965,36.2487344 C31.614718,34.0245368 28.7330249,32.8045534 25.2689556,32.8045534 L21.487917,32.8045534 L15.3995926,32.7991687 C15.3993113,32.7991687 15.3991238,32.7991687 15.3989363,32.7991687 C15.0109981,32.7991687 14.6962787,33.115926 14.6959975,33.5069366 C14.6956225,33.8981362 15.0100606,34.2155548 15.3982801,34.2159327 L21.4872607,34.2213175 L25.2688619,34.2213175 C27.1325217,34.2213175 29.5802453,34.604676 31.4746552,36.2512851 L1.43240905,36.2512851 L1.43240905,34.2179165 L2.82056801,34.2108313 L12.1537737,34.2162161 L12.1541487,34.2162161 C12.5421807,34.2162161 12.8569001,33.8992698 12.8570876,33.5082592 C12.8573689,33.1170596 12.5427432,32.7997355 12.1545237,32.7994521 L2.8173805,32.7940673 L1.43128405,32.8011525 L1.42472153,28.6590284 L23.6984525,28.6590284 L23.6984525,28.658934 Z M1.40569025,7.55645263 C1.40569025,4.17103186 4.13878933,1.41676402 7.49813964,1.41676402 C10.8454899,1.41676402 13.578589,4.1721655 13.5904953,7.55900332 L13.6091516,12.6954224 L1.40569025,12.691927 L1.40569025,7.55645263 L1.40569025,7.55645263 Z M46.5943098,39.2014834 C46.5943098,39.4083723 46.4195594,39.5831415 46.212934,39.5831415 L1.53740925,39.5831415 C1.48144039,39.5831415 1.43240905,39.5325057 1.43240905,39.4746902 L1.43240905,37.6682381 L43.781148,37.6682381 L43.7813355,37.6682381 L46.212934,37.6682381 C46.4196532,37.6682381 46.5943098,37.8430073 46.5943098,38.0498962 L46.5943098,39.2014834 Z" id="Shape"></path>
            </g>
        </g>
    </g>
</svg>