<?xml version="1.0" encoding="utf-8"?>
<!-- Generator: Adobe Illustrator 24.0.3, SVG Export Plug-In . SVG Version: 6.00 Build 0)  -->
<svg version="1.1" id="Capa_1" xmlns="http://www.w3.org/2000/svg" xmlns:xlink="http://www.w3.org/1999/xlink" x="0px" y="0px"
	 viewBox="0 0 48 19.9" style="enable-background:new 0 0 48 19.9;" xml:space="preserve">
<style type="text/css">
	.st0{fill:#FFFFFF;}
</style>
<title>Page 1 Copy 5</title>
<desc>Created with Sketch.</desc>
<g id="_x30_01-car" transform="translate(158.000000, 3592.000000)">
	<polygon id="Shape_33_" class="st0" points="-138.1,-3584.8 -134.5,-3584.8 -134.5,-3582.9 -138.1,-3582.9 	"/>
	<path id="Shape_34_" class="st0" d="M-110.7-3587l-5.4-0.8c-1-0.6-2-1.2-3.1-1.7c-3.5-1.6-7.3-2.5-11.1-2.5h-0.9
		c-4.5,0-9,1.2-13,3.4l-2.7,1.6c-3.2,0-6.4,0.9-9.1,2.6c-1.1,0.7-1.8,1.9-1.8,3.3v4.9c0,0.5,0.4,0.8,0.8,0.8h2.7
		c0.9,2.6,3.6,3.9,6.1,3c1.4-0.5,2.5-1.6,2.9-3h21.4c0.9,2.6,3.6,3.9,6.1,3c1.4-0.5,2.5-1.6,2.9-3h0.3c0.1,0,0.2,0,0.3-0.1l2.6-1.1
		c1.2-0.5,1.9-1.6,1.9-2.9v-6.7C-110-3586.6-110.3-3587-110.7-3587z M-146.9-3576.4c-0.4,1.8-2,3-3.8,2.6c-1.7-0.4-2.8-2.1-2.5-3.9
		c0.4-1.8,2-3,3.8-2.6c1.5,0.3,2.6,1.7,2.6,3.3C-146.8-3576.8-146.8-3576.6-146.9-3576.4z M-132.4-3577.1h-12.8c0-2.8-2.1-5-4.8-5
		c-2.7,0-4.8,2.2-4.8,5h-1.6v-4.1c0-0.8,0.4-1.5,1-1.8c2.6-1.5,5.6-2.4,8.6-2.4h14.4V-3577.1z M-132.4-3587h-11.3l0.2-0.1
		c3.4-1.9,7.2-3,11.1-3.2V-3587z M-130.8-3590.3h0.5c3.2,0,6.4,0.6,9.4,1.9l-1.4,1.4h-8.5V-3590.3z M-116.5-3576.4
		c-0.4,1.8-2,3-3.8,2.6c-1.7-0.4-2.8-2.1-2.5-3.9c0.4-1.8,2-3,3.8-2.6c1.5,0.3,2.6,1.7,2.6,3.3
		C-116.4-3576.8-116.4-3576.6-116.5-3576.4z M-111.6-3584.5h-2.4v1.7h2.4v3.4c0,0.6-0.4,1.2-0.9,1.4l-2.3,1c0-0.1,0-0.2,0-0.2
		c0-0.1,0-0.2,0-0.2c0-0.1,0-0.2,0-0.2c0-0.1,0-0.2,0-0.2c0-0.1,0-0.2-0.1-0.2c0-0.1,0-0.2-0.1-0.2c0-0.1-0.1-0.2-0.1-0.2
		c0-0.1-0.1-0.2-0.1-0.2c0-0.1-0.1-0.1-0.1-0.2s-0.1-0.1-0.1-0.2c0-0.1-0.1-0.1-0.1-0.2c0-0.1-0.1-0.1-0.1-0.2
		c0-0.1-0.1-0.1-0.1-0.2s-0.1-0.1-0.1-0.2c-0.1-0.1-0.1-0.1-0.1-0.2c0-0.1-0.1-0.1-0.2-0.2c-0.1-0.1-0.1-0.1-0.2-0.2
		c-0.1-0.1-0.1-0.1-0.2-0.2c-0.1-0.1-0.1-0.1-0.2-0.1c-0.1,0-0.1-0.1-0.2-0.1c-0.1,0-0.1-0.1-0.2-0.1c-0.1,0-0.1-0.1-0.2-0.1
		c-0.1,0-0.1-0.1-0.2-0.1c-0.1,0-0.1-0.1-0.2-0.1c-0.1,0-0.2-0.1-0.2-0.1c-0.1,0-0.1-0.1-0.2-0.1c-0.1,0-0.2-0.1-0.3-0.1
		c-0.1,0-0.1,0-0.2,0c-0.1,0-0.2,0-0.3,0c-0.1,0-0.1,0-0.2,0c-0.2,0-0.3,0-0.5,0c-2.7,0-4.8,2.2-4.8,5h-6.4v-8.3h8.8
		c0.2,0,0.4-0.1,0.6-0.2l2.1-2.2c0.9,0.4,1.7,0.9,2.5,1.4c0.1,0.1,0.2,0.1,0.3,0.1l4.9,0.7V-3584.5z"/>
</g>
</svg>
