<?xml version="1.0" encoding="utf-8"?>
<!-- Generator: Adobe Illustrator 24.0.3, SVG Export Plug-In . SVG Version: 6.00 Build 0)  -->
<svg version="1.1" id="Capa_1" xmlns="http://www.w3.org/2000/svg" xmlns:xlink="http://www.w3.org/1999/xlink" x="0px" y="0px"
	 viewBox="0 0 48 48.8" style="enable-background:new 0 0 48 48.8;" xml:space="preserve">
<style type="text/css">
	.st0{fill:#FFFFFF;}
</style>
<title>Page 1 Copy 5</title>
<desc>Created with Sketch.</desc>
<g id="Group-2" transform="translate(163.000000, 1237.000000)">
	<g id="airport">
		<path id="Shape" class="st0" d="M-117.4-1206.2h-2.4v-12.8h1.1c1.1,0,2.1-0.8,2.3-1.9l1.3-5.9c0,0,0-0.1,0-0.1c0-0.1,0-0.1,0-0.2
			l-0.7-4.1c-0.1-0.8-0.8-1.3-1.6-1.3h-0.9v-2.4c0-0.4-0.4-0.8-0.8-0.8c-0.4,0-0.8,0.4-0.8,0.8v2.4h-3.2v-2.4c0-0.9-0.7-1.6-1.6-1.6
			h-3.2c-0.9,0-1.6,0.7-1.6,1.6v2.4h-3.2v-2.4c0-0.4-0.4-0.8-0.8-0.8s-0.8,0.4-0.8,0.8v2.4h-0.9c-0.8,0-1.4,0.6-1.6,1.3l-0.7,4.1
			c0,0.1,0,0.1,0,0.2c0,0,0,0.1,0,0.1l1.3,5.9c0.2,1.1,1.2,1.9,2.3,1.9h1.1v12.8h-8v-5.6c1.3,0,2.4-1.1,2.4-2.4c0-1.3-1-2.4-2.3-2.5
			l-7.5-1.3c-1.7-0.3-3.4-0.3-5,0l-7.5,1.3c-1.3,0-2.4,1.1-2.4,2.5c0,1.3,1.1,2.4,2.5,2.4v5.6c-1.3,0-2.4,1.1-2.4,2.4v12.8
			c0,1.3,1.1,2.4,2.4,2.4h43.1c1.3,0,2.4-1.1,2.4-2.4v-12.8C-115-1205.1-116.1-1206.2-117.4-1206.2z M-117.9-1221.2
			c-0.1,0.4-0.4,0.6-0.8,0.6h-3.5v-5.6h5.4L-117.9-1221.2z M-128.6-1220.6v-5.6h4.8v5.6H-128.6z M-127.8-1235h3.2v2.4h-3.2V-1235z
			 M-135.1-1231h17.8l0.5,3.2h-18.9L-135.1-1231z M-134.5-1221.2l-1.1-5h5.4v5.6h-3.5C-134.1-1220.6-134.4-1220.9-134.5-1221.2z
			 M-131-1219h9.6v12.8h-9.6V-1219z M-161.3-1214.3c0-0.5,0.4-0.8,0.8-0.8c0,0,0.1,0,0.1,0l7.6-1.3c1.5-0.3,3-0.3,4.5,0l7.6,1.3
			c0,0,0.1,0,0.1,0c0.4,0,0.8,0.4,0.8,0.8c0,0.5-0.4,0.8-0.8,0.8h-19.9C-161-1213.4-161.3-1213.8-161.3-1214.3z M-158.9-1211.8h16.8
			v5.6h-1.6v-1.6c0-0.9-0.7-1.6-1.6-1.6h-10.4c-0.9,0-1.6,0.7-1.6,1.6v1.6h-1.6V-1211.8z M-145.4-1206.2h-10.4v-1.6h10.4V-1206.2z
			 M-116.6-1191c0,0.4-0.4,0.8-0.8,0.8h-43.1c-0.4,0-0.8-0.4-0.8-0.8v-12.8c0-0.4,0.4-0.8,0.8-0.8h43.1c0.4,0,0.8,0.4,0.8,0.8V-1191
			z"/>
		<path id="Shape_1_" class="st0" d="M-159.5-1225.8L-159.5-1225.8c-0.4,0-0.9,0.2-1.2,0.5l-1.4,1.5c-0.3,0.3-0.5,0.8-0.4,1.3
			c0,0.5,0.3,0.9,0.7,1.2l3.5,2.3c0.6,0.4,1.3,0.4,1.9-0.1l17.3-13.6c0.7-0.5,0.8-1.6,0.3-2.3c-1.2-1.7-3.5-2.2-5.3-1.1
			c-1.6,0.9-3.1,1.9-4.6,3l-7.1-2.1c-0.6-0.2-1.2,0-1.6,0.4l-2,2c-0.4,0.4-0.5,0.9-0.4,1.4c0.1,0.5,0.4,1,0.9,1.2l4.9,2.2l-2.7,2.2
			L-159.5-1225.8z M-155.9-1224.5l2.7-2.2c0.4-0.4,0.6-0.9,0.6-1.4c-0.1-0.5-0.4-1-0.9-1.2l-4.9-2.2l2-2l7.1,2.1
			c0.5,0.1,1,0.1,1.4-0.2c1.4-1,2.8-2,4.3-2.9c1.1-0.7,2.6-0.4,3.4,0.7l-17.3,13.6l-3.5-2.3l1.4-1.5l2.6,0h0
			C-156.5-1224.1-156.2-1224.3-155.9-1224.5z"/>
		<path id="Shape_2_" class="st0" d="M-158.2-1198.4h9.5c0.9,0,1.6-0.7,1.6-1.6v-1.6c0-0.9-0.7-1.6-1.6-1.6h-9.5
			c-0.9,0-1.6,0.7-1.6,1.6v1.6C-159.8-1199.1-159-1198.4-158.2-1198.4z M-158.2-1201.5h9.5v1.6h-9.5V-1201.5z"/>
		<path id="Shape_3_" class="st0" d="M-139-1196.6h-19.1c-0.9,0-1.6,0.7-1.6,1.6v1.6c0,0.9,0.7,1.6,1.6,1.6h19.1
			c0.9,0,1.6-0.7,1.6-1.6v-1.6C-137.4-1195.9-138.2-1196.6-139-1196.6z M-158.2-1193.4v-1.6h19.1v1.6H-158.2z"/>
		<path id="Shape_4_" class="st0" d="M-129.4-1203.1h-4.8c-0.9,0-1.6,0.7-1.6,1.6v1.6c0,0.9,0.7,1.6,1.6,1.6h4.8
			c0.9,0,1.6-0.7,1.6-1.6v-1.6C-127.8-1202.4-128.6-1203.1-129.4-1203.1z M-134.2-1199.9v-1.6h4.8v1.6H-134.2z"/>
		<path id="Shape_5_" class="st0" d="M-139-1203.1h-4.8c-0.9,0-1.6,0.7-1.6,1.6v1.6c0,0.9,0.7,1.6,1.6,1.6h4.8
			c0.9,0,1.6-0.7,1.6-1.6v-1.6C-137.4-1202.4-138.2-1203.1-139-1203.1z M-143.8-1199.9v-1.6h4.8v1.6H-143.8z"/>
		<path id="Shape_6_" class="st0" d="M-119.8-1203.1h-4.8c-0.9,0-1.6,0.7-1.6,1.6v1.6c0,0.9,0.7,1.6,1.6,1.6h4.8
			c0.9,0,1.6-0.7,1.6-1.6v-1.6C-118.2-1202.4-119-1203.1-119.8-1203.1z M-124.6-1199.9v-1.6h4.8v1.6H-124.6z"/>
		<path id="Shape_7_" class="st0" d="M-119.8-1196.6h-4.8c-0.9,0-1.6,0.7-1.6,1.6v1.6c0,0.9,0.7,1.6,1.6,1.6h4.8
			c0.9,0,1.6-0.7,1.6-1.6v-1.6C-118.2-1195.9-119-1196.6-119.8-1196.6z M-124.6-1193.4v-1.6h4.8v1.6H-124.6z"/>
		<path id="Shape_8_" class="st0" d="M-129.4-1196.6h-4.8c-0.9,0-1.6,0.7-1.6,1.6v1.6c0,0.9,0.7,1.6,1.6,1.6h4.8
			c0.9,0,1.6-0.7,1.6-1.6v-1.6C-127.8-1195.9-128.6-1196.6-129.4-1196.6z M-134.2-1193.4v-1.6h4.8v1.6H-134.2z"/>
		<path id="Shape_9_" class="st0" d="M-128.6-1217.5c-0.4,0-0.8,0.4-0.8,0.8v4c0,0.4,0.4,0.8,0.8,0.8c0.4,0,0.8-0.4,0.8-0.8v-4
			C-127.8-1217.1-128.2-1217.5-128.6-1217.5z"/>
		<path id="Shape_10_" class="st0" d="M-128.6-1210.3c-0.4,0-0.8,0.4-0.8,0.8v0.8c0,0.4,0.4,0.8,0.8,0.8c0.4,0,0.8-0.4,0.8-0.8v-0.8
			C-127.8-1209.9-128.2-1210.3-128.6-1210.3z"/>
	</g>
</g>
</svg>
