<?xml version="1.0" encoding="UTF-8"?>
<svg width="50px" height="43px" viewBox="0 0 50 43" version="1.1" xmlns="http://www.w3.org/2000/svg" xmlns:xlink="http://www.w3.org/1999/xlink">
    <!-- Generator: Sketch 57.1 (83088) - https://sketch.com -->
    <title>Page 1</title>
    <desc>Created with Sketch.</desc>
    <defs>
        <polygon id="path-1" points="0 43 50 43 50 0 0 0"></polygon>
    </defs>
    <g id="landing-toronto" stroke="none" stroke-width="1" fill="none" fill-rule="evenodd">
        <g id="HomeDesktop_Toronto-Copy-5" transform="translate(-156.000000, -2241.000000)">
            <g id="paquete-1-copy-3" transform="translate(44.000000, 1576.000000)">
                <g id="actividades" transform="translate(112.000000, 317.000000)">
                    <g id="Page-1" transform="translate(0.000000, 348.000000)">
                        <path d="M47.2067039,40.9193548 L2.79329609,40.9193548 C2.48477654,40.9193548 2.23463687,40.6709258 2.23463687,40.3645161 C2.23463687,40.0581065 2.48477654,39.8096774 2.79329609,39.8096774 L47.2067039,39.8096774 C47.5152235,39.8096774 47.7653631,40.0581065 47.7653631,40.3645161 C47.7653631,40.6709258 47.5152235,40.9193548 47.2067039,40.9193548 Z" id="Fill-1" fill="#FEFEFE"></path>
                        <path d="M6.42458101,40.7806452 C6.11606145,40.7806452 5.86592179,40.5322161 5.86592179,40.2258065 L5.86592179,1.33147419 C5.86592179,1.18832581 5.74972067,1.10967742 5.71131285,1.10967742 L5.40391061,1.10967742 C5.38547486,1.10967742 5.30726257,1.18360968 5.30726257,1.33147419 L5.30726257,40.2258065 C5.30726257,40.5322161 5.05712291,40.7806452 4.74860335,40.7806452 C4.4400838,40.7806452 4.18994413,40.5322161 4.18994413,40.2258065 L4.18994413,1.33147419 C4.18994413,0.5848 4.72318436,0 5.40391061,0 L5.71131285,0 C6.40083799,0 6.98324022,0.609767742 6.98324022,1.33147419 L6.98324022,40.2258065 C6.98324022,40.5322161 6.73310056,40.7806452 6.42458101,40.7806452" id="Fill-3" fill="#FEFEFE"></path>
                        <path d="M12.4301676,40.7806452 C12.121648,40.7806452 11.8715084,40.5322161 11.8715084,40.2258065 L11.8715084,1.33147419 C11.8715084,0.5848 12.4047486,0 13.0854749,0 L13.3928771,0 C14.0824022,0 14.6648045,0.609767742 14.6648045,1.33147419 L14.6648045,40.0870968 C14.6648045,40.3935065 14.4146648,40.6419355 14.1061453,40.6419355 C13.7976257,40.6419355 13.547486,40.3935065 13.547486,40.0870968 L13.547486,1.33147419 C13.547486,1.18832581 13.4312849,1.10967742 13.3928771,1.10967742 L13.0854749,1.10967742 C13.0670391,1.10967742 12.9888268,1.18360968 12.9888268,1.33147419 L12.9888268,40.2258065 C12.9888268,40.5322161 12.7386872,40.7806452 12.4301676,40.7806452" id="Fill-5" fill="#FEFEFE"></path>
                        <path d="M36.3128492,40.7806452 C36.0043296,40.7806452 35.7541899,40.5322161 35.7541899,40.2258065 L35.7541899,1.33147419 C35.7541899,1.18832581 35.6379888,1.10967742 35.599581,1.10967742 L35.2921788,1.10967742 C35.273743,1.10967742 35.1955307,1.18360968 35.1955307,1.33147419 L35.1955307,40.0870968 C35.1955307,40.3935065 34.9453911,40.6419355 34.6368715,40.6419355 C34.328352,40.6419355 34.0782123,40.3935065 34.0782123,40.0870968 L34.0782123,1.33147419 C34.0782123,0.5848 34.6114525,0 35.2921788,0 L35.599581,0 C36.2891061,0 36.8715084,0.609767742 36.8715084,1.33147419 L36.8715084,40.2258065 C36.8715084,40.5322161 36.6213687,40.7806452 36.3128492,40.7806452" id="Fill-7" fill="#FEFEFE"></path>
                        <path d="M43.9944134,40.7806452 C43.6858939,40.7806452 43.4357542,40.5322161 43.4357542,40.2258065 L43.4357542,1.33147419 C43.4357542,1.18832581 43.3195531,1.10967742 43.2811453,1.10967742 L42.973743,1.10967742 C42.9553073,1.10967742 42.877095,1.18360968 42.877095,1.33147419 L42.877095,40.0870968 C42.877095,40.3935065 42.6269553,40.6419355 42.3184358,40.6419355 C42.0099162,40.6419355 41.7597765,40.3935065 41.7597765,40.0870968 L41.7597765,1.33147419 C41.7597765,0.5848 42.2930168,0 42.973743,0 L43.2811453,0 C43.9706704,0 44.5530726,0.609767742 44.5530726,1.33147419 L44.5530726,40.2258065 C44.5530726,40.5322161 44.302933,40.7806452 43.9944134,40.7806452" id="Fill-9" fill="#FEFEFE"></path>
                        <path d="M43.8547486,27.7419355 L4.74860335,27.7419355 C4.4400838,27.7419355 4.18994413,27.4935065 4.18994413,27.1870968 C4.18994413,26.8806871 4.4400838,26.6322581 4.74860335,26.6322581 L43.8547486,26.6322581 C44.1632682,26.6322581 44.4134078,26.8806871 44.4134078,27.1870968 C44.4134078,27.4935065 44.1632682,27.7419355 43.8547486,27.7419355" id="Fill-11" fill="#FEFEFE"></path>
                        <path d="M43.9944134,18.8645161 L4.74860335,18.8645161 C4.4400838,18.8645161 4.18994413,18.6160871 4.18994413,18.3096774 C4.18994413,18.0032677 4.4400838,17.7548387 4.74860335,17.7548387 L43.9944134,17.7548387 C44.302933,17.7548387 44.5530726,18.0032677 44.5530726,18.3096774 C44.5530726,18.6160871 44.302933,18.8645161 43.9944134,18.8645161" id="Fill-13" fill="#FEFEFE"></path>
                        <path d="M12.150838,3.0516129 L6.98324022,3.0516129 C6.67472067,3.0516129 6.42458101,2.80318387 6.42458101,2.49677419 C6.42458101,2.19036452 6.67472067,1.94193548 6.98324022,1.94193548 L12.150838,1.94193548 C12.4593575,1.94193548 12.7094972,2.19036452 12.7094972,2.49677419 C12.7094972,2.80318387 12.4593575,3.0516129 12.150838,3.0516129" id="Fill-15" fill="#FEFEFE"></path>
                        <path d="M13.2681564,11.5129032 L4.88826816,11.5129032 C4.5797486,11.5129032 4.32960894,11.2644742 4.32960894,10.9580645 C4.32960894,10.6516548 4.5797486,10.4032258 4.88826816,10.4032258 L13.2681564,10.4032258 C13.576676,10.4032258 13.8268156,10.6516548 13.8268156,10.9580645 C13.8268156,11.2644742 13.576676,11.5129032 13.2681564,11.5129032" id="Fill-17" fill="#FEFEFE"></path>
                        <path d="M13.547486,9.15483871 L4.88826816,9.15483871 C4.5797486,9.15483871 4.32960894,8.90640968 4.32960894,8.6 C4.32960894,8.29359032 4.5797486,8.04516129 4.88826816,8.04516129 L13.547486,8.04516129 C13.8560056,8.04516129 14.1061453,8.29359032 14.1061453,8.6 C14.1061453,8.90640968 13.8560056,9.15483871 13.547486,9.15483871" id="Fill-19" fill="#FEFEFE"></path>
                        <path d="M43.575419,3.0516129 L36.7318436,3.0516129 C36.423324,3.0516129 36.1731844,2.80318387 36.1731844,2.49677419 C36.1731844,2.19036452 36.423324,1.94193548 36.7318436,1.94193548 L43.575419,1.94193548 C43.8839385,1.94193548 44.1340782,2.19036452 44.1340782,2.49677419 C44.1340782,2.80318387 43.8839385,3.0516129 43.575419,3.0516129" id="Fill-21" fill="#FEFEFE"></path>
                        <path d="M43.7150838,11.0967742 L34.6368715,11.0967742 C34.328352,11.0967742 34.0782123,10.8483452 34.0782123,10.5419355 C34.0782123,10.2355258 34.328352,9.98709677 34.6368715,9.98709677 L43.7150838,9.98709677 C44.0236034,9.98709677 44.273743,10.2355258 44.273743,10.5419355 C44.273743,10.8483452 44.0236034,11.0967742 43.7150838,11.0967742" id="Fill-23" fill="#FEFEFE"></path>
                        <path d="M43.7150838,9.15483871 L34.6368715,9.15483871 C34.328352,9.15483871 34.0782123,8.90640968 34.0782123,8.6 C34.0782123,8.29359032 34.328352,8.04516129 34.6368715,8.04516129 L43.7150838,8.04516129 C44.0236034,8.04516129 44.273743,8.29359032 44.273743,8.6 C44.273743,8.90640968 44.0236034,9.15483871 43.7150838,9.15483871" id="Fill-25" fill="#FEFEFE"></path>
                        <path d="M15.2249581,39.9420203 L15.2213268,39.3873203 C15.2211872,39.3491752 15.1967458,35.5492235 15.2213268,33.0876816 C15.2224441,32.9787945 15.2211872,32.86963 15.2200698,32.7603268 C15.2073603,31.5939171 15.1914385,30.142459 17.8020531,28.8770106 L18.304148,28.6335752 L18.7942318,29.630759 L18.2921369,29.8741945 C16.3164385,30.8318461 16.3256564,31.677559 16.3372486,32.748259 C16.3385056,32.8651913 16.3397626,32.9819848 16.3386453,33.0986397 C16.3140642,35.5510268 16.3383659,39.342101 16.3386453,39.3799687 L16.3422765,39.9348074 L15.2249581,39.9420203 Z" id="Fill-27" fill="#FEFEFE"></path>
                        <path d="M20.9652654,39.9420203 L19.8479469,39.9348074 L19.8515782,39.3799687 C19.8518575,39.342101 19.8761592,35.5510268 19.8515782,33.0987784 C19.8504609,32.9819848 19.8517179,32.8651913 19.8529749,32.748259 C19.864567,31.677559 19.8737849,30.8318461 17.8980866,29.8741945 L17.3959916,29.630759 L17.8860754,28.6335752 L18.3881704,28.8770106 C20.9987849,30.142459 20.9830028,31.5939171 20.9701536,32.7603268 C20.9690363,32.86963 20.9677793,32.9787945 20.9688966,33.0878203 C20.9934777,35.5492235 20.9690363,39.3491752 20.9688966,39.3873203 L20.9652654,39.9420203 Z" id="Fill-29" fill="#FEFEFE"></path>
                        <path d="M21.4763268,39.9420203 L21.4726955,39.3873203 C21.4725559,39.3491752 21.4481145,35.5492235 21.4726955,33.0876816 C21.4738128,32.9786558 21.4725559,32.8694913 21.4714385,32.7600494 C21.4588687,31.5936397 21.4430866,30.1423203 24.0534218,28.8770106 L24.5555168,28.6335752 L25.0456006,29.630759 L24.5435056,29.8741945 C22.5679469,30.8317074 22.5770251,31.677559 22.5886173,32.748259 C22.590014,32.8650526 22.5911313,32.9819848 22.590014,33.0986397 C22.565433,35.5510268 22.5897346,39.342101 22.590014,39.3799687 L22.5936453,39.9348074 L21.4763268,39.9420203 Z" id="Fill-31" fill="#FEFEFE"></path>
                        <path d="M27.1578492,39.9420203 L26.0405307,39.9349461 L26.044162,39.3801074 C26.0444413,39.342101 26.0686034,35.5510268 26.044162,33.0986397 C26.0430447,32.9826784 26.044162,32.8651913 26.0455587,32.7464558 C26.0564525,31.7223623 26.0658101,30.8379494 24.5314525,29.966159 L24.0465363,29.6906816 L24.6012849,28.7274816 L25.0863408,29.0030977 C27.1899721,30.198359 27.1743296,31.6778365 27.1627374,32.7582461 C27.1616201,32.8693526 27.1603631,32.9793494 27.1614804,33.0878203 C27.1859218,35.5492235 27.1616201,39.3491752 27.1614804,39.3871816 L27.1578492,39.9420203 Z" id="Fill-33" fill="#FEFEFE"></path>
                        <path d="M27.7516899,39.9420203 L27.7480587,39.3873203 C27.747919,39.3491752 27.7234777,35.5492235 27.7480587,33.0876816 C27.749176,32.9786558 27.747919,32.8694913 27.7468017,32.7600494 C27.7342318,31.5936397 27.7184497,30.1423203 30.3287849,28.8770106 L30.8308799,28.6335752 L31.3209637,29.630759 L30.8188687,29.8741945 C28.8433101,30.8317074 28.8523883,31.677559 28.8639804,32.748259 C28.8653771,32.8650526 28.8664944,32.9819848 28.8653771,33.0986397 C28.8407961,35.5510268 28.8650978,39.342101 28.8653771,39.3799687 L28.8690084,39.9348074 L27.7516899,39.9420203 Z" id="Fill-35" fill="#FEFEFE"></path>
                        <path d="M33.4332123,39.9420203 L32.3158939,39.9349461 L32.3195251,39.3801074 C32.3198045,39.342101 32.3439665,35.5510268 32.3195251,33.0986397 C32.3184078,32.9825397 32.3195251,32.8649139 32.3207821,32.7460397 C32.3319553,31.6915687 32.3415922,30.7806623 30.6401955,29.8747494 L30.1478771,29.6124494 L30.6758101,28.6345461 L31.1681285,28.8967074 C33.4658939,30.1202655 33.4498324,31.6446848 33.4381006,32.7576913 C33.4368436,32.8689365 33.4357263,32.9790719 33.4368436,33.0876816 C33.4612849,35.5492235 33.4369832,39.3491752 33.4368436,39.3871816 L33.4332123,39.9420203 Z" id="Fill-37" fill="#FEFEFE"></path>
                        <path d="M20.6703911,26.216129 L19.5530726,26.216129 L19.5530726,22.2201806 C19.5530726,21.4504806 18.7417598,20.7497194 18.1153631,20.5399903 C17.3703911,20.7684452 16.6201117,21.4640742 16.6201117,22.2201806 L16.6201117,26.216129 L15.5027933,26.216129 L15.5027933,22.2201806 C15.5027933,20.8315581 16.7687151,19.707871 17.9925978,19.4239323 L18.1208101,19.3942484 L18.2488827,19.4244871 C19.4182961,19.7006581 20.6703911,20.8899548 20.6703911,22.2201806 L20.6703911,26.216129 Z" id="Fill-39" fill="#FEFEFE"></path>
                        <path d="M19.5530726,40.2258065 L18.4357542,40.2258065 L18.4357542,38.2020323 C18.4357542,38.0924516 18.2667598,37.9185097 18.0944134,37.8298742 C17.8997207,37.9210065 17.7374302,38.0952258 17.7374302,38.2020323 L17.7374302,40.2258065 L16.6201117,40.2258065 L16.6201117,38.2020323 C16.6201117,37.4597968 17.3081006,36.8565484 17.9731844,36.7024419 L18.1013966,36.6727581 L18.2293296,36.7028581 C18.8660615,36.8532194 19.5530726,37.4690903 19.5530726,38.2020323 L19.5530726,40.2258065 Z" id="Fill-41" fill="#FEFEFE"></path>
                        <path d="M25.8379888,40.2258065 L24.7206704,40.2258065 L24.7206704,38.2020323 C24.7206704,38.0924516 24.551676,37.9185097 24.3793296,37.8298742 C24.1846369,37.9210065 24.0223464,38.0952258 24.0223464,38.2020323 L24.0223464,40.2258065 L22.9050279,40.2258065 L22.9050279,38.2020323 C22.9050279,37.4597968 23.5930168,36.8565484 24.2581006,36.7024419 L24.3863128,36.6727581 L24.5142458,36.7028581 C25.1509777,36.8532194 25.8379888,37.4690903 25.8379888,38.2020323 L25.8379888,40.2258065 Z" id="Fill-43" fill="#FEFEFE"></path>
                        <path d="M32.122905,40.2258065 L31.0055866,40.2258065 L31.0055866,38.2020323 C31.0055866,38.0924516 30.8365922,37.9185097 30.6642458,37.8298742 C30.4695531,37.9210065 30.3072626,38.0952258 30.3072626,38.2020323 L30.3072626,40.2258065 L29.1899441,40.2258065 L29.1899441,38.2020323 C29.1899441,37.4597968 29.877933,36.8565484 30.5430168,36.7024419 L30.6712291,36.6727581 L30.799162,36.7028581 C31.4358939,36.8532194 32.122905,37.4690903 32.122905,38.2020323 L32.122905,40.2258065 Z" id="Fill-45" fill="#FEFEFE"></path>
                        <path d="M19.6927374,35.0935484 L18.575419,35.0935484 L18.575419,32.7872226 C18.575419,32.5851226 18.3322626,32.3355839 18.0981844,32.2264194 C17.847486,32.3337806 17.5977654,32.571529 17.5977654,32.7872226 L17.5977654,35.0935484 L16.4804469,35.0935484 L16.4804469,32.7872226 C16.4804469,31.9494161 17.2407821,31.2723742 17.975838,31.1019 L18.1039106,31.0722161 L18.2319832,31.1024548 C18.9344972,31.2680742 19.6927374,31.9592645 19.6927374,32.7872226 L19.6927374,35.0935484 Z" id="Fill-47" fill="#FEFEFE"></path>
                        <path d="M25.9776536,35.0935484 L24.8603352,35.0935484 L24.8603352,32.7872226 C24.8603352,32.5851226 24.6171788,32.3355839 24.3831006,32.2264194 C24.1324022,32.3337806 23.8826816,32.571529 23.8826816,32.7872226 L23.8826816,35.0935484 L22.7653631,35.0935484 L22.7653631,32.7872226 C22.7653631,31.9494161 23.5256983,31.2723742 24.2607542,31.1019 L24.3888268,31.0722161 L24.5168994,31.1024548 C25.2194134,31.2680742 25.9776536,31.9592645 25.9776536,32.7872226 L25.9776536,35.0935484 Z" id="Fill-49" fill="#FEFEFE"></path>
                        <path d="M32.2625698,35.0935484 L31.1452514,35.0935484 L31.1452514,32.7872226 C31.1452514,32.5851226 30.902095,32.3355839 30.6680168,32.2264194 C30.4173184,32.3337806 30.1675978,32.571529 30.1675978,32.7872226 L30.1675978,35.0935484 L29.0502793,35.0935484 L29.0502793,32.7872226 C29.0502793,31.9494161 29.8106145,31.2723742 30.5456704,31.1019 L30.673743,31.0722161 L30.8018156,31.1024548 C31.5043296,31.2680742 32.2625698,31.9592645 32.2625698,32.7872226 L32.2625698,35.0935484 Z" id="Fill-51" fill="#FEFEFE"></path>
                        <path d="M26.8156425,26.216129 L25.698324,26.216129 L25.698324,22.2201806 C25.698324,21.4504806 24.8870112,20.7497194 24.2606145,20.5399903 C23.5156425,20.7684452 22.7653631,21.4640742 22.7653631,22.2201806 L22.7653631,26.216129 L21.6480447,26.216129 L21.6480447,22.2201806 C21.6480447,20.8315581 22.9139665,19.707871 24.1378492,19.4239323 L24.2660615,19.3942484 L24.3941341,19.4244871 C25.5635475,19.7006581 26.8156425,20.8899548 26.8156425,22.2201806 L26.8156425,26.216129 Z" id="Fill-53" fill="#FEFEFE"></path>
                        <path d="M33.2402235,26.216129 L32.122905,26.216129 L32.122905,22.2201806 C32.122905,21.4504806 31.3115922,20.7497194 30.6851955,20.5399903 C29.9402235,20.7684452 29.1899441,21.4640742 29.1899441,22.2201806 L29.1899441,26.216129 L28.0726257,26.216129 L28.0726257,22.2201806 C28.0726257,20.8315581 29.3385475,19.707871 30.5624302,19.4239323 L30.6906425,19.3942484 L30.8187151,19.4244871 C31.9881285,19.7006581 33.2402235,20.8899548 33.2402235,22.2201806 L33.2402235,26.216129 Z" id="Fill-55" fill="#FEFEFE"></path>
                        <mask id="mask-2" fill="white">
                            <use xlink:href="#path-1"></use>
                        </mask>
                        <g id="Clip-58"></g>
                        <path d="M15.7826816,17.0617065 L16.9,17.0617065 L16.9,15.952029 L15.7826816,15.952029 L15.7826816,17.0617065 Z M18.0173184,17.0617065 L19.1346369,17.0617065 L19.1346369,15.952029 L18.0173184,15.952029 L18.0173184,17.0617065 Z M20.2519553,17.0617065 L21.3692737,17.0617065 L21.3692737,15.952029 L20.2519553,15.952029 L20.2519553,17.0617065 Z M22.4865922,17.0617065 L23.602514,17.0617065 L23.602514,15.952029 L22.4865922,15.952029 L22.4865922,17.0617065 Z M24.7212291,17.0617065 L25.8371508,17.0617065 L25.8371508,15.952029 L24.7212291,15.952029 L24.7212291,17.0617065 Z M26.9558659,17.0617065 L28.0717877,17.0617065 L28.0717877,15.952029 L26.9558659,15.952029 L26.9558659,17.0617065 Z M29.1905028,17.0617065 L30.3064246,17.0617065 L30.3064246,15.952029 L29.1905028,15.952029 L29.1905028,17.0617065 Z M31.4251397,17.0617065 L32.5424581,17.0617065 L32.5424581,15.952029 L31.4251397,15.952029 L31.4251397,17.0617065 Z" id="Fill-57" fill="#FEFEFE" mask="url(#mask-2)"></path>
                        <path d="M7.68212291,1.52622258 L8.79944134,1.52622258 L8.79944134,0.416545161 L7.68212291,0.416545161 L7.68212291,1.52622258 Z M9.77709497,1.52622258 L10.8944134,1.52622258 L10.8944134,0.416545161 L9.77709497,0.416545161 L9.77709497,1.52622258 Z" id="Fill-59" fill="#FEFEFE" mask="url(#mask-2)"></path>
                        <path d="M37.7100559,1.52622258 L38.8273743,1.52622258 L38.8273743,0.416545161 L37.7100559,0.416545161 L37.7100559,1.52622258 Z M39.8050279,1.52622258 L40.9223464,1.52622258 L40.9223464,0.416545161 L39.8050279,0.416545161 L39.8050279,1.52622258 Z" id="Fill-60" fill="#FEFEFE" mask="url(#mask-2)"></path>
                        <path d="M49.4413408,43 L0.558659218,43 C0.250139665,43 0,42.751571 0,42.4451613 C0,42.1387516 0.250139665,41.8903226 0.558659218,41.8903226 L49.4413408,41.8903226 C49.7498603,41.8903226 50,42.1387516 50,42.4451613 C50,42.751571 49.7498603,43 49.4413408,43" id="Fill-61" fill="#FEFEFE" mask="url(#mask-2)"></path>
                        <path d="M10.8938547,25.1064516 L9.77653631,25.1064516 L9.77653631,21.0453097 C9.77653631,20.7986839 9.66536313,20.6074032 9.42960894,20.4534355 C9.30363128,20.5560806 9.1377095,20.7509677 9.07821229,21.0892806 L9.07821229,25.1064516 L7.96089385,25.1064516 L7.96675978,20.9644419 C8.09078212,20.1278839 8.59608939,19.6364355 8.98463687,19.4149161 L9.01522346,19.2817548 L9.48617318,19.2806452 L9.48617318,19.8404774 L10.0046089,19.963929 C10.0701117,19.6877581 9.91117318,19.4421032 9.72821229,19.3513871 L9.74357542,19.3586 C10.7444134,19.836871 10.8938547,20.6205806 10.8938547,21.0453097 L10.8938547,25.1064516 Z" id="Fill-62" fill="#FEFEFE" mask="url(#mask-2)"></path>
                        <polygon id="Fill-63" fill="#FEFEFE" mask="url(#mask-2)" points="7.68156425 25.9387097 11.1731844 25.9387097 11.1731844 24.8290323 7.68156425 24.8290323"></polygon>
                        <path d="M11.0335196,17.0612903 L9.91620112,17.0612903 L9.91620112,13.6821839 C9.91620112,13.6278097 9.91620112,13.4712065 9.5622905,13.3363806 C9.45321229,13.3872871 9.2777933,13.5033871 9.21787709,13.7401645 L9.21787709,17.0612903 L8.10055866,17.0612903 L8.10055866,13.6318323 L8.10963687,13.5823129 C8.23673184,12.892371 8.70907821,12.5044 9.10307263,12.3244935 L9.12122905,12.2071452 L9.62583799,12.2064516 L9.62583799,12.6917968 L9.78882682,12.2407129 C10.9134078,12.5930355 11.0335196,13.3659258 11.0335196,13.6821839 L11.0335196,17.0612903 Z" id="Fill-64" fill="#FEFEFE" mask="url(#mask-2)"></path>
                        <path d="M10.8938547,7.90645161 L9.77653631,7.90645161 L9.77653631,4.52734516 C9.77653631,4.47297097 9.77653631,4.31636774 9.4226257,4.18168065 C9.31354749,4.23244839 9.13812849,4.34854839 9.07821229,4.58532581 L9.07821229,7.90645161 L7.96089385,7.90645161 L7.96089385,4.47699355 L7.96997207,4.42747419 C8.09706704,3.73753226 8.56941341,3.34942258 8.96340782,3.16965484 L8.98156425,3.05230645 L9.48617318,3.0516129 L9.48617318,3.53695806 L9.64916201,3.08587419 C10.773743,3.43819677 10.8938547,4.2110871 10.8938547,4.52734516 L10.8938547,7.90645161 Z" id="Fill-65" fill="#FEFEFE" mask="url(#mask-2)"></path>
                        <path d="M10.8938547,35.5096774 L9.77653631,35.5096774 L9.77653631,31.4485355 C9.77653631,31.2019097 9.66536313,31.010629 9.42960894,30.8566613 C9.30363128,30.9593065 9.1377095,31.1541935 9.07821229,31.4925065 L9.07821229,35.5096774 L7.96089385,35.5096774 L7.96675978,31.3676677 C8.09078212,30.5311097 8.59608939,30.0396613 8.98463687,29.8181419 L9.01522346,29.6849806 L9.48617318,29.683871 L9.48617318,30.2437032 L10.0046089,30.3671548 C10.0701117,30.0909839 9.91117318,29.845329 9.72821229,29.7546129 L9.74357542,29.7618258 C10.7444134,30.2400968 10.8938547,31.0238065 10.8938547,31.4485355 L10.8938547,35.5096774 Z" id="Fill-66" fill="#FEFEFE" mask="url(#mask-2)"></path>
                        <polygon id="Fill-67" fill="#FEFEFE" mask="url(#mask-2)" points="7.68156425 36.3419355 11.1731844 36.3419355 11.1731844 35.2322581 7.68156425 35.2322581"></polygon>
                        <path d="M40.7821229,25.1064516 L39.6648045,25.1064516 L39.6648045,21.0453097 C39.6648045,20.7986839 39.5536313,20.6074032 39.3178771,20.4534355 C39.1918994,20.5560806 39.0259777,20.7509677 38.9664804,21.0892806 L38.9664804,25.1064516 L37.849162,25.1064516 L37.8550279,20.9644419 C37.9790503,20.1278839 38.4843575,19.6364355 38.872905,19.4149161 L38.9034916,19.2817548 L39.3744413,19.2806452 L39.3744413,19.8404774 L39.8928771,19.963929 C39.9583799,19.6877581 39.7994413,19.4421032 39.6164804,19.3513871 L39.6318436,19.3586 C40.6326816,19.836871 40.7821229,20.6205806 40.7821229,21.0453097 L40.7821229,25.1064516 Z" id="Fill-68" fill="#FEFEFE" mask="url(#mask-2)"></path>
                        <polygon id="Fill-69" fill="#FEFEFE" mask="url(#mask-2)" points="37.5698324 25.9387097 41.0614525 25.9387097 41.0614525 24.8290323 37.5698324 24.8290323"></polygon>
                        <path d="M40.9217877,17.0612903 L39.8044693,17.0612903 L39.8044693,13.6821839 C39.8044693,13.6278097 39.8044693,13.4712065 39.4505587,13.3363806 C39.3414804,13.3872871 39.1660615,13.5033871 39.1061453,13.7401645 L39.1061453,17.0612903 L37.9888268,17.0612903 L37.9888268,13.6318323 L37.997905,13.5823129 C38.125,12.892371 38.5973464,12.5044 38.9913408,12.3244935 L39.0094972,12.2071452 L39.5141061,12.2064516 L39.5141061,12.6917968 L39.677095,12.2407129 C40.801676,12.5930355 40.9217877,13.3659258 40.9217877,13.6821839 L40.9217877,17.0612903 Z" id="Fill-70" fill="#FEFEFE" mask="url(#mask-2)"></path>
                        <path d="M40.7821229,7.90645161 L39.6648045,7.90645161 L39.6648045,4.52734516 C39.6648045,4.47297097 39.6648045,4.31636774 39.3108939,4.18168065 C39.2018156,4.23244839 39.0263966,4.34854839 38.9664804,4.58532581 L38.9664804,7.90645161 L37.849162,7.90645161 L37.849162,4.47699355 L37.8582402,4.42747419 C37.9853352,3.73753226 38.4576816,3.34942258 38.851676,3.16965484 L38.8698324,3.05230645 L39.3744413,3.0516129 L39.3744413,3.53695806 L39.5374302,3.08587419 C40.6620112,3.43819677 40.7821229,4.2110871 40.7821229,4.52734516 L40.7821229,7.90645161 Z" id="Fill-71" fill="#FEFEFE" mask="url(#mask-2)"></path>
                        <path d="M40.7821229,35.5096774 L39.6648045,35.5096774 L39.6648045,31.4485355 C39.6648045,31.2019097 39.5536313,31.010629 39.3178771,30.8566613 C39.1918994,30.9593065 39.0259777,31.1541935 38.9664804,31.4925065 L38.9664804,35.5096774 L37.849162,35.5096774 L37.8550279,31.3676677 C37.9790503,30.5311097 38.4843575,30.0396613 38.872905,29.8181419 L38.9034916,29.6849806 L39.3744413,29.683871 L39.3744413,30.2437032 L39.8928771,30.3671548 C39.9583799,30.0909839 39.7994413,29.845329 39.6164804,29.7546129 L39.6318436,29.7618258 C40.6326816,30.2400968 40.7821229,31.0238065 40.7821229,31.4485355 L40.7821229,35.5096774 Z" id="Fill-72" fill="#FEFEFE" mask="url(#mask-2)"></path>
                        <polygon id="Fill-73" fill="#FEFEFE" mask="url(#mask-2)" points="37.5698324 36.3419355 41.0614525 36.3419355 41.0614525 35.2322581 37.5698324 35.2322581"></polygon>
                        <polygon id="Fill-74" fill="#FEFEFE" mask="url(#mask-2)" points="29.6089385 24.8290323 31.7039106 24.8290323 31.7039106 23.7193548 29.6089385 23.7193548"></polygon>
                        <polygon id="Fill-75" fill="#FEFEFE" mask="url(#mask-2)" points="23.0446927 24.8290323 25.2793296 24.8290323 25.2793296 23.7193548 23.0446927 23.7193548"></polygon>
                        <polygon id="Fill-76" fill="#FEFEFE" mask="url(#mask-2)" points="17.0391061 24.8290323 19.1340782 24.8290323 19.1340782 23.7193548 17.0391061 23.7193548"></polygon>
                    </g>
                </g>
            </g>
        </g>
    </g>
</svg>