<?xml version="1.0" encoding="utf-8"?>
<!-- Generator: Adobe Illustrator 24.0.3, SVG Export Plug-In . SVG Version: 6.00 Build 0)  -->
<svg version="1.1" id="Capa_1" xmlns="http://www.w3.org/2000/svg" xmlns:xlink="http://www.w3.org/1999/xlink" x="0px" y="0px"
	 viewBox="0 0 48 30" style="enable-background:new 0 0 48 30;" xml:space="preserve">
<style type="text/css">
	.st0{fill:#FFFFFF;}
</style>
<title>Page 1 Copy 5</title>
<desc>Created with Sketch.</desc>
<g id="_x30_01-mountain" transform="translate(158.000000, 4478.000000)">
	<path id="Shape_36_" class="st0" d="M-110-4450.3c-0.1-1.3-1.3-2.3-2.6-2.1c-0.5-1,1.8,3.6-7.9-15.5l-3.3-6.6
		c-0.7-1.3-2.5-1.3-3.2,0c-0.3,0.6-2.2,4.4-2.7,5.2l-4-7.9c-0.6-1.2-2.3-1.2-2.9,0l-3.3,6.4c-0.1,0.3-0.5,0.3-0.7,0
		c-0.6-1.2-2.3-1.2-2.9,0l-5.3,10.4l-0.1-0.3c-0.4-0.9-1.7-0.9-2.1,0v0c0,0,0,0,0,0l-5.7,11.1h-0.6c-0.4,0-0.7,0.3-0.7,0.7
		s0.3,0.7,0.7,0.7c0.8,0,34.7,0,35.4,0c0.4,0,0.7-0.3,0.7-0.7s-0.3-0.7-0.7-0.7h-7.8c-0.3,0-0.6-0.3-0.6-0.6c0-0.3,0.3-0.6,0.6-0.5
		c0.5,0.1,1-0.3,1.1-0.8c0.1-0.6,0.7-1.1,1.3-1.1c0.5,0,0.9,0.2,1.2,0.7c0.2,0.4,0.7,0.6,1.1,0.5c0.1,0,0.3-0.1,0.7,0
		c0.8,0.3,1-0.5,1.8-0.3c0.6,0.1,1.1-0.3,1.2-0.8c0.1-1.1,1.1-1.9,2.2-1.9c0.8,0,1.5,0.4,1.9,1.1c0.2,0.4,0.7,0.6,1.1,0.6
		c0.1,0,0.2,0,0.3-0.1c0.8-0.3,1.7,0.2,2,0.9c0.2,0.5,0.8,0.8,1.3,0.6c0.5-0.2,1,0.2,1.1,0.8c0,0.5-0.4,0.9-0.8,0.9h-6.4
		c-0.4,0-0.7,0.3-0.7,0.7s0.3,0.7,0.7,0.7h6.4C-111-4448-110-4449-110-4450.3z M-125.8-4473.9c0.1-0.3,0.5-0.3,0.7,0
		c0.3,0.5,2.3,4.6,3.1,6.1l-2.5,2.5c-0.1,0.1-0.2,0.1-0.2,0l-1.5-1.3c-0.7-0.6-1.7-0.5-2.2,0.2l-0.8,1c-0.1,0.1-0.2,0.1-0.2,0
		l-0.4-0.4C-127.1-4471.2-127.2-4471.1-125.8-4473.9z M-150-4459.5l1.9,3.8l-1,1l-1.1-1c-0.5-0.4-1.2-0.4-1.7-0.1L-150-4459.5z
		 M-155.1-4449.4l2.1-4c1,0.2,1.5-0.5,2-1.2l1.1,1c0.5,0.5,1.4,0.4,1.9-0.1l0.7-0.7l2.6,5.1H-155.1z M-139.8-4449.4h-3.5l-4.7-9.3
		l5.8-11.3c0.1-0.2,0.3-0.2,0.4,0c0.7,1.3,2.5,1.3,3.2,0l3.3-6.4c0.1-0.2,0.3-0.2,0.4,0l4.5,8.8
		C-130.9-4466.9-139-4450.9-139.8-4449.4z M-115.4-4454c-0.2,0-0.5,0-0.7,0.1c-0.7-1-1.8-1.7-3.1-1.7c-1.7,0-3.1,1.1-3.5,2.7
		c-0.5,0-0.9,0.1-1.3,0.4c-0.3-0.1-0.7-0.1-1,0c-0.5-0.7-1.3-1.1-2.2-1.1c-1.2,0-2.3,0.8-2.6,1.9c-1,0.1-1.8,0.9-1.8,1.9l0,0
		c0,0.2,0,0.4,0.1,0.6h-6.6l7.6-15l0.1,0.1c0,0,0,0,0,0c0.7,0.6,1.7,0.5,2.3-0.2l0.8-1c0.1-0.1,0.2-0.1,0.2,0l1.5,1.3
		c0.6,0.5,1.6,0.5,2.1-0.1l2.1-2.2l6.3,12.4C-115.1-4454-115.3-4454-115.4-4454z"/>
</g>
</svg>
