<?xml version="1.0" encoding="utf-8"?>
<!-- Generator: Adobe Illustrator 24.0.3, SVG Export Plug-In . SVG Version: 6.00 Build 0)  -->
<svg version="1.1" id="Capa_1" xmlns="http://www.w3.org/2000/svg" xmlns:xlink="http://www.w3.org/1999/xlink" x="0px" y="0px"
	 viewBox="0 0 48 60.6" style="enable-background:new 0 0 48 60.6;" xml:space="preserve">
<style type="text/css">
	.st0{fill:#FFFFFF;}
</style>
<title>Page 1 Copy 5</title>
<desc>Created with Sketch.</desc>
<g id="Group-9" transform="translate(162.000000, 4729.000000)">
	<g id="_x30_02-forest-copy" transform="translate(5.000000, 0.000000)">
		<path id="Shape_37_" class="st0" d="M-122.3-4696l-2.2-4.4c0.1,0,0.2-0.1,0.3-0.1c0.8-0.3,1.1-1.2,0.8-1.9c-0.5-1-1.9-3.7-2.4-4.7
			c0.2-0.1,0.3-0.1,0.5-0.2c0.7-0.3,1.1-1.1,0.7-1.8l-6.4-12.6c-0.3-0.6-1.2-0.6-1.5,0l-1,2c-0.2,0.4,0,0.8,0.3,1
			c0.4,0.2,0.8,0,1-0.3l0.5-0.9l5.8,11.4c-0.3,0.1-0.7,0.2-1,0.3c-0.4,0.1-0.6,0.6-0.4,1l0.6,1.2c-0.2,0.1-0.3,0.3-0.5,0.4
			c-1.1,1-1.2,1-2.6,0.5c-1-0.4-1.6-0.5-2.7-0.2c0-0.1-0.1-0.3-0.1-0.4c-1.5-3.1-1.4-2.8-2.8-5.6c0.2-0.1,0.5-0.2,0.7-0.2
			c0.8-0.3,1.1-1.2,0.8-1.9l-0.4-0.8l0.8-1.5c0.2-0.4,0-0.8-0.3-1c-0.4-0.2-0.8,0-1,0.3l-0.3,0.6c-0.6-1.3-5.7-11.3-6.3-12.4
			c-0.3-0.6-1.3-0.6-1.6,0l-7.1,14.1l-1.8-3.6c-0.3-0.6-1.2-0.6-1.5,0l-5.7,11.3c-0.3,0.7,0,1.5,0.7,1.7c0.1,0,0.2,0.1,0.3,0.1
			c-0.7,1.4-1.4,2.8-2.1,4.1c-0.4,0.7,0,1.6,0.7,1.9c0.1,0,0.1,0,0.2,0.1l-2,3.9c-0.4,0.8,0,1.7,0.8,2c1.7,0.6,3.4,1.1,5.1,1.3
			l0,1.3c0,0.4,0.3,0.7,0.7,0.7c0.4,0,0.7-0.3,0.7-0.7l0-1.2c0.9,0.1,1.7,0.1,2.6,0l0.2,6.1c0,0.4,0.1,0.8,0.3,1.2h-3.5
			c0.2-0.3,0.3-0.7,0.3-1.2l0-1.5c0-0.4-0.3-0.7-0.7-0.7c-0.4,0-0.7,0.3-0.7,0.7l0,1.5c0,0.7-0.6,1.2-1.3,1.2h-0.9
			c-1.2,0-2.2,0.7-2.7,1.8l-0.6,1.5c-0.2,0.5,0.2,1,0.7,1h36.3c0.5,0,0.9-0.5,0.7-1l-0.6-1.5c-0.4-1.1-1.5-1.8-2.7-1.8h-0.2
			c-0.8,0-1.4-0.6-1.5-1.4l-0.2-6.9c1.9-0.2,3.9-0.7,5.7-1.4C-122.3-4694.2-121.9-4695.2-122.3-4696z M-142.5-4689
			c-0.4,0-0.7,0.3-0.7,0.7v4.1h-2c0.3-0.5,0.5-1.1,0.6-1.8l0.2-8.2c0.4,0,0.8,0,1.2,0.1v2.9c0,0.4,0.3,0.7,0.7,0.7s0.7-0.3,0.7-0.7
			v-2.9c0.3,0,0.7,0,1,0c0.1,0,0.1,0.1,0.2,0.1l0.2,8.1c0,0.7,0.2,1.3,0.6,1.8h-2v-4.1C-141.8-4688.6-142.1-4689-142.5-4689z
			 M-136.4-4684.1h-0.6c-1,0-1.8-0.8-1.9-1.8l-0.2-7.5c1.4,0.5,2.9,0.8,4.4,0.9l-0.2,6.9C-135-4684.7-135.6-4684.1-136.4-4684.1z
			 M-152.2-4697.2c-0.1,0-0.2-0.2-0.1-0.3l1.3-2.5c1.1,0.1,1.4,0.2,2.3,1.1c0.8,0.7,1.6,1.4,2.7,1.4c1.3,0,2.5-0.8,3.5-0.8
			c1.1,0,2.5,1.1,4,0.8c1.5-0.3,2.4-1.8,3.4-2.2c0.3-0.1,0.7-0.2,1.2-0.2l1.3,2.5c0.1,0.1,0,0.3-0.1,0.3
			C-139.1-4694.8-145.9-4694.8-152.2-4697.2z M-135.5-4703.1l0.8,1.6c-0.3,0-0.7,0.1-1,0.3c-1.3,0.5-2.2,2-3.1,2.1
			c-0.9,0.2-2.3-0.8-3.7-0.8c-1.4,0-2.8,1-3.7,0.8c-0.9-0.2-1.8-1.6-3.1-2.1c-0.3-0.1-0.6-0.2-1-0.2c1.6-3.1,0.3-0.6,0.8-1.6
			C-144.9-4701.7-140.1-4701.7-135.5-4703.1z M-134.2-4705c-5.4,2.1-11.3,2.1-16.6,0c-0.1,0-0.1-0.1-0.1-0.1l1.5-3
			c0.2,0,0.3,0.1,0.5,0.1c0.3,0.1,0.7,0.4,1,0.8c0.7,0.6,1.4,1.2,2.4,1.2c1.1,0,2.2-0.7,3-0.7c0.9,0,2.1,0.9,3.5,0.7
			c1.3-0.3,2.1-1.6,2.9-1.9c0.1-0.1,0.3-0.1,0.5-0.1l1.5,3C-134.1-4705.1-134.1-4705-134.2-4705z M-142.5-4726.8l3.2,6.4
			c-0.5,0.3-1,0.9-1.3,1c-0.4,0.1-1.2-0.4-2-0.4c-0.8,0-1.6,0.5-2,0.4c-0.3-0.1-0.7-0.6-1.3-0.9L-142.5-4726.8z M-146.4-4719
			c0.4,0.3,0.9,0.9,1.6,1.1c0.9,0.2,1.8-0.4,2.3-0.4c0.5,0,1.3,0.6,2.3,0.4c0.8-0.1,1.2-0.7,1.7-1.1c1.3,2.5-0.7-1.3,3.1,6.1
			c-1.9,0.7-4,1.2-6.2,1.3c-0.4,0-0.7,0.3-0.7,0.7c0,0.4,0.4,0.7,0.8,0.7c1.6-0.1,3.1-0.3,4.6-0.7l0.8,1.5c-0.8,0.2-1.3,0.6-1.8,1.1
			c-1.1,1-1.3,1-2.7,0.5c-0.6-0.2-1.1-0.4-1.7-0.4s-1.2,0.2-1.7,0.4c-1.4,0.5-1.6,0.5-2.7-0.5c-0.6-0.5-1.1-0.9-1.8-1.1
			c0.5-0.9,0.3-0.6,0.8-1.5c0.9,0.2,1.8,0.4,2.8,0.5c0.4,0.1,0.8-0.2,0.8-0.6c0.1-0.4-0.2-0.8-0.6-0.8c-1.6-0.2-3.1-0.6-4.5-1.1
			L-146.4-4719z M-153-4716.2l3,6c-0.7,1.4-1.5,2.9-2.2,4.4c-0.4,0.8,0,1.8,0.8,2.1c0.2,0.1,0.3,0.1,0.5,0.2l-0.4,0.8
			c-0.1,0-0.2-0.1-0.2-0.1c-1.1-0.4-1.5-0.4-2.7,0c-0.4,0.1-0.7,0.3-1,0.2c-0.5-0.1-1.1-1.1-2.1-1.4l0.4-0.9c0.2-0.4,0-0.9-0.4-1
			c-0.3-0.1-0.6-0.2-0.9-0.3L-153-4716.2z M-160.3-4694.1l2.3-4.6c0.2-0.4,0-0.9-0.4-1c-0.3-0.1-0.5-0.2-0.8-0.3l1.3-2.6
			c0.3,0.1,0.5,0.2,1,0.6c0.6,0.5,1.1,0.9,1.9,0.9c0.8,0,1.7-0.5,2.2-0.5c0.2,0,0.6,0.1,0.9,0.2c-0.2,0.5-1,1.9-1.6,3.2
			c-0.4,0.9,0,1.9,0.9,2.3c2.2,0.8,4.5,1.4,6.8,1.7l0,0.1C-150.5-4692.3-155.6-4692.3-160.3-4694.1z M-150.1-4685.3l-0.2-6.2
			c1.5-0.2,2.9-0.5,4.4-1l-0.2,6.6c0,1-0.8,1.8-1.9,1.8h-0.9C-149.5-4684.1-150-4684.6-150.1-4685.3z M-125.6-4681.8l0.2,0.5h-34.1
			l0.2-0.5c0.2-0.5,0.7-0.9,1.3-0.9h31.1C-126.4-4682.7-125.8-4682.3-125.6-4681.8z M-130.1-4685.5c0,0.5,0.2,1,0.4,1.4h-4.2
			c0.2-0.4,0.4-0.9,0.4-1.4l0.2-6.8c1,0.1,2,0.1,3,0L-130.1-4685.5z M-123.6-4695.2c-4.4,1.7-9.2,2-13.8,0.8
			c1.8-0.3,3.5-0.8,5.2-1.4c0.9-0.4,1.3-1.4,0.9-2.3c-1.7-3.4-1.2-2.3-2.7-5.3c0.4-0.1,0.8-0.2,1.2-0.3c1.1-0.4,1.3-0.4,2.4,0
			c0.7,0.2,1.4,0.5,2.2,0.3c0.8-0.2,1.5-0.8,2.1-1.3l1.5,2.9c-0.3,0.1-0.6,0.2-1,0.3c-0.4,0.1-0.6,0.6-0.4,1l2.6,5.2
			C-123.6-4695.3-123.6-4695.2-123.6-4695.2z"/>
	</g>
	<g id="river" transform="translate(0.000000, 50.000000)">
		<path id="Shape_38_" class="st0" d="M-118.8-4725.2c-1,0-1.4-0.3-2-0.6c-0.7-0.4-1.4-0.9-2.8-0.9c-1.4,0-2.2,0.5-2.8,0.9
			c-0.6,0.4-1,0.6-2,0.6c-1,0-1.4-0.3-2-0.6c-0.7-0.4-1.4-0.9-2.8-0.9v1.5c1,0,1.4,0.3,2,0.6c0.7,0.4,1.4,0.9,2.8,0.9
			c1.4,0,2.2-0.5,2.8-0.9c0.6-0.4,1-0.6,2-0.6c1,0,1.4,0.3,2,0.6c0.7,0.4,1.4,0.9,2.8,0.9s2.2-0.5,2.8-0.9c0.6-0.4,1-0.6,2-0.6v-1.5
			c-1.4,0-2.2,0.5-2.8,0.9C-117.4-4725.5-117.8-4725.2-118.8-4725.2z"/>
		<path id="Shape_39_" class="st0" d="M-157.2-4723.7c1.4,0,2.2-0.5,2.8-0.9c0.6-0.4,1-0.6,2-0.6c1,0,1.4,0.3,2,0.6
			c0.7,0.4,1.4,0.9,2.8,0.9c1.4,0,2.2-0.5,2.8-0.9c0.6-0.4,1-0.6,2-0.6v-1.5c-1.4,0-2.2,0.5-2.8,0.9c-0.6,0.4-1,0.6-2,0.6
			c-1,0-1.4-0.3-2-0.6c-0.7-0.4-1.4-0.9-2.8-0.9c-1.4,0-2.2,0.5-2.8,0.9c-0.6,0.4-1,0.6-2,0.6c-1,0-1.4-0.3-2-0.6
			c-0.7-0.4-1.4-0.9-2.8-0.9v1.5c1,0,1.4,0.3,2,0.6C-159.4-4724.2-158.6-4723.7-157.2-4723.7z"/>
		<path id="Shape_40_" class="st0" d="M-118.8-4719.9c-1,0-1.4-0.3-2-0.6c-0.7-0.4-1.4-0.9-2.8-0.9c-1.4,0-2.2,0.5-2.8,0.9
			c-0.6,0.4-1,0.6-2,0.6c-1,0-1.4-0.3-2-0.6c-0.7-0.4-1.4-0.9-2.8-0.9c-1.4,0-2.2,0.5-2.8,0.9c-0.6,0.4-1,0.6-2,0.6
			c-1,0-1.4-0.3-2-0.6c-0.7-0.4-1.4-0.9-2.8-0.9c-1.4,0-2.2,0.5-2.8,0.9c-0.6,0.4-1,0.6-2,0.6s-1.4-0.3-2-0.6
			c-0.7-0.4-1.4-0.9-2.8-0.9c-1.4,0-2.2,0.5-2.8,0.9c-0.6,0.4-1,0.6-2,0.6c-1,0-1.4-0.3-2-0.6c-0.7-0.4-1.4-0.9-2.8-0.9v1.5
			c1,0,1.4,0.3,2,0.6c0.7,0.4,1.4,0.9,2.8,0.9c1.4,0,2.2-0.5,2.8-0.9c0.6-0.4,1-0.6,2-0.6c1,0,1.4,0.3,2,0.6
			c0.7,0.4,1.4,0.9,2.8,0.9c1.4,0,2.2-0.5,2.8-0.9c0.6-0.4,1-0.6,2-0.6c1,0,1.4,0.3,2,0.6c0.7,0.4,1.4,0.9,2.8,0.9
			c1.4,0,2.2-0.5,2.8-0.9c0.6-0.4,1-0.6,2-0.6c1,0,1.4,0.3,2,0.6c0.7,0.4,1.4,0.9,2.8,0.9c1.4,0,2.2-0.5,2.8-0.9
			c0.6-0.4,1-0.6,2-0.6c1,0,1.4,0.3,2,0.6c0.7,0.4,1.4,0.9,2.8,0.9s2.2-0.5,2.8-0.9c0.6-0.4,1-0.6,2-0.6v-1.5
			c-1.4,0-2.2,0.5-2.8,0.9C-117.4-4720.2-117.8-4719.9-118.8-4719.9z"/>
	</g>
</g>
</svg>
