<?xml version="1.0" encoding="utf-8"?>
<!-- Generator: Adobe Illustrator 24.0.3, SVG Export Plug-In . SVG Version: 6.00 Build 0)  -->
<svg version="1.1" id="Capa_1" xmlns="http://www.w3.org/2000/svg" xmlns:xlink="http://www.w3.org/1999/xlink" x="0px" y="0px"
	 viewBox="0 0 48 43" style="enable-background:new 0 0 48 43;" xml:space="preserve">
<style type="text/css">
	.st0{fill:#FFFFFF;}
</style>
<title>Page 1 Copy 5</title>
<desc>Created with Sketch.</desc>
<g id="_x30_02-wine" transform="translate(172.000000, 3490.000000)">
	<path id="Shape_35_" class="st0" d="M-145.1-3464.3c3.7-2.4,6.2-6.2,6.9-10.4c0.3-2,0.2-3.9-0.3-5.9l-2.2-8.7
		c-0.1-0.4-0.4-0.6-0.8-0.6h-13.1c-0.4,0-0.7,0.3-0.8,0.6l-2.2,8.7c-0.5,1.9-0.6,3.9-0.3,5.9c0.7,4.3,3.2,8.1,6.9,10.4l2,1.3v11.1
		l-6.7,3.3c-0.4,0.2-0.5,0.6-0.5,0.9c0.1,0.4,0.4,0.6,0.8,0.6h14.4c0.4,0,0.7-0.3,0.8-0.6c0.1-0.4-0.1-0.8-0.5-0.9l-6.7-3.3v-11.1
		L-145.1-3464.3z M-153.9-3488.3h11.7l1.8,7.1h-15.2L-153.9-3488.3z M-156.1-3475c-0.2-1.5-0.2-3.1,0.1-4.6h16
		c0.3,1.5,0.3,3.1,0.1,4.6c-0.6,3.8-2.8,7.2-6.2,9.3l-2,1.2l-2-1.2C-153.3-3467.8-155.5-3471.2-156.1-3475z M-151.5-3448.7l3.5-1.7
		l3.5,1.7H-151.5z"/>
</g>
</svg>
