<?xml version="1.0" encoding="UTF-8"?>
<svg width="39px" height="36px" viewBox="0 0 39 36" version="1.1" xmlns="http://www.w3.org/2000/svg" xmlns:xlink="http://www.w3.org/1999/xlink">
    <!-- Generator: Sketch 57.1 (83088) - https://sketch.com -->
    <title>Group 10</title>
    <desc>Created with Sketch.</desc>
    <g id="Landing-Quebec" stroke="none" stroke-width="1" fill="none" fill-rule="evenodd">
        <g id="HomeDesktop_Quebec" transform="translate(-170.000000, -5203.000000)" fill="#FFFFFF" fill-rule="nonzero">
            <g id="Group-10" transform="translate(170.000000, 5203.000000)">
                <g id="whale">
                    <path d="M9.75,13.65 L9.75,12.51185 C12.5013133,11.4495274 14.3114299,8.79925814 14.3,5.85 L14.3,2.6 L13.65,2.6 C10.8546068,2.60262595 8.31637487,4.23191703 7.15,6.77235 C5.98362513,4.23191703 3.4453932,2.60262595 0.65,2.6 L-5.38178756e-05,2.6 L-5.38178756e-05,5.85 C-0.011429913,8.79925814 1.79868668,11.4495274 4.55,12.51185 L4.55,16.25 C4.55,23.24725 9.3639,29.47035 16.34165,31.655 C15.8534053,32.7379026 15.6006164,33.9121193 15.6,35.1 L15.6,35.75 L18.85,35.75 C21.6557069,35.7492997 24.277922,34.3553802 25.8479,32.03005 C33.605,30.26075 39,23.81275 39,16.25 L39,15.6 L11.7,15.6 C10.6230447,15.6 9.75,14.7269553 9.75,13.65 Z M18.85,34.45 L16.92925,34.45 C17.2697614,30.7703894 20.3546702,27.954407 24.05,27.95 L25.97075,27.95 C25.6302386,31.6296106 22.5453298,34.445593 18.85,34.45 Z M26.67535,30.4746 C27.0875453,29.4669445 27.2997054,28.3887031 27.3,27.3 L27.3,26.65 L24.05,26.65 C22.9103148,26.6493654 21.7824237,26.8806936 20.735,27.3299 L20.735,27.3039 C20.50945,27.3299 15.1541,27.8083 10.2622,21.69375 L9.2469,22.50625 C12.7517,26.88725 16.5269,28.1502 18.8019,28.49535 C18.0925859,29.059587 17.4781486,29.7337126 16.9819,30.49215 C10.4052,28.54605 5.85,22.7591 5.85,16.25 L5.85,11.57325 L5.395,11.4309 C2.95184739,10.6726879 1.29018696,8.40808209 1.29995677,5.85 L1.29995677,3.9364 C4.25907916,4.27080184 6.49636538,6.77208784 6.5,9.75 L7.8,9.75 C7.80363462,6.77208784 10.0409208,4.27080184 13,3.9364 L13,5.85 C13.009813,8.40808209 11.3481526,10.6726879 8.905,11.4309 L8.45,11.57325 L8.45,13.65 C8.45214898,15.4440345 9.90596545,16.897851 11.7,16.9 L37.6857,16.9 C37.4023,23.205 33.01545,28.5714 26.67535,30.4746 Z" id="Shape"></path>
                    <path d="M30.55,1.95 C30.55,0.873044738 29.6769553,0 28.6,0 C27.5230447,0 26.65,0.873044738 26.65,1.95 C26.65,3.02695526 27.5230447,3.9 28.6,3.9 C29.6769553,3.9 30.55,3.02695526 30.55,1.95 Z M27.95,1.95 C27.95,1.59101491 28.2410149,1.3 28.6,1.3 C28.9589851,1.3 29.25,1.59101491 29.25,1.95 C29.25,2.30898509 28.9589851,2.6 28.6,2.6 C28.2410149,2.6 27.95,2.30898509 27.95,1.95 Z" id="Shape"></path>
                    <path d="M33.8,5.2 C32.3640597,5.2 31.2,6.36405965 31.2,7.8 C31.2,9.23594035 32.3640597,10.4 33.8,10.4 C35.2359403,10.4 36.4,9.23594035 36.4,7.8 C36.4,6.36405965 35.2359403,5.2 33.8,5.2 Z M33.8,9.1 C33.0820298,9.1 32.5,8.51797017 32.5,7.8 C32.5,7.08202983 33.0820298,6.5 33.8,6.5 C34.5179702,6.5 35.1,7.08202983 35.1,7.8 C35.1,8.51797017 34.5179702,9.1 33.8,9.1 Z" id="Shape"></path>
                    <path d="M29.25,14.3 C30.3269553,14.3 31.2,13.4269553 31.2,12.35 C31.2,11.2730447 30.3269553,10.4 29.25,10.4 C28.1730447,10.4 27.3,11.2730447 27.3,12.35 C27.3,13.4269553 28.1730447,14.3 29.25,14.3 Z M29.25,11.7 C29.6089851,11.7 29.9,11.9910149 29.9,12.35 C29.9,12.7089851 29.6089851,13 29.25,13 C28.8910149,13 28.6,12.7089851 28.6,12.35 C28.6,11.9910149 28.8910149,11.7 29.25,11.7 Z" id="Shape"></path>
                    <path d="M30.55,22.1 C31.6269553,22.1 32.5,21.2269553 32.5,20.15 C32.5,19.0730447 31.6269553,18.2 30.55,18.2 C29.4730447,18.2 28.6,19.0730447 28.6,20.15 C28.6,21.2269553 29.4730447,22.1 30.55,22.1 Z M30.55,19.5 C30.9089851,19.5 31.2,19.7910149 31.2,20.15 C31.2,20.5089851 30.9089851,20.8 30.55,20.8 C30.1910149,20.8 29.9,20.5089851 29.9,20.15 C29.9,19.7910149 30.1910149,19.5 30.55,19.5 Z" id="Shape"></path>
                </g>
            </g>
        </g>
    </g>
</svg>