<?xml version="1.0" encoding="utf-8"?>
<!-- Generator: Adobe Illustrator 23.1.1, SVG Export Plug-In . SVG Version: 6.00 Build 0)  -->
<svg version="1.1" id="Capa_1" xmlns="http://www.w3.org/2000/svg" xmlns:xlink="http://www.w3.org/1999/xlink" x="0px" y="0px"
	 viewBox="0 0 292.5 57.8" style="enable-background:new 0 0 292.5 57.8;" xml:space="preserve">
<style type="text/css">
	.st0{fill:#2A4A96;}
	.st1{fill-rule:evenodd;clip-rule:evenodd;fill:#FFFFFF;}
	.st2{fill:#FFFFFF;}
</style>
<g>
	<g>
		<rect x="134.9" y="2.6" class="st0" width="2" height="33"/>
	</g>
</g>
<g id="Landing-Quebec">
	<g id="HomeDesktop_Quebec" transform="translate(-396.000000, -7783.000000)">
		<g id="Group" transform="translate(396.000000, 7758.000000)">
			<g id="Group-4-Copy" transform="translate(0.000000, 25.000000)">
				<g id="Group-3">
					<g id="Clip-2">
					</g>
					<path id="Fill-1" class="st1" d="M226,15c0.4-2.3,2.3-3.1,3.8-3.1c1.9,0,3.3,1.1,3.6,3.1H226z M215.8,21.3
						c-1.7,0-4.2-1.4-4.2-4.6c0-3,2.1-4.6,4.2-4.6c2,0,4.1,1.4,4.1,4.6C219.9,19.7,217.8,21.3,215.8,21.3L215.8,21.3z M197.4,15
						c0.4-2.3,2.3-3.1,3.8-3.1c1.9,0,3.3,1.1,3.6,3.1H197.4z M172.4,21.6c-2.1,0-4.2-1.8-4.2-4.8c0-3.2,2.1-4.8,4.2-4.8
						c2.1,0,4.2,1.6,4.2,4.8C176.7,19.8,174.5,21.6,172.4,21.6L172.4,21.6z M249.1,23l-2.1-3l0,0l0,0c-1.4,1.3-3.3,1.7-5,1
						c-1.6-0.7-2.6-2.4-2.6-4.2c0-2,0.9-3.6,2.5-4.3s3.6-0.4,5.1,0.9l0,0l0,0l2.1-3l0,0c-1.7-1.5-3.3-2.1-5.6-2.1
						c-3,0-5.6,1.4-7.1,3.8c-1.4-2.3-3.8-3.7-6.6-3.7h-0.1c-2.9,0-5.4,1.3-6.8,3.7c-1.5-2.4-4.1-3.8-7.1-3.8c-1.2,0-2.4,0.4-3.7,1.1
						V4.3l0,0h-4.2l0,0v7.4c-1-1.6-2.5-2.7-4.2-3.3l3-4.2l0,0l0,0H202l0,0l-3,4.2c-2,0.5-3.5,1.7-4.6,3.4V8.3l0,0h-4.3l0,0v9.4
						c0,1-0.2,1.9-0.8,2.4c-0.5,0.5-1.3,0.8-2.2,0.8s-1.7-0.3-2.2-0.8c-0.5-0.6-0.8-1.4-0.8-2.4V8.3l0,0h-4.3l0,0v3.3
						c-0.3-0.5-0.7-1-1.1-1.4c-1.6-1.6-3.8-2.5-6.2-2.5s-4.6,0.9-6.2,2.5c-1.6,1.7-2.5,4-2.5,6.6c0,2.5,0.8,4.6,2.3,6.2
						c1.4,1.6,3.4,2.5,5.7,2.6c1.4,2.4,3.9,3.7,6.9,3.7c1.4,0,2.7-0.3,3.9-1l0,0l-1.6-3.1l0,0c-0.9,0.4-1.6,0.5-2.2,0.5
						c-0.8,0-1.5-0.3-2.2-1c1.7-0.8,2.9-2.2,3.7-3.9c1,2.7,3.5,4.3,6.8,4.3c1.7,0,3.2-0.4,4.4-1.3c1.1-0.8,2-1.9,2.5-3.3
						c1.3,2.9,4,4.6,7.3,4.6c1.8,0,3.4-0.5,4.8-1.6l0,0l-1.6-3.1l0,0l0,0c-1.4,1-3.3,1.2-4.8,0.6c-1.1-0.5-1.9-1.3-2.2-2.5h10.4v6.4
						l0,0h3.8l0,0V24c1.3,0.8,2.7,1.2,4.1,1.2c3.1,0,5.6-1.3,7.1-3.7c1.4,2.4,3.9,3.7,6.8,3.7c1.8,0,3.4-0.5,4.8-1.6l0,0l-1.6-3.1
						l0,0l0,0c-1.4,1-3.3,1.2-4.8,0.6c-1.1-0.5-1.9-1.3-2.2-2.5h9.2c0.4,1.9,1.3,3.5,2.6,4.7c1.5,1.3,3.5,2,5.7,2
						C246,25.2,247.6,24.6,249.1,23L249.1,23L249.1,23z"/>
				</g>
				<path id="Fill-4" class="st1" d="M250,45.4L250,45.4c-1,0-1.6-0.2-1.9-0.7c-0.3-0.4-0.4-1-0.4-1.8V27.6c0,0,0-0.1-0.1-0.1h-2.1
					c0,0-0.1,0-0.1,0.1v15.2c0,3,1.3,4.5,3.8,4.5c0.2,0,0.4,0,0.7,0c0,0,0.1,0,0.1-0.1V45.4C250.1,45.4,250.1,45.4,250,45.4"/>
				<path id="Fill-6" class="st1" d="M176,43.4c-1,1.1-2.2,1.6-3.7,1.6s-2.7-0.6-3.7-1.6c-1-1.1-1.5-2.5-1.5-4.2s0.5-3,1.5-4.1
					s2.2-1.7,3.7-1.7s2.8,0.6,3.7,1.7c1,1.1,1.5,2.5,1.5,4.1C177.5,40.9,177,42.3,176,43.4 M172.3,31.2c-2.2,0-4,0.8-5.4,2.4
					c-1.4,1.6-2.2,3.5-2.2,5.7s0.7,4.2,2.2,5.7s3.3,2.3,5.4,2.3c2.2,0,4-0.8,5.5-2.3c1.5-1.6,2.2-3.5,2.2-5.7s-0.7-4.2-2.2-5.7
					C176.3,32,174.5,31.2,172.3,31.2"/>
				<path id="Fill-8" class="st1" d="M188.9,31.2c-0.2,0-0.5,0-0.7,0c-2.3,0-3.7,0.6-5,2.1v-1.8c0,0,0-0.1-0.1-0.1h-2.3
					c0,0-0.1,0-0.1,0.1v14.9c0,0,0,0.1,0.1,0.1h2.3c0,0,0.1,0,0.1-0.1V40c0-4.7,1.4-6.6,5.1-6.6c0.2,0,0.4,0,0.5,0l0,0l0,0
					L188.9,31.2C189,31.2,188.9,31.2,188.9,31.2"/>
				<path id="Fill-10" class="st1" d="M192.5,31.2h-1.7c0,0,0,0,0,0.1v15.2v0.1h1.7c0,0,0,0,0-0.1V31.2
					C192.6,31.2,192.5,31.2,192.5,31.2"/>
				<path id="Fill-12" class="st1" d="M193.4,26.7h-2.6c0,0-0.1,0-0.1,0.1v2.6c0,0,0,0.1,0.1,0.1h2.6c0,0,0.1,0,0.1-0.1L193.4,26.7
					C193.5,26.7,193.4,26.7,193.4,26.7"/>
				<g id="Group-16" transform="translate(35.000000, 30.000000)">
					<g id="Clip-15">
					</g>
					<path id="Fill-14" class="st1" d="M170.9,12.9c-0.9,1-2,1.5-3.4,1.5s-2.5-0.5-3.3-1.5c-0.9-1-1.3-2.3-1.3-3.9s0.4-2.9,1.3-3.9
						c0.9-1,2-1.5,3.3-1.5c1.4,0,2.5,0.5,3.4,1.5s1.3,2.3,1.3,3.9S171.8,11.9,170.9,12.9 M174.5,1.7h-2.2c0,0-0.1,0-0.1,0.1v1.8
						c-1.2-1.5-2.9-2.2-4.9-2.2s-3.6,0.7-4.9,2.2c-1.3,1.5-2,3.3-2,5.5s0.6,4,2,5.5c1.3,1.5,2.9,2.2,4.9,2.2c2.1,0,3.7-0.7,4.9-2.2
						V16c0,3.3-1.8,5.3-4.9,5.3c-2,0-3.5-0.9-4.5-2.9l0,0l0,0L161,20c0,0,0,0,0,0.1c1.4,2.3,3.6,3.4,6.3,3.4c4.4,0,7.3-3,7.3-7.7
						L174.5,1.7C174.6,1.7,174.5,1.7,174.5,1.7"/>
				</g>
				<path id="Fill-17" class="st1" d="M223.2,31.2c-1.9,0-3.8,0.9-4.8,2.2v-1.7c0,0,0-0.1-0.1-0.1H216c0,0-0.1,0-0.1,0.1v15.7
					c0,0,0,0.1,0.1,0.1h2.3c0,0,0.1,0,0.1-0.1v-7.8c0-3.8,1.7-6,4.6-6c2.5,0,3.9,1.6,3.9,4.5v9.3c0,0,0,0.1,0.1,0.1h2.4
					c0,0,0.1,0,0.1-0.1v-9.1c0-2.2-0.5-4-1.6-5.2C226.7,31.8,225.2,31.2,223.2,31.2"/>
				<path id="Fill-19" class="st1" d="M240.4,42.8c-1.1,1.5-2.9,2.4-4.6,2.4c-1.8,0-3-1-3-2.5c0-1.7,1.3-2.7,3.5-2.7
					c1.2,0,2.6,0.2,4.1,0.7V42.8z M236.6,31.2c-2.6,0-4.6,1.1-5.8,3.2v0.1l1.6,1.5c0,0,0,0,0.1,0l0,0c0.7-1.5,2.3-2.5,4-2.5
					c2.4,0,3.8,1.4,3.8,3.5v1.5c-1.7-0.5-3.1-0.7-4.2-0.7c-3.6,0-5.9,1.9-5.9,4.9c0,2.8,2.1,4.7,5.3,4.7c2,0,3.6-0.6,4.8-1.9V47
					c0,0,0,0.1,0.1,0.1h2.3c0,0,0.1,0,0.1-0.1v-9.7C242.9,33.4,240.5,31.2,236.6,31.2L236.6,31.2z"/>
				<path id="Fill-21" class="st1" d="M214.1,26.7h-2.6c0,0-0.1,0-0.1,0.1v2.6c0,0,0,0.1,0.1,0.1h2.6c0,0,0.1,0,0.1-0.1L214.1,26.7
					L214.1,26.7"/>
				<path id="Fill-23" class="st1" d="M213.2,31.2h-1.7c0,0,0,0,0,0.1v15.2v0.1h1.7c0,0,0,0,0-0.1V31.2L213.2,31.2"/>
			</g>
		</g>
	</g>
</g>
<g>
	<path class="st2" d="M8.4,28.5C8.1,26.6,8,24.7,8,22.9c0-2.9,0.4-5.8,1.3-8.5c0.7-2.2,1.8-4.2,3.5-5.8c1.8-1.9,4-3,6.5-3.7
		c2-0.5,4.1-0.6,6.2-0.5c2.5,0.1,5,0.6,7.4,1.2c4,1,7.8,2.5,11.6,4.1c5.7,2.5,11.2,5.6,16.6,8.8c0.9,0.5,1.8,1.1,2.7,1.7
		c0-1.1,0-2.2,0-3.3c-0.6,0-1.1,0-1.7,0c0-0.1,0-0.2,0-0.3c1.3,0,2.5,0,3.8,0c0,0.1,0,0.2,0,0.3c0,1.4,0,2.9,0,4.3
		c0,0.2,0.1,0.3,0.2,0.4c2.8,1.8,5.6,3.7,8.4,5.6c0.1,0,0.1,0.1,0.2,0.2c-3-1.8-5.9-3.6-8.8-5.4c0,2.6,0,5.2,0,7.8
		c0.6,0,1.2,0,1.7,0c0,0.1,0,0.2,0,0.3c-1.8,0-3.7,0-5.5,0c0-0.1,0-0.2,0-0.3c0.6,0,1.1,0,1.7,0c0-0.1,0-0.2,0-0.3
		c0-2.8,0-5.6,0-8.4c0-0.2-0.1-0.3-0.2-0.4c-5.8-3.3-11.8-6.3-18-8.9c-3.8-1.7-7.6-3-11.6-4c-2.2-0.5-4.5-1-6.7-1.2
		c-2.8-0.2-5.5-0.2-8.2,0.5c-2.4,0.6-4.5,1.7-6.3,3.6c-1.5,1.6-2.5,3.4-3.2,5.4c-0.8,2.2-1.1,4.5-1.2,6.8c-0.1,1.8-0.1,3.6,0.1,5.4
		C8.4,28.4,8.4,28.4,8.4,28.5z"/>
	<path class="st2" d="M21.9,42.7c0.5,0,1.1,0,1.6,0c0,0.1,0,0.2,0,0.3c-1.7,0-3.4,0-5.2,0c0-0.1,0-0.2,0-0.3c0.5,0,1.1,0,1.6,0
		c0-0.1,0-0.1,0-0.1c0-2.4,0-4.8,0-7.1c0-0.2,0-0.4-0.1-0.6c-0.2-0.8-0.8-1.2-1.6-1c-1.2,0.2-1.9,1-2.4,2c-0.2,0.6-0.4,1.1-0.4,1.8
		c0,1.6,0,3.2,0,4.9c0,0.1,0,0.1,0,0.2c0.5,0,1.1,0,1.6,0c0,0.1,0,0.2,0,0.3c-1.7,0-3.4,0-5.2,0c0-0.1,0-0.2,0-0.3
		c0.5,0,1.1,0,1.6,0c0-2.9,0-5.7,0-8.6c-0.5,0-1.1,0-1.6,0c0-0.1,0-0.2,0-0.3c1.1,0,2.3,0,3.5,0c0,0.7,0,1.4,0,2.1c0,0,0,0,0.1,0
		c0-0.1,0.1-0.2,0.1-0.3c0.5-1.2,1.3-1.9,2.6-2.1c0.8-0.1,1.5,0,2.3,0.3c0.6,0.3,1.1,0.8,1.3,1.4c0,0.1,0.1,0.2,0.1,0.3
		c0-0.1,0.1-0.1,0.1-0.1c0.6-1.3,1.6-1.9,3-1.9c0.4,0,0.9,0,1.3,0.1c1.1,0.3,1.8,1.1,1.9,2.3c0,0.3,0.1,0.6,0.1,0.9
		c0,1.8,0,3.7,0,5.5c0,0.1,0,0.2,0,0.3c0.6,0,1.1,0,1.7,0c0,0.1,0,0.2,0,0.3c-1.7,0-3.4,0-5.2,0c0-0.1,0-0.2,0-0.3
		c0.5,0,1.1,0,1.6,0c0-0.1,0-0.2,0-0.3c0-2.3,0-4.7,0-7c0-1.1-0.7-1.7-1.8-1.6c-1.5,0.2-2.6,1.4-2.6,2.9c-0.1,1.9,0,3.9,0,5.8
		C21.9,42.6,21.9,42.7,21.9,42.7z"/>
	<path class="st2" d="M32.8,41.3c0,2.5,0,4.9,0,7.4c0.5,0,1.1,0,1.6,0c0,0.1,0,0.2,0,0.3c-1.7,0-3.4,0-5.2,0c0-0.1,0-0.2,0-0.3
		c0.5,0,1.1,0,1.7,0c0-4.9,0-9.8,0-14.7c-0.5,0-1.1,0-1.7,0c0-0.1,0-0.2,0-0.3c1.1,0,2.3,0,3.5,0c0,0.6,0,1.1,0,1.7c0,0,0,0,0.1,0
		c0-0.1,0.1-0.1,0.1-0.2c0.6-1.2,1.7-1.9,3.1-1.8c1.8,0.1,3.8,1.6,4.3,3.9c0.5,2.5-1.1,5.2-3.5,5.8c-0.8,0.2-1.6,0.2-2.4-0.2
		c-0.6-0.3-1.1-0.8-1.3-1.4C32.9,41.5,32.9,41.4,32.8,41.3L32.8,41.3z M38.2,38.7L38.2,38.7c-0.1-0.4-0.1-0.7-0.1-1.1
		c0-0.8-0.1-1.7-0.4-2.5c-0.3-0.7-0.7-1.2-1.5-1.3c-0.4-0.1-0.9-0.1-1.3,0c-1.1,0.2-1.7,1-2,2.1c-0.3,1.3-0.3,2.5-0.2,3.8
		c0,0.6,0.2,1.2,0.4,1.8c0.4,0.8,1,1.4,2,1.5c1.4,0.1,2.3-0.3,2.7-1.8C38.1,40.4,38.1,39.5,38.2,38.7z"/>
	<path class="st2" d="M90.4,34.1c-0.5,0-1.1,0-1.6,0c0-0.1,0-0.2,0-0.3c1.1,0,2.3,0,3.5,0c0,0.7,0,1.5,0,2.2c0,0,0,0,0.1,0
		c0-0.1,0.1-0.2,0.1-0.2c0.5-1.1,1.4-1.9,2.6-2.2c0.9-0.2,1.9-0.2,2.8,0.3c0.9,0.4,1.3,1.1,1.4,2.1c0,0.2,0,0.4,0,0.6
		c0,1.9,0,3.8,0,5.8c0,0.1,0,0.2,0,0.3c0.6,0,1.1,0,1.6,0c0,0.1,0,0.2,0,0.3c-1.7,0-3.4,0-5.2,0c0-0.1,0-0.2,0-0.3
		c0.5,0,1.1,0,1.6,0c0-0.1,0-0.2,0-0.2c0-2.2,0-4.4,0-6.7c0-0.2,0-0.4-0.1-0.6c-0.2-1-0.9-1.5-1.9-1.4c-1.4,0.2-2.3,1.1-2.8,2.4
		c-0.2,0.5-0.3,1-0.3,1.6c0,1.5,0,3,0,4.6c0,0.1,0,0.2,0,0.3c0.6,0,1.1,0,1.7,0c0,0.1,0,0.2,0,0.3c-1.7,0-3.4,0-5.2,0
		c0-0.1,0-0.2,0-0.3c0.5,0,1.1,0,1.6,0C90.4,39.8,90.4,37,90.4,34.1z"/>
	<path class="st2" d="M43.5,29.4c0.1,0.1,0.1,0.2,0.2,0.3c-0.6,0.5-1.2,0.6-1.9,0.6c-0.2,0-0.3,0-0.5-0.1c-0.7-0.1-1.1-0.5-1.4-1.1
		c-0.1-0.2-0.1-0.4-0.2-0.6c0,0.1-0.1,0.1-0.1,0.2c-0.4,1-1.2,1.5-2.3,1.6c-0.6,0.1-1.3,0.1-1.9-0.1c-0.3-0.1-0.5-0.2-0.8-0.3
		c-0.6-0.3-0.9-0.8-1-1.5c-0.2-1.1,0.3-2,1.3-2.5c0.7-0.3,1.4-0.5,2.2-0.8c0.5-0.2,1-0.3,1.4-0.5c0.7-0.2,1.1-0.7,1.1-1.4
		c0.1-0.7,0.1-1.3-0.1-2c-0.2-0.7-0.6-1.1-1.3-1.1c-0.5,0-1,0-1.5,0.2c-0.4,0.2-0.6,0.5-0.6,0.9s0.1,0.7,0.1,1.1
		c0.1,0.6-0.2,1-0.8,1c-0.1,0-0.2,0-0.2,0c-0.7,0-1-0.3-1-1c0-1,0.6-1.6,1.4-2.1c0.8-0.4,1.7-0.5,2.6-0.5c0.6,0,1.3,0.1,1.8,0.4
		c1.1,0.6,1.6,1.5,1.6,2.7c0,1.9,0,3.8,0,5.8c0,0.2,0,0.4,0.1,0.6c0.1,0.4,0.3,0.5,0.7,0.6C42.8,29.8,43.1,29.6,43.5,29.4z
		 M39.6,24.3c-0.3,0.2-0.5,0.3-0.8,0.5c-0.6,0.3-1.2,0.5-1.8,0.7c-0.8,0.3-1.3,0.8-1.4,1.7c-0.1,0.5-0.1,1,0.1,1.5
		c0.2,0.5,0.5,0.8,0.9,0.9c0.9,0.2,1.6,0.1,2.3-0.6c0.3-0.3,0.5-0.7,0.6-1.2C39.7,26.7,39.6,25.5,39.6,24.3z"/>
	<path class="st2" d="M79,38.2c0.1-1.5,0.9-2.8,2.2-3.8c3.5-2.5,7.4,0.4,7.8,3.2c0.2,1.6-0.3,2.9-1.3,4c-1,1-2.2,1.6-3.6,1.6
		c-1.3,0-2.5-0.5-3.4-1.4C79.6,41,79,39.8,79,38.2z M86.9,38.4c0-0.9,0-1.7-0.3-2.6c-0.4-1.3-1-1.9-2.2-2c-0.8-0.1-1.6,0-2.2,0.6
		c-0.4,0.4-0.7,0.9-0.8,1.5c-0.3,1.1-0.3,2.2-0.2,3.4c0,0.9,0.2,1.7,0.5,2.5c0.3,0.7,0.8,1.1,1.5,1.2c0.3,0,0.7,0.1,1,0.1
		c1.1,0,1.8-0.6,2.2-1.6C86.8,40.4,86.8,39.4,86.9,38.4z"/>
	<path class="st2" d="M61.2,27.3c0.1,0,0.2,0,0.3,0.1c-0.1,0.3-0.2,0.7-0.4,1c-0.6,1-1.5,1.7-2.7,1.9c-1.3,0.2-2.5,0-3.7-0.6
		c-1.6-0.9-2.4-2.2-2.6-4c-0.2-2.2,1-4.5,3.1-5.4c1.8-0.8,3.5-0.6,5,0.6c0.9,0.8,1.3,1.9,1.4,3.1c0,0.1,0,0.2,0,0.3
		c-2.4,0-4.7,0-7.1,0c0,0.5,0,0.9,0,1.3c0,0.8,0,1.6,0.3,2.3c0.3,1,0.9,1.7,1.9,1.9c1.4,0.3,3,0,3.8-1.2
		C60.8,28.2,61,27.7,61.2,27.3z M59.3,23.8c0-0.1,0-0.1,0-0.2c0-0.7,0-1.4-0.1-2.1c-0.1-0.6-0.4-1.1-0.9-1.3c-1.1-0.5-2.5-0.1-3.1,1
		c-0.2,0.4-0.4,0.9-0.5,1.4c-0.1,0.4-0.1,0.8-0.2,1.2C56.2,23.8,57.8,23.8,59.3,23.8z"/>
	<path class="st2" d="M23.4,27.9c0.1,0,0.2,0.1,0.3,0.1c-0.2,1.3-1.1,2.1-2.2,2.1c-0.6,0-1.2,0-1.8-0.1c-1-0.2-1.5-0.9-1.6-1.9
		c0-0.2,0-0.5,0-0.7c0-2.3,0-4.6,0-6.8c0-0.1,0-0.2,0-0.3c-0.6,0-1.2,0-1.8,0c0-0.1,0-0.2,0-0.3c0.6,0,1.2,0,1.8,0
		c0-1.2,0-2.3,0-3.5c0.7,0,1.3,0,2,0c0,1.1,0,2.3,0,3.5c1.1,0,2.2,0,3.3,0c0,0.1,0,0.2,0,0.3c-1.1,0-2.2,0-3.3,0c0,0.1,0,0.2,0,0.3
		c0,2.5,0,4.9,0,7.4c0,0.3,0,0.6,0.1,0.9c0.2,1,1.1,1.4,2,1c0.5-0.3,0.8-0.7,1-1.3C23.3,28.3,23.4,28.1,23.4,27.9z"/>
	<path class="st2" d="M26,20.3c-0.6,0-1.2,0-1.7,0c0-0.1,0-0.2,0-0.3c1.2,0,2.5,0,3.7,0c0,0.8,0,1.5,0,2.2l0,0
		c0-0.1,0.1-0.2,0.1-0.4c0.4-1,1-1.7,2.1-2.1c0.8-0.2,1.6-0.2,2.3,0.4c0.7,0.6,0.7,1.7,0.5,2.1c-0.1,0.3-0.3,0.4-0.6,0.5
		s-0.5,0.1-0.8,0c-0.6-0.1-0.8-0.5-0.6-1c0.1-0.3,0.2-0.6,0.2-0.9c0-0.6-0.3-0.9-0.9-0.8c-0.5,0.1-0.8,0.3-1.1,0.7
		c-0.7,0.8-1.1,1.8-1.1,2.9c0,1.9,0,3.8,0,5.8c0.6,0,1.3,0,2,0c0,0.1,0,0.2,0,0.3c-1.9,0-3.8,0-5.8,0c0-0.1,0-0.2,0-0.3
		c0.6,0,1.2,0,1.7,0C26,26.5,26,23.4,26,20.3z"/>
	<path class="st2" d="M57.4,37.7c-2.2,0-4.4,0-6.6,0c0,0.2,0,0.4,0,0.5c0,0.9,0,1.9,0.2,2.8c0.2,0.5,0.4,1,0.8,1.4
		c0.6,0.5,1.2,0.6,2,0.6c1.2,0,2.1-0.5,2.7-1.6c0.1-0.3,0.2-0.6,0.4-0.9c0.1,0,0.2,0,0.3,0.1c-0.1,0.3-0.2,0.6-0.4,0.9
		c-0.5,1-1.4,1.5-2.4,1.7c-1.2,0.2-2.3,0.1-3.4-0.5c-1.6-0.8-2.3-2.2-2.5-3.9c-0.2-2.4,1.5-4.5,3.5-5.2c1.8-0.6,4,0.1,4.9,2.1
		C57.3,36.3,57.4,36.9,57.4,37.7z M50.8,37.4c1.5,0,2.9,0,4.4,0v-0.1c0-0.7,0-1.4-0.1-2.1c-0.1-0.5-0.3-0.9-0.8-1.1
		c-0.7-0.4-2-0.3-2.6,0.3C51,35.2,50.9,36.3,50.8,37.4z"/>
	<path class="st2" d="M41.7,20.3c0-0.1,0-0.2,0-0.3c1.9,0,3.7,0,5.6,0c0,0.1,0,0.2,0,0.3c-0.6,0-1.2,0-1.9,0c1,2.4,2,4.8,3,7.3
		c1-2.4,2.1-4.8,3.1-7.2c-0.6,0-1.2,0-1.9,0c0-0.1,0-0.2,0-0.3c1.2,0,2.3,0,3.5,0c0,0.1,0,0.2,0,0.3c-0.3,0-0.7,0-1,0
		c-0.2,0-0.3,0.1-0.3,0.2c-1.4,3.3-2.8,6.6-4.2,9.9c0,0.1-0.1,0.1-0.1,0.3c-0.1-0.1-0.1-0.2-0.1-0.3c-1.3-3.3-2.7-6.6-4-9.8
		c-0.1-0.2-0.2-0.2-0.3-0.2C42.6,20.3,42.2,20.3,41.7,20.3z"/>
	<path class="st2" d="M43.8,42.7c0.6,0,1.2,0,1.9,0c0,0.1,0,0.2,0,0.3c-1.8,0-3.6,0-5.4,0c0-0.1,0-0.2,0-0.3c0.5,0,1.1,0,1.6,0
		c0-2.9,0-5.7,0-8.6c-0.5,0-1.1,0-1.6,0c0-0.1,0-0.2,0-0.3c1.2,0,2.3,0,3.5,0c0,0.7,0,1.4,0,2.1l0,0c0.1-0.2,0.2-0.4,0.3-0.6
		c0.4-0.8,1-1.5,2-1.6c0.6-0.1,1.2-0.1,1.7,0.2c0.7,0.4,1,1.4,0.7,2.2c-0.1,0.2-0.2,0.3-0.4,0.4c-0.4,0.2-0.8,0.2-1.2,0
		c-0.3-0.1-0.4-0.5-0.3-0.9c0.1-0.3,0.2-0.5,0.2-0.8c0-0.6-0.4-0.9-1-0.8c-0.4,0.1-0.7,0.4-1,0.7c-0.6,0.8-0.9,1.8-0.9,2.8
		c0,1.6,0,3.3,0,5C43.8,42.6,43.8,42.6,43.8,42.7z"/>
	<path class="st2" d="M58.8,43c0-1,0-2,0-3c0.2,0,0.2,0,0.3,0.2c0.2,0.7,0.5,1.4,1.1,2c0.7,0.7,1.5,0.9,2.4,0.9
		c1.1-0.1,1.6-0.8,1.6-2c0-0.5-0.2-0.9-0.7-1.2c-0.4-0.2-0.9-0.4-1.4-0.6c-0.5-0.2-1-0.3-1.4-0.5c-1.7-0.7-2.3-2.6-1.2-4
		c0.7-1,1.7-1.3,2.8-1.3c0.5,0,0.9,0.2,1.4,0.3c0.3,0.1,0.6,0.2,0.9,0c0,0,0.1,0,0.2,0c0,0.8,0,1.6,0,2.5c-0.2,0.1-0.2,0-0.3-0.2
		c-0.1-0.4-0.3-0.8-0.5-1.1c-0.5-0.9-1.3-1.2-2.3-1.1c-0.6,0.1-1.1,0.2-1.4,0.7c-0.6,0.7-0.4,1.7,0.4,2.2c0.6,0.3,1.2,0.5,1.8,0.7
		s1.2,0.4,1.8,0.7c0.6,0.3,1.1,0.7,1.3,1.4c0.4,1.2-0.2,2.6-1.4,3.3c-1,0.6-2.1,0.6-3.1,0.3c-0.3-0.1-0.7-0.2-1-0.3
		c-0.4-0.1-0.7-0.3-1.1,0.1C59,43,58.9,43,58.8,43z"/>
	<path class="st2" d="M101.8,43.1c0-1,0-1.9,0-2.8c0-0.1,0-0.2,0-0.2c0.2-0.1,0.3,0,0.3,0.2c0.2,0.7,0.5,1.5,1.1,2
		c0.7,0.6,1.5,0.9,2.4,0.8c1.1-0.1,1.7-0.9,1.5-2c-0.1-0.5-0.3-0.9-0.8-1.1c-0.6-0.2-1.2-0.5-1.7-0.7c-0.4-0.1-0.8-0.3-1.1-0.4
		c-1.2-0.5-1.7-1.4-1.6-2.7c0.1-1.4,1.3-2.5,2.7-2.6c0.7-0.1,1.4,0.1,2,0.3c0.3,0.1,0.6,0.2,0.8,0c0,0,0.1,0,0.2,0
		c0,0.8,0,1.6,0,2.5c-0.2,0.1-0.2,0-0.3-0.2c-0.2-0.4-0.3-0.8-0.5-1.2c-0.5-0.9-1.3-1.2-2.2-1.1c-0.4,0-0.8,0.1-1.1,0.4
		c-0.6,0.4-0.9,1.1-0.6,1.8c0.1,0.2,0.3,0.5,0.5,0.6c0.4,0.2,0.8,0.4,1.3,0.6c0.7,0.3,1.4,0.5,2.1,0.7c0.3,0.1,0.5,0.2,0.7,0.4
		c1,0.7,1.4,1.6,1,2.7c-0.4,1.3-1.3,2-2.6,2.2c-1,0.2-1.9,0-2.8-0.4c-0.2-0.1-0.4-0.1-0.6-0.2c-0.2,0-0.4,0-0.6,0.2
		C102,43,101.9,43,101.8,43.1z"/>
	<path class="st2" d="M72.6,33.8c0,0.8,0,1.6,0,2.4c-0.2,0.1-0.2,0-0.3-0.1c-0.2-0.4-0.3-0.8-0.5-1.2c-0.5-0.9-1.2-1.2-2.2-1.1
		c-0.5,0.1-1,0.2-1.4,0.6c-0.7,0.7-0.6,1.8,0.3,2.3c0.6,0.3,1.2,0.5,1.8,0.7c0.5,0.2,1,0.3,1.4,0.5c0.2,0.1,0.4,0.2,0.7,0.4
		c1,0.7,1.3,1.6,1,2.7c-0.3,1.3-1.5,2.2-2.9,2.3c-0.9,0.1-1.8-0.2-2.6-0.5c-0.2-0.1-0.4-0.1-0.6-0.1s-0.3,0.1-0.4,0.2
		c-0.1,0-0.2,0.1-0.3,0.2c0-1.1,0-2.1,0-3.1c0.2-0.1,0.2,0,0.3,0.2c0.2,0.7,0.5,1.4,1.1,2c0.7,0.7,1.5,0.9,2.4,0.9
		c1.1-0.1,1.7-0.9,1.6-2c-0.1-0.5-0.3-0.9-0.8-1.1c-0.6-0.2-1.2-0.5-1.7-0.7c-0.4-0.1-0.8-0.3-1.1-0.4c-1.2-0.5-1.7-1.5-1.6-2.7
		c0.1-1.4,1.3-2.5,2.7-2.6c0.7-0.1,1.3,0.1,1.9,0.3c0.3,0.1,0.6,0.2,0.9,0c0,0,0,0,0.1,0C72.5,33.8,72.5,33.8,72.6,33.8z"/>
	<path class="st2" d="M73.9,43c0-0.1,0-0.2,0-0.3c0.5,0,1.1,0,1.6,0c0-2.9,0-5.7,0-8.6c-0.5,0-1.1,0-1.6,0c0-0.1,0-0.2,0-0.3
		c1.2,0,2.3,0,3.5,0c0,3,0,5.9,0,8.9c0.6,0,1.1,0,1.7,0c0,0.1,0,0.2,0,0.3C77.4,43,75.7,43,73.9,43z"/>
	<path class="st2" d="M9.8,42.7c0.6,0,1.1,0,1.7,0c0,0.1,0,0.2,0,0.3c-1.7,0-3.4,0-5.2,0c0-0.1,0-0.2,0-0.3c0.5,0,1.1,0,1.6,0
		c0-2.9,0-5.7,0-8.6c-0.5,0-1.1,0-1.6,0c0-0.1,0-0.2,0-0.3c1.2,0,2.3,0,3.5,0C9.8,36.8,9.8,39.7,9.8,42.7z"/>
	<path class="st2" d="M78.4,51c0,0.5,0,0.9,0,1.4c-0.2,0-0.3,0-0.5,0c0-1.2,0-2.5,0-3.7c0.1,0,0.3,0,0.4,0c0,0.1,0,0.2,0,0.4
		c0.3-0.4,0.7-0.5,1.1-0.4c0.5,0.1,0.8,0.5,0.9,1c0,0.3,0,0.5,0,0.8C80.2,51.4,79.1,51.6,78.4,51z M78.4,50L78.4,50
		c0,0.1,0,0.2,0,0.2c0,0.4,0.2,0.7,0.6,0.7c0.4,0.1,0.7-0.1,0.8-0.5c0.1-0.4,0.1-0.7,0-1.1c-0.1-0.3-0.4-0.4-0.7-0.4
		c-0.3,0-0.5,0.1-0.7,0.4C78.4,49.6,78.4,49.8,78.4,50z"/>
	<path class="st2" d="M91.5,52.4c-0.2,0-0.3,0-0.5,0c0-1.2,0-2.5,0-3.7c0.1,0,0.2,0,0.4,0c0,0.1,0,0.2,0,0.4
		c0.2-0.1,0.3-0.2,0.5-0.3c0.6-0.3,1.3,0,1.5,0.6c0.2,0.4,0.2,0.9,0,1.3c-0.3,0.9-1.4,1-1.9,0.4c0,0.3,0,0.5,0,0.7
		C91.5,51.9,91.5,52.1,91.5,52.4z M91.5,50L91.5,50c0,0.1,0,0.1,0,0.2c0,0.4,0.2,0.7,0.6,0.7c0.4,0.1,0.7-0.1,0.9-0.5
		c0.1-0.3,0.1-0.7,0-1s-0.4-0.5-0.7-0.5c-0.3,0-0.6,0.2-0.7,0.5C91.5,49.7,91.5,49.8,91.5,50z"/>
	<path class="st2" d="M72.7,48.9c0-0.3,0-0.5,0-0.8c0-0.2,0-0.5,0-0.8c0.2,0,0.3,0,0.5,0c0,0,0,0,0,0.1c0,1.3,0,2.5,0,3.8
		c-0.1,0-0.2,0-0.4,0c0-0.1,0-0.2,0-0.4l-0.1,0.1c-0.5,0.5-1.3,0.5-1.7-0.2c-0.3-0.5-0.3-1.3,0-1.8C71.3,48.5,72,48.4,72.7,48.9z
		 M72.7,49.9L72.7,49.9c0-0.1,0-0.2,0-0.3c0-0.4-0.3-0.6-0.6-0.7c-0.3-0.1-0.6,0.1-0.8,0.4c-0.2,0.4-0.2,0.8,0,1.2
		c0.1,0.3,0.4,0.4,0.7,0.4c0.3,0,0.5-0.2,0.6-0.5C72.7,50.3,72.7,50.1,72.7,49.9z"/>
	<path class="st2" d="M76.5,31.7c-0.6,0-1.1-0.5-1.1-1.2c0-0.6,0.5-1.1,1.2-1.1c0.6,0,1.1,0.5,1.1,1.2
		C77.6,31.2,77.1,31.7,76.5,31.7z"/>
	<path class="st2" d="M8.8,31.7c-0.7,0-1.1-0.5-1.1-1.2c0-0.6,0.5-1.1,1.2-1.1c0.6,0,1.1,0.5,1.1,1.1C9.9,31.2,9.4,31.7,8.8,31.7z"
		/>
	<path class="st2" d="M96.5,51.3c-0.8,0-1.3-0.6-1.3-1.4c0-0.8,0.5-1.4,1.3-1.4s1.3,0.6,1.3,1.4C97.8,50.8,97.3,51.4,96.5,51.3z
		 M95.7,50c0.1,0.2,0.1,0.5,0.2,0.6c0.3,0.5,0.9,0.5,1.2,0c0.2-0.4,0.2-0.9,0-1.3c-0.3-0.5-1-0.5-1.3,0C95.8,49.5,95.8,49.7,95.7,50
		z"/>
	<path class="st2" d="M54.8,48.6c0.2,0,0.3,0,0.5,0c0,0.4,0,0.9,0,1.3c0,0.1,0,0.3,0,0.4c0,0.4,0.3,0.6,0.6,0.6
		c0.4,0,0.6-0.3,0.7-0.7c0-0.5,0-0.9,0-1.4c0-0.1,0-0.2,0-0.3c0.2,0,0.3,0,0.5,0c0,0.9,0,1.8,0,2.7c-0.1,0-0.3,0-0.4,0
		c0-0.1,0-0.2-0.1-0.4c-0.2,0.3-0.5,0.4-0.8,0.4c-0.5,0-0.9-0.3-0.9-0.8C54.8,49.9,54.8,49.3,54.8,48.6z"/>
	<path class="st2" d="M64.8,51.3c-0.1,0-0.3,0-0.4,0c0-0.1,0-0.2-0.1-0.3c-0.2,0.2-0.5,0.4-0.8,0.4c-0.4,0-0.6-0.2-0.8-0.5
		c-0.1-0.3,0-0.7,0.3-0.9s0.6-0.2,0.9-0.3c0.1,0,0.3,0,0.4,0c0-0.2,0-0.4-0.2-0.5c-0.4-0.2-0.7-0.1-1.1,0.1c0-0.1-0.1-0.2-0.1-0.3
		c0.4-0.2,0.9-0.3,1.4-0.2c0.4,0.1,0.5,0.5,0.5,0.9C64.8,50.1,64.8,50.7,64.8,51.3z M64.3,49.9C64,50,63.7,50,63.5,50.1
		s-0.3,0.3-0.2,0.5s0.2,0.3,0.4,0.3c0.3,0,0.6-0.2,0.7-0.5C64.4,50.3,64.3,50.1,64.3,49.9z"/>
	<path class="st2" d="M106.9,51.3c-0.2,0-0.3,0-0.5,0c0-0.9,0-1.8,0-2.7c0.1,0,0.3,0,0.4,0c0,0.1,0,0.2,0,0.3
		c0.2-0.1,0.4-0.3,0.6-0.3c0.6-0.2,1.1,0.2,1.2,0.7c0.1,0.6,0,1.3,0,1.9c-0.1,0-0.3,0-0.5,0c0-0.4,0-0.9,0-1.3c0-0.1,0-0.2,0-0.4
		c0-0.4-0.2-0.7-0.6-0.7s-0.7,0.3-0.7,0.7s0,0.8,0,1.2C106.9,51,106.9,51.1,106.9,51.3z"/>
	<path class="st2" d="M67.2,50.1c0,0.8,0.5,1,1.6,0.8c0,0,0,0.1,0,0.2c0,0.1,0,0.1,0,0.2c-0.6,0.4-1.6,0.2-1.9-0.3
		c-0.4-0.6-0.3-1.6,0.2-2c0.4-0.3,1-0.4,1.4-0.2s0.6,0.8,0.5,1.4C68.5,50.1,67.9,50.1,67.2,50.1z M68.6,49.7c0-0.5-0.2-0.8-0.6-0.8
		s-0.7,0.3-0.7,0.8C67.7,49.7,68.2,49.7,68.6,49.7z"/>
	<path class="st2" d="M86.4,51.3c-0.2,0-0.3,0-0.5,0c0-0.1,0-0.2,0-0.2c0-0.4,0-0.9,0-1.3c0-0.5-0.2-0.7-0.6-0.7s-0.6,0.3-0.7,0.8
		c0,0.5,0,1,0,1.5c-0.2,0-0.3,0-0.5,0c0-0.9,0-1.8,0-2.6c0.1,0,0.3,0,0.4,0c0,0.1,0,0.2,0.1,0.4l0.1-0.1c0.3-0.3,0.7-0.4,1.1-0.3
		c0.4,0.2,0.6,0.5,0.6,0.9C86.5,50.1,86.4,50.7,86.4,51.3z"/>
	<path class="st2" d="M101,49.6c0-0.6-0.4-0.8-1.3-0.5c-0.2-0.3-0.2-0.3,0.1-0.4c0.1,0,0.3-0.1,0.4-0.1c0.8-0.1,1.2,0.3,1.2,1.1
		c0,0.5,0,1.1,0,1.6c-0.1,0-0.2,0-0.4,0c0-0.1,0-0.2-0.1-0.3c-0.2,0.2-0.5,0.4-0.9,0.4c-0.3,0-0.6-0.1-0.7-0.4
		c-0.1-0.3-0.1-0.6,0.1-0.9c0.3-0.3,0.6-0.4,1-0.4C100.7,49.6,100.8,49.6,101,49.6z M101,49.9c-0.3,0.1-0.6,0.1-0.9,0.2
		c-0.2,0.1-0.3,0.3-0.2,0.5c0,0.2,0.2,0.3,0.4,0.3c0.3,0.1,0.7-0.2,0.7-0.5C101,50.3,101,50.1,101,49.9z"/>
	<path class="st2" d="M76.1,50c-0.6,0-1.2,0-1.8,0c-0.1,0.7,0.6,1.1,1.6,0.8c0,0.1,0.1,0.2,0.1,0.3c-0.5,0.2-1,0.3-1.5,0
		c-0.7-0.3-0.9-1.3-0.5-2c0.2-0.4,0.5-0.6,1-0.6c0.7-0.1,1.1,0.4,1.2,1.1C76.2,49.8,76.1,49.9,76.1,50z M74.3,49.7
		c0.5,0,0.9,0,1.4,0c0-0.4-0.2-0.7-0.6-0.8C74.7,48.9,74.4,49.2,74.3,49.7z"/>
	<path class="st2" d="M110.6,35.2c-0.9,0-1.5-0.6-1.5-1.5c0-0.8,0.7-1.4,1.5-1.4s1.5,0.6,1.5,1.5C112.1,34.5,111.4,35.2,110.6,35.2z
		 M111.7,33.7c0-0.7-0.5-1.1-1.1-1.1s-1.1,0.5-1.1,1.2c0,0.6,0.5,1.2,1.1,1.2C111.2,34.8,111.7,34.3,111.7,33.7z"/>
	<path class="st2" d="M54.7,47.6c0,0.1,0,0.3,0,0.4c-0.4,0-0.7,0-1.1,0c0,1.1,0,2.2,0,3.3c-0.2,0-0.3,0-0.5,0c0-1.1,0-2.2,0-3.3
		c-0.4,0-0.7,0-1.1,0c0-0.1,0-0.3,0-0.4C52.8,47.6,53.7,47.6,54.7,47.6z"/>
	<path class="st2" d="M103.5,49c-0.1,0-0.2,0-0.4,0c0-0.1,0-0.2,0-0.4c0.1,0,0.2,0,0.3,0c0-0.5,0-0.9,0.5-1.2c0.3-0.1,0.6-0.1,0.9,0
		c0,0.1,0,0.2-0.1,0.3c-0.7-0.1-0.9,0.1-0.8,0.9c0.2,0,0.4,0,0.6,0c0,0.1,0,0.3,0,0.4c-0.2,0-0.4,0-0.6,0c0,0.8,0,1.5,0,2.3
		c-0.2,0-0.3,0-0.5,0C103.5,50.5,103.5,49.8,103.5,49z"/>
	<path class="st2" d="M59.9,50.8c0.1-0.3,0.2-0.6,0.3-0.8c0.1-0.3,0.3-0.7,0.3-1c0.1-0.2,0.2-0.3,0.4-0.3c0.1,0,0.1,0,0.2,0
		c-0.1,0.3-0.2,0.5-0.3,0.7c-0.2,0.6-0.5,1.2-0.7,1.8c-0.1,0.2-0.2,0.2-0.3,0.2s-0.2,0-0.3-0.2c-0.3-0.8-0.6-1.5-0.9-2.3
		c0-0.1,0-0.1-0.1-0.2c0,0,0,0,0.1,0c0.4,0,0.4,0,0.6,0.4C59.5,49.6,59.7,50.1,59.9,50.8z"/>
	<path class="st2" d="M89.1,50.8c0,0.1,0.1,0.2,0.1,0.3c-0.4,0.3-1.3,0.2-1.7-0.1c-0.5-0.5-0.6-1.3-0.2-1.9c0.4-0.6,1.2-0.7,1.9-0.4
		c0,0.1,0,0.1,0,0.2c0,0.1,0,0.1-0.1,0.2c-0.5-0.2-1-0.2-1.3,0.3c-0.2,0.3-0.3,0.9,0,1.2C88,51.1,88.5,51,89.1,50.8z"/>
	<path class="st2" d="M65.7,48.6c0.2,0,0.3,0,0.5,0c0,0.1,0,0.3,0,0.4c0,0.8,0,1.5,0,2.3s-0.4,1.2-1.1,1.2c0-0.1,0-0.2-0.1-0.3
		c0,0,0,0,0-0.1c0.5-0.1,0.6-0.2,0.7-0.7c0-0.8,0-1.6,0-2.4C65.7,48.8,65.7,48.7,65.7,48.6z"/>
	<path class="st2" d="M81.5,51.3c-0.2,0-0.3,0-0.5,0c0-0.9,0-1.8,0-2.7c0.1,0,0.3,0,0.4,0c0,0.1,0,0.3,0,0.4c0,0,0,0,0-0.1
		c0.1-0.1,0.3-0.2,0.4-0.3s0.3-0.1,0.5-0.1c0,0.2,0,0.3,0,0.5c-0.7,0.1-0.8,0.3-0.8,1C81.5,50.4,81.5,50.8,81.5,51.3z"/>
	<path class="st2" d="M62.1,51.3c-0.2,0-0.3,0-0.5,0c0-0.9,0-1.8,0-2.7c0.2,0,0.3,0,0.5,0C62.1,49.5,62.1,50.4,62.1,51.3z"/>
	<path class="st2" d="M105.1,48.6c0.2,0,0.3,0,0.5,0c0,0.9,0,1.8,0,2.7c-0.2,0-0.3,0-0.5,0C105.1,50.4,105.1,49.5,105.1,48.6z"/>
	<path class="st2" d="M83.3,51.3c-0.2,0-0.3,0-0.5,0c0-0.9,0-1.8,0-2.7c0.1,0,0.3,0,0.5,0C83.3,49.5,83.3,50.4,83.3,51.3z"/>
	<path class="st2" d="M90.2,51.3c-0.2,0-0.3,0-0.5,0c0-0.9,0-1.8,0-2.7c0.2,0,0.3,0,0.5,0C90.2,49.5,90.2,50.4,90.2,51.3z"/>
	<path class="st2" d="M94.1,48.6c0.2,0,0.3,0,0.5,0c0,0.9,0,1.8,0,2.7c-0.1,0-0.3,0-0.5,0C94.1,50.4,94.1,49.5,94.1,48.6z"/>
	<path class="st2" d="M90.2,47.9c0,0.2-0.1,0.3-0.3,0.3c-0.2,0-0.3-0.1-0.3-0.3s0.1-0.3,0.3-0.3C90.1,47.6,90.2,47.7,90.2,47.9z"/>
	<path class="st2" d="M105.4,47.6c0.2,0,0.3,0.1,0.3,0.3s-0.1,0.3-0.3,0.3c-0.2,0-0.3-0.1-0.3-0.3C105.1,47.7,105.2,47.6,105.4,47.6
		z"/>
	<path class="st2" d="M94.4,48.2c-0.2,0-0.3-0.1-0.3-0.3s0.1-0.3,0.3-0.3c0.2,0,0.3,0.1,0.3,0.3C94.7,48.1,94.5,48.2,94.4,48.2z"/>
	<path class="st2" d="M83.1,47.6c0.2,0,0.3,0.1,0.3,0.3s-0.1,0.3-0.3,0.3c-0.2,0-0.3-0.1-0.3-0.3C82.8,47.7,82.9,47.6,83.1,47.6z"/>
	<path class="st2" d="M66.2,47.9c0,0.2-0.1,0.3-0.3,0.3c-0.2,0-0.3-0.1-0.3-0.3s0.1-0.3,0.3-0.3C66.1,47.6,66.2,47.7,66.2,47.9z"/>
	<path class="st2" d="M62.2,47.9c0,0.2-0.1,0.3-0.3,0.3s-0.3-0.1-0.3-0.3s0.1-0.3,0.3-0.3C62.1,47.6,62.2,47.7,62.2,47.9z"/>
	<path class="st2" d="M111,33.7c0.1,0.2,0.2,0.5,0.3,0.7c-0.3,0.1-0.4,0.1-0.5-0.2s-0.1-0.3-0.5-0.3c0,0.2,0,0.3,0,0.5
		c-0.1,0-0.2,0-0.3,0c0-0.5,0-1,0-1.5c0.3,0,0.5,0,0.7,0s0.4,0.1,0.4,0.3C111.3,33.5,111.2,33.6,111,33.7z M110.4,33.6
		c0.2,0,0.5,0.1,0.5-0.2c0-0.2-0.2-0.2-0.3-0.2C110.2,33.2,110.4,33.5,110.4,33.6z"/>
</g>
</svg>
