<?xml version="1.0" encoding="UTF-8"?>
<svg width="45px" height="39px" viewBox="0 0 45 39" version="1.1" xmlns="http://www.w3.org/2000/svg" xmlns:xlink="http://www.w3.org/1999/xlink">
    <!-- Generator: Sketch 57.1 (83088) - https://sketch.com -->
    <title>Page 1</title>
    <desc>Created with Sketch.</desc>
    <defs>
        <polygon id="path-1" points="44.5897826 30.8363915 44.5897826 0.505062876 0.000130434783 0.505062876 0.000130434783 30.8363915"></polygon>
    </defs>
    <g id="landing-toronto" stroke="none" stroke-width="1" fill="none" fill-rule="evenodd">
        <g id="HomeDesktop_Toronto-Copy-5" transform="translate(-164.000000, -3121.000000)">
            <g id="paquete-1-copy-4" transform="translate(48.000000, 2664.000000)">
                <g id="actividades" transform="translate(112.000000, 278.000000)">
                    <g id="Page-1" transform="translate(4.000000, 179.000000)">
                        <g id="Group-3" transform="translate(0.000000, 7.841793)">
                            <mask id="mask-2" fill="white">
                                <use xlink:href="#path-1"></use>
                            </mask>
                            <g id="Clip-2"></g>
                            <path d="M2.9133913,1.78182613 C2.00686957,1.78182613 1.26926087,2.52452706 1.26926087,3.43781301 L1.26926087,27.9042974 C1.26926087,28.8169273 2.00686957,29.5596282 2.9133913,29.5596282 L41.6746957,29.5596282 C42.5825217,29.5596282 43.3214348,28.8169273 43.3214348,27.9042974 L43.3214348,3.43781301 C43.3214348,2.52452706 42.5825217,1.78182613 41.6746957,1.78182613 L2.9133913,1.78182613 Z M41.6746957,30.8363915 L2.9133913,30.8363915 C1.30643478,30.8363915 0.000130434783,29.5202624 0.000130434783,27.9042974 L0.000130434783,3.43781301 C0.000130434783,1.82053581 1.30643478,0.505062876 2.9133913,0.505062876 L41.6746957,0.505062876 C43.2823043,0.505062876 44.589913,1.82053581 44.589913,3.43781301 L44.589913,27.9042974 C44.589913,29.5202624 43.2823043,30.8363915 41.6746957,30.8363915 L41.6746957,30.8363915 Z" id="Fill-1" fill="#FFFFFF" mask="url(#mask-2)"></path>
                        </g>
                        <polygon id="Fill-4" fill="#FFFFFF" points="7.21891304 38.0399344 8.48804348 38.0399344 8.48804348 8.98471296 7.21891304 8.98471296"></polygon>
                        <polygon id="Fill-6" fill="#FFFFFF" points="36.0997826 38.0399344 37.368913 38.0399344 37.368913 8.98471296 36.0997826 8.98471296"></polygon>
                        <path d="M13.2984783,19.2421214 L20.1371739,19.2421214 L20.1371739,14.2105194 L13.2984783,14.2105194 L13.2984783,19.2421214 Z M20.771087,20.5188846 L12.663913,20.5188846 C12.3130435,20.5188846 12.0293478,20.2334828 12.0293478,19.880503 L12.0293478,13.5714817 C12.0293478,13.219158 12.3130435,12.9331001 12.663913,12.9331001 L20.771087,12.9331001 C21.1219565,12.9331001 21.4056522,13.219158 21.4056522,13.5714817 L21.4056522,19.880503 C21.4056522,20.2334828 21.1219565,20.5188846 20.771087,20.5188846 L20.771087,20.5188846 Z" id="Fill-7" fill="#FFFFFF"></path>
                        <path d="M23.8154348,20.0222198 L29.7665217,20.0222198 L29.7665217,18.1457846 L23.8154348,18.1457846 L23.8154348,20.0222198 Z M30.401087,21.2996391 L23.1808696,21.2996391 C22.83,21.2996391 22.5463043,21.0135812 22.5463043,20.6606014 L22.5463043,17.507403 C22.5463043,17.1550793 22.83,16.8690213 23.1808696,16.8690213 L30.401087,16.8690213 C30.7513043,16.8690213 31.0356522,17.1550793 31.0356522,17.507403 L31.0356522,20.6606014 C31.0356522,21.0135812 30.7513043,21.2996391 30.401087,21.2996391 L30.401087,21.2996391 Z" id="Fill-8" fill="#FFFFFF"></path>
                        <path d="M18.8093478,27.5896337 L23.6843478,27.5896337 L23.6843478,24.1503773 L18.8093478,24.1503773 L18.8093478,27.5896337 Z M24.3182609,28.8657408 L18.1747826,28.8657408 C17.8245652,28.8657408 17.5402174,28.580339 17.5402174,28.2273592 L17.5402174,23.5119956 C17.5402174,23.159672 17.8245652,22.873614 18.1747826,22.873614 L24.3182609,22.873614 C24.6691304,22.873614 24.9534783,23.159672 24.9534783,23.5119956 L24.9534783,28.2273592 C24.9534783,28.580339 24.6691304,28.8657408 24.3182609,28.8657408 L24.3182609,28.8657408 Z" id="Fill-9" fill="#FFFFFF"></path>
                        <path d="M18.1430217,3.12321487 L26.4451957,3.12321487 C25.3886739,1.96323674 23.8815,1.27630399 22.2947609,1.27630399 C20.7073696,1.27630399 19.2001957,1.96323674 18.1430217,3.12321487 M27.6986739,4.40063423 L16.8895435,4.40063423 C16.6619348,4.40063423 16.4519348,4.27794423 16.3384565,4.07914707 C16.2262826,3.88034992 16.227587,3.63628212 16.3417174,3.43879716 C17.5788913,1.31763805 19.8595435,0.000196828868 22.2947609,0.000196828868 C24.7286739,0.000196828868 27.0093261,1.31763805 28.2465,3.43879716 C28.3612826,3.63628212 28.362587,3.88034992 28.2497609,4.07914707 C28.1362826,4.27794423 27.9262826,4.40063423 27.6986739,4.40063423" id="Fill-10" fill="#FFFFFF"></path>
                        <path d="M16.6609565,8.34665938 L27.9272609,8.34665938 L27.9272609,6.94523783 C27.9272609,6.06344451 27.7192174,5.19018043 27.3226957,4.40024057 L17.2661739,4.40024057 C16.869,5.18952433 16.6609565,6.06213231 16.6609565,6.94523783 L16.6609565,8.34665938 Z M28.5624783,9.62342264 L16.0263913,9.62342264 C15.6755217,9.62342264 15.3911739,9.33802078 15.3911739,8.98504101 L15.3911739,6.94523783 C15.3911739,5.71505741 15.7205217,4.50259158 16.3426957,3.4377474 C16.4568261,3.24354292 16.6648696,3.12347731 16.8898696,3.12347731 L27.699,3.12347731 C27.924,3.12347731 28.1320435,3.24354292 28.2461739,3.4390596 C28.8676957,4.50390377 29.1970435,5.7170257 29.1970435,6.94523783 L29.1970435,8.98504101 C29.1970435,9.33802078 28.9126957,9.62342264 28.5624783,9.62342264 L28.5624783,9.62342264 Z" id="Fill-11" fill="#FFFFFF"></path>
                    </g>
                </g>
            </g>
        </g>
    </g>
</svg>