<?xml version="1.0" encoding="UTF-8"?>
<svg width="84px" height="85px" viewBox="0 0 84 85" version="1.1" xmlns="http://www.w3.org/2000/svg" xmlns:xlink="http://www.w3.org/1999/xlink">
    <!-- Generator: Sketch 57.1 (83088) - https://sketch.com -->
    <title>avion_icono</title>
    <desc>Created with Sketch.</desc>
    <defs>
        <polygon id="path-1" points="0.000286175563 84.7714286 83.8003478 84.7714286 83.8003478 0.202714286 0.000286175563 0.202714286"></polygon>
    </defs>
    <g id="landing-toronto" stroke="none" stroke-width="1" fill="none" fill-rule="evenodd">
        <g id="HomeDesktop_Toronto-Copy-5" transform="translate(-472.000000, -1057.000000)">
            <g id="paquete-1" transform="translate(6.000000, 574.000000)">
                <g id="avion_icono" transform="translate(466.000000, 482.071429)">
                    <g id="Page-1">
                        <g id="Group-3" transform="translate(0.000000, 1.026471)">
                            <mask id="mask-2" fill="white">
                                <use xlink:href="#path-1"></use>
                            </mask>
                            <g id="Clip-2"></g>
                            <path d="M3.58655652,57.9395514 L21.9789043,61.6510657 C22.4488174,61.7468943 22.8152522,62.1166943 22.9089913,62.5896943 L26.5879478,81.15218 L32.3888174,75.2968086 L30.5907304,63.7863229 C30.5213391,63.3440371 30.701513,62.9017514 31.0582087,62.63638 C31.3747304,62.4029514 31.6206435,62.1928657 31.8349043,61.9778657 L79.5152522,13.8596371 C80.7509043,12.6138657 81.4302087,10.9552943 81.4302087,9.19352286 C81.4302087,7.43052286 80.7509043,5.77318 79.5152522,4.52618 C78.2796,3.28040857 76.6373391,2.59240857 74.8903826,2.59240857 C73.1446435,2.59240857 71.5011652,3.27918 70.265513,4.52618 L22.5851652,52.6444086 C22.3709043,52.8618657 22.1578609,53.1149514 21.9362957,53.4233229 C21.6745565,53.7845229 21.237513,53.9700371 20.7943826,53.9000086 L9.38742609,52.08418 L3.58655652,57.9395514 Z M25.8599478,84.7715514 C25.745513,84.7715514 25.6298609,84.7543514 25.5166435,84.7199514 C25.0990783,84.59218 24.7849913,84.2420371 24.6985565,83.80958 L20.7408174,63.84038 L0.952121739,59.8450657 C0.5236,59.7602943 0.17786087,59.4420943 0.0512521739,59.0194657 C-0.0753565217,58.5992943 0.0378608696,58.1410371 0.347078261,57.8277514 L8.1396,49.9636657 C8.40742609,49.69338 8.78846957,49.5692943 9.1609913,49.6282657 L20.4766435,51.4293514 C20.6202957,51.2598086 20.7639478,51.1013229 20.9124696,50.9538943 L68.5916,2.83566571 C70.2740348,1.13778 72.5103826,0.201608571 74.8903826,0.201608571 C77.2703826,0.201608571 79.5067304,1.13778 81.1903826,2.83566571 C82.8728174,4.53355143 83.8004696,6.79166571 83.8004696,9.19352286 C83.8004696,11.5941514 82.8728174,13.8522657 81.1903826,15.5501514 L33.5100348,63.6696086 C33.3627304,63.8182657 33.2069043,63.9620086 33.037687,64.1057514 L34.8236,75.5253229 C34.8820348,75.9024943 34.7578609,76.2858086 34.4900348,76.5560943 L26.697513,84.4214086 C26.4722957,84.6486943 26.1691652,84.7715514 25.8599478,84.7715514 L25.8599478,84.7715514 Z" id="Fill-1" fill="#FF0000" mask="url(#mask-2)"></path>
                        </g>
                        <polygon id="Fill-4" fill="#FF0000" points="39.5566957 17.9984486 37.8815652 16.3079343 42.454087 11.6909629 44.1304348 13.3814771"></polygon>
                        <polygon id="Fill-6" fill="#FF0000" points="22.1173217 35.5956457 20.4421913 33.9051314 25.7938435 28.50556 27.4701913 30.1960743"></polygon>
                        <polygon id="Fill-8" fill="#FF0000" points="27.5681913 10.3804457 25.8930609 8.68993143 30.9354957 3.60241714 32.6106261 5.29293143"></polygon>
                        <polygon id="Fill-10" fill="#FF0000" points="12.3501913 25.7394314 10.6762783 24.0476886 16.026713 18.6493457 17.7018435 20.3386314"></polygon>
                        <path d="M8.7717913,9.63605429 L35.8210087,36.9324543 L48.5305739,24.1061686 L13.9347478,4.42568286 L8.7717913,9.63605429 Z M35.8210087,39.8183686 C35.5166609,39.8183686 35.2147478,39.7016543 34.9834435,39.4682257 L6.25787826,10.48254 C6.03631304,10.2577114 5.91092174,9.95425429 5.91092174,9.63605429 C5.91092174,9.31908286 6.03631304,9.01562571 6.25787826,8.79202571 L12.8950957,2.09385429 C13.2700522,1.71299714 13.8507478,1.63314 14.3145739,1.89851143 L51.0530087,22.7965114 C51.3756174,22.9795686 51.5947478,23.30514 51.6446609,23.67494 C51.6945739,24.0459686 51.5704,24.4182257 51.3098783,24.6835971 L36.6585739,39.4682257 C36.4260522,39.7016543 36.1229217,39.8183686 35.8210087,39.8183686 L35.8210087,39.8183686 Z" id="Fill-12" fill="#FF0000"></path>
                        <polygon id="Fill-14" fill="#FF0000" points="68.8584522 47.5694257 67.1833217 45.8789114 71.7570609 41.2631686 73.4309739 42.9536829"></polygon>
                        <polygon id="Fill-16" fill="#FF0000" points="51.4202957 65.1665 49.7451652 63.4759857 55.0968174 58.0764143 56.7719478 59.7669286"></polygon>
                        <polygon id="Fill-18" fill="#FF0000" points="76.2085739 59.8658286 74.5322261 58.1753143 79.7718783 52.8875429 81.4470087 54.5780571"></polygon>
                        <polygon id="Fill-20" fill="#FF0000" points="61.1868174 75.02382 59.5129043 73.3333057 64.8645565 67.9337343 66.539687 69.6254771"></polygon>
                        <path d="M48.4201565,49.6468171 L75.4681565,76.9456743 L80.631113,71.7365314 L61.1297217,36.8205314 L48.4201565,49.6468171 Z M75.4681565,79.8315886 L75.4681565,79.8315886 C75.1540696,79.8315886 74.8533739,79.7062743 74.6305913,79.4814457 L45.9086783,50.4920743 C45.4448522,50.0252171 45.4448522,49.2684171 45.9086783,48.80156 L60.5587652,34.0169314 C60.8205043,33.7527886 61.1869391,33.6274743 61.5570261,33.6778457 C61.9234609,33.7282171 62.2460696,33.94936 62.4274609,34.27616 L83.1365043,71.3532171 C83.3958087,71.8200743 83.3178957,72.4048743 82.9417217,72.7845029 L76.3057217,79.4814457 C76.0841565,79.7062743 75.7822435,79.8315886 75.4681565,79.8315886 L75.4681565,79.8315886 Z" id="Fill-22" fill="#FF0000"></path>
                        <polygon id="Fill-24" fill="#FF0000" points="76.384 13.6408286 71.4998261 8.71302857 73.1749565 7.02251429 78.0591304 11.9515429"></polygon>
                    </g>
                </g>
            </g>
        </g>
    </g>
</svg>