<?xml version="1.0" encoding="UTF-8"?>
<svg width="46px" height="46px" viewBox="0 0 46 46" version="1.1" xmlns="http://www.w3.org/2000/svg" xmlns:xlink="http://www.w3.org/1999/xlink">
    <!-- Generator: Sketch 57.1 (83088) - https://sketch.com -->
    <title>Page 1 Copy 2</title>
    <desc>Created with Sketch.</desc>
    <defs>
        <polygon id="path-1" points="3.87479917e-16 33.9474817 3.87479917e-16 0.61691831 21.3708114 0.61691831 21.3708114 33.9474817 0 33.9474817"></polygon>
        <polygon id="path-3" points="0 45.5321606 45.6359429 45.5321606 45.6359429 -6.47887322e-05 0 -6.47887322e-05"></polygon>
    </defs>
    <g id="landing-toronto" stroke="none" stroke-width="1" fill="none" fill-rule="evenodd">
        <g id="HomeDesktop_Toronto-Copy-5" transform="translate(-156.000000, -1982.000000)">
            <g id="paquete-1-copy-3" transform="translate(44.000000, 1576.000000)">
                <g id="actividades" transform="translate(112.000000, 317.000000)">
                    <g id="Page-1-Copy-2" transform="translate(0.000000, 89.000000)">
                        <g id="Group-3" transform="translate(0.000000, 11.194132)">
                            <mask id="mask-2" fill="white">
                                <use xlink:href="#path-1"></use>
                            </mask>
                            <g id="Clip-2"></g>
                            <path d="M10.6856686,7.26812958 C8.51381143,7.26812958 6.74609714,9.01029859 6.74609714,11.1522141 C6.74609714,13.2941296 8.51381143,15.0362986 10.6856686,15.0362986 C12.8575257,15.0362986 14.62524,13.2941296 14.62524,11.1522141 C14.62524,9.01029859 12.8575257,7.26812958 10.6856686,7.26812958 M10.6856686,16.2977352 C7.80804,16.2977352 5.46729714,13.9893127 5.46729714,11.1522141 C5.46729714,8.31511549 7.80804,6.00734085 10.6856686,6.00734085 C13.5632971,6.00734085 15.9033829,8.31511549 15.9033829,11.1522141 C15.9033829,13.9893127 13.5632971,16.2977352 10.6856686,16.2977352 M10.6856686,1.87770704 C5.49884,1.87770704 1.27866857,6.03843944 1.27866857,11.1522141 C1.27866857,15.6634535 8.59661143,28.4942141 10.6856686,32.0647211 C12.7747257,28.4942141 20.0920114,15.6634535 20.0920114,11.1522141 C20.0920114,6.03843944 15.8724971,1.87770704 10.6856686,1.87770704 M10.6856686,33.9474817 C10.4602686,33.9474817 10.2512971,33.8302141 10.1362971,33.6390873 C9.72229714,32.951031 -0.000131428571,16.7311718 -0.000131428571,11.1522141 C-0.000131428571,5.34325634 4.79372571,0.61691831 10.6856686,0.61691831 C16.5776114,0.61691831 21.3708114,5.34325634 21.3708114,11.1522141 C21.3708114,16.7311718 11.6496971,32.951031 11.23504,33.6384394 C11.1206971,33.8302141 10.9110686,33.9474817 10.6856686,33.9474817" id="Fill-1" fill="#FFFFFF" mask="url(#mask-2)"></path>
                        </g>
                        <path d="M37.91182,5.06194366 C36.4845057,5.06194366 35.3226771,6.20740845 35.3226771,7.61526761 C35.3226771,9.02312676 36.4845057,10.1685915 37.91182,10.1685915 C39.3404486,10.1685915 40.50162,9.02312676 40.50162,7.61526761 C40.50162,6.20740845 39.3404486,5.06194366 37.91182,5.06194366 M37.91182,11.4293803 C35.7787343,11.4293803 34.0438771,9.71830986 34.0438771,7.61526761 C34.0438771,5.51222535 35.7787343,3.80115493 37.91182,3.80115493 C40.0455629,3.80115493 41.78042,5.51222535 41.78042,7.61526761 C41.78042,9.71830986 40.0455629,11.4293803 37.91182,11.4293803 M37.91182,1.26078873 C34.3579914,1.26078873 31.4665629,4.11084507 31.4665629,7.61526761 C31.4665629,10.3836901 35.7057914,18.2153521 37.91182,21.9951268 C40.1191629,18.2153521 44.3570771,10.3836901 44.3570771,7.61526761 C44.3570771,4.11084507 41.4663057,1.26078873 37.91182,1.26078873 M37.91182,23.8759437 L37.91182,23.8759437 C37.68642,23.8759437 37.4774486,23.7586761 37.3624486,23.5675493 C37.0687057,23.080338 30.18842,11.5997746 30.18842,7.61526761 C30.18842,3.41630986 33.6535343,0 37.91182,0 C42.1707629,0 45.6358771,3.41630986 45.6358771,7.61526761 C45.6358771,11.5997746 38.7549343,23.080338 38.4618486,23.5681972 C38.3461914,23.7586761 38.13722,23.8759437 37.91182,23.8759437" id="Fill-4" fill="#FFFFFF"></path>
                        <path d="M38.2073371,23.4589383 L37.3714514,23.2849626 C37.4082514,23.0994787 37.4266514,22.9085792 37.4266514,22.7170028 L38.2789657,22.7170028 C38.2789657,22.9667968 38.2546514,23.2172677 38.2073371,23.4589383" id="Fill-6" fill="#FFFFFF"></path>
                        <polygon id="Fill-8" fill="#FFFFFF" points="37.4486602 25.1514917 36.7096429 24.5505239 37.4515783 25.147782"></polygon>
                        <path d="M36.2234229,25.9360958 L35.8547657,25.1780676 C36.1859657,25.0212789 36.4783943,24.8042366 36.7241657,24.5327718 L37.36028,25.0925465 C37.0389371,25.4475887 36.65648,25.7313634 36.2234229,25.9360958 L36.2234229,25.9360958 Z M31.4545371,26.2859549 L30.1869086,26.2859549 L30.1869086,25.4456451 L31.4505943,25.4456451 L31.4545371,26.2859549 Z M34.4037943,26.2859549 L33.1361657,26.2859549 L33.1361657,25.4456451 L34.4005086,25.4456451 L34.4037943,26.2859549 Z M27.2718229,26.2995606 L27.2021657,25.4618423 C27.3329371,25.4501803 27.4643657,25.4456451 27.5971086,25.4456451 L28.50068,25.4456451 L28.50528,26.2859549 L27.5971086,26.2859549 C27.4873657,26.2859549 27.3795943,26.2904901 27.2718229,26.2995606 L27.2718229,26.2995606 Z M24.8962514,27.3569127 L24.3067943,26.7504901 C24.6425943,26.4330254 25.0211086,26.1667437 25.4331371,25.9587718 L25.6309371,26.3410254 L25.4364229,25.9568282 L25.8215086,26.7064338 C25.4837371,26.8781239 25.1722514,27.096462 24.8962514,27.3569127 L24.8962514,27.3569127 Z M23.7265371,29.6543211 L22.8814514,29.5500113 C22.9386229,29.0945465 23.0628229,28.6526873 23.2501086,28.2354479 L23.6397943,28.4051944 L23.6273086,28.3967718 L24.0459086,28.5347718 L24.0268514,28.574293 L24.02948,28.5755887 C23.8757086,28.9176732 23.7745086,29.2804901 23.7265371,29.6543211 L23.7265371,29.6543211 Z M23.5635657,32.6086873 C23.3177943,32.2199549 23.1318229,31.7994761 23.0102514,31.3589127 L23.8257657,31.1159549 L23.5149371,31.2183211 L23.8303657,31.1302085 L23.4249086,31.2481239 L23.8323371,31.1379831 C23.9322229,31.4995042 24.0853371,31.8448282 24.28708,32.1642366 L23.5635657,32.6086873 Z M26.0495371,34.5601239 C25.6112229,34.4117577 25.1985371,34.2005465 24.82068,33.932969 L25.0703943,33.5915324 L25.05528,33.6064338 L25.3030229,33.2397296 L25.3187943,33.2513915 L25.3194514,33.2507437 C25.6283086,33.4703775 25.9680514,33.6440113 26.3261943,33.7658141 L26.0495371,34.5601239 Z M29.1085371,34.8264056 L27.8441943,34.8166873 L27.8461657,34.5588282 L27.8435371,33.9763775 L27.84748,33.9763775 L27.84748,34.3962085 L27.8507657,33.9763775 L29.1151086,33.9860958 L29.1085371,34.8264056 Z M32.0584514,34.8490817 L30.7934514,34.8393634 L30.79608,34.5815042 L30.7927943,33.9984056 L30.7973943,33.9984056 L30.7973943,34.4188845 L30.80068,33.9984056 L32.0643657,34.0081239 L32.0584514,34.8490817 Z M35.0077086,34.870462 L33.7433657,34.8613915 L33.7466514,34.4409127 L33.7256229,34.8613915 L33.7499371,34.0210817 L35.01428,34.0308 L35.0077086,34.870462 Z M37.9576229,34.8937859 L36.69328,34.8834197 L36.6952514,34.6262085 L36.6919657,34.0437577 L36.6965657,34.0437577 L36.6965657,34.4635887 L36.6998514,34.0437577 L37.9635371,34.0528282 L37.9576229,34.8937859 Z M40.6177371,35.439307 C40.2740514,35.2637296 39.9080229,35.128969 39.5308229,35.0376169 L39.53148,35.0356732 L39.4940229,35.0272507 L39.6293943,34.6281521 L39.6865657,34.2122085 L39.6359657,34.6080676 L39.6438514,34.5840958 L39.7345371,34.2212789 C40.1767943,34.3288282 40.6059086,34.4869127 41.0100514,34.6929408 L40.6177371,35.439307 Z M42.5832514,37.2417296 C42.3808514,36.9158423 42.1390229,36.612631 41.8656514,36.3411662 L41.8689371,36.3379268 L41.83148,36.3042366 L42.1646514,36.0418423 L42.4038514,35.6952225 L42.1751657,36.0334197 L42.1961943,36.0165746 L42.4702229,35.7483493 C42.7909086,36.0671099 43.07348,36.4215042 43.3107086,36.8031099 L42.5832514,37.2417296 Z M43.3093943,39.7859831 C43.3087371,39.4017859 43.2633943,39.0188845 43.1733657,38.6489408 L43.5880229,38.5517577 L43.5729086,38.5517577 L43.9974229,38.4318986 L44.0000514,38.4539268 L44.00268,38.4532789 C44.1078229,38.8867155 44.1617086,39.3350535 44.1623657,39.7846873 L43.3093943,39.7859831 Z M43.46448,41.4160676 L43.87388,41.5456451 L43.46448,41.4160676 Z M43.3199086,42.7701521 L42.59048,42.3347718 C42.79288,42.006293 42.9551943,41.6557859 43.07348,41.2923211 L43.8896514,41.5365746 L43.57028,41.4465183 L43.8850514,41.5495324 C43.7463943,41.9758423 43.55648,42.3859549 43.3199086,42.7701521 L43.3199086,42.7701521 Z M41.0258229,44.8868 L40.6321943,44.1417296 C40.97588,43.9655042 41.2991943,43.748462 41.59228,43.4977296 L41.5955657,43.5016169 L41.63828,43.4633915 L41.8748514,43.8132507 L42.2047371,44.0775887 L41.88208,43.8242648 L41.8932514,43.840462 L42.1501943,44.1326592 C41.8071657,44.4261521 41.4286514,44.6801239 41.0258229,44.8868 L41.0258229,44.8868 Z M12.6937657,45.5320958 L12.67208,45.5320958 L12.67208,44.6917859 L12.6937657,45.5320958 Z M12.6983657,45.5320958 L12.6937657,45.5320958 L12.6937657,44.6917859 L12.6983657,45.5320958 Z M15.6476229,45.5320958 L14.3793371,45.5320958 L14.3793371,44.6917859 L15.64368,44.6917859 L15.6476229,45.5320958 Z M18.5975371,45.5320958 L17.3292514,45.5320958 L17.3292514,44.6917859 L18.5929371,44.6917859 L18.5975371,45.5320958 Z M21.5474514,45.5320958 L20.2791657,45.5320958 L20.2791657,44.6917859 L21.5428514,44.6917859 L21.5474514,45.5320958 Z M24.4967086,45.5320958 L23.22908,45.5320958 L23.22908,44.6917859 L24.4927657,44.6917859 L24.4967086,45.5320958 Z M27.4466229,45.5320958 L26.1783371,45.5320958 L26.1783371,44.6917859 L27.44268,44.6917859 L27.4466229,45.5320958 Z M30.3965371,45.5320958 L29.1282514,45.5320958 L29.1282514,44.6917859 L30.3925943,44.6917859 L30.3965371,45.5320958 Z M33.3464514,45.5320958 L32.0781657,45.5320958 L32.0781657,44.6917859 L33.3418514,44.6917859 L33.3464514,45.5320958 Z M36.2957086,45.5320958 L35.02808,45.5320958 L35.02808,44.6917859 L36.2924229,44.6917859 L36.2957086,45.5320958 Z M38.3420514,45.5320958 L37.9773371,45.5320958 L37.9773371,44.6917859 L38.3420514,44.6917859 C38.6187086,44.6917859 38.8960229,44.6691099 39.1674229,44.6244056 L39.23708,45.0390535 L39.1845086,44.6218141 L39.3113371,45.4524056 L39.3073943,45.4530535 C38.9906514,45.5055324 38.6653657,45.5320958 38.3420514,45.5320958 L38.3420514,45.5320958 Z" id="Fill-10" fill="#FFFFFF"></path>
                        <mask id="mask-4" fill="white">
                            <use xlink:href="#path-3"></use>
                        </mask>
                        <g id="Clip-13"></g>
                        <polygon id="Fill-12" fill="#FFFFFF" mask="url(#mask-4)" points="12.029 45.5321606 12.7509032 45.5321606 12.7509032 44.6918507 12.029 44.6918507"></polygon>
                    </g>
                </g>
            </g>
        </g>
    </g>
</svg>