<?xml version="1.0" encoding="UTF-8"?>
<svg width="46px" height="56px" viewBox="0 0 46 56" version="1.1" xmlns="http://www.w3.org/2000/svg" xmlns:xlink="http://www.w3.org/1999/xlink">
    <!-- Generator: Sketch 57.1 (83088) - https://sketch.com -->
    <title>Page 1</title>
    <desc>Created with Sketch.</desc>
    <defs>
        <polygon id="path-1" points="20.1749057 38.9846154 20.1749057 0.620307692 0.322954717 0.620307692 0.322954717 38.9846154"></polygon>
        <polygon id="path-3" points="0 55.5216738 45.344717 55.5216738 45.344717 -0.000172307692 0 -0.000172307692"></polygon>
    </defs>
    <g id="landing-toronto" stroke="none" stroke-width="1" fill="none" fill-rule="evenodd">
        <g id="HomeDesktop_Toronto-Copy-5" transform="translate(-162.000000, -4350.000000)">
            <g id="paquete-1-copy-5" transform="translate(48.000000, 3700.000000)">
                <g id="actividades" transform="translate(109.000000, 285.000000)">
                    <g id="Page-1" transform="translate(5.000000, 365.000000)">
                        <path d="M19.8512566,51.4293662 L18.5493698,51.4293662 L18.5493698,49.5908431 C11.141634,50.5833354 4.89778491,49.4013046 1.7802,48.5862892 C0.960011321,48.3726277 0.330766038,47.76352 0.0955584906,46.9562585 C-0.139649057,46.1464123 0.0651811321,45.2952123 0.645822642,44.6783508 L10.0159358,34.7120738 L6.29080377,34.3416123 C5.36386038,34.2502892 4.5931434,33.65152 4.28069057,32.7805046 C3.96650189,31.9103508 4.18087925,30.9626585 4.83963396,30.3087508 L13.5058604,21.7062892 L12.8740113,21.6011815 C11.9878604,21.45472 11.2666151,20.8369969 10.9932189,19.98752 C10.7189547,19.1389046 10.9428792,18.2196431 11.5782,17.5898585 L16.1365396,13.0650585 L17.0565396,13.9782892 L12.4982,18.5030892 C12.2048415,18.7942892 12.1058981,19.2017969 12.2326151,19.5929354 C12.3593321,19.9849354 12.6787283,20.2589046 13.0875208,20.3269662 L16.2155208,20.8447508 L5.76050189,31.2228431 C5.4567283,31.5243815 5.36212453,31.9439508 5.5062,32.3462892 C5.6511434,32.7477662 5.99223774,33.0139815 6.4192566,33.0561969 L12.7620491,33.68512 L1.59706792,45.5605662 C1.33321887,45.8414277 1.23948302,46.22912 1.34710566,46.5969969 C1.4547283,46.96832 1.73333208,47.2379815 2.11087925,47.3361969 C5.2371434,48.1529354 11.601634,49.3521969 19.1013698,48.2063508 L19.8512566,48.0917662 L19.8512566,51.4293662 Z" id="Fill-1" fill="#FFFFFF"></path>
                        <g id="Group-5" transform="translate(25.169811, 12.444751)">
                            <mask id="mask-2" fill="white">
                                <use xlink:href="#path-1"></use>
                            </mask>
                            <g id="Clip-4"></g>
                            <path d="M1.62484151,38.9846154 L0.322954717,38.9846154 L0.322954717,35.6470154 L1.07284151,35.7616 C8.57431321,36.9057231 14.9370679,35.7073231 18.0642,34.8923077 C18.4417472,34.7932308 18.7203509,34.5235692 18.8279736,34.1522462 C18.9355962,33.7843692 18.8418604,33.3966769 18.5780113,33.1158154 L7.41216226,21.2403692 L13.7558226,20.6114462 C14.1828415,20.5692308 14.5239358,20.3030154 14.6688792,19.9015385 C14.8129547,19.4992 14.7183509,19.0796308 14.4137094,18.7780923 L3.95869057,8.4 L7.08755849,7.88221538 C7.49635094,7.81415385 7.81574717,7.54018462 7.94159623,7.14904615 C8.06831321,6.75704615 7.96936981,6.34953846 7.67601132,6.05833846 L3.1176717,1.53353846 L4.0376717,0.620307692 L8.59601132,5.14510769 C9.2322,5.77575385 9.4552566,6.69501538 9.18186038,7.54363077 C8.90759623,8.39224615 8.18721887,9.00996923 7.30106792,9.15643077 L6.66835094,9.26153846 L15.3345774,17.864 C15.9933321,18.5179077 16.2085774,19.4647385 15.8943887,20.3357538 C15.5819358,21.2067692 14.8112189,21.8055385 13.8842755,21.8968615 L10.1582755,22.2673231 L19.5292566,32.2336 C20.1098981,32.8504615 20.3147283,33.7016615 20.0795208,34.5115077 C19.8443132,35.3187692 19.2150679,35.9278769 18.3948792,36.1415385 C15.2764264,36.9556923 9.03170943,38.1394462 1.62484151,37.1460923 L1.62484151,38.9846154 Z" id="Fill-3" fill="#FFFFFF" mask="url(#mask-2)"></path>
                        </g>
                        <mask id="mask-4" fill="white">
                            <use xlink:href="#path-3"></use>
                        </mask>
                        <g id="Clip-7"></g>
                        <polygon id="Fill-6" fill="#FFFFFF" mask="url(#mask-4)" points="14.8606038 55.5216738 30.4832453 55.5216738 30.4832453 54.2293662 14.8606038 54.2293662"></polygon>
                        <path d="M18.8629509,5.66685538 L20.7671774,7.50968615 L20.3184604,10.1115323 L22.6722717,8.88297846 L25.0269509,10.1115323 L24.5764981,7.50968615 L26.4807245,5.66685538 L23.8491774,5.28777846 L22.6722717,2.92027077 L21.495366,5.28777846 L18.8629509,5.66685538 Z M26.7558566,12.4738708 L22.6722717,10.3432862 L18.5895547,12.4738708 L19.3689509,7.96113231 L16.0656302,4.76482462 L20.6309132,4.10574769 L22.6722717,-0.000344615384 L24.7136302,4.10574769 L29.2780453,4.76482462 L25.9747245,7.96113231 L26.7558566,12.4738708 Z" id="Fill-8" fill="#FFFFFF" mask="url(#mask-4)"></path>
                        <path d="M14.8606906,40.87552 C14.2626906,40.87552 13.7757849,41.3588431 13.7757849,41.9524431 C13.7757849,42.5460431 14.2626906,43.0293662 14.8606906,43.0293662 C15.4586906,43.0293662 15.9455962,42.5460431 15.9455962,41.9524431 C15.9455962,41.3588431 15.4586906,40.87552 14.8606906,40.87552 M14.8606906,44.3216738 C13.5440491,44.3216738 12.4738981,43.2593969 12.4738981,41.9524431 C12.4738981,40.6454892 13.5440491,39.5832123 14.8606906,39.5832123 C16.1773321,39.5832123 17.247483,40.6454892 17.247483,41.9524431 C17.247483,43.2593969 16.1773321,44.3216738 14.8606906,44.3216738" id="Fill-9" fill="#FFFFFF" mask="url(#mask-4)"></path>
                        <path d="M26.1437094,30.5370585 C25.5457094,30.5370585 25.0588038,31.0203815 25.0588038,31.6139815 C25.0588038,32.2075815 25.5457094,32.6909046 26.1437094,32.6909046 C26.7417094,32.6909046 27.2286151,32.2075815 27.2286151,31.6139815 C27.2286151,31.0203815 26.7417094,30.5370585 26.1437094,30.5370585 M26.1437094,33.9832123 C24.8270679,33.9832123 23.756917,32.9209354 23.756917,31.6139815 C23.756917,30.3070277 24.8270679,29.2447508 26.1437094,29.2447508 C27.4603509,29.2447508 28.5305019,30.3070277 28.5305019,31.6139815 C28.5305019,32.9209354 27.4603509,33.9832123 26.1437094,33.9832123" id="Fill-10" fill="#FFFFFF" mask="url(#mask-4)"></path>
                        <path d="M20.0682377,16.7524431 C19.4702377,16.7524431 18.9833321,17.2357662 18.9833321,17.8293662 C18.9833321,18.4229662 19.4702377,18.9062892 20.0682377,18.9062892 C20.6662377,18.9062892 21.1531434,18.4229662 21.1531434,17.8293662 C21.1531434,17.2357662 20.6662377,16.7524431 20.0682377,16.7524431 M20.0682377,20.1985969 C18.7515962,20.1985969 17.6814453,19.13632 17.6814453,17.8293662 C17.6814453,16.5224123 18.7515962,15.4601354 20.0682377,15.4601354 C21.3848792,15.4601354 22.4550302,16.5224123 22.4550302,17.8293662 C22.4550302,19.13632 21.3848792,20.1985969 20.0682377,20.1985969" id="Fill-11" fill="#FFFFFF" mask="url(#mask-4)"></path>
                        <path d="M15.8006528,29.6717292 L15.6557094,28.3871754 C15.9560113,28.3535754 23.0295962,27.4687754 24.6404642,20.2740677 L25.9111057,20.5540677 C24.0954075,28.6654523 15.8831057,29.6622523 15.8006528,29.6717292" id="Fill-12" fill="#FFFFFF" mask="url(#mask-4)"></path>
                        <path d="M33.0404113,43.4584123 C20.6620717,42.5805046 16.1983358,33.9909662 16.0143358,33.6256738 L17.1782226,33.0475815 C17.219883,33.1302892 21.5221849,41.34592 33.1332792,42.1695508 L33.0404113,43.4584123 Z" id="Fill-13" fill="#FFFFFF" mask="url(#mask-4)"></path>
                    </g>
                </g>
            </g>
        </g>
    </g>
</svg>