<?xml version="1.0" encoding="UTF-8"?>
<svg width="62px" height="63px" viewBox="0 0 62 63" version="1.1" xmlns="http://www.w3.org/2000/svg" xmlns:xlink="http://www.w3.org/1999/xlink">
    <!-- Generator: Sketch 57.1 (83088) - https://sketch.com -->
    <title>Page 1</title>
    <desc>Created with Sketch.</desc>
    <defs>
        <polygon id="path-1" points="2.95942721e-05 0.0184514617 61.97958 0.0184514617 61.97958 62.1444789 2.95942721e-05 62.1444789 2.95942721e-05 0.0184514617"></polygon>
    </defs>
    <g id="landing-toronto" stroke="none" stroke-width="1" fill="none" fill-rule="evenodd">
        <g id="HomeDesktop_Toronto-Copy-5" transform="translate(-1049.000000, -708.000000)">
            <g id="Page-1" transform="translate(1049.000000, 708.000000)">
                <path d="M5.56905012,42.6543474 L3.20150835,28.1884014 L7.32517422,16.8153632 L8.23253461,14.3129022 L16.2229881,6.48948242 L27.3208401,3.09441346 L35.4592649,3.09441346 L44.4855179,5.30858887 L51.8840859,11.0654449 L57.5069976,18.4460296 L59.8745394,29.8121301 L58.0988831,37.6355498 L55.2874272,45.9018047 L50.700315,51.5110491 C50.700315,51.5110491 43.1537757,56.382235 42.7098616,56.5298467 C42.2659475,56.6774584 32.9437518,59.3344688 32.9437518,59.3344688 C32.9437518,59.3344688 24.5093842,57.8583519 23.9174988,57.7107402 C23.3256134,57.5631285 17.2587876,54.6108946 17.2587876,54.6108946 L3.34947971,58.301187 L7.34470644,45.0161345 L5.56905012,42.6543474 Z" id="Fill-1" fill="#25D366"></path>
                <g id="Group-5" transform="translate(0.000000, 0.129160)">
                    <mask id="mask-2" fill="white">
                        <use xlink:href="#path-1"></use>
                    </mask>
                    <g id="Clip-4"></g>
                    <path d="M45.1888554,37.2478477 C44.4177766,36.8628764 40.6267504,35.002231 39.9198912,34.7452391 C39.21318,34.4885423 38.6989795,34.3604154 38.184927,35.1302104 C37.6710224,35.900153 36.1932325,37.6329666 35.7433995,38.1463601 C35.2937146,38.659606 34.8438816,38.7241123 34.0728029,38.3388458 C33.3017241,37.9538745 30.817137,37.1417149 27.871915,34.5208693 C25.5795427,32.4811709 24.0320582,29.962325 23.5822253,29.1922348 C23.1325403,28.4221445 23.5342826,28.0058796 23.9203399,27.6223844 C24.2673327,27.2775635 24.6915666,26.723872 25.077032,26.2746896 C25.4624974,25.8256548 25.5910845,25.5045994 25.8481107,24.9915012 C26.105137,24.4779601 25.9766979,24.0289253 25.7837432,23.643954 C25.5910845,23.2589827 24.048927,19.4725952 23.4064353,17.9322671 C22.7805165,16.4325323 22.1448315,16.635646 21.6714711,16.6118805 C21.2222301,16.5895912 20.7075857,16.5848676 20.1936811,16.5848676 C19.6796286,16.5848676 18.8441823,16.7773532 18.1373232,17.5472958 C17.4306119,18.317386 15.4386215,20.1784743 15.4386215,23.964419 C15.4386215,27.7508066 18.2015427,31.4083291 18.5871561,31.9217226 C18.9726215,32.4352637 24.0243637,40.2046576 31.7597146,43.5365487 C33.5992945,44.3292235 35.0356525,44.8024666 36.1554998,45.1568823 C38.0026263,45.7424579 39.6835809,45.6597953 41.0122158,45.4617004 C42.493705,45.2410209 45.5743208,43.601055 46.2169604,41.8043255 C46.859452,40.0071531 46.859452,38.4671203 46.6666453,38.1463601 C46.4739866,37.8254523 45.9599341,37.6329666 45.1888554,37.2478477 M31.1194425,56.4115359 L31.1089365,56.4115359 C26.5064353,56.4097645 21.9921251,55.1761736 18.0540153,52.8449421 L17.1173566,52.290365 L7.40954749,54.8307623 L10.000674,45.3886326 L9.39073604,44.4204475 C6.82328496,40.34666 5.46712745,35.6381422 5.46919905,30.8032688 C5.47467399,16.6955764 16.9813709,5.21788148 31.1296525,5.21788148 C37.9807265,5.22024327 44.420736,7.88522479 49.2635427,12.7218696 C54.1063494,17.5582191 56.7717575,23.9870036 56.769094,30.8239344 C56.7633232,44.9328077 45.2569222,56.4115359 31.1194425,56.4115359 M52.9493613,9.04678121 C47.122989,3.22778063 39.3746167,0.0218022472 31.1191465,0.0184071782 C14.1093947,0.0184071782 0.265490215,13.8277764 0.258683532,30.8013498 C0.256463962,36.2272605 1.67743294,41.5231252 4.37805823,46.1919355 L2.95942721e-05,62.1444789 L16.3594473,57.8635921 C20.8669508,60.3161604 25.9419246,61.6089436 31.1068649,61.6105674 L31.1194425,61.6105674 L31.1195905,61.6105674 C48.1275666,61.6105674 61.9726549,47.7998697 61.9796095,30.826001 C61.9827169,22.6001917 58.7757337,14.8656342 52.9493613,9.04678121" id="Fill-3" fill="#FFFFFF" mask="url(#mask-2)"></path>
                </g>
            </g>
        </g>
    </g>
</svg>