<?xml version="1.0" encoding="UTF-8"?>
<svg width="53px" height="27px" viewBox="0 0 53 27" version="1.1" xmlns="http://www.w3.org/2000/svg" xmlns:xlink="http://www.w3.org/1999/xlink">
    <!-- Generator: Sketch 57.1 (83088) - https://sketch.com -->
    <title>Page 1</title>
    <desc>Created with Sketch.</desc>
    <defs>
        <polygon id="path-1" points="0.183293041 0.0200625 20.9601013 0.0200625 20.9601013 3.92844375 0.183293041 3.92844375"></polygon>
    </defs>
    <g id="landing-toronto" stroke="none" stroke-width="1" fill="none" fill-rule="evenodd">
        <g id="HomeDesktop_Toronto-Copy-5" transform="translate(-160.000000, -3297.000000)">
            <g id="paquete-1-copy-4" transform="translate(48.000000, 2664.000000)">
                <g id="actividades" transform="translate(112.000000, 278.000000)">
                    <g id="Page-1" transform="translate(0.000000, 355.000000)">
                        <path d="M3.20450507,11.8387687 L21.0477657,14.6058937 C21.2581954,14.6387062 21.4392242,14.7740812 21.5322349,14.9683312 C21.5590471,15.0240187 24.2918604,20.6137687 29.0465006,21.7773937 C34.2199662,23.0437687 40.3832654,22.3162687 41.3024626,22.1297062 C43.3202214,21.7205812 45.7253708,20.7564562 45.7253708,18.4863937 C45.7253708,16.6157062 45.0831717,15.0673312 43.8170798,13.8836437 C41.4980994,11.7165187 37.0570698,10.8367687 30.9729129,11.3385187 C25.5217095,11.9655187 6.46450221,11.7105187 5.65514274,11.6992687 C5.32618444,11.6947687 5.05787724,11.4422062 5.02107977,11.1191437 L1.56840441,4.57108125 L1.46966144,4.57108125 L3.20450507,11.8387687 Z M35.9437152,23.8239562 C33.7284704,23.8239562 31.1528322,23.6432062 28.7426903,23.0533312 C24.0211493,21.8975812 21.2090088,17.1367687 20.5266839,15.8527687 L2.5796877,13.0697062 C2.32025627,13.0295812 2.11038125,12.8342062 2.04862066,12.5754562 L0.0182877888,4.06914375 C-0.0284949268,3.87376875 0.0158839339,3.66733125 0.138480536,3.50908125 C0.261262051,3.35083125 0.448762737,3.25858125 0.647173227,3.25858125 L1.95634962,3.25858125 C2.1950709,3.25858125 2.41456135,3.39189375 2.52717271,3.60545625 L6.10558818,10.3923937 C9.03459298,10.4276437 25.9272214,10.6008937 30.8368178,10.0331437 C30.8436595,10.0323937 30.8505012,10.0316437 30.857343,10.0310812 C37.4096968,9.48939375 42.0642997,10.4606437 44.6943019,12.9187687 C46.2157572,14.3405812 47.0197542,16.2658312 47.0197542,18.4863937 C47.0197542,20.9514562 45.0794734,22.7023312 41.5563466,23.4167062 C40.9864481,23.5323937 38.7558556,23.8237687 35.9437152,23.8239562 L35.9437152,23.8239562 Z" id="Fill-1" fill="#FFFFFF"></path>
                        <path d="M25.6658854,9.78121875 C25.6244651,9.78121875 25.582675,9.77728125 25.5405151,9.76884375 C25.1899221,9.69909375 24.961186,9.35428125 25.0301582,8.99859375 L26.0379282,3.78853125 C26.0974698,3.48065625 26.363558,3.25865625 26.6729157,3.25865625 L30.3803997,3.25865625 C30.6884629,3.25865625 30.9539964,3.47878125 31.0148325,3.78496875 L31.9839558,8.65359375 C32.0547771,9.00871875 31.8278902,9.35503125 31.477667,9.42665625 C31.127074,9.49809375 30.7857266,9.26859375 30.7152752,8.91328125 L29.8508119,4.57115625 L27.205462,4.57115625 L26.3003182,9.25115625 C26.239852,9.56428125 25.9691409,9.78121875 25.6658854,9.78121875" id="Fill-3" fill="#FFFFFF"></path>
                        <path d="M28.9231643,24.9148875 C28.5657296,24.9148875 28.2759726,24.6212625 28.2759726,24.2586375 L28.2759726,23.1336375 C28.2759726,22.7712 28.5657296,22.4773875 28.9231643,22.4773875 C29.280599,22.4773875 29.570356,22.7712 29.570356,23.1336375 L29.570356,24.2586375 C29.570356,24.6212625 29.280599,24.9148875 28.9231643,24.9148875" id="Fill-5" fill="#FFFFFF"></path>
                        <path d="M38.723496,25.2898875 C38.3660613,25.2898875 38.0763043,24.9962625 38.0763043,24.6336375 L38.0763043,23.3211375 C38.0763043,22.9587 38.3660613,22.6648875 38.723496,22.6648875 C39.0809308,22.6648875 39.3706878,22.9587 39.3706878,23.3211375 L39.3706878,24.6336375 C39.3706878,24.9962625 39.0809308,25.2898875 38.723496,25.2898875" id="Fill-7" fill="#FFFFFF"></path>
                        <path d="M43.4604217,22.3556063 C43.4326849,22.3556063 43.4043933,22.3537313 43.3761018,22.3501688 C43.0218106,22.3034813 42.7716248,21.9744188 42.8176678,21.6147938 C42.9036519,20.9435438 42.754243,20.4513563 42.347067,20.0658563 C42.0859714,19.8183563 42.072103,19.4032313 42.3160018,19.1382938 C42.5602704,18.8737313 42.9698503,18.8594813 43.230946,19.1067938 C43.948959,19.7870438 44.2416745,20.6876063 44.1013264,21.7837313 C44.0589815,22.1144813 43.7805042,22.3556063 43.4604217,22.3556063" id="Fill-9" fill="#FFFFFF"></path>
                        <path d="M41.011966,19.3537875 C40.9581566,19.3537875 40.9032377,19.34685 40.8486887,19.3324125 C40.6526821,19.2806625 40.4392937,19.23435 40.2149956,19.1944125 C39.8631082,19.1321625 39.6277153,18.7920375 39.689291,18.4350375 C39.7508667,18.0780375 40.086112,17.8391625 40.4381843,17.9017875 C40.696876,17.9475375 40.944658,18.0015375 41.1745035,18.0621 C41.5204737,18.1536 41.7279449,18.5119125 41.6380777,18.862725 C41.5622638,19.15785 41.2996889,19.3537875 41.011966,19.3537875" id="Fill-11" fill="#FFFFFF"></path>
                        <path d="M38.7327046,19.0243688 C38.719391,19.0243688 38.7057075,19.0239938 38.6922089,19.0230563 C38.16521,18.9898688 37.655038,18.9782438 37.2047775,18.9679313 C36.8909819,18.9608063 36.6069572,18.9540563 36.3663868,18.9418688 C34.3131249,18.8376188 32.5294645,17.8558688 31.4732476,16.2484313 C30.4684362,14.7189938 30.2764977,12.8569313 30.9336746,11.0048063 C31.0544221,10.6635563 31.4251705,10.4871188 31.7617102,10.6093688 C32.098065,10.7321813 32.2724369,11.1077438 32.1515045,11.4489938 C31.6368947,12.9000563 31.7787221,14.3460563 32.5503595,15.5207438 C33.3769158,16.7786813 34.7913071,17.5476188 36.4312909,17.6310563 C36.6618761,17.6428688 36.9336966,17.6490563 37.2339935,17.6558063 C37.6960884,17.6664938 38.219759,17.6783063 38.7720909,17.7131813 C39.1289709,17.7354938 39.4000518,18.0469313 39.3780472,18.4086188 C39.3569673,18.7564313 39.072018,19.0243688 38.7327046,19.0243688" id="Fill-13" fill="#FFFFFF"></path>
                        <path d="M37.0395956,26.9799375 C31.5033328,26.9799375 23.9690966,26.9199375 23.4898049,26.916 C23.1323702,26.9131875 22.8448321,26.6169375 22.8477907,26.2546875 C22.8507493,25.8920625 23.1356986,25.5969375 23.50016,25.6035 C28.4696678,25.6438125 41.6021123,25.72275 42.6701636,25.60725 C43.7555966,25.4900625 44.5634767,24.778875 44.5784546,24.356625 C44.5912135,23.994375 44.8887368,23.707875 45.2483905,23.7241875 C45.6054554,23.737125 45.8846724,24.04125 45.8720984,24.4035 C45.8293837,25.6089375 44.4547485,26.7345 42.8071833,26.9124375 C42.3365825,26.9630625 39.9669362,26.9799375 37.0395956,26.9799375" id="Fill-15" fill="#FFFFFF"></path>
                        <path d="M28.5148788,4.18531875 C28.1768598,4.18531875 27.8922804,3.91906875 27.869906,3.57200625 L27.7192028,1.24475625 C27.695719,0.88306875 27.9658753,0.57069375 28.3225704,0.54688125 C28.6794504,0.52344375 28.9875137,0.79719375 29.0108126,1.15888125 L29.1613309,3.48613125 C29.1848147,3.84781875 28.9146584,4.16019375 28.5579633,4.18400625 C28.5435401,4.18494375 28.529117,4.18531875 28.5148788,4.18531875" id="Fill-17" fill="#FFFFFF"></path>
                        <path d="M5.14898334,1.63850625 C4.79228825,1.63850625 4.5029011,1.34600625 4.50179163,0.98413125 C4.50068216,0.62169375 4.78969949,0.32713125 5.14694931,0.32600625 L51.4904991,0.18763125 L51.4925332,0.18763125 C51.8492283,0.18763125 52.1386154,0.48013125 52.1397249,0.84181875 C52.1408344,1.20444375 51.851817,1.49900625 51.4945672,1.50013125 L5.15101738,1.63850625 L5.14898334,1.63850625 Z" id="Fill-19" fill="#FFFFFF"></path>
                        <path d="M11.9881911,4.2749625 C7.38943163,4.2749625 7.0754512,4.02765 6.83876394,3.8414625 C6.50407336,3.578025 6.18491539,3.180525 5.78088285,2.6774625 C5.48909184,2.3140875 5.15828441,1.90215 4.76238799,1.46865 C4.51941373,1.202775 4.53531616,0.7874625 4.79752126,0.541275 C5.06009619,0.2949 5.46949117,0.3108375 5.71228053,0.5769 C6.13609864,1.04115 6.48058955,1.47015 6.78439983,1.8487125 C7.09948974,2.240775 7.37426886,2.58315 7.58654774,2.7667125 C8.65459899,3.098775 16.9907981,2.95815 22.7125277,2.7054 C22.7526536,2.642775 22.8009156,2.5604625 22.8404867,2.493525 C23.1208132,2.0159625 23.5448162,1.2940875 24.4347973,0.8515875 C24.7558044,0.6914625 25.1433798,0.82665 25.3007398,1.1515875 C25.4580998,1.4770875 25.325518,1.870275 25.0046958,2.0298375 C24.4601302,2.300775 24.1903437,2.7599625 23.9523621,3.16515 C23.7265846,3.549525 23.4706665,3.985275 22.9529132,4.008525 C21.2803848,4.0837125 17.4867319,4.2220875 13.8765116,4.2633375 C13.1780993,4.2712125 12.550878,4.2749625 11.9881911,4.2749625" id="Fill-21" fill="#FFFFFF"></path>
                        <g id="Group-25" transform="translate(31.065202, 0.167437)">
                            <mask id="mask-2" fill="white">
                                <use xlink:href="#path-1"></use>
                            </mask>
                            <g id="Clip-24"></g>
                            <path d="M13.5617545,3.92844375 C12.9988826,3.92844375 12.372586,3.92469375 11.6736189,3.91681875 C8.0633986,3.87556875 4.26974566,3.73719375 2.59721735,3.66200625 C2.07964888,3.63894375 1.82354588,3.20300625 1.59776842,2.81863125 C1.35978678,2.41344375 1.09000029,1.95425625 0.545434689,1.68331875 C0.224612509,1.52375625 0.0922155742,1.13056875 0.249575618,0.80506875 C0.406935661,0.47975625 0.794511044,0.34494375 1.11570305,0.50506875 C2.00531429,0.94775625 2.42931732,1.66944375 2.70964379,2.14700625 C2.74903003,2.21394375 2.79747696,2.29625625 2.83760284,2.35888125 C8.5598871,2.61163125 16.896641,2.75225625 17.9635828,2.42019375 C18.1758617,2.23663125 18.4506408,1.89425625 18.7655458,1.50219375 C19.0697259,1.12363125 19.4142168,0.69463125 19.83785,0.23056875 C20.0804544,-0.03549375 20.4900343,-0.05161875 20.7526092,0.19475625 C21.0148144,0.44113125 21.0307168,0.85625625 20.7877425,1.12231875 C20.3918461,1.55563125 20.0610387,1.96756875 19.7694326,2.33094375 C19.3654,2.83419375 19.0460571,3.23169375 18.7113666,3.49513125 C18.4748642,3.68113125 18.1597743,3.92844375 13.5617545,3.92844375" id="Fill-23" fill="#FFFFFF" mask="url(#mask-2)"></path>
                        </g>
                        <path d="M3.19222692,16.7586375 L1.7506536,16.7586375 C1.54299751,16.7586375 1.34791544,16.6577625 1.22624339,16.4871375 C1.10457135,16.3165125 1.07091738,16.0971375 1.13600638,15.897075 L1.82609766,13.772325 C1.93815428,13.428075 2.30427988,13.241325 2.64322343,13.354575 C2.98272172,13.467825 3.16726381,13.839075 3.05557701,14.183325 L2.64525746,15.4461375 L2.81482169,15.4461375 L3.52895153,14.1672 C3.70498767,13.8512625 4.10014445,13.740825 4.41116629,13.9191375 C4.72200323,14.097825 4.83147109,14.4981375 4.65543494,14.8135125 L3.75546863,16.425825 C3.64063833,16.631325 3.42540085,16.7586375 3.19222692,16.7586375" id="Fill-26" fill="#FFFFFF"></path>
                    </g>
                </g>
            </g>
        </g>
    </g>
</svg>