<?xml version="1.0" encoding="UTF-8"?>
<svg width="42px" height="107px" viewBox="0 0 42 107" version="1.1" xmlns="http://www.w3.org/2000/svg" xmlns:xlink="http://www.w3.org/1999/xlink">
    <!-- Generator: Sketch 57.1 (83088) - https://sketch.com -->
    <title>Page 1</title>
    <desc>Created with Sketch.</desc>
    <defs>
        <polygon id="path-1" points="0 0.170093837 0 76.7931555 41.9999574 76.7931555 41.9999574 0.170093837 0 0.170093837"></polygon>
    </defs>
    <g id="landing-toronto" stroke="none" stroke-width="1" fill="none" fill-rule="evenodd">
        <g id="HomeDesktop_Toronto-Copy-5" transform="translate(-479.000000, -900.000000)">
            <g id="paquete-1" transform="translate(6.000000, 574.000000)">
                <g id="Page-1" transform="translate(473.000000, 326.000000)">
                    <path d="M21,21.6978131 C15.7922132,21.6978131 11.5553299,17.4703559 11.5553299,12.2741551 C11.5553299,7.07795427 15.7922132,2.85049702 21,2.85049702 C26.2077868,2.85049702 30.4446701,7.07795427 30.4446701,12.2741551 C30.4446701,17.4703559 26.2077868,21.6978131 21,21.6978131 M21,0 C14.2168934,0 8.69847716,5.50613917 8.69847716,12.2741551 C8.69847716,19.0417455 14.2168934,24.547672 20.9993604,24.5483101 C27.7760711,24.5417157 33.2949137,19.0351511 33.3015228,12.2735169 C33.3015228,5.50613917 27.7831066,0 21,0" id="Fill-1" fill="#E12726"></path>
                    <g id="Group-5" transform="translate(0.000000, 30.206759)">
                        <mask id="mask-2" fill="white">
                            <use xlink:href="#path-1"></use>
                        </mask>
                        <g id="Clip-4"></g>
                        <path d="M30.4446274,73.9426584 L22.4283838,73.9426584 L22.4283838,43.5657201 L19.571531,43.5657201 L19.571531,73.9426584 L11.5552873,73.9426584 L11.5552873,17.5283443 L8.69843452,17.5283443 L8.69843452,43.5657201 L2.85702335,43.5657201 L2.85702335,14.6142429 C2.86448528,8.22849145 8.07653604,3.02803618 14.4754599,3.02080358 L27.5238152,3.02080358 C33.9233787,3.02803618 39.1356426,8.22849145 39.1431046,14.613392 L39.1431046,43.5657201 L33.3014802,43.5657201 L33.3014802,17.5283443 L30.4446274,17.5283443 L30.4446274,73.9426584 Z M14.4763127,0.170093837 C6.50356142,0.179240954 0.0091248731,6.65922903 -4.26395939e-05,14.6148811 L-4.26395939e-05,44.9909686 C-4.26395939e-05,45.7769825 0.640830457,46.4164298 1.42838376,46.4164298 L8.69843452,46.4164298 L8.69843452,75.367907 C8.69843452,76.1539209 9.33930761,76.7931555 10.1268609,76.7931555 L31.8730538,76.7931555 C32.6608203,76.7931555 33.3014802,76.1539209 33.3014802,75.367907 L33.3014802,46.4164298 L40.571531,46.4164298 C41.3590843,46.4164298 41.9999574,45.7769825 41.9999574,44.9909686 L41.9999574,14.6142429 C41.9907898,6.65922903 35.4963533,0.179240954 27.5229624,0.170093837 L14.4763127,0.170093837 Z" id="Fill-3" fill="#E12726" mask="url(#mask-2)"></path>
                    </g>
                </g>
            </g>
        </g>
    </g>
</svg>