<?xml version="1.0" encoding="UTF-8"?>
<svg width="49px" height="31px" viewBox="0 0 49 31" version="1.1" xmlns="http://www.w3.org/2000/svg" xmlns:xlink="http://www.w3.org/1999/xlink">
    <!-- Generator: Sketch 57.1 (83088) - https://sketch.com -->
    <title>Group</title>
    <desc>Created with Sketch.</desc>
    <defs>
        <polygon id="path-1" points="0.0741016922 0.0556955681 11.834706 0.0556955681 11.834706 11.8162772 0.0741016922 11.8162772"></polygon>
        <polygon id="path-3" points="0 0.000220491649 48.9809817 0.000220491649 48.9809817 24.9271763 0 24.9271763"></polygon>
    </defs>
    <g id="Landing-Quebec" stroke="none" stroke-width="1" fill="none" fill-rule="evenodd">
        <g id="HomeDesktop_Quebec" transform="translate(-162.000000, -6115.000000)">
            <g id="Group" transform="translate(162.000000, 6115.000000)">
                <g id="Group-3" transform="translate(33.000000, 19.000000)">
                    <mask id="mask-2" fill="white">
                        <use xlink:href="#path-1"></use>
                    </mask>
                    <g id="Clip-2"></g>
                    <path d="M5.95429025,1.64634827 C3.58921692,1.64634827 1.66475439,3.5708108 1.66475439,5.93611136 C1.66475439,8.30141193 3.58921692,10.2256472 5.95429025,10.2256472 C8.31981805,10.2256472 10.2440533,8.30141193 10.2440533,5.93611136 C10.2440533,3.5708108 8.31981805,1.64634827 5.95429025,1.64634827 M5.95429025,11.8162999 C2.71208558,11.8162999 0.0741016922,9.17854327 0.0741016922,5.93611136 C0.0741016922,2.69345222 2.71208558,0.0556955681 5.95429025,0.0556955681 C9.1969494,0.0556955681 11.834706,2.69345222 11.834706,5.93611136 C11.834706,9.17854327 9.1969494,11.8162999 5.95429025,11.8162999" id="Fill-1" fill="#FEFEFE" mask="url(#mask-2)"></path>
                </g>
                <path d="M10.9998841,20.6230002 C8.58666795,20.6230002 6.62303159,22.5865987 6.62303159,25 C6.62303159,27.4134013 8.58666795,29.3769998 10.9998841,29.3769998 C13.4135639,29.3769998 15.3769684,27.4134013 15.3769684,25 C15.3769684,22.5865987 13.4135639,20.6230002 10.9998841,20.6230002 M10.9998841,31 C7.6914501,31 5,28.3081382 5,25 C5,21.69163 7.6914501,19 10.9998841,19 C14.3085499,19 17,21.69163 17,25 C17,28.3081382 14.3085499,31 10.9998841,31" id="Fill-4" fill="#FEFEFE"></path>
                <path d="M33.2245687,26 L33.2227963,26 L15.7736579,25.9479616 C15.3456213,25.9468485 14.9991155,25.5096702 15,24.9717546 C15.0011095,24.4346737 15.3480584,24 15.7754303,24 L15.7772027,24 L33.2263411,24.0520384 C33.6543777,24.0534298 34.0011051,24.490608 34,25.0282454 C33.9988896,25.5656046 33.6519407,26 33.2245687,26" id="Fill-6" fill="#FEFEFE"></path>
                <g id="Group-10">
                    <mask id="mask-4" fill="white">
                        <use xlink:href="#path-3"></use>
                    </mask>
                    <g id="Clip-9"></g>
                    <path d="M48.1978767,24.9271763 L48.1929543,24.9271763 C48.1918356,24.9271763 46.8683881,24.9185771 44.6667443,24.9135058 C44.2340228,24.9126239 43.8845342,24.5662315 43.8854292,24.1400211 C43.8865479,23.7144722 44.2369315,23.3700643 44.6685342,23.3700643 L44.6703242,23.3700643 C45.8686986,23.3729307 46.8070822,23.3768995 47.4147717,23.3795454 L47.4147717,13.9433848 L39.6790365,10.6139609 C39.542105,10.5548691 39.4246393,10.4582938 39.3414064,10.3357004 L33.3743699,1.54359589 L1.56889498,1.54359589 L1.64362557,23.3720487 L4.90335616,23.3720487 C5.33585388,23.3720487 5.68646119,23.7177796 5.68646119,24.1437695 C5.68646119,24.5702003 5.33585388,24.9154902 4.90335616,24.9154902 L0.862981735,24.9154902 C0.431826484,24.9154902 0.0812191781,24.5719643 0.0798767123,24.1464154 L-7.2398188e-06,0.774521017 C-0.000894977169,0.569243291 0.0812191781,0.372344248 0.228442922,0.227040251 C0.375442922,0.0817362545 0.574799087,0.000154344155 0.783105023,0.000154344155 L33.7927717,0.000154344155 C34.054105,0.000154344155 34.2984338,0.128700976 34.4434201,0.342798367 L40.5160639,9.28990852 L48.5113425,12.7311217 C48.7966164,12.8539355 48.9809817,13.1315345 48.9809817,13.4382384 L48.9809817,24.1554555 C48.9809817,24.3611742 48.8977489,24.5580733 48.7498539,24.7029363 C48.6033014,24.8466968 48.4046164,24.9271763 48.1978767,24.9271763" id="Fill-8" fill="#FEFEFE" mask="url(#mask-4)"></path>
                </g>
                <path d="M5.5594181,6.53643547 L5.5594181,12.4585162 L33.743227,12.2807287 L29.728171,6.53643547 L5.5594181,6.53643547 Z M4.77970905,14 C4.57364309,14 4.37604254,13.9198859 4.23012556,13.7767779 C4.08287193,13.6325724 4,13.4363477 4,13.2317823 L4,5.87796313 C4,5.63784021 4.11183256,5.42361721 4.28693293,5.28270413 C4.42995385,5.11018437 4.64738129,5 4.89109606,5 L30.1378524,5 C30.394488,5 30.6348612,5.12423178 30.7801099,5.33252853 L35.8624762,12.6040386 C36.0262151,12.8382353 36.0451509,13.142669 35.9117093,13.3948639 C35.7780449,13.6470588 35.5140577,13.8061896 35.2251198,13.8079456 L4.78461008,14 L4.77970905,14 Z" id="Fill-11" fill="#FEFEFE"></path>
                <path d="M28,13 C27.4477143,13 27,12.6517778 27,12.2222222 L27,5.77777778 C27,5.34822222 27.4477143,5 28,5 C28.5522857,5 29,5.34822222 29,5.77777778 L29,12.2222222 C29,12.6517778 28.5522857,13 28,13" id="Fill-13" fill="#FEFEFE"></path>
                <path d="M38.9870038,25.0295841 L38.0555467,25.2673737 C38.1593868,25.664806 38.5510446,25.9536701 38.9870038,25.9536701 L38.9870038,25.0295841 Z M39.0123995,26 C38.6667361,26 38.3348992,25.8199833 38.1543076,25.5071169 C37.8868065,25.0432598 38.0262005,24.6681552 38.1331446,24.4861848 C38.3097856,24.1853196 38.6351325,24 38.9870038,24 C39.4523091,24 39.8467887,24.3131454 39.968688,24.7789562 C40.0919981,25.2531398 39.8417096,25.7443483 39.3831764,25.9282724 C39.2624059,25.9771142 39.136274,26 39.0123995,26 L39.0123995,26 Z" id="Fill-15" fill="#FEFEFE"></path>
                <path d="M10.9871982,25.0297195 L10.0588329,25.2769639 C10.165214,25.6687596 10.5560304,25.9533975 10.9871982,25.9533975 L10.9871982,25.0297195 Z M11.0128764,26 C10.6677728,26 10.3359316,25.8205665 10.1553377,25.508581 C9.88670434,25.0447886 10.0258181,24.6694572 10.1327635,24.4872332 C10.3094069,24.1858518 10.634758,24 10.9871982,24 C11.4474304,24 11.8405043,24.3091949 11.9657913,24.7690805 C12.0950288,25.243198 11.8484053,25.7385238 11.3893018,25.9257709 C11.2662722,25.9760011 11.1384456,26 11.0128764,26 L11.0128764,26 Z" id="Fill-17" fill="#FEFEFE"></path>
            </g>
        </g>
    </g>
</svg>