<?xml version="1.0" encoding="UTF-8"?>
<svg width="52px" height="67px" viewBox="0 0 52 67" version="1.1" xmlns="http://www.w3.org/2000/svg" xmlns:xlink="http://www.w3.org/1999/xlink">
    <!-- Generator: Sketch 57.1 (83088) - https://sketch.com -->
    <title>Page 1 Copy 6</title>
    <desc>Created with Sketch.</desc>
    <defs>
        <polygon id="path-1" points="0.0222126986 0.118922202 1.47283791 0.118922202 1.47283791 8.34172787 0.0222126986 8.34172787 0.0222126986 0.118922202"></polygon>
        <polygon id="path-3" points="3.87443862 22.6399162 3.87443862 0.159720847 0.121707456 0.159720847 0.121707456 22.6399162 3.87443862 22.6399162"></polygon>
        <polygon id="path-5" points="0 66.165584 51.2010863 66.165584 51.2010863 0.1772313 0 0.1772313"></polygon>
    </defs>
    <g id="landing-toronto" stroke="none" stroke-width="1" fill="none" fill-rule="evenodd">
        <g id="HomeDesktop_Toronto-Copy-5" transform="translate(-160.000000, -919.000000)">
            <g id="paquete-1" transform="translate(6.000000, 574.000000)">
                <g id="actividades" transform="translate(154.000000, 257.000000)">
                    <g id="Page-1-Copy-6" transform="translate(0.000000, 88.000000)">
                        <path d="M28.3447453,33.4350924 L18.6522116,33.4350924 C18.2516577,33.4350924 17.9268989,33.1176711 17.9268989,32.7261672 C17.9268989,32.3346632 18.2516577,32.017242 18.6522116,32.017242 L28.3447453,32.017242 C28.7452991,32.017242 29.0700579,32.3346632 29.0700579,32.7261672 C29.0700579,33.1176711 28.7452991,33.4350924 28.3447453,33.4350924 Z" id="Fill-1" fill="#FEFEFE"></path>
                        <path d="M22.6628276,18.3987357 C22.4348981,18.3987357 22.2104139,18.293992 22.0691592,18.0979742 L21.5101246,17.3220556 C21.2794751,17.0019758 21.3579902,16.5596065 21.6854689,16.3341683 C22.0131289,16.1090845 22.4655426,16.1856485 22.696192,16.505551 L23.2552267,17.2814696 C23.4858761,17.6015493 23.407361,18.0439186 23.0798824,18.2693569 C22.9529527,18.3567319 22.8071648,18.3987357 22.6628276,18.3987357" id="Fill-3" fill="#FEFEFE"></path>
                        <path d="M24.5264096,18.3987357 C24.381891,18.3987357 24.2361032,18.3567319 24.1091735,18.2690024 C23.7816948,18.0435642 23.7033611,17.6011949 23.9341918,17.2812924 L24.4939518,16.5053737 C24.7246012,16.1854712 25.177015,16.1085529 25.5046749,16.3345228 C25.8319723,16.559961 25.910306,17.0023303 25.6794753,17.3222328 L25.1197153,18.0981514 C24.978642,18.293992 24.7541577,18.3987357 24.5264096,18.3987357" id="Fill-5" fill="#FEFEFE"></path>
                        <path d="M24.5484409,28.3973281 C24.1542335,28.3973281 23.8311068,28.0887684 23.823491,27.7018725 C23.7368161,23.247341 23.5701756,17.7560064 23.5685436,17.7008875 C23.5565759,17.3095608 23.8715429,16.9829235 24.2719155,16.9712262 C24.67392,16.9589972 25.0064759,17.2673797 25.0184435,17.6587064 C25.0200755,17.7138253 25.1868974,23.2129581 25.2739349,27.6749333 C25.2815507,28.0664373 24.9629571,28.3897072 24.5625845,28.3973281 L24.5484409,28.3973281" id="Fill-7" fill="#FEFEFE"></path>
                        <path d="M22.6360817,28.4969321 C22.6277406,28.4969321 22.6193995,28.4967549 22.6110584,28.4965776 C22.2106859,28.4832853 21.8971695,28.1552302 21.9107691,27.7639034 C21.9927294,25.4014102 21.9927294,24.275637 21.9927294,23.0835793 C21.9927294,21.8778747 21.9927294,20.5114214 22.0766844,17.6594153 C22.088108,17.2680886 22.4135921,16.9605923 22.8224871,16.9712262 C23.2228596,16.982569 23.5381893,17.3088518 23.5267656,17.7001785 C23.4433546,20.531803 23.4433546,21.8874452 23.4433546,23.0835793 C23.4433546,24.287866 23.4433546,25.4255137 23.3604877,27.8121104 C23.3472507,28.1951072 23.0253933,28.4969321 22.6360817,28.4969321" id="Fill-9" fill="#FEFEFE"></path>
                        <path d="M25.0759608,66.165584 L25.0491242,65.4571905 C24.8859289,61.1642939 24.7212829,56.4862738 24.5620768,51.9622676 C24.3326967,45.4460044 24.1161909,39.2911158 23.9404839,35.3379717 L23.9089328,34.6297554 L25.3582887,34.5680789 L25.3896585,35.2764724 C25.5657281,39.2359969 25.7824153,45.3938984 26.0119767,51.913529 C26.1710015,56.4364718 26.3356475,61.1136058 26.4986615,65.4045528 L26.525498,66.1129463 L25.0759608,66.165584 Z" id="Fill-11" fill="#FEFEFE"></path>
                        <path d="M22.0932578,65.9570359 L20.6437205,65.9008536 L20.6725517,65.1924601 C20.9488958,58.3846514 21.185529,51.2794486 21.3757423,45.5702967 C21.5213488,41.1956965 21.6364921,37.7402179 21.7271562,35.6481796 L21.7578007,34.9399633 L23.2071566,34.9998675 L23.1765121,35.7080838 C23.0862107,37.79321 22.9710673,41.2454985 22.8256422,45.6163768 C22.6352476,51.3278327 22.3986144,58.4358712 22.1220889,65.2486424 L22.0932578,65.9570359 Z" id="Fill-13" fill="#FEFEFE"></path>
                        <path d="M25.2319755,17.5331735 L25.2274423,17.5331735 L21.9533812,17.5133236 C21.5528273,17.5108423 21.2302446,17.1914715 21.2326018,16.7999676 C21.2351404,16.4084637 21.5680589,16.0910424 21.9624476,16.0954732 L25.2363274,16.1153231 C25.6368813,16.1178043 25.9596454,16.4371751 25.9572881,16.8286791 C25.9547496,17.2187652 25.6303535,17.5331735 25.2319755,17.5331735" id="Fill-15" fill="#FEFEFE"></path>
                        <path d="M22.207023,17.2944075 C21.997045,17.2944075 21.7888803,17.2057918 21.6454498,17.0347636 C21.3915903,16.7318753 21.4371037,16.2850752 21.7469935,16.0371286 L22.2295077,15.6507644 L22.2686746,10.5114112 C22.2715759,10.1216795 22.5957906,9.80762568 22.9938059,9.80762568 L22.9994271,9.80762568 C23.399981,9.81063861 23.7222011,10.1303639 23.7192998,10.5218678 L23.6775944,15.993707 C23.6761437,16.204435 23.5785892,16.4034657 23.4119486,16.5369209 L22.6661459,17.1340132 C22.5314191,17.241947 22.3687678,17.2944075 22.207023,17.2944075" id="Fill-17" fill="#FEFEFE"></path>
                        <path d="M24.98274,17.2944075 C24.8211766,17.2944075 24.6585253,17.241947 24.5237984,17.1340132 L23.7776331,16.5370981 C23.6106299,16.4034657 23.5132567,16.204435 23.511806,15.993707 L23.4704632,10.5218678 C23.467562,10.1303639 23.7897821,9.81063861 24.1905173,9.80762568 L24.1959571,9.80762568 C24.5939724,9.80762568 24.9181872,10.1216795 24.9210884,10.5114112 L24.9597113,15.6505872 L25.4425882,16.0369514 C25.7526593,16.284898 25.7981727,16.7316981 25.5444946,17.0345864 C25.401064,17.2057918 25.192718,17.2944075 24.98274,17.2944075" id="Fill-19" fill="#FEFEFE"></path>
                        <path d="M24.5892579,11.0663933 L22.6000881,11.0663933 C22.1995342,11.0663933 21.8747755,10.748972 21.8747755,10.3574681 C21.8747755,9.96596412 22.1995342,9.64854286 22.6000881,9.64854286 L24.5892579,9.64854286 C24.9898118,9.64854286 25.3145705,9.96596412 25.3145705,10.3574681 C25.3145705,10.748972 24.9898118,11.0663933 24.5892579,11.0663933" id="Fill-21" fill="#FEFEFE"></path>
                        <path d="M23.1800662,11.1460942 C22.7795123,11.1460942 22.4547536,10.8286729 22.4547536,10.437169 L22.4547536,8.28806223 C22.4547536,7.67785487 22.9659176,7.18125276 23.594401,7.18125276 C24.2228844,7.18125276 24.7340484,7.67785487 24.7340484,8.28806223 L24.7340484,10.3574149 C24.7340484,10.7489188 24.4092897,11.0663401 24.0087358,11.0663401 C23.8794489,11.0663401 23.7577777,11.0331978 23.6526073,10.975066 C23.5254963,11.0817592 23.3604877,11.1460942 23.1800662,11.1460942" id="Fill-23" fill="#FEFEFE"></path>
                        <g id="Group-27" transform="translate(22.847347, 0.058309)">
                            <mask id="mask-2" fill="white">
                                <use xlink:href="#path-1"></use>
                            </mask>
                            <g id="Clip-26"></g>
                            <path d="M0.747525306,8.34172787 C0.346971419,8.34172787 0.0222126986,8.02430661 0.0222126986,7.63280267 L0.0222126986,0.827829679 C0.0222126986,0.436325737 0.346971419,0.118904479 0.747525306,0.118904479 C1.14807919,0.118904479 1.47283791,0.436325737 1.47283791,0.827829679 L1.47283791,7.63280267 C1.47283791,8.02430661 1.14807919,8.34172787 0.747525306,8.34172787" id="Fill-25" fill="#FEFEFE" mask="url(#mask-2)"></path>
                        </g>
                        <path d="M21.9527466,28.7801654 L25.2257197,28.7801654 L25.2253571,28.6887141 L21.9523839,28.6887141 L21.9527466,28.7801654 Z M25.9571975,30.1980158 L25.9535709,30.1980158 L21.2297912,30.1980158 C20.830144,30.1980158 20.5057479,29.8820124 20.5044786,29.4913946 L20.4994014,27.9820929 C20.4988575,27.793696 20.5750153,27.6127429 20.7110114,27.4792877 C20.8471888,27.3458325 21.0319622,27.2708637 21.224714,27.2708637 L25.9481311,27.2708637 C26.347597,27.2708637 26.6719931,27.5866899 26.6734437,27.9773077 L26.6785209,29.4151852 C26.6812408,29.4394659 26.6825101,29.464101 26.6825101,29.4890906 C26.6825101,29.8805946 26.3577514,30.1980158 25.9571975,30.1980158 L25.9571975,30.1980158 Z" id="Fill-28" fill="#FEFEFE"></path>
                        <path d="M26.9536138,32.4363408 C26.5530599,32.4363408 26.2283012,32.1189196 26.2283012,31.7274156 L26.2283012,31.4500486 C26.2283012,30.9002771 25.8192249,30.4081058 25.4150444,30.2062394 C25.058372,30.0279447 24.9171173,29.6008173 25.0993521,29.2522033 C25.2817683,28.9035893 25.7184064,28.7651717 26.0754416,28.9438208 C27.0344862,29.422877 27.6789264,30.4300825 27.6789264,31.4500486 L27.6789264,31.7274156 C27.6789264,32.1189196 27.3541677,32.4363408 26.9536138,32.4363408" id="Fill-30" fill="#FEFEFE"></path>
                        <path d="M20.2246349,32.5159708 C19.824081,32.5159708 19.4993223,32.1985496 19.4993223,31.8070456 L19.4993223,31.4501018 C19.4993223,30.2514865 20.254554,29.2022772 21.3786072,28.8391303 C21.7593964,28.716309 22.1693793,28.9181755 22.2948584,29.2898295 C22.4207001,29.6616608 22.2141674,30.062558 21.8339222,30.1853792 C21.3133291,30.3535718 20.9499475,30.8735684 20.9499475,31.4501018 L20.9499475,31.8070456 C20.9499475,32.1985496 20.6251888,32.5159708 20.2246349,32.5159708" id="Fill-32" fill="#FEFEFE"></path>
                        <path d="M21.12968,34.5800066 L26.0485687,34.5800066 C26.0654323,34.5225836 26.0804825,34.4417661 26.0804825,34.3393265 C26.0804825,34.2368868 26.0654323,34.1562465 26.0487501,34.0990008 L21.1294986,34.0990008 C21.1128164,34.1562465 21.0977662,34.2368868 21.0977662,34.3393265 C21.0977662,34.4417661 21.1128164,34.5225836 21.12968,34.5800066 M26.2697891,35.997857 L20.9090036,35.997857 C20.1896748,35.997857 19.647141,35.2848554 19.647141,34.3393265 C19.647141,33.3939747 20.1896748,32.6811504 20.9090036,32.6811504 L26.2697891,32.6811504 C26.9889365,32.6811504 27.5311077,33.3939747 27.5311077,34.3393265 C27.5311077,35.2848554 26.9889365,35.997857 26.2697891,35.997857" id="Fill-34" fill="#FEFEFE"></path>
                        <path d="M23.5922251,63.5031445 C23.1916712,63.5031445 22.8669125,63.1857232 22.8669125,62.7942193 L22.8669125,52.3817032 C22.8669125,51.9901992 23.1916712,51.672778 23.5922251,51.672778 C23.9927789,51.672778 24.3175377,51.9901992 24.3175377,52.3817032 L24.3175377,62.7942193 C24.3175377,63.1857232 23.9927789,63.5031445 23.5922251,63.5031445" id="Fill-36" fill="#FEFEFE"></path>
                        <path d="M23.5922251,65.7337599 C23.1916712,65.7337599 22.8669125,65.4163387 22.8669125,65.0248347 L22.8669125,64.9519926 C22.8669125,64.5604887 23.1916712,64.2430674 23.5922251,64.2430674 C23.9927789,64.2430674 24.3175377,64.5604887 24.3175377,64.9519926 L24.3175377,65.0248347 C24.3175377,65.4163387 23.9927789,65.7337599 23.5922251,65.7337599" id="Fill-38" fill="#FEFEFE"></path>
                        <polygon id="Fill-40" fill="#FEFEFE" points="32.4670413 65.9717461 31.0164161 65.9717461 31.0164161 43.4624849 34.7690022 43.4624849 34.7690022 65.9715689 33.318377 65.9715689 33.318377 44.8803353 32.4670413 44.8803353"></polygon>
                        <g id="Group-44" transform="translate(47.326648, 43.302746)">
                            <mask id="mask-4" fill="white">
                                <use xlink:href="#path-3"></use>
                            </mask>
                            <g id="Clip-43"></g>
                            <polygon id="Fill-42" fill="#FEFEFE" mask="url(#mask-4)" points="3.87447489 22.6399162 2.42384967 22.6399162 2.42384967 1.57757125 1.57233267 1.57757125 1.57233267 22.1807099 0.121707456 22.1807099 0.121707456 0.159720847 3.87447489 0.159720847"></polygon>
                        </g>
                        <polygon id="Fill-45" fill="#FEFEFE" points="48.8989259 65.9717461 47.4483007 65.9717461 47.4483007 43.6785298 34.769111 43.6785298 34.769111 65.9572131 33.3184858 65.9572131 33.3184858 42.2606794 48.8989259 42.2606794"></polygon>
                        <mask id="mask-6" fill="white">
                            <use xlink:href="#path-5"></use>
                        </mask>
                        <g id="Clip-48"></g>
                        <polygon id="Fill-47" fill="#FEFEFE" mask="url(#mask-6)" points="43.942883 41.2213419 45.3935082 41.2213419 45.3935082 32.8361746 43.942883 32.8361746"></polygon>
                        <polygon id="Fill-49" fill="#FEFEFE" mask="url(#mask-6)" points="36.7818716 41.2979058 38.2324969 41.2979058 38.2324969 37.3103788 36.7818716 37.3103788"></polygon>
                        <polygon id="Fill-50" fill="#FEFEFE" mask="url(#mask-6)" points="36.1561082 48.4507838 45.9184532 48.4507838 45.9184532 47.0329334 36.1561082 47.0329334"></polygon>
                        <polygon id="Fill-51" fill="#FEFEFE" mask="url(#mask-6)" points="36.1561082 51.2710655 45.9184532 51.2710655 45.9184532 49.8532151 36.1561082 49.8532151"></polygon>
                        <polygon id="Fill-52" fill="#FEFEFE" mask="url(#mask-6)" points="36.1561082 54.09117 45.9184532 54.09117 45.9184532 52.6733196 36.1561082 52.6733196"></polygon>
                        <polygon id="Fill-53" fill="#FEFEFE" mask="url(#mask-6)" points="36.1561082 56.9112744 45.9184532 56.9112744 45.9184532 55.493424 36.1561082 55.493424"></polygon>
                        <polygon id="Fill-54" fill="#FEFEFE" mask="url(#mask-6)" points="36.1561082 59.7315561 45.9184532 59.7315561 45.9184532 58.3137057 36.1561082 58.3137057"></polygon>
                        <polygon id="Fill-55" fill="#FEFEFE" mask="url(#mask-6)" points="36.1561082 62.5516605 45.9184532 62.5516605 45.9184532 61.1338101 36.1561082 61.1338101"></polygon>
                        <polygon id="Fill-56" fill="#FEFEFE" mask="url(#mask-6)" points="36.1561082 65.371765 45.9184532 65.371765 45.9184532 63.9539146 36.1561082 63.9539146"></polygon>
                        <polygon id="Fill-57" fill="#FEFEFE" mask="url(#mask-6)" points="36.2279141 45.9878005 41.2798978 45.9878005 41.2798978 44.5699501 36.2279141 44.5699501"></polygon>
                        <polygon id="Fill-58" fill="#FEFEFE" mask="url(#mask-6)" points="31.0161804 65.951843 32.4668056 65.951843 32.4668056 44.2991406 31.0161804 44.2991406"></polygon>
                        <path d="M7.80434942,62.4054802 L7.80374714,62.4054802 L7.80434942,62.4054802 Z" id="Fill-59" fill="#FEFEFE" mask="url(#mask-6)"></path>
                        <polygon id="Fill-60" fill="#FEFEFE" mask="url(#mask-6)" points="8.53029278 60.5102041 7.07966757 60.5093179 7.08293147 56.2173075 8.53355669 56.2178392"></polygon>
                        <path d="M6.07938895,46.3007909 L9.46369758,46.3007909 L9.46369758,44.926185 L6.07938895,44.926185 L6.07938895,46.3007909 Z M4.62876373,47.7186413 L10.9143228,47.7186413 L10.9143228,43.5083346 L4.62876373,43.5083346 L4.62876373,47.7186413 Z" id="Fill-61" fill="#FEFEFE" mask="url(#mask-6)"></path>
                        <path d="M4.97582582,49.0932473 L10.5576503,49.0932473 L10.5576503,47.7186413 L4.97582582,47.7186413 L4.97582582,49.0932473 Z M3.52538193,50.5110977 L12.0084569,50.5110977 L12.0084569,46.3007909 L3.52538193,46.3007909 L3.52538193,50.5110977 Z" id="Fill-62" fill="#FEFEFE" mask="url(#mask-6)"></path>
                        <polygon id="Fill-63" fill="#FEFEFE" mask="url(#mask-6)" points="13.326912 53.5899599 11.8762868 53.5899599 11.8762868 50.5110977 3.65722563 50.5110977 3.65722563 53.1603512 2.20660041 53.1603512 2.20660041 49.0932473 13.326912 49.0932473"></polygon>
                        <polygon id="Fill-64" fill="#FEFEFE" mask="url(#mask-6)" points="14.5356454 57.5994636 0.998048281 57.5994636 0.998048281 52.3151351 3.71688259 52.3151351 3.71688259 53.7329855 2.4486735 53.7329855 2.4486735 56.1816132 13.0850202 56.1816132 13.0850202 53.7329855 11.9089258 53.7329855 11.9089258 52.3151351 14.5356454 52.3151351"></polygon>
                        <polygon id="Fill-65" fill="#FEFEFE" mask="url(#mask-6)" points="1.45062522 66.0743807 0 66.0743807 0 55.9667025 15.5155247 55.9667025 15.5155247 66.0550625 14.0648994 66.0550625 14.0648994 57.3845529 1.45062522 57.3845529"></polygon>
                        <polygon id="Fill-66" fill="#FEFEFE" mask="url(#mask-6)" points="7.05565972 44.2461485 8.50628494 44.2461485 8.50628494 37.959577 7.05565972 37.959577"></polygon>
                        <polygon id="Fill-67" fill="#FEFEFE" mask="url(#mask-6)" points="6.61612028 40.8450798 8.94582438 40.8450798 8.94582438 39.4272294 6.61612028 39.4272294"></polygon>
                        <polygon id="Fill-68" fill="#FEFEFE" mask="url(#mask-6)" points="6.28539586 55.9175031 4.83477065 55.9175031 4.83477065 52.2076975 8.68962583 52.2076975 8.68962583 53.6255479 6.28539586 53.6255479"></polygon>
                        <polygon id="Fill-69" fill="#FEFEFE" mask="url(#mask-6)" points="7.22416797 53.6256188 5.41650763 53.6256188 5.41650763 52.2077684 5.65549813 52.2077684 5.65549813 50.8974974 7.10612335 50.8974974 7.10612335 52.2077684 7.22416797 52.2077684"></polygon>
                        <polygon id="Fill-70" fill="#FEFEFE" mask="url(#mask-6)" points="6.12472099 50.1888912 7.5753462 50.1888912 7.5753462 48.0408479 6.12472099 48.0408479"></polygon>
                    </g>
                </g>
            </g>
        </g>
    </g>
</svg>