<?xml version="1.0" encoding="UTF-8"?>
<svg width="60px" height="65px" viewBox="0 0 60 65" version="1.1" xmlns="http://www.w3.org/2000/svg" xmlns:xlink="http://www.w3.org/1999/xlink">
    <!-- Generator: Sketch 57.1 (83088) - https://sketch.com -->
    <title>Group</title>
    <desc>Created with Sketch.</desc>
    <defs>
        <polygon id="path-1" points="0.111845983 0.0252941176 2.17605882 0.0252941176 2.17605882 3.40761765 0.111845983 3.40761765"></polygon>
        <polygon id="path-3" points="0 0.137 3.24601674 0.137 3.24601674 3.51935294 0 3.51935294"></polygon>
        <polygon id="path-5" points="0.117382353 0.0252941176 2.18136142 0.0252941176 2.18136142 3.40761765 0.117382353 3.40761765"></polygon>
    </defs>
    <g id="Landing-Quebec" stroke="none" stroke-width="1" fill="none" fill-rule="evenodd">
        <g id="HomeDesktop_Quebec" transform="translate(-158.000000, -1069.000000)">
            <g id="Group" transform="translate(158.000000, 1069.000000)">
                <path d="M29.9701765,37.4758529 C28.9095882,37.4758529 27.889,37.2490882 26.9369412,36.8014412 C26.8634118,36.7670294 26.8316471,36.6793824 26.8660588,36.6058529 C26.9007647,36.5326176 26.9884118,36.5008529 27.0616471,36.5355588 C27.9745882,36.9643824 28.9531176,37.1817353 29.9701765,37.1817353 C30.0513529,37.1817353 30.1172353,37.2476176 30.1172353,37.3287941 C30.1172353,37.4099706 30.0513529,37.4758529 29.9701765,37.4758529" id="Fill-1" fill="#FFFFFF"></path>
                <path d="M25.5645882,35.9150882 C25.5322353,35.9150882 25.4992941,35.9045 25.4722353,35.8824412 C23.7910588,34.5177353 22.8266471,32.4947941 22.8266471,30.3324412 C22.8266471,26.3933235 26.0313529,23.1886176 29.9701765,23.1886176 C30.0513529,23.1886176 30.1172353,23.2545 30.1172353,23.3356765 C30.1172353,23.4171471 30.0513529,23.4827353 29.9701765,23.4827353 C26.1934118,23.4827353 23.1207647,26.5556765 23.1207647,30.3324412 C23.1207647,32.4056765 24.0454706,34.3453824 25.6572353,35.6536176 C25.7204706,35.7050882 25.7298824,35.7977353 25.679,35.8606765 C25.6498824,35.8965588 25.6075294,35.9150882 25.5645882,35.9150882" id="Fill-3" fill="#FFFFFF"></path>
                <path d="M29.9701765,44.1995 C27.7669412,44.1995 25.6601765,43.6980294 23.7084118,42.7089118 C23.6360588,42.6721471 23.6069412,42.5836176 23.6437059,42.5112647 C23.6801765,42.4386176 23.769,42.4097941 23.8413529,42.4462647 C25.7516471,43.4145 27.8134118,43.9053824 29.9701765,43.9053824 C30.0513529,43.9053824 30.1172353,43.9712647 30.1172353,44.0524412 C30.1172353,44.1336176 30.0513529,44.1995 29.9701765,44.1995" id="Fill-5" fill="#FFFFFF"></path>
                <path d="M21.7824118,41.4898235 C21.7518235,41.4898235 21.7212353,41.4804118 21.6947647,41.4607059 C18.1412353,38.8136471 16.103,34.7574706 16.103,30.3321765 C16.103,22.6857059 22.3238824,16.4651176 29.9700588,16.4651176 C30.0515294,16.4651176 30.1171176,16.531 30.1171176,16.6121765 C30.1171176,16.6933529 30.0515294,16.7592353 29.9700588,16.7592353 C22.4859412,16.7592353 16.3971176,22.8480588 16.3971176,30.3321765 C16.3971176,34.6636471 18.3921176,38.6339412 21.8703529,41.2248235 C21.9356471,41.2733529 21.9488824,41.3654118 21.9003529,41.4307059 C21.8715294,41.4695294 21.8274118,41.4898235 21.7824118,41.4898235" id="Fill-7" fill="#FFFFFF"></path>
                <path d="M29.9701765,50.5879412 C26.7122353,50.5879412 23.4742941,49.7961765 20.6057647,48.2979412 C20.534,48.2602941 20.5060588,48.1714706 20.5434118,48.0994118 C20.5813529,48.0273529 20.6701765,48 20.7419412,48.0370588 C23.5684118,49.5135294 26.7595882,50.2938235 29.9701765,50.2938235 C30.0513529,50.2938235 30.1172353,50.3597059 30.1172353,50.4408824 C30.1172353,50.5220588 30.0513529,50.5879412 29.9701765,50.5879412" id="Fill-9" fill="#FFFFFF"></path>
                <path d="M18.2271471,46.8046176 C18.1974412,46.8046176 18.1671471,46.7957941 18.1412647,46.7766765 C12.8647941,42.9749118 9.71479412,36.8269706 9.71479412,30.3322647 C9.71479412,19.1637353 18.8012647,10.0769706 29.9700882,10.0769706 C30.0515588,10.0769706 30.1171471,10.1428529 30.1171471,10.2240294 C30.1171471,10.3052059 30.0515588,10.3710882 29.9700882,10.3710882 C18.9633235,10.3710882 10.0089118,19.3255 10.0089118,30.3322647 C10.0089118,36.7328529 13.1133235,42.7910882 18.3133235,46.5384412 C18.3792059,46.5857941 18.3939118,46.6775588 18.3465588,46.7434412 C18.3180294,46.7834412 18.2727353,46.8046176 18.2271471,46.8046176" id="Fill-11" fill="#FFFFFF"></path>
                <path d="M21.4723529,57.5307059 C21.4579412,57.5307059 21.4429412,57.5286471 21.4282353,57.5242353 C19.7444118,56.9957059 18.1002941,56.3045294 16.5420588,55.4701176 C16.4705882,55.4318824 16.4435294,55.3430588 16.4817647,55.271 C16.5202941,55.1995294 16.6091176,55.1718824 16.6808824,55.211 C18.2229412,56.0365882 19.8497059,56.7204118 21.5164706,57.2430588 C21.5938235,57.2674706 21.6370588,57.3501176 21.6126471,57.4274706 C21.5929412,57.4904118 21.535,57.5307059 21.4723529,57.5307059" id="Fill-13" fill="#FFFFFF"></path>
                <path d="M28.7873824,58.8022647 L28.7812059,58.8022647 C27.0988529,58.7331471 25.4182647,58.5146176 23.7865,58.1537353 C23.7073824,58.1360882 23.6570882,58.0575588 23.6747353,57.9781471 C23.6923824,57.8993235 23.7706176,57.8493235 23.8500294,57.8663824 C25.4650294,58.2240294 27.1282647,58.4399118 28.7932647,58.5081471 C28.8744412,58.5116765 28.9373824,58.5799118 28.9341471,58.6613824 C28.9309118,58.7402059 28.8659118,58.8022647 28.7873824,58.8022647" id="Fill-15" fill="#FFFFFF"></path>
                <path d="M16.8777647,5.33029412 C16.8245294,5.33029412 16.7736471,5.30147059 16.7471765,5.25117647 C16.7098235,5.17911765 16.7374706,5.09058824 16.8095294,5.05294118 C18.2865882,4.28235294 19.8401176,3.63911765 21.4274706,3.14088235 C21.5054118,3.11676471 21.5874706,3.15970588 21.6118824,3.23735294 C21.636,3.31441176 21.5930588,3.39735294 21.5157059,3.42147059 C19.9448235,3.91470588 18.4071765,4.55117647 16.9457059,5.31352941 C16.9239412,5.32470588 16.9007059,5.33029412 16.8777647,5.33029412" id="Fill-17" fill="#FFFFFF"></path>
                <path d="M10.886,9.51829412 C10.846,9.51829412 10.8062941,9.50211765 10.7771765,9.47035294 C10.7224706,9.41035294 10.7268824,9.31711765 10.7868824,9.26270588 C11.9824706,8.17358824 13.2780588,7.18035294 14.6380588,6.31064706 C14.7062941,6.26623529 14.7971765,6.28652941 14.8412941,6.35505882 C14.8848235,6.42358824 14.8648235,6.51447059 14.7965882,6.55829412 C13.4507059,7.41888235 12.1683529,8.40211765 10.9851176,9.47976471 C10.9568824,9.50564706 10.9212941,9.51829412 10.886,9.51829412" id="Fill-19" fill="#FFFFFF"></path>
                <path d="M6.18167647,15.0565588 C6.15432353,15.0565588 6.12638235,15.0489118 6.10167647,15.0327353 C6.03373529,14.9886176 6.01432353,14.8974412 6.05844118,14.8295 C6.8955,13.5409706 7.84491176,12.3100882 8.87991176,11.1715588 C8.93461765,11.1112647 9.02785294,11.1071471 9.08785294,11.1615588 C9.14785294,11.2159706 9.15226471,11.3092059 9.09785294,11.3692059 C8.07314706,12.4962647 7.13373529,13.7145 6.30520588,14.9895 C6.27697059,15.0330294 6.22991176,15.0565588 6.18167647,15.0565588" id="Fill-21" fill="#FFFFFF"></path>
                <path d="M2.95,21.8827353 C2.93529412,21.8827353 2.92029412,21.8803824 2.90558824,21.8759706 C2.82794118,21.8512647 2.78529412,21.7683235 2.80970588,21.6912647 C3.28705882,20.1903824 3.89411765,18.7192059 4.615,17.3180294 C4.65235294,17.2456765 4.74147059,17.2171471 4.81294118,17.2547941 C4.88529412,17.2918529 4.91352941,17.3803824 4.87647059,17.4524412 C4.16323529,18.8392059 3.56235294,20.2953824 3.09029412,21.7800882 C3.07029412,21.8427353 3.01235294,21.8827353 2.95,21.8827353" id="Fill-23" fill="#FFFFFF"></path>
                <path d="M1.65029412,29.2302059 L1.64382353,29.2302059 C1.56264706,29.2263824 1.49970588,29.1578529 1.50323529,29.0769706 C1.57411765,27.4431471 1.78558824,25.8105 2.13235294,24.2240294 C2.14941176,24.1446176 2.22735294,24.0940294 2.30735294,24.1119706 C2.38647059,24.1290294 2.43676471,24.2075588 2.41941176,24.2866765 C2.07647059,25.8569706 1.86705882,27.4725588 1.79705882,29.0893235 C1.79352941,29.1684412 1.72852941,29.2302059 1.65029412,29.2302059" id="Fill-25" fill="#FFFFFF"></path>
                <path d="M2.27773529,36.5647647 C2.21008824,36.5647647 2.14920588,36.518 2.13420588,36.4488824 C1.78626471,34.8591765 1.57391176,33.2235882 1.50302941,31.5874118 C1.4995,31.5065294 1.56244118,31.4377059 1.64361765,31.4341765 C1.72479412,31.4356471 1.79361765,31.4938824 1.79685294,31.5747647 C1.86714706,33.1941765 2.07714706,34.813 2.42155882,36.3865294 C2.43891176,36.4656471 2.38861765,36.5441765 2.30920588,36.5612353 C2.29861765,36.5635882 2.28802941,36.5647647 2.27773529,36.5647647" id="Fill-27" fill="#FFFFFF"></path>
                <path d="M4.71841176,43.3728529 C4.66488235,43.3728529 4.61341176,43.3434412 4.58723529,43.2928529 C3.87782353,41.9060882 3.27929412,40.4507941 2.80811765,38.9678529 C2.78341176,38.8907941 2.82635294,38.8078529 2.90370588,38.7834412 C2.98164706,38.7587353 3.06370588,38.8016765 3.08841176,38.8790294 C3.55458824,40.3463824 4.14694118,41.7863824 4.84929412,43.1587353 C4.88605882,43.2313824 4.85752941,43.3196176 4.78517647,43.3566765 C4.76370588,43.3675588 4.74105882,43.3728529 4.71841176,43.3728529" id="Fill-29" fill="#FFFFFF"></path>
                <path d="M8.99058824,49.5432941 C8.95058824,49.5432941 8.91088235,49.5271176 8.88176471,49.4950588 C7.84558824,48.3556471 6.89558824,47.1238824 6.05794118,45.8344706 C6.01352941,45.7662353 6.03294118,45.6753529 6.10117647,45.6309412 C6.16911765,45.5868235 6.26029412,45.6059412 6.30470588,45.6741765 C7.13382353,46.9506471 8.07411765,48.1694706 9.09941176,49.2974118 C9.15411765,49.3574118 9.14970588,49.4506471 9.08941176,49.5050588 C9.06147059,49.5306471 9.02588235,49.5432941 8.99058824,49.5432941" id="Fill-31" fill="#FFFFFF"></path>
                <path d="M13.6980588,53.6939706 C13.6689412,53.6939706 13.6395294,53.6854412 13.6136471,53.6672059 C12.6289412,52.9760294 11.6771765,52.2130882 10.7854118,51.4004412 C10.7254118,51.3460294 10.721,51.2527941 10.7757059,51.1927941 C10.8304118,51.1327941 10.9233529,51.1283824 10.9836471,51.1833824 C11.866,51.9872059 12.8080588,52.7422059 13.7827647,53.4266176 C13.8492353,53.4730882 13.8651176,53.5651471 13.8186471,53.6313235 C13.7898235,53.6722059 13.7442353,53.6939706 13.6980588,53.6939706" id="Fill-33" fill="#FFFFFF"></path>
                <path d="M29.9701765,37.4758529 C29.889,37.4758529 29.8231176,37.4099706 29.8231176,37.3287941 C29.8231176,37.2476176 29.889,37.1817353 29.9701765,37.1817353 C30.9872353,37.1817353 31.9657647,36.9643824 32.8787059,36.5355588 C32.9513529,36.5005588 33.0395882,36.5323235 33.0742941,36.6058529 C33.1087059,36.6793824 33.0769412,36.7670294 33.0034118,36.8014412 C32.0513529,37.2490882 31.0307647,37.4758529 29.9701765,37.4758529" id="Fill-35" fill="#FFFFFF"></path>
                <path d="M34.3757647,35.9150882 C34.3328235,35.9150882 34.2904706,35.8965588 34.2613529,35.8606765 C34.2104706,35.7977353 34.2198824,35.7050882 34.2831176,35.6536176 C35.8948824,34.3453824 36.8195882,32.4056765 36.8195882,30.3324412 C36.8195882,26.5556765 33.7469412,23.4827353 29.9701765,23.4827353 C29.889,23.4827353 29.8231176,23.4171471 29.8231176,23.3356765 C29.8231176,23.2545 29.889,23.1886176 29.9701765,23.1886176 C33.909,23.1886176 37.1137059,26.3933235 37.1137059,30.3324412 C37.1137059,32.4947941 36.1492941,34.5177353 34.4681176,35.8824412 C34.4410588,35.9045 34.4081176,35.9150882 34.3757647,35.9150882" id="Fill-37" fill="#FFFFFF"></path>
                <path d="M29.9701765,44.1995 C29.889,44.1995 29.8231176,44.1336176 29.8231176,44.0524412 C29.8231176,43.9712647 29.889,43.9053824 29.9701765,43.9053824 C32.1269412,43.9053824 34.1887059,43.4145 36.0987059,42.4462647 C36.1707647,42.4097941 36.2595882,42.4383235 36.2963529,42.5112647 C36.3331176,42.5836176 36.3042941,42.6721471 36.2319412,42.7089118 C34.2801765,43.6980294 32.1734118,44.1995 29.9701765,44.1995" id="Fill-39" fill="#FFFFFF"></path>
                <path d="M38.1579412,41.4898235 C38.1129412,41.4898235 38.0688235,41.4695294 38.04,41.4307059 C37.9914706,41.3654118 38.0047059,41.2733529 38.07,41.2248235 C41.5482353,38.6339412 43.5432353,34.6636471 43.5432353,30.3321765 C43.5432353,22.8480588 37.4544118,16.7592353 29.9702941,16.7592353 C29.8888235,16.7592353 29.8232353,16.6933529 29.8232353,16.6121765 C29.8232353,16.531 29.8888235,16.4651176 29.9702941,16.4651176 C37.6164706,16.4651176 43.8373529,22.6857059 43.8373529,30.3321765 C43.8373529,34.7574706 41.7991176,38.8136471 38.2455882,41.4607059 C38.2191176,41.4804118 38.1885294,41.4898235 38.1579412,41.4898235" id="Fill-41" fill="#FFFFFF"></path>
                <path d="M29.9701765,50.5879412 C29.889,50.5879412 29.8231176,50.5220588 29.8231176,50.4408824 C29.8231176,50.3597059 29.889,50.2938235 29.9701765,50.2938235 C33.1807647,50.2938235 36.3719412,49.5135294 39.1984118,48.0370588 C39.2701765,48 39.359,48.0273529 39.3969412,48.0994118 C39.4342941,48.1714706 39.4063529,48.2602941 39.3345882,48.2979412 C36.4660588,49.7961765 33.2281176,50.5879412 29.9701765,50.5879412" id="Fill-43" fill="#FFFFFF"></path>
                <path d="M41.7132059,46.8046176 C41.6676176,46.8046176 41.6223235,46.7834412 41.5937941,46.7434412 C41.5464412,46.6775588 41.5611471,46.5857941 41.6270294,46.5384412 C46.8270294,42.7910882 49.9314412,36.7328529 49.9314412,30.3322647 C49.9314412,19.3255 40.9770294,10.3710882 29.9702647,10.3710882 C29.8887941,10.3710882 29.8232059,10.3052059 29.8232059,10.2240294 C29.8232059,10.1428529 29.8887941,10.0769706 29.9702647,10.0769706 C41.1390882,10.0769706 50.2255588,19.1637353 50.2255588,30.3322647 C50.2255588,36.8269706 47.0755588,42.9749118 41.7990882,46.7766765 C41.7732059,46.7957941 41.7429118,46.8046176 41.7132059,46.8046176" id="Fill-45" fill="#FFFFFF"></path>
                <path d="M38.468,57.5307059 C38.4053529,57.5307059 38.3474118,57.4904118 38.3277059,57.4274706 C38.3032941,57.3501176 38.3465294,57.2674706 38.4238824,57.2430588 C40.0906471,56.7204118 41.7174118,56.0365882 43.2594706,55.211 C43.3315294,55.1718824 43.4200588,55.1995294 43.4585882,55.271 C43.4968235,55.3430588 43.4697647,55.4318824 43.3982941,55.4701176 C41.8400588,56.3045294 40.1959412,56.9957059 38.5121176,57.5242353 C38.4974118,57.5286471 38.4824118,57.5307059 38.468,57.5307059" id="Fill-47" fill="#FFFFFF"></path>
                <path d="M31.1528235,58.8022647 C31.0742941,58.8022647 31.0092941,58.7402059 31.0060588,58.6613824 C31.0028235,58.5799118 31.0657647,58.5116765 31.1469412,58.5081471 C32.8122353,58.4399118 34.4751765,58.2240294 36.0904706,57.8663824 C36.1692941,57.8490294 36.2481176,57.8993235 36.2657647,57.9781471 C36.2831176,58.0575588 36.2331176,58.1360882 36.1537059,58.1537353 C34.5219412,58.5146176 32.8416471,58.7331471 31.159,58.8022647 L31.1528235,58.8022647 Z" id="Fill-49" fill="#FFFFFF"></path>
                <path d="M43.0624412,5.33029412 C43.0395,5.33029412 43.0162647,5.32470588 42.9945,5.31352941 C41.5333235,4.55147059 39.9959706,3.915 38.4247941,3.42147059 C38.3474412,3.39735294 38.3042059,3.31441176 38.3286176,3.23735294 C38.3527353,3.15970588 38.4350882,3.11647059 38.5130294,3.14088235 C40.1006765,3.63941176 41.6542059,4.28235294 43.1306765,5.05294118 C43.2027353,5.09058824 43.2303824,5.17911765 43.1930294,5.25117647 C43.1665588,5.30147059 43.1153824,5.33029412 43.0624412,5.33029412" id="Fill-51" fill="#FFFFFF"></path>
                <path d="M49.0543529,9.51829412 C49.0190588,9.51829412 48.9834706,9.50564706 48.9552353,9.47976471 C47.772,8.40211765 46.4896471,7.41888235 45.1437647,6.55829412 C45.0755294,6.51447059 45.0555294,6.42358824 45.0990588,6.35505882 C45.1428824,6.28652941 45.2334706,6.26594118 45.3022941,6.31064706 C46.6622941,7.18035294 47.9578824,8.17358824 49.1534706,9.26270588 C49.2134706,9.31711765 49.2178824,9.41035294 49.1631765,9.47035294 C49.1340588,9.50211765 49.0943529,9.51829412 49.0543529,9.51829412" id="Fill-53" fill="#FFFFFF"></path>
                <path d="M53.7585294,15.0565588 C53.7102941,15.0565588 53.6632353,15.0330294 53.635,14.9895 C52.8067647,13.7145 51.8670588,12.4962647 50.8423529,11.3692059 C50.7879412,11.3092059 50.7923529,11.2159706 50.8523529,11.1615588 C50.9126471,11.1071471 51.0055882,11.1112647 51.0602941,11.1715588 C52.0952941,12.3100882 53.0447059,13.5409706 53.8817647,14.8295 C53.9258824,14.8974412 53.9064706,14.9886176 53.8385294,15.0327353 C53.8138235,15.0489118 53.7858824,15.0565588 53.7585294,15.0565588" id="Fill-55" fill="#FFFFFF"></path>
                <path d="M56.9902353,21.8827353 C56.9278824,21.8827353 56.8699412,21.8427353 56.8499412,21.7800882 C56.3781765,20.2956765 55.7772941,18.8392059 55.0637647,17.4524412 C55.0267059,17.3803824 55.0552353,17.2918529 55.1275882,17.2547941 C55.1993529,17.2168529 55.2881765,17.2456765 55.3255294,17.3180294 C56.0464118,18.7195 56.6534706,20.1906765 57.1305294,21.6912647 C57.1549412,21.7683235 57.1122941,21.8512647 57.0346471,21.8759706 C57.0199412,21.8803824 57.0049412,21.8827353 56.9902353,21.8827353" id="Fill-57" fill="#FFFFFF"></path>
                <path d="M58.2900588,29.2302059 C58.2118235,29.2302059 58.1468235,29.1684412 58.1432941,29.0893235 C58.0732941,27.4731471 57.8635882,25.8572647 57.5206471,24.2866765 C57.5032941,24.2075588 57.5535882,24.1290294 57.633,24.1119706 C57.7132941,24.0937353 57.7906471,24.1446176 57.808,24.2240294 C58.1547647,25.8110882 58.3662353,27.4437353 58.4371176,29.0769706 C58.4406471,29.1578529 58.3777059,29.2263824 58.2965294,29.2302059 L58.2900588,29.2302059 Z" id="Fill-59" fill="#FFFFFF"></path>
                <path d="M57.6626176,36.5647647 C57.6520294,36.5647647 57.6417353,36.5635882 57.6311471,36.5612353 C57.5517353,36.5441765 57.5014412,36.4656471 57.5187941,36.3865294 C57.8629118,34.8135882 58.0732059,33.1944706 58.1432059,31.5747647 C58.1467353,31.4938824 58.2196765,31.4362353 58.2964412,31.4341765 C58.3776176,31.4377059 58.4408529,31.5065294 58.4370294,31.5874118 C58.3661471,33.2241765 58.1537941,34.8597647 57.8061471,36.4488824 C57.7911471,36.518 57.7302647,36.5647647 57.6626176,36.5647647" id="Fill-61" fill="#FFFFFF"></path>
                <path d="M55.2219412,43.3728529 C55.1992941,43.3728529 55.1766471,43.3675588 55.1551765,43.3566765 C55.0828235,43.3196176 55.0542941,43.2313824 55.0910588,43.1587353 C55.7934118,41.7857941 56.3860588,40.3457941 56.8519412,38.8790294 C56.8766471,38.8016765 56.9592941,38.7587353 57.0366471,38.7834412 C57.114,38.8078529 57.1569412,38.8907941 57.1322353,38.9678529 C56.6613529,40.4499118 56.0628235,41.9052059 55.3531176,43.2928529 C55.3269412,43.3434412 55.2754706,43.3728529 55.2219412,43.3728529" id="Fill-63" fill="#FFFFFF"></path>
                <path d="M50.9497647,49.5432941 C50.9144706,49.5432941 50.8788824,49.5306471 50.8509412,49.5050588 C50.7906471,49.4506471 50.7862353,49.3574118 50.8409412,49.2974118 C51.8668235,48.1688824 52.8068235,46.9500588 53.6356471,45.6741765 C53.6797647,45.6059412 53.7712353,45.5868235 53.8391765,45.6309412 C53.9074118,45.6753529 53.9268235,45.7662353 53.8824118,45.8344706 C53.0450588,47.1232941 52.0950588,48.3550588 51.0585882,49.4950588 C51.0294706,49.5271176 50.9897647,49.5432941 50.9497647,49.5432941" id="Fill-65" fill="#FFFFFF"></path>
                <path d="M46.2422941,53.6939706 C46.1958235,53.6939706 46.1505294,53.6722059 46.1217059,53.6313235 C46.0752353,53.5651471 46.0911176,53.4730882 46.1575882,53.4266176 C47.1322941,52.7422059 48.0743529,51.9872059 48.9567059,51.1833824 C49.0172941,51.1283824 49.1099412,51.1327941 49.1646471,51.1927941 C49.2193529,51.2527941 49.2149412,51.3460294 49.1549412,51.4004412 C48.2631765,52.2130882 47.3114118,52.9760294 46.3267059,53.6672059 C46.3008235,53.6854412 46.2714118,53.6939706 46.2422941,53.6939706" id="Fill-67" fill="#FFFFFF"></path>
                <path d="M29.9701765,32.2440588 C28.9160588,32.2440588 28.0584118,31.3864118 28.0584118,30.3322941 C28.0584118,29.2781765 28.9160588,28.4205294 29.9701765,28.4205294 C30.214,28.4205294 30.4113529,28.6181765 30.4113529,28.8617059 C30.4113529,29.1052353 30.214,29.3028824 29.9701765,29.3028824 C29.4025294,29.3028824 28.9407647,29.7646471 28.9407647,30.3322941 C28.9407647,30.8999412 29.4025294,31.3617059 29.9701765,31.3617059 C30.214,31.3617059 30.4113529,31.5593529 30.4113529,31.8028824 C30.4113529,32.0464118 30.214,32.2440588 29.9701765,32.2440588" id="Fill-69" fill="#FFFFFF"></path>
                <path d="M11.7551471,64.0923529 L11.7551471,64.0923529 L7.27426471,64.0923529 C7.11397059,64.0923529 6.96661765,64.0052941 6.88867647,63.8655882 C6.81073529,63.7255882 6.81485294,63.5547059 6.89926471,63.4185294 C15.2027941,50.0176471 25.4416176,35.135 28.3819118,30.8929412 C28.5207353,30.6929412 28.7954412,30.6426471 28.9960294,30.7817647 C29.1960294,30.9205882 29.2460294,31.1952941 29.1072059,31.3955882 C26.2189706,35.5623529 16.2822059,50.005 8.06720588,63.2097059 L11.5045588,63.21 C19.2260294,50.2529412 27.0280882,35.7194118 29.2448529,31.5555882 C29.3595588,31.3405882 29.6269118,31.2594118 29.8419118,31.3735294 C30.0569118,31.4882353 30.1383824,31.7552941 30.0239706,31.9702941 C27.7922059,36.1614706 19.9072059,50.8497059 12.1339706,63.8773529 C12.0545588,64.0108824 11.9104412,64.0923529 11.7551471,64.0923529" id="Fill-71" fill="#FFFFFF"></path>
                <g id="Group-75" transform="translate(28.235294, 0.268824)">
                    <mask id="mask-2" fill="white">
                        <use xlink:href="#path-1"></use>
                    </mask>
                    <g id="Clip-74"></g>
                    <path d="M1.73488235,3.40761765 L0.975176471,3.40761765 C0.836058824,3.40761765 0.705470588,3.34232353 0.622235294,3.23114706 C-0.294235294,2.01055882 0.224588235,0.711441176 0.626941176,0.195264706 C0.710764706,0.0879117647 0.839,0.0252647059 0.975176471,0.0252647059 L1.73488235,0.0252647059 C1.97870588,0.0252647059 2.17605882,0.222911765 2.17605882,0.466441176 C2.17605882,0.709970588 1.97870588,0.907617647 1.73488235,0.907617647 L1.21635294,0.907617647 C1.05517647,1.20320588 0.810470588,1.84320588 1.21017647,2.52526471 L1.73488235,2.52526471 C1.97870588,2.52526471 2.17605882,2.72291176 2.17605882,2.96644118 C2.17605882,3.20997059 1.97870588,3.40761765 1.73488235,3.40761765" id="Fill-73" fill="#FFFFFF" mask="url(#mask-2)"></path>
                </g>
                <path d="M29.9701765,60.3705 L29.2104706,60.3705 C29.0742941,60.3705 28.9460588,60.3078529 28.8622353,60.2005 C28.4598824,59.6843235 27.9410588,58.3855 28.8575294,57.1646176 C28.9407647,57.0537353 29.0713529,56.9881471 29.2104706,56.9881471 L29.9701765,56.9881471 C30.214,56.9881471 30.4113529,57.1857941 30.4113529,57.4293235 C30.4113529,57.6728529 30.214,57.8705 29.9701765,57.8705 L29.4454706,57.8705 C29.0460588,58.5519706 29.2901765,59.1913824 29.4519412,59.4881471 L29.9701765,59.4881471 C30.214,59.4881471 30.4113529,59.6857941 30.4113529,59.9293235 C30.4113529,60.1728529 30.214,60.3705 29.9701765,60.3705" id="Fill-76" fill="#FFFFFF"></path>
                <path d="M22.1032353,56.9082941 C21.7091176,57.5927059 21.9582353,58.2321176 22.1208824,58.5259412 L23.1573529,58.5188824 C23.3164706,58.2221176 23.5567647,57.5803529 23.1523529,56.9012353 L22.1032353,56.9082941 Z M21.8823529,59.4100588 C21.7476471,59.4100588 21.62,59.3482941 21.5361765,59.2427059 C21.1302941,58.7288824 20.6023529,57.4338824 21.51,56.2065294 C21.5926471,56.0947647 21.7229412,56.0285882 21.8617647,56.0277059 L23.3814706,56.0171176 C23.5229412,56.0094706 23.6511765,56.0806471 23.7352941,56.1909412 C24.6602941,57.4053529 24.1505882,58.708 23.7517647,59.2271176 C23.6688235,59.3347647 23.5408824,59.3985882 23.405,59.3994706 L21.8855882,59.4100588 L21.8823529,59.4100588 Z" id="Fill-78" fill="#FFFFFF"></path>
                <path d="M9.39917647,49.5694412 C9.00182353,50.2517941 9.24829412,50.8923824 9.40976471,51.1870882 L10.4462353,51.1841471 C10.6065294,50.8882647 10.8497647,50.2479706 10.4482941,49.5665 L9.39917647,49.5694412 Z M9.16917647,52.0700294 C9.03358824,52.0700294 8.90535294,52.0076765 8.82182353,51.9009118 C8.41829412,51.3856176 7.89594118,50.0879706 8.80947059,48.8647353 C8.89241176,48.7538529 9.02270588,48.6879706 9.16152941,48.6876765 L10.6812353,48.6835588 L10.6824118,48.6835588 C10.8206471,48.6835588 10.9512353,48.7485588 11.0344706,48.8591471 C11.9538824,50.0779706 11.4382941,51.3776765 11.0374118,51.8950294 C10.9541765,52.0023824 10.8259412,52.0656176 10.6897647,52.0659118 L9.17035294,52.0700294 L9.16917647,52.0700294 Z" id="Fill-80" fill="#FFFFFF"></path>
                <path d="M4.89435294,43.6982941 C4.497,44.3809412 4.74347059,45.0212353 4.90464706,45.3159412 L5.94141176,45.3132941 C6.10170588,45.0174118 6.34494118,44.3771176 5.94347059,43.6956471 L4.89435294,43.6982941 Z M4.66405882,46.1988824 C4.52847059,46.1988824 4.40052941,46.1365294 4.317,46.0297647 C3.91317647,45.5147647 3.39111765,44.2171176 4.30435294,42.9935882 C4.38758824,42.8827059 4.51817647,42.8168235 4.657,42.8165294 L6.17641176,42.8127059 L6.17758824,42.8127059 C6.31582353,42.8127059 6.44641176,42.8777059 6.52964706,42.9882941 C7.44905882,44.2068235 6.93347059,45.5068235 6.53258824,46.0241765 C6.44935294,46.1315294 6.32111765,46.1947647 6.18494118,46.1950588 L4.66523529,46.1988824 L4.66405882,46.1988824 Z" id="Fill-82" fill="#FFFFFF"></path>
                <path d="M2.06017647,38.4751176 L3.10929412,38.481 C3.51194118,37.8012941 3.27017647,37.1589412 3.11135294,36.8633529 L2.07458824,36.8574706 C1.91223529,37.1521765 1.664,37.791 2.06017647,38.4751176 M3.34223529,39.3642353 L3.33988235,39.3642353 L1.82017647,39.3562941 C1.68135294,39.3554118 1.55105882,39.2898235 1.46841176,39.1783529 C0.558411765,37.9524706 1.084,36.656 1.48929412,36.1418824 C1.57282353,36.036 1.70047059,35.9739412 1.83576471,35.9739412 L1.83811765,35.9739412 L3.35752941,35.9818824 C3.49370588,35.9827647 3.62164706,36.046 3.70458824,36.1536471 C4.10429412,36.6721765 4.61635294,37.9736471 3.69370588,39.1898235 C3.61017647,39.2998235 3.48017647,39.3642353 3.34223529,39.3642353" id="Fill-84" fill="#FFFFFF"></path>
                <g id="Group-88" transform="translate(0.000000, 28.504118)">
                    <mask id="mask-4" fill="white">
                        <use xlink:href="#path-3"></use>
                    </mask>
                    <g id="Clip-87"></g>
                    <path d="M1.09838235,2.637 L2.1475,2.637 C2.54661765,1.95552941 2.30161765,1.31435294 2.14132353,1.01935294 L1.10455882,1.01935294 C0.943382353,1.31494118 0.698676471,1.95494118 1.09838235,2.637 M2.38279412,3.51935294 L0.863088235,3.51935294 C0.724264706,3.51935294 0.593676471,3.45405882 0.510147059,3.34288235 C-0.406029412,2.12229412 0.112794118,0.823176471 0.515147059,0.307 C0.598676471,0.199647059 0.727205882,0.137 0.863088235,0.137 L2.38279412,0.137 C2.51897059,0.137 2.64720588,0.199647059 2.73073529,0.307 C3.13308824,0.823176471 3.65220588,2.12229412 2.73573529,3.34288235 C2.6525,3.45405882 2.52161765,3.51935294 2.38279412,3.51935294" id="Fill-86" fill="#FFFFFF" mask="url(#mask-4)"></path>
                </g>
                <path d="M2.05385294,23.7973824 L3.10297059,23.8112059 C3.51120588,23.1350294 3.27561765,22.4923824 3.11767647,22.1935588 L2.08120588,22.1800294 C1.91620588,22.4732647 1.66297059,23.1100294 2.05385294,23.7973824 M3.33238235,24.6967941 L3.32620588,24.6967941 L1.80679412,24.6765 C1.66797059,24.6744412 1.53855882,24.6076765 1.4565,24.4956176 C0.5565,23.2629706 1.09208824,21.9709118 1.50120588,21.4600294 C1.58620588,21.3535588 1.71561765,21.2894412 1.8515,21.2944412 L3.37061765,21.3144412 C3.50679412,21.3159118 3.63444118,21.3803235 3.7165,21.4888529 C4.11208824,22.0106176 4.61385294,23.3162059 3.68179412,24.5250294 C3.59797059,24.6332647 3.46914706,24.6967941 3.33238235,24.6967941" id="Fill-89" fill="#FFFFFF"></path>
                <path d="M4.89220588,16.9648824 L5.94132353,16.9704706 C6.34367647,16.2904706 6.10191176,15.6484118 5.94308824,15.3528235 L4.90632353,15.3475294 C4.74397059,15.6422353 4.49573529,16.2807647 4.89220588,16.9648824 M6.17455882,17.8537059 L6.17220588,17.8537059 L4.6525,17.8460588 C4.51367647,17.8451765 4.38338235,17.7795882 4.30073529,17.6681176 C3.39044118,16.4428235 3.91573529,15.1463529 4.32073529,14.6322353 C4.40426471,14.5260588 4.53220588,14.464 4.66720588,14.464 L4.66955882,14.464 L6.18897059,14.4713529 C6.32514706,14.4719412 6.45308824,14.5354706 6.53602941,14.6431176 C6.93602941,15.1613529 7.44838235,16.4628235 6.52602941,17.6792941 C6.4425,17.7892941 6.3125,17.8537059 6.17455882,17.8537059" id="Fill-91" fill="#FFFFFF"></path>
                <path d="M9.39573529,11.0931471 L10.4448529,11.0999118 C10.8486765,10.4213824 10.6089706,9.7805 10.4495588,9.48255882 L9.41279412,9.47579412 C9.24955882,9.76991176 9.00073529,10.4084412 9.39573529,11.0931471 M10.6772059,11.9840294 L10.6742647,11.9840294 L9.15485294,11.9740294 C9.01573529,11.9731471 8.88544118,11.9069706 8.80279412,11.7955 C7.89485294,10.5681471 8.42220588,9.27285294 8.82808824,8.75932353 C8.9125,8.65255882 9.03367647,8.59785294 9.17720588,8.59167647 L10.6966176,8.60167647 C10.8327941,8.60255882 10.9607353,8.66608824 11.0436765,8.77402941 C11.4425,9.29314706 11.9527941,10.5955 11.0283824,11.8102059 C10.9448529,11.9199118 10.8148529,11.9840294 10.6772059,11.9840294" id="Fill-93" fill="#FFFFFF"></path>
                <path d="M15.2724706,4.97785294 C15.1133529,5.27461765 14.8730588,5.91608824 15.2777647,6.5955 L16.3268824,6.58814706 C16.7215882,5.90373529 16.4727647,5.26608824 16.3089412,4.97079412 L15.2724706,4.97785294 Z M15.0457059,7.47961765 C14.9080588,7.47961765 14.7783529,7.41520588 14.6948235,7.30579412 C13.7698235,6.09138235 14.2792353,4.78873529 14.6780588,4.26961765 C14.7607059,4.16197059 14.8886471,4.09814706 15.0248235,4.09726471 L16.5445294,4.08667647 C16.6804118,4.09520588 16.8092353,4.14755882 16.8933529,4.25402941 C17.2995294,4.76726471 17.8277647,6.06255882 16.9201176,7.28961765 C16.8374706,7.40138235 16.7071765,7.46755882 16.5686471,7.46873529 L15.0489412,7.47961765 L15.0457059,7.47961765 Z" id="Fill-95" fill="#FFFFFF"></path>
                <path d="M22.1046765,3.75717647 L23.1535,3.76276471 C23.5564412,3.08335294 23.3146765,2.44070588 23.1558529,2.14511765 L22.1190882,2.13952941 C21.9567353,2.43423529 21.7085,3.07305882 22.1046765,3.75717647 M23.3867353,4.646 L23.3846765,4.646 L21.8646765,4.63835294 C21.7258529,4.63747059 21.5958529,4.57188235 21.5129118,4.46041176 C20.6029118,3.23482353 21.1285,1.93835294 21.5335,1.42423529 C21.6170294,1.31805882 21.7449706,1.256 21.8799706,1.256 L21.8823235,1.256 L23.4017353,1.26364706 C23.5379118,1.26423529 23.6658529,1.32776471 23.7490882,1.43541176 C24.1487941,1.95394118 24.6608529,3.25570588 23.7382059,4.47188235 C23.6546765,4.58158824 23.5246765,4.646 23.3867353,4.646" id="Fill-97" fill="#FFFFFF"></path>
                <path d="M29.9701765,32.2440588 C29.7263529,32.2440588 29.529,32.0464118 29.529,31.8028824 C29.529,31.5593529 29.7263529,31.3617059 29.9701765,31.3617059 C30.5378235,31.3617059 30.9995882,30.8999412 30.9995882,30.3322941 C30.9995882,29.7646471 30.5378235,29.3028824 29.9701765,29.3028824 C29.7263529,29.3028824 29.529,29.1052353 29.529,28.8617059 C29.529,28.6181765 29.7263529,28.4205294 29.9701765,28.4205294 C31.0242941,28.4205294 31.8819412,29.2781765 31.8819412,30.3322941 C31.8819412,31.3864118 31.0242941,32.2440588 29.9701765,32.2440588" id="Fill-99" fill="#FFFFFF"></path>
                <path d="M48.1852353,64.0923529 C48.0299412,64.0923529 47.8858235,64.0108824 47.8064118,63.8773529 C40.0331765,50.8497059 32.1481765,36.1614706 29.9164118,31.9702941 C29.802,31.7552941 29.8834706,31.4882353 30.0984706,31.3735294 C30.3137647,31.2594118 30.5808235,31.3405882 30.6955294,31.5555882 C32.9122941,35.7194118 40.7143529,50.2529412 48.4358235,63.21 L51.8731765,63.2097059 C43.6581765,50.005 33.7214118,35.5623529 30.8331765,31.3955882 C30.6943529,31.1952941 30.7443529,30.9205882 30.9443529,30.7817647 C31.1449412,30.6426471 31.4196471,30.6929412 31.5584706,30.8929412 C34.4987647,35.135 44.7375882,50.0176471 53.0411176,63.4185294 C53.1255294,63.5547059 53.1296471,63.7255882 53.0517059,63.8655882 C52.9737647,64.0052941 52.8264118,64.0923529 52.6661176,64.0923529 L48.1852353,64.0923529 Z" id="Fill-101" fill="#FFFFFF"></path>
                <g id="Group-105" transform="translate(29.411765, 0.268824)">
                    <mask id="mask-6" fill="white">
                        <use xlink:href="#path-5"></use>
                    </mask>
                    <g id="Clip-104"></g>
                    <path d="M1.31826471,3.40761765 L0.558558824,3.40761765 C0.314735294,3.40761765 0.117382353,3.20997059 0.117382353,2.96644118 C0.117382353,2.72291176 0.314735294,2.52526471 0.558558824,2.52526471 L1.08297059,2.52526471 C1.48208824,1.84379412 1.23708824,1.20261765 1.07679412,0.907617647 L0.558558824,0.907617647 C0.314735294,0.907617647 0.117382353,0.709970588 0.117382353,0.466441176 C0.117382353,0.222911765 0.314735294,0.0252647059 0.558558824,0.0252647059 L1.31826471,0.0252647059 C1.45414706,0.0252647059 1.58267647,0.0879117647 1.66620588,0.195264706 C2.06855882,0.711441176 2.58738235,2.01055882 1.67120588,3.23114706 C1.58797059,3.34232353 1.45708824,3.40761765 1.31826471,3.40761765" id="Fill-103" fill="#FFFFFF" mask="url(#mask-6)"></path>
                </g>
                <path d="M30.7300294,60.3705 L29.9703235,60.3705 C29.7265,60.3705 29.5291471,60.1728529 29.5291471,59.9293235 C29.5291471,59.6857941 29.7265,59.4881471 29.9703235,59.4881471 L30.4885588,59.4881471 C30.6497353,59.1925588 30.8947353,58.5528529 30.4947353,57.8705 L29.9703235,57.8705 C29.7265,57.8705 29.5291471,57.6728529 29.5291471,57.4293235 C29.5291471,57.1857941 29.7265,56.9881471 29.9703235,56.9881471 L30.7300294,56.9881471 C30.8688529,56.9881471 30.9997353,57.0537353 31.0829706,57.1646176 C31.9991471,58.3855 31.4803235,59.6843235 31.0779706,60.2005 C30.9944412,60.3078529 30.8659118,60.3705 30.7300294,60.3705" id="Fill-106" fill="#FFFFFF"></path>
                <path d="M36.7831471,58.5187647 L37.8193235,58.5258235 C37.9834412,58.2305294 38.2316765,57.5928824 37.8369706,56.9081765 L36.7881471,56.9011176 C36.3843235,57.5799412 36.6246176,58.2225882 36.7831471,58.5187647 M38.0578529,59.4099412 L38.0549118,59.4099412 L36.5355,59.3993529 C36.3993235,59.3984706 36.2713824,59.3346471 36.1887353,59.227 C35.7899118,58.7081765 35.2802059,57.4055294 36.2049118,56.1908235 C36.2890294,56.0805294 36.4255,56.0105294 36.5590294,56.017 L38.0784412,56.0275882 C38.2172647,56.0284706 38.3475588,56.0949412 38.4302059,56.2067059 C39.3378529,57.4340588 38.8099118,58.7290588 38.4040294,59.2425882 C38.3205,59.3481765 38.1928529,59.4099412 38.0578529,59.4099412" id="Fill-108" fill="#FFFFFF"></path>
                <path d="M49.4942353,51.1842059 L50.5307059,51.1871471 C50.6933529,50.8906765 50.9389412,50.2518529 50.5412941,49.5695 L49.4921765,49.5665588 C49.091,50.2468529 49.3333529,50.8871471 49.4942353,51.1842059 M50.7712941,52.0700882 L50.7701176,52.0700882 L49.2504118,52.0659706 C49.1142353,52.0656765 48.986,52.0024412 48.9027647,51.8950882 C48.5018824,51.3777353 47.9862941,50.0777353 48.906,48.8592059 C48.9892353,48.7486176 49.1195294,48.6836176 49.2580588,48.6836176 L49.2592353,48.6836176 L50.7786471,48.6877353 C50.9174706,48.6880294 51.0480588,48.7536176 51.131,48.8647941 C52.0442353,50.0877353 51.5221765,51.3856765 51.1183529,51.9009706 C51.0348235,52.0077353 50.9068824,52.0700882 50.7712941,52.0700882" id="Fill-110" fill="#FFFFFF"></path>
                <path d="M53.9992059,45.3133529 L55.0353824,45.316 C55.1980294,45.0198235 55.4439118,44.381 55.0459706,43.6983529 L53.9971471,43.6957059 C53.5962647,44.3762941 53.8397941,45.0180588 53.9992059,45.3133529 M55.2759706,46.1989412 L55.2750882,46.1989412 L53.7553824,46.1951176 C53.6192059,46.1948235 53.4909706,46.1315882 53.4077353,46.0242353 C53.0068529,45.5068824 52.4912647,44.2068824 53.4106765,42.9883529 C53.4939118,42.8777647 53.6245,42.8127647 53.7627353,42.8127647 L53.7639118,42.8127647 L55.2833235,42.8165882 C55.4221471,42.8168824 55.5527353,42.8824706 55.6359706,42.9936471 C56.5492059,44.2168824 56.0271471,45.5148235 55.6233235,46.0298235 C55.5397941,46.1365882 55.4115588,46.1989412 55.2759706,46.1989412" id="Fill-112" fill="#FFFFFF"></path>
                <path d="M56.8287941,36.8632059 C56.6693824,37.1593824 56.4276176,37.8008529 56.8311471,38.4808529 L57.8802647,38.4749706 C58.2758529,37.7914412 58.0287941,37.1535 57.8652647,36.8573235 L56.8287941,36.8632059 Z M56.5982059,39.3643824 C56.4602647,39.3643824 56.3302647,39.2996765 56.2467353,39.1896765 C55.3237941,37.9735 55.8361471,36.6723235 56.2355588,36.1537941 C56.3187941,36.0461471 56.4467353,35.9829118 56.5829118,35.9820294 L58.1023235,35.9740882 L58.1046765,35.9740882 C58.2396765,35.9740882 58.3673235,36.0358529 58.4511471,36.1420294 C58.8561471,36.6561471 59.3817353,37.9523235 58.4720294,39.1779118 C58.3893824,39.2893824 58.2587941,39.3555588 58.1202647,39.3564412 L56.6005588,39.3643824 L56.5982059,39.3643824 Z" id="Fill-114" fill="#FFFFFF"></path>
                <path d="M57.7927353,31.1411176 L58.8418529,31.1411176 C59.2409706,30.4596471 58.9959706,29.8184706 58.8353824,29.5234706 L57.7989118,29.5234706 C57.6377353,29.8190588 57.3930294,30.4590588 57.7927353,31.1411176 M59.0771471,32.0234706 L57.5574412,32.0234706 C57.4186176,32.0234706 57.2880294,31.9581765 57.2045,31.847 C56.2883235,30.6264118 56.8071471,29.3272941 57.2095,28.8111176 C57.2930294,28.7037647 57.4215588,28.6411176 57.5574412,28.6411176 L59.0771471,28.6411176 C59.2130294,28.6411176 59.3415588,28.7037647 59.4250882,28.8111176 C59.8274412,29.3272941 60.3462647,30.6264118 59.4297941,31.847 C59.3465588,31.9581765 59.2159706,32.0234706 59.0771471,32.0234706" id="Fill-116" fill="#FFFFFF"></path>
                <path d="M56.8223529,22.1935 C56.665,22.4911471 56.4288235,23.1343824 56.8373529,23.8111471 L57.8864706,23.7973235 C58.2764706,23.1105588 58.0232353,22.4729118 57.8588235,22.1799706 L56.8223529,22.1935 Z M56.6079412,24.6967353 C56.4714706,24.6967353 56.3423529,24.6332059 56.2585294,24.5249706 C55.3264706,23.3161471 55.8282353,22.0105588 56.2235294,21.4887941 C56.3058824,21.3802647 56.4335294,21.3161471 56.5697059,21.3143824 L58.0888235,21.2943824 C58.24,21.2917353 58.3541176,21.3540882 58.4391176,21.4599706 C58.8482353,21.9708529 59.3838235,23.2629118 58.4838235,24.4955588 C58.4020588,24.6076176 58.2723529,24.6746765 58.1335294,24.6764412 L56.6141176,24.6967353 L56.6079412,24.6967353 Z" id="Fill-118" fill="#FFFFFF"></path>
                <path d="M53.9970588,15.3527059 C53.8373529,15.6488824 53.5958824,16.2903529 53.9988235,16.9703529 L55.0479412,16.9647647 C55.4438235,16.2815294 55.1955882,15.6418235 55.0335294,15.3474118 L53.9970588,15.3527059 Z M53.7658824,17.8538824 C53.6279412,17.8538824 53.4976471,17.7891765 53.4144118,17.6791765 C52.4917647,16.4627059 53.0044118,15.1615294 53.4041176,14.6432941 C53.4873529,14.5356471 53.6152941,14.4721176 53.7514706,14.4715294 L55.2708824,14.4641765 L55.2729412,14.4641765 C55.4082353,14.4641765 55.5358824,14.5259412 55.6197059,14.6324118 C56.0247059,15.1465294 56.55,16.4427059 55.6394118,17.668 C55.5567647,17.7794706 55.4264706,17.8453529 55.2879412,17.8462353 L53.7682353,17.8538824 L53.7658824,17.8538824 Z" id="Fill-120" fill="#FFFFFF"></path>
                <path d="M49.4906471,9.48267647 C49.3315294,9.77914706 49.0912353,10.4206176 49.4953529,11.1000294 L50.5444706,11.0932647 C50.9394706,10.4088529 50.6912353,9.77120588 50.5274118,9.47591176 L49.4906471,9.48267647 Z M49.2632941,11.9841471 C49.1253529,11.9841471 48.9956471,11.9197353 48.9121176,11.8100294 C47.9877059,10.5953235 48.4977059,9.29297059 48.8965294,8.77414706 C48.9794706,8.66620588 49.1074118,8.60267647 49.2435882,8.60179412 L50.763,8.59179412 C50.8968235,8.59767647 51.0277059,8.65267647 51.1121176,8.75944118 C51.518,9.27267647 52.0456471,10.5679706 51.1374118,11.7953235 C51.0547647,11.9067941 50.9244706,11.9732647 50.7853529,11.9741471 L49.2662353,11.9841471 L49.2632941,11.9841471 Z" id="Fill-122" fill="#FFFFFF"></path>
                <path d="M43.6134706,6.58805882 L44.6625882,6.59541176 C45.0667059,5.91717647 44.8272941,5.27570588 44.6675882,4.97776471 L43.6311176,4.97070588 C43.4678824,5.26482353 43.2184706,5.90305882 43.6134706,6.58805882 M44.8946471,7.47952941 L44.8914118,7.47952941 L43.3717059,7.46864706 C43.2331765,7.46747059 43.1028824,7.40158824 43.0202353,7.28982353 C42.1125882,6.06276471 42.6408235,4.76747059 43.047,4.25394118 C43.1311176,4.14747059 43.2499412,4.09511765 43.3958235,4.08658824 L44.9155294,4.09717647 C45.0517059,4.09805882 45.1796471,4.16188235 45.2622941,4.26952941 C45.6611176,4.78894118 46.1705294,6.09158824 45.2455294,7.30570588 C45.162,7.41541176 45.0322941,7.47952941 44.8946471,7.47952941" id="Fill-124" fill="#FFFFFF"></path>
                <path d="M36.7844412,2.14497059 C36.6247353,2.44144118 36.3832647,3.08261765 36.7865,3.76261765 L37.8356176,3.75702941 C38.2315,3.07379412 37.9844412,2.43555882 37.8209118,2.13938235 L36.7844412,2.14497059 Z M36.5535588,4.64614706 C36.4156176,4.64614706 36.2856176,4.58144118 36.2023824,4.47173529 C35.2794412,3.25555882 35.7917941,1.95408824 36.1912059,1.43555882 C36.2744412,1.32791176 36.4026765,1.26438235 36.5385588,1.26379412 L38.0579706,1.25614706 L38.0603235,1.25614706 C38.1953235,1.25614706 38.3232647,1.31791176 38.4067941,1.42438235 C38.8120882,1.9385 39.3373824,3.23467647 38.4273824,4.46026471 C38.3447353,4.57173529 38.2144412,4.63761765 38.0756176,4.6385 L36.5559118,4.64614706 L36.5535588,4.64614706 Z" id="Fill-126" fill="#FFFFFF"></path>
                <path d="M23.7914118,2.80758824 C23.7240588,2.80758824 23.6631765,2.76111765 23.6478824,2.69229412 C23.6305294,2.61317647 23.6805294,2.53464706 23.7596471,2.517 C25.4008235,2.15229412 27.0896471,1.932 28.7793529,1.86229412 C28.8590588,1.85905882 28.9290588,1.922 28.9322941,2.00347059 C28.9358235,2.08435294 28.8725882,2.15288235 28.7914118,2.15641176 C27.1190588,2.22523529 25.4475882,2.44317647 23.8234706,2.80405882 C23.8125882,2.80641176 23.802,2.80758824 23.7914118,2.80758824" id="Fill-128" fill="#FFFFFF"></path>
                <path d="M36.1487941,2.80758824 C36.1382059,2.80758824 36.1276176,2.80641176 36.1167353,2.80405882 C34.4926176,2.44317647 32.8211471,2.22523529 31.1487941,2.15641176 C31.0676176,2.15288235 31.0046765,2.08435294 31.0079118,2.00347059 C31.0114412,1.92229412 31.0873235,1.86258824 31.1608529,1.86229412 C32.8505588,1.932 34.5393824,2.152 36.1805588,2.517 C36.2596765,2.53464706 36.3096765,2.61317647 36.2923235,2.69229412 C36.2770294,2.76111765 36.2161471,2.80758824 36.1487941,2.80758824" id="Fill-130" fill="#FFFFFF"></path>
            </g>
        </g>
    </g>
</svg>