<?xml version="1.0" encoding="UTF-8"?>
<svg width="55px" height="41px" viewBox="0 0 55 41" version="1.1" xmlns="http://www.w3.org/2000/svg" xmlns:xlink="http://www.w3.org/1999/xlink">
    <!-- Generator: Sketch 57.1 (83088) - https://sketch.com -->
    <title>Page 1</title>
    <desc>Created with Sketch.</desc>
    <defs>
        <polygon id="path-1" points="51.2576975 0.176067249 51.2576975 1.60838166 0.154641492 1.60838166 0.154641492 0.176067249 51.2576975 0.176067249"></polygon>
    </defs>
    <g id="landing-toronto" stroke="none" stroke-width="1" fill="none" fill-rule="evenodd">
        <g id="HomeDesktop_Toronto-Copy-5" transform="translate(-160.000000, -1037.000000)">
            <g id="paquete-1" transform="translate(6.000000, 574.000000)">
                <g id="actividades" transform="translate(154.000000, 257.000000)">
                    <g id="Page-1" transform="translate(0.000000, 206.000000)">
                        <path d="M38.9027319,28.1695782 C38.5465283,28.1695782 38.2412109,27.8940367 38.2050642,27.5246786 C37.8148194,23.5337135 37.5974124,19.4671939 37.3871997,15.5344166 L37.2224336,12.4757092 C37.1322421,10.8033031 37.0388922,9.07414148 36.9325575,7.37595371 C36.9190464,7.15895808 36.9076408,6.94070917 36.8962353,6.72210218 C36.8690375,6.19769607 36.8409623,5.6557441 36.7786706,5.14225939 C36.7681424,5.05524629 36.7579651,4.98273537 36.7486652,4.92275721 C36.5026566,4.96411528 36.1727735,4.99723755 35.7511197,4.9245476 C35.2973549,4.84648646 34.9357118,4.68517205 34.6165323,4.54283581 C34.1852276,4.3505476 33.9007912,4.22307162 33.4796638,4.30256507 C33.2264609,4.3505476 32.9692222,4.46638603 32.6970687,4.58920699 C32.2289154,4.80029432 31.7004005,5.03877467 31.030457,5.01388821 C30.534404,4.99508908 30.099239,4.86743406 29.6784625,4.74407598 C29.2208374,4.61015459 28.8263814,4.4944952 28.4231519,4.53710655 C28.0206243,4.5797179 27.622308,4.7095214 27.2004787,4.84684454 C26.4633303,5.08693624 25.6280942,5.35925502 24.6637125,5.16016332 C24.3248804,5.09033799 24.0353553,4.97933362 23.7800468,4.88122009 C23.3017163,4.69752576 23.0339494,4.6065738 22.64195,4.71059563 C22.3685681,4.78346463 22.1374745,4.86045153 21.9335786,4.92830742 C21.0721976,5.21459127 20.4822683,5.36283581 19.2576649,4.82231616 C18.6126381,4.53764367 18.2525742,4.5086393 17.4605037,4.50291004 C17.072891,4.50004541 16.7607303,4.17705852 16.7635378,3.7815607 C16.7663454,3.38606288 17.0849984,3.07292314 17.47033,3.07059563 C18.3271488,3.07668297 18.9125159,3.10908908 19.8151323,3.50780961 C20.614397,3.86069607 20.8195212,3.7924821 21.4982382,3.56635546 C21.7209093,3.49241223 21.9732348,3.40844279 22.2873256,3.3246524 C23.1281767,3.10085328 23.7372322,3.33432052 24.2743451,3.54075284 C24.5001747,3.62722882 24.7135459,3.70922882 24.9420075,3.75631616 C25.5482555,3.88128559 26.1162511,3.69669607 26.7735608,3.48238603 C27.2445216,3.32912838 27.7316256,3.17032052 28.277863,3.11249083 C28.9525442,3.04141223 29.5435263,3.21436419 30.0658997,3.36744279 C30.4215769,3.47164367 30.757777,3.57029432 31.0827469,3.58264803 C31.427545,3.59625502 31.7526905,3.44890568 32.1297749,3.27899738 C32.448428,3.13540786 32.8093693,2.97284017 33.2240043,2.89442096 C34.0667855,2.73489694 34.6835617,3.00972227 35.1787374,3.23029869 C35.447557,3.35025502 35.7012863,3.46340786 35.9844945,3.51210655 C36.2657725,3.56044716 36.4645797,3.52141659 36.6575964,3.48399738 C36.9062371,3.43529869 37.2820933,3.36207162 37.6298743,3.62078341 C38.014855,3.90706725 38.1059238,4.42091004 38.1719004,4.96680087 C38.2401581,5.52987948 38.269637,6.09743406 38.2982386,6.64618952 C38.3091177,6.85960437 38.3203478,7.0724821 38.3336835,7.28464367 C38.4401936,8.98909782 38.5335435,10.7216611 38.6240859,12.3969319 L38.788852,15.4563555 C38.9983629,19.3731983 39.2147171,23.4234253 39.6019789,27.3823424 C39.6404067,27.7758707 39.3591287,28.1267878 38.9732707,28.1659974 C38.9497578,28.1685039 38.9260694,28.1695782 38.9027319,28.1695782" id="Fill-1" fill="#FFFFFF"></path>
                        <path d="M14.9101561,29.8996528 C14.8890998,29.8996528 14.8680434,29.8987576 14.8468116,29.8967882 C14.4607781,29.8615175 14.1756398,29.5136441 14.2102073,29.1197576 L16.4265657,3.83725983 C16.4611333,3.44319432 16.8025974,3.15332969 17.1881045,3.18770524 C17.5743134,3.22297598 17.8592763,3.57084934 17.8247087,3.96491485 L15.6085257,29.2472336 C15.5757129,29.6196354 15.2695182,29.8996528 14.9101561,29.8996528" id="Fill-3" fill="#FFFFFF"></path>
                        <path d="M11.6649834,33.0482201 L11.6598948,33.0482201 C11.2722821,33.0453555 10.9601215,32.7225476 10.962929,32.3270498 C10.9706496,31.2386699 11.4551216,29.7701895 12.7953596,29.2137354 C13.4291563,28.9503686 14.0161027,28.852076 14.5902397,28.9145607 C14.9685525,28.9555607 15.3231768,29.0894821 15.6442865,29.2606437 C16.1105096,28.5407266 16.8723993,27.8537528 17.0003167,27.7746175 C18.4412743,26.8838969 20.2249244,26.9911415 21.8941681,28.0698533 C21.8976775,28.0720017 21.900836,28.0743293 21.9043453,28.0762987 C21.9399657,28.0225869 21.9783936,27.9595651 22.0087498,27.9099712 C22.1314032,27.7096262 22.2701998,27.4826044 22.477956,27.2919275 C23.7773095,26.1022114 26.0180582,25.8281022 27.689934,26.6531153 C28.6848475,27.1442201 29.3246102,27.9588489 29.5285061,28.9593205 C30.0963262,28.8452725 30.955777,28.8098227 32.1963482,29.2309231 C33.5455351,29.6889057 34.17863,30.8079013 34.6197609,31.8422114 C34.7743498,32.204945 34.6116893,32.6267616 34.2563631,32.7846742 C33.9006859,32.9420498 33.4872791,32.7764384 33.3325148,32.4138838 C32.9470078,31.5100934 32.530969,30.8540934 31.7531116,30.5900105 C30.4174358,30.1365039 29.7713562,30.3526044 29.3853227,30.4816917 C29.2138888,30.5389843 29.0519302,30.5943074 28.859089,30.5842812 C28.6713363,30.5755083 28.4946383,30.4902856 28.3690019,30.3474122 C28.2431901,30.2045389 28.1789682,30.0163686 28.1907247,29.8246175 C28.255473,28.7546786 27.6218517,28.2105782 27.0787729,27.9425563 C25.9287441,27.3746437 24.2854699,27.5612026 23.4160173,28.3575694 C23.3560066,28.4125345 23.2730094,28.5482463 23.1998385,28.6678445 C23.0747286,28.8726655 22.9331245,29.1045214 22.718525,29.2857092 L22.6523729,29.3421066 C22.3942569,29.5621459 21.9631277,29.9304297 21.3509138,29.4332376 C21.2975709,29.38991 21.2372094,29.3408533 21.1431576,29.2799799 C20.4396993,28.8252201 19.0654202,28.1858707 17.7458877,28.9885039 C17.518128,29.1702288 16.9131083,29.8464603 16.7248292,30.1873511 C16.7820324,30.3959319 16.7465875,30.6279668 16.6088437,30.8138096 C16.375118,31.1292769 15.9348644,31.1915825 15.6255112,30.9527441 L15.6253357,30.9525651 C15.284749,30.6895563 14.8423897,30.3821459 14.4423187,30.3388183 C14.1045394,30.3024734 13.7388604,30.3681808 13.3245764,30.5404166 C12.6697232,30.8123773 12.3714247,31.6388227 12.366687,32.337076 C12.3638795,32.7309624 12.0501396,33.0482201 11.6649834,33.0482201" id="Fill-5" fill="#FFFFFF"></path>
                        <path d="M44.0153414,33.3229022 C43.7444161,33.3229022 43.4863001,33.1619459 43.3713674,32.8923127 C42.9860359,31.9885223 42.5699971,31.3325223 41.7919642,31.0684393 C40.5280556,30.6392821 39.818105,30.985186 39.3939946,31.1921555 C39.1846592,31.2938498 38.9876066,31.3876664 38.7435282,31.3794306 C38.3936415,31.363317 38.1090296,31.0867013 38.0762167,30.7309502 C37.9551426,29.4153694 37.4125901,28.5291249 36.5073417,28.1678236 C35.5548919,27.7873651 34.2994058,28.0623694 33.4548699,28.8359983 C33.4424115,28.8474568 33.4204778,28.8707319 33.387314,28.9160288 C33.1549921,29.2325703 32.7152649,29.2977406 32.4048589,29.0608716 C32.0944529,28.8241817 32.0307574,28.3753301 32.2629039,28.0586096 C32.345901,27.9450987 32.4292492,27.850745 32.517335,27.7698192 C33.7601872,26.6316664 35.5692804,26.2553258 37.0186605,26.8339808 C37.7261546,27.1163258 38.8746041,27.8455528 39.3209991,29.6660245 C39.9437413,29.4364961 40.8997005,29.2562035 42.2352008,29.7091729 C43.5847387,30.1675135 44.2174826,31.2865092 44.6586135,32.3208192 C44.8132024,32.6835528 44.6503665,33.1053694 44.2950402,33.2632821 C44.2037959,33.303745 44.1086913,33.3229022 44.0153414,33.3229022" id="Fill-7" fill="#FFFFFF"></path>
                        <path d="M22.0930982,25.2177035 C21.9088549,25.2177035 21.7263664,25.1407166 21.5965188,25.0082275 C21.4649164,24.873948 21.3912192,24.6895376 21.3912192,24.5015463 C21.3912192,24.313555 21.4649164,24.1291445 21.5965188,23.9948651 C21.7263664,23.862376 21.9072757,23.7853891 22.0930982,23.7853891 C22.2773414,23.7853891 22.4580752,23.862376 22.5896776,23.9948651 C22.7195252,24.1291445 22.7949772,24.313555 22.7949772,24.5015463 C22.7949772,24.6895376 22.7195252,24.873948 22.5896776,25.0082275 C22.4580752,25.1407166 22.2773414,25.2177035 22.0930982,25.2177035" id="Fill-9" fill="#FFFFFF"></path>
                        <path d="M36.4326091,24.9884795 C36.2481904,24.9884795 36.067632,24.913283 35.9360297,24.7790035 C35.8061821,24.6465144 35.7307301,24.462283 35.7307301,24.2723223 C35.7307301,24.084331 35.8061821,23.8999205 35.9360297,23.765641 C36.067632,23.633331 36.2481904,23.5561651 36.4326091,23.5561651 C36.618607,23.5561651 36.7993409,23.633331 36.929013,23.765641 C37.0606154,23.8999205 37.1344881,24.084331 37.1344881,24.2723223 C37.1344881,24.462283 37.0606154,24.6465144 36.929013,24.7790035 C36.7993409,24.913283 36.6168524,24.9884795 36.4326091,24.9884795" id="Fill-11" fill="#FFFFFF"></path>
                        <path d="M42.2141971,26.8898948 C42.0299538,26.8898948 41.84922,26.8146983 41.7176177,26.6804188 C41.5879455,26.5479297 41.5123181,26.3636983 41.5123181,26.1737376 C41.5123181,25.9857463 41.5879455,25.8013358 41.7176177,25.6670563 C41.84922,25.5345672 42.0299538,25.4575803 42.2141971,25.4575803 C42.4003705,25.4575803 42.5809288,25.5345672 42.7107765,25.6670563 C42.8423788,25.8013358 42.9160761,25.9857463 42.9160761,26.1737376 C42.9160761,26.3617288 42.8423788,26.5479297 42.7107765,26.6804188 C42.5809288,26.8146983 42.3986158,26.8898948 42.2141971,26.8898948" id="Fill-13" fill="#FFFFFF"></path>
                        <path d="M44.4738965,28.8811878 C44.3358018,28.8811878 44.1963034,28.8398297 44.0743519,28.7533537 C43.7558743,28.5275852 43.6769129,28.0814192 43.8980048,27.7566419 C43.9534532,27.675179 45.2789517,25.7687686 47.3498458,26.3255808 C47.7244737,26.4263799 47.9481976,26.8182969 47.8494081,27.2007249 C47.7504432,27.5831528 47.3666909,27.8107118 46.991712,27.7106288 C45.8623887,27.4055459 45.0590881,28.5617817 45.051192,28.5734192 C44.914852,28.7737642 44.6962167,28.8811878 44.4738965,28.8811878" id="Fill-15" fill="#FFFFFF"></path>
                        <g id="Group-19" transform="translate(3.158456, 32.946991)">
                            <mask id="mask-2" fill="white">
                                <use xlink:href="#path-1"></use>
                            </mask>
                            <g id="Clip-18"></g>
                            <path d="M50.5558711,1.60838166 L0.8565205,1.60838166 C0.468907818,1.60838166 0.154641492,1.28772227 0.154641492,0.892224454 C0.154641492,0.496726638 0.468907818,0.176067249 0.8565205,0.176067249 L50.5558711,0.176067249 C50.9434838,0.176067249 51.2577501,0.496726638 51.2577501,0.892224454 C51.2577501,1.28772227 50.9434838,1.60838166 50.5558711,1.60838166" id="Fill-17" fill="#FFFFFF" mask="url(#mask-2)"></path>
                        </g>
                        <path d="M29.4996764,25.1416476 C29.1120637,25.1416476 28.7977974,24.8209882 28.7977974,24.4254904 L28.7977974,12.8106738 C28.7977974,12.415176 29.1120637,12.0945166 29.4996764,12.0945166 C29.8872891,12.0945166 30.2015554,12.415176 30.2015554,12.8106738 L30.2015554,24.4254904 C30.2015554,24.8209882 29.8872891,25.1416476 29.4996764,25.1416476" id="Fill-20" fill="#FFFFFF"></path>
                        <path d="M32.7808204,37.6263087 L24.003297,37.6263087 C23.6158598,37.6263087 23.3015934,37.3056493 23.3015934,36.9101515 C23.3015934,36.5146537 23.6158598,36.1939943 24.003297,36.1939943 L32.7808204,36.1939943 C33.1684331,36.1939943 33.4826994,36.5146537 33.4826994,36.9101515 C33.4826994,37.3056493 33.1684331,37.6263087 32.7808204,37.6263087" id="Fill-22" fill="#FFFFFF"></path>
                        <path d="M31.1507064,40.7392293 L20.8685299,40.7392293 C20.4809172,40.7392293 20.1666508,40.4185699 20.1666508,40.0230721 C20.1666508,39.6275742 20.4809172,39.3069148 20.8685299,39.3069148 L31.1507064,39.3069148 C31.5383191,39.3069148 31.8525854,39.6275742 31.8525854,40.0230721 C31.8525854,40.4185699 31.5383191,40.7392293 31.1507064,40.7392293" id="Fill-24" fill="#FFFFFF"></path>
                        <path d="M19.0294138,40.7392293 L17.5668735,40.7392293 C17.1792608,40.7392293 16.8649944,40.4185699 16.8649944,40.0230721 C16.8649944,39.6275742 17.1792608,39.3069148 17.5668735,39.3069148 L19.0294138,39.3069148 C19.4170265,39.3069148 19.7312928,39.6275742 19.7312928,40.0230721 C19.7312928,40.4185699 19.4170265,40.7392293 19.0294138,40.7392293" id="Fill-26" fill="#FFFFFF"></path>
                        <path d="M34.9174804,40.8247205 L34.5974236,40.8247205 C34.2098109,40.8247205 33.8955446,40.5040611 33.8955446,40.1085633 C33.8955446,39.7130655 34.2098109,39.3924061 34.5974236,39.3924061 L34.9174804,39.3924061 C35.3050931,39.3924061 35.6193595,39.7130655 35.6193595,40.1085633 C35.6193595,40.5040611 35.3050931,40.8247205 34.9174804,40.8247205" id="Fill-28" fill="#FFFFFF"></path>
                        <path d="M41.6855593,40.8247205 L37.4279613,40.8247205 C37.0403486,40.8247205 36.7260823,40.5040611 36.7260823,40.1085633 C36.7260823,39.7130655 37.0403486,39.3924061 37.4279613,39.3924061 L41.6855593,39.3924061 C42.073172,39.3924061 42.3874383,39.7130655 42.3874383,40.1085633 C42.3874383,40.5040611 42.073172,40.8247205 41.6855593,40.8247205" id="Fill-30" fill="#FFFFFF"></path>
                        <path d="M35.1616642,37.6263087 L34.9382912,37.6263087 C34.550503,37.6263087 34.2364121,37.3056493 34.2364121,36.9101515 C34.2364121,36.5146537 34.550503,36.1939943 34.9382912,36.1939943 L35.1616642,36.1939943 C35.5492768,36.1939943 35.8635432,36.5146537 35.8635432,36.9101515 C35.8635432,37.3056493 35.5492768,37.6263087 35.1616642,37.6263087" id="Fill-32" fill="#FFFFFF"></path>
                        <path d="M0.702405417,5.2871738 C0.497456747,5.2871738 0.294438244,5.19604279 0.15581714,5.02094236 C-0.0877348759,4.7131738 -0.0405335127,4.2621738 0.260923521,4.01384629 C0.435691394,3.86989869 0.602914067,3.73114323 0.76381983,3.59757991 C2.71469253,1.97906463 3.89227004,1.00204716 6.88736323,0.431986026 C9.96598003,-0.154188646 15.3028925,0.66670655 16.8975616,3.68333974 C17.0816294,4.03139214 16.9542384,4.46592052 16.6131252,4.65373275 C16.2713101,4.8420821 15.8459714,4.71120437 15.6620791,4.36351004 C14.4467756,2.06464541 9.80595161,1.33273275 7.14477736,1.84013013 C4.50062367,2.34340961 3.54782291,3.13404716 1.6492402,4.70887686 C1.48728162,4.84351441 1.31883066,4.9833441 1.14283449,5.1281869 C1.01298688,5.2352524 0.857169738,5.2871738 0.702405417,5.2871738" id="Fill-34" fill="#FFFFFF"></path>
                        <path d="M53.1527884,4.48953581 C52.9960939,4.48953581 52.838522,4.43636114 52.7079726,4.32714716 L52.360367,4.03638734 C52.0604892,3.78573231 52.0166217,3.33455328 52.2624549,3.02857511 C52.5077616,2.72259694 52.9501208,2.67801616 53.2501741,2.92849214 L53.5983061,3.21961004 C53.8980084,3.47062314 53.9415249,3.92180218 53.6958673,4.22760131 C53.5570707,4.4001952 53.3556314,4.48953581 53.1527884,4.48953581" id="Fill-36" fill="#FFFFFF"></path>
                        <path d="M37.6379459,4.58115022 C37.4207144,4.58115022 37.2064658,4.4785607 37.0692485,4.28537729 C36.8416642,3.96507598 36.9115012,3.51729869 37.2254165,3.28526376 C38.0404735,2.68243843 38.5619696,2.1424559 39.0222268,1.66603231 C40.2731507,0.370145852 41.0638174,-0.286928384 44.0022338,0.119848908 C44.2905306,0.159774672 44.5740898,0.205608734 44.8551923,0.251442795 C45.7651784,0.399687336 46.6253312,0.539517031 47.5126817,0.429049782 L47.7874673,0.394316157 C49.7971224,0.140080349 49.9810147,0.199521397 51.7332556,1.66227249 L51.7841419,1.70488384 C52.0840197,1.95518079 52.1284135,2.40653886 51.8829313,2.71251703 C51.6374491,3.0184952 51.1952654,3.0636131 50.8952121,2.81331616 L50.8443259,2.77088384 C50.1347262,2.17844279 49.7437796,1.85205415 49.4444282,1.75465677 C49.1754331,1.66710655 48.8167729,1.70739039 47.960305,1.81588821 L47.6830628,1.85080087 C46.5990107,1.98543843 45.6000614,1.82322882 44.6339249,1.66603231 C44.3637015,1.62198865 44.0910215,1.5775869 43.8137793,1.53927249 C41.4340585,1.20984017 41.0492534,1.60802358 40.021878,2.67133799 C39.5482851,3.16190568 38.9585313,3.77225066 38.0494225,4.44472227 C37.9250144,4.53692751 37.7807783,4.58115022 37.6379459,4.58115022" id="Fill-38" fill="#FFFFFF"></path>
                        <path d="M2.56094593,12.3363092 C2.34459173,12.3363092 2.13086957,12.2346148 1.99347676,12.0423266 C1.76501514,11.7227415 1.83362381,11.2747852 2.14666185,11.041676 L4.45496644,9.32307773 C6.32740416,7.92907773 9.52920072,6.88384629 11.4351532,7.62721747 C11.7974982,7.76830044 11.9789339,8.1822393 11.8404883,8.55159738 C11.7023936,8.92131354 11.296883,9.10661921 10.934538,8.96517817 C9.69186118,8.48159301 6.99769861,9.20294236 5.28230632,10.4802087 L2.9741772,12.1986279 C2.84941821,12.2915493 2.70448019,12.3363092 2.56094593,12.3363092" id="Fill-40" fill="#FFFFFF"></path>
                        <path d="M52.6740192,9.62099913 C52.6222556,9.62099913 52.5699656,9.61509083 52.5173247,9.60291616 C52.46328,9.59038341 52.3902846,9.5721214 52.2911442,9.54508646 C51.9168672,9.4432131 51.6941961,9.05057991 51.7942138,8.66851004 C51.894407,8.28644017 52.2795632,8.05888122 52.6534892,8.16147074 C52.7301695,8.18241834 52.7871971,8.19656245 52.8293099,8.20640961 C53.2070963,8.2943179 53.443805,8.67799913 53.3578248,9.06382882 C53.2836011,9.39576769 52.9942515,9.62099913 52.6740192,9.62099913" id="Fill-42" fill="#FFFFFF"></path>
                        <path d="M42.3735587,10.2161616 C42.1477291,10.2161616 41.9261108,10.1053362 41.7906482,9.89979913 C41.5741185,9.57179913 41.6593968,9.12688646 41.9810329,8.90595197 C44.5799153,7.12075109 47.621508,5.35327511 50.826463,6.98826201 C51.1730158,7.16515284 51.3135671,7.59538428 51.1403784,7.94916594 C50.9668388,8.3029476 50.5448341,8.44582096 50.1986323,8.26946725 C47.6671302,6.97787773 45.237576,8.39551092 42.7646808,10.0940568 C42.6446595,10.1765939 42.5083195,10.2161616 42.3735587,10.2161616" id="Fill-44" fill="#FFFFFF"></path>
                        <path d="M3.27105447,15.7482074 C3.07330006,15.7482074 2.87677394,15.6633428 2.73797737,15.4982686 C2.48565186,15.1981987 2.51951753,14.7459454 2.8137803,14.4884869 L3.33317077,14.0342642 C3.62778448,13.7769847 4.07067013,13.8117183 4.32282017,14.1121463 C4.5749702,14.4125742 4.5407536,14.8646485 4.24649082,15.122107 L3.72780224,15.5756135 C3.59532257,15.691631 3.43283758,15.7482074 3.27105447,15.7482074" id="Fill-46" fill="#FFFFFF"></path>
                        <path d="M5.30146761,13.9723166 C4.91367946,13.9723166 4.59958861,13.6516572 4.59958861,13.2561594 C4.59958861,13.035583 4.69732526,12.8382817 4.85103676,12.7068668 L4.87314595,12.6875306 C5.02229524,12.5541463 5.22584015,12.4861114 5.43675479,12.5172642 C5.78629054,12.5691856 6.03773869,12.8751638 6.03773869,13.2250066 C6.03773869,13.2595611 6.03545759,13.2941157 6.03036896,13.3290284 C5.97983367,13.6838843 5.65275806,13.9723166 5.30146761,13.9723166" id="Fill-48" fill="#FFFFFF"></path>
                        <path d="M50.0222676,23.36069 C49.7885419,23.36069 49.5602558,23.2416288 49.4268988,23.0248122 C47.516735,19.9165109 45.3507364,18.70531 41.7016675,18.70531 C41.3140548,18.70531 40.9997885,18.3846507 40.9997885,17.9891528 C40.9997885,17.593655 41.3140548,17.2729956 41.7016675,17.2729956 C45.8002899,17.2729956 48.4663773,18.7656463 50.6162327,22.2638952 C50.8222342,22.5990568 50.7229183,23.0409258 50.394439,23.2511179 C50.2786289,23.3252402 50.1496587,23.36069 50.0222676,23.36069" id="Fill-50" fill="#FFFFFF"></path>
                        <path d="M47.4805181,24.3489153 C47.3176822,24.3489153 47.1541443,24.2914437 47.0214892,24.1739939 L46.8444402,24.0191249 C46.5505284,23.7613083 46.5171891,23.308876 46.7698656,23.0091642 C47.022893,22.7092734 47.4659541,22.6754349 47.7598659,22.9330725 L47.9402488,23.0915223 C48.2332833,23.3502341 48.2652188,23.8024873 48.0113141,24.101483 C47.872693,24.2651249 47.6772197,24.3489153 47.4805181,24.3489153" id="Fill-52" fill="#FFFFFF"></path>
                        <path d="M46.1819717,19.5330266 C45.8362963,19.5330266 45.6264345,19.3786948 45.5067641,19.2381489 C45.3205907,19.0188258 45.2625102,18.7171445 45.3472621,18.4104502 C45.4128878,18.1732231 45.5936217,17.9872013 45.8252417,17.9180921 C46.5285245,17.7075419 47.1360008,17.4359393 47.723298,17.1734677 C49.3002447,16.4693061 50.789281,15.803638 53.228837,16.77421 C53.5899537,16.9177996 53.7685819,17.3329917 53.6278552,17.7016336 C53.486953,18.0700965 53.0802141,18.2527166 52.7189219,18.10859 C50.8208656,17.3537603 49.7576943,17.8283934 48.2863805,18.4854677 C47.8733247,18.6702362 47.4220165,18.8718345 46.922805,19.0566031 C46.8364739,19.2983061 46.6250329,19.4839699 46.357617,19.5206729 C46.2956761,19.5290878 46.2370692,19.5330266 46.1819717,19.5330266" id="Fill-54" fill="#FFFFFF"></path>
                        <path d="M2.95815681,8.64765197 C2.72355375,8.64765197 2.49439026,8.52769563 2.36155966,8.30944672 C2.15678646,7.973569 2.25768156,7.53205808 2.58686282,7.32329825 L4.90639747,5.85177424 C5.23557872,5.64247729 5.66828713,5.74596201 5.87288486,6.0816607 C6.07765806,6.41753843 5.97676295,6.85922838 5.6475817,7.06798821 L3.32804705,8.53951223 C3.21276342,8.6127393 3.0846705,8.64765197 2.95815681,8.64765197" id="Fill-56" fill="#FFFFFF"></path>
                        <path d="M19.6471551,13.164724 C19.2611216,13.1289162 18.9768606,12.7799686 19.0119546,12.3859031 C19.0470485,11.9920166 19.3874599,11.7019729 19.7734933,11.7377808 C20.1595268,11.7735886 20.4455425,12.1209249 20.4104485,12.5148114 C20.3771093,12.8872131 20.0717919,13.1665144 19.7120789,13.1665144 C19.6910225,13.1665144 19.6699662,13.1665144 19.6471551,13.164724 M19.3311341,16.7347677 C18.9452761,16.6989598 18.6610151,16.3516236 18.696109,15.9579162 C18.7310275,15.5638507 19.0716143,15.273807 19.4576478,15.3080035 C19.8436812,15.3436323 20.1277668,15.692759 20.0928483,16.0866454 C20.0610882,16.4590472 19.7540162,16.7383485 19.3960579,16.7383485 C19.3732468,16.7383485 19.3521904,16.7365581 19.3311341,16.7347677 M19.0152885,20.3067808 C18.6292551,20.2707939 18.3432394,19.9216672 18.380088,19.5277808 C18.4136027,19.1338943 18.7557688,18.8440297 19.1418022,18.8796585 C19.5276602,18.9154664 19.8119212,19.2628026 19.7768272,19.6566891 C19.7436635,20.0290908 19.4383461,20.3083921 19.0786331,20.3083921 C19.0575767,20.3083921 19.0365204,20.3083921 19.0152885,20.3067808 M18.6978637,23.8784358 C18.3118303,23.842807 18.0275693,23.4952917 18.0626632,23.1014052 C18.0977572,22.7075188 18.437993,22.4176541 18.824202,22.453283 C19.2102354,22.4873004 19.4944964,22.8364271 19.4609817,23.2304926 C19.4278179,23.6027153 19.1207458,23.8820166 18.7627876,23.8820166 C18.7417312,23.8820166 18.7189201,23.8804052 18.6978637,23.8784358" id="Fill-58" fill="#FFFFFF"></path>
                        <path d="M34.0029321,20.8962856 C33.6512907,20.8962856 33.3479035,20.6271895 33.3066681,20.2619493 C33.2691176,19.9283991 33.2291105,18.0746262 33.1678715,15.0613948 C33.1275135,13.0785345 33.0773292,10.6106568 33.0485521,10.3401284 C33.0069658,9.94785328 33.2838571,9.59281834 33.6683113,9.54913275 C34.0560994,9.50687948 34.3991428,9.78528559 34.4431857,10.1772026 C34.4752967,10.4636655 34.5086359,11.9479013 34.5712786,15.0314952 C34.6144442,17.1584821 34.6684889,19.8055782 34.7013017,20.0986655 C34.7451691,20.4914777 34.4688043,20.8466917 34.0838237,20.8916306 C34.0568013,20.8946742 34.0296035,20.8962856 34.0029321,20.8962856" id="Fill-60" fill="#FFFFFF"></path>
                        <path d="M26.6304652,16.5279952 C26.62292,16.5279952 26.6151993,16.5278162 26.6076541,16.5276371 C26.2202169,16.5149253 25.9161278,16.1842397 25.9285862,15.788921 L26.1330084,9.29444934 C26.1452913,8.89913057 26.4737707,8.58975066 26.8569966,8.60156725 C27.2444339,8.61427904 27.5485229,8.94496463 27.5360646,9.34028341 L27.3316423,15.834755 C27.3195349,16.2223751 27.0077252,16.5279952 26.6304652,16.5279952" id="Fill-62" fill="#FFFFFF"></path>
                        <path d="M11.4958657,28.0800585 L11.3203959,28.0800585 C10.9327833,28.0800585 10.6185169,27.7593991 10.6185169,27.3639013 C10.6185169,26.9684035 10.9327833,26.6477441 11.3203959,26.6477441 L11.4958657,26.6477441 C11.8834784,26.6477441 12.1977447,26.9684035 12.1977447,27.3639013 C12.1977447,27.7593991 11.8834784,28.0800585 11.4958657,28.0800585" id="Fill-64" fill="#FFFFFF"></path>
                        <path d="M5.99151996,28.9911716 C5.95554866,29.0484642 5.93028102,29.1071891 5.91729625,29.1625122 C5.9350187,29.1039664 5.95975993,29.0463157 5.99151996,28.9911716 M7.27122086,29.5367044 C7.25121731,29.6088572 7.22542325,29.671879 7.19541793,29.726307 C7.22893265,29.6709838 7.25507764,29.6072459 7.27122086,29.5367044 M6.57829081,30.0885035 C6.57179843,30.0885035 6.56653434,30.0883245 6.56302494,30.0881454 C6.1948894,30.0750755 5.89922287,29.7732153 5.88588717,29.3977699 C5.88343059,29.3249009 5.89255502,29.2502415 5.91326045,29.1770144 C5.96204104,28.7987044 6.2935034,28.5217306 6.66672756,28.5525253 C6.6746237,28.5514511 6.6821689,28.5503769 6.69024051,28.5494817 C7.07504568,28.5065122 7.42159844,28.7920799 7.46318477,29.1852502 C7.49687496,29.5068048 7.31666753,29.8015035 7.03889891,29.9212808 C6.85886694,30.0752546 6.64567119,30.0885035 6.57829081,30.0885035" id="Fill-66" fill="#FFFFFF"></path>
                        <path d="M11.8820922,34.0394175 C11.7840046,34.0394175 11.6839868,34.0182908 11.5888822,33.973531 C10.9405215,33.6688061 10.6283608,33.1069808 10.37779,32.6556227 C10.061769,32.0869939 9.94280047,31.9414349 9.58659688,31.9306926 C9.24601009,31.9228148 8.95192278,32.02809 8.7859284,32.2270026 C8.59431543,32.4568891 8.60273798,32.7612559 8.64327149,32.9761031 C8.71696879,33.3644393 8.46815268,33.7400638 8.08755879,33.8150812 C7.70678942,33.8906358 7.33882936,33.636221 7.26513206,33.2480638 C7.12493173,32.5088105 7.28531108,31.8166445 7.7167912,31.2990419 C8.16020326,30.7669371 8.85752006,30.4774306 9.62853415,30.4990943 C10.8131304,30.5350812 11.2861969,31.3862341 11.5990595,31.9494917 C11.8096232,32.3285179 11.9501744,32.5662821 12.1763549,32.6726314 C12.5285227,32.8380638 12.6824097,33.2634611 12.5201002,33.622793 C12.4016581,33.8849066 12.1477534,34.0394175 11.8820922,34.0394175" id="Fill-68" fill="#FFFFFF"></path>
                        <path d="M28.0110963,31.7185489 C27.9998662,31.7185489 27.9882852,31.7183699 27.9770552,31.7176537 C27.5897934,31.6988546 27.2909684,31.3631559 27.3095682,30.9681952 C27.3362396,30.4004616 27.5652277,29.910431 27.9544196,29.5886974 C28.3322059,29.2760948 28.8321193,29.1520205 29.3634417,29.2404659 C29.7461412,29.3038459 30.0060119,29.6714135 29.9440711,30.0618983 C29.8819548,30.452383 29.5213644,30.7171821 29.1390159,30.6543393 C29.0460169,30.639121 28.9189768,30.634645 28.8382607,30.7012476 C28.7650898,30.7619419 28.7187658,30.8842258 28.7115715,31.0365882 C28.6936736,31.4200904 28.3832676,31.7185489 28.0110963,31.7185489" id="Fill-70" fill="#FFFFFF"></path>
                        <path d="M24.909879,34.4611266 C24.8900509,34.4611266 24.8700474,34.4602314 24.8498683,34.458441 C24.4636594,34.4253188 24.1769418,34.0788777 24.2097547,33.6846332 C24.2451996,33.2544017 24.0964012,32.9283712 23.76722,32.7160306 C23.3206494,32.4281354 22.6394759,32.4156026 22.1814998,32.6872052 C21.8281037,32.8972183 21.6598282,33.2415109 21.6815865,33.711131 C21.7000108,34.1060917 21.4010104,34.4416114 21.0137486,34.4602314 C20.6254341,34.4858341 20.2980075,34.1739476 20.2794077,33.7788079 C20.2329082,32.7776201 20.6685996,31.9284367 21.4754095,31.4493275 C22.3813599,30.9111354 23.6324592,30.9345895 24.5175286,31.5053668 C25.2904729,32.0041703 25.6879119,32.8424323 25.6082486,33.8053057 C25.5775414,34.1789607 25.2708203,34.4611266 24.909879,34.4611266" id="Fill-72" fill="#FFFFFF"></path>
                        <path d="M32.7671162,28.3431926 C32.7267581,28.3431926 32.6855227,28.3394328 32.6444628,28.3320921 C32.2626406,28.2635201 32.0076831,27.8920135 32.0750635,27.5026031 C32.1254233,27.2114852 32.057692,26.996638 31.8681846,26.8458869 C31.6160346,26.6451838 31.2028033,26.5961271 30.9067859,26.7313017 C30.6951694,26.827983 30.5888347,26.9935943 30.5718141,27.2524852 C30.5460201,27.6472668 30.20982,27.9455463 29.8246639,27.9194066 C29.4379286,27.8929087 29.145245,27.5516598 29.1712146,27.1570572 C29.2228027,26.3696424 29.6463866,25.7378127 30.3331753,25.4239568 C31.1045403,25.0716074 32.0683956,25.1890572 32.7313204,25.7161489 C33.3333571,26.1952581 33.5981409,26.9368389 33.4574142,27.7511096 C33.3974035,28.0986249 33.1012106,28.3431926 32.7671162,28.3431926" id="Fill-74" fill="#FFFFFF"></path>
                        <path d="M47.861112,34.2504511 C47.8212803,34.2504511 47.7809223,34.2468703 47.7403888,34.2397087 C47.3583911,34.1722109 47.1025562,33.8014205 47.1687083,33.411652 C47.2495999,32.9363026 47.1141372,32.5927262 46.7551261,32.3612284 C46.2966237,32.0659926 45.590007,32.0470144 45.2120451,32.3200493 C45.0821975,32.4135079 44.9442783,32.5701672 45.0295566,32.9531323 C45.1157122,33.338783 44.8788281,33.7226432 44.5010417,33.8103725 C44.1229044,33.8970275 43.7466972,33.6567568 43.6608925,33.2709271 C43.4671739,32.4027655 43.7372219,31.6298528 44.4015503,31.1505646 C45.2364354,30.5482764 46.5707074,30.5479183 47.5049084,31.1505646 C48.3483915,31.694307 48.7300382,32.6075865 48.5519364,33.6565777 C48.4926276,34.0048092 48.1960837,34.2504511 47.861112,34.2504511" id="Fill-76" fill="#FFFFFF"></path>
                    </g>
                </g>
            </g>
        </g>
    </g>
</svg>