<?xml version="1.0" encoding="UTF-8"?>
<svg width="45px" height="45px" viewBox="0 0 45 45" version="1.1" xmlns="http://www.w3.org/2000/svg" xmlns:xlink="http://www.w3.org/1999/xlink">
    <!-- Generator: Sketch 57.1 (83088) - https://sketch.com -->
    <title>step</title>
    <desc>Created with Sketch.</desc>
    <g id="Landing-Quebec" stroke="none" stroke-width="1" fill="none" fill-rule="evenodd">
        <g id="HomeDesktop_Quebec" transform="translate(-165.000000, -5084.000000)" fill="#FFFFFF" fill-rule="nonzero">
            <g id="step" transform="translate(165.000000, 5084.000000)">
                <path d="M2.99980466,15 C2.44774374,15 2,14.5674656 2,14.0337799 L2,13.9658426 C2,13.432157 2.44774374,13 2.99980466,13 C3.55225636,13 4,13.432157 4,13.9658426 L4,14.0337799 C4,14.5674656 3.55225636,15 2.99980466,15 Z" id="Shape"></path>
                <path d="M10.1101449,33 C7.35409606,33 4.95971914,31.223635 4.15241571,28.5800602 C2.95590709,24.6634636 2.23222334,20.6036392 2.00141953,16.5134642 C1.97422615,16.0322872 2.34099686,15.6199959 2.82095997,15.5927144 C3.30296264,15.5644099 3.7115431,15.9333919 3.73873647,16.4145688 C3.96172217,20.3649262 4.66059198,24.2859562 5.81597064,28.0685326 C6.39790893,29.9741435 8.12366865,31.2543267 10.1101449,31.2543267 C12.5864418,31.2543267 14.6011312,29.2331105 14.6011312,26.7487912 L14.6011312,26.6833157 C14.6011312,23.7751105 15.1300424,20.9245375 16.1735884,18.2110539 L16.6080025,17.0812598 C17.0407171,15.955899 17.2603037,14.7735882 17.2603037,13.567406 C17.2603037,9.80597276 14.2098865,6.74533235 10.4602597,6.74533235 C7.71406842,6.74533235 5.25204795,8.38665402 4.188107,10.9265593 C4.00217234,11.3709063 3.49195653,11.5796096 3.04904445,11.3927315 C2.60613229,11.2061944 2.39810295,10.6943257 2.58403769,10.2499787 C3.91991233,7.06077438 7.01179939,5 10.4599197,5 C15.1691329,5 19,8.84327771 19,13.567406 C19,14.9891118 18.741323,16.3828541 18.2314472,17.7094158 L17.796693,18.8395508 C16.8306483,21.3514926 16.3408275,23.9906342 16.3408275,26.6833157 L16.3408275,26.7487912 C16.3411675,30.1954645 13.5460282,33 10.1101449,33 L10.1101449,33 Z" id="Shape"></path>
                <path d="M13,2 C12.7358343,2 12.4790934,1.89294779 12.2926925,1.70697397 C12.1066823,1.51982802 12,1.26313729 12,0.999804662 C12,0.736862709 12.1066823,0.478999749 12.2926925,0.293026028 C12.4790934,0.105880078 12.7358343,0 13,0 C13.2629933,0 13.5209066,0.105880078 13.7069167,0.293026028 C13.8929269,0.478999749 14,0.736081257 14,0.999804662 C14,1.26313729 13.8929269,1.52100015 13.7069167,1.70697397 C13.5209066,1.89294779 13.2629933,2 13,2 Z" id="Shape"></path>
                <path d="M7.99980466,2 C7.73686271,2 7.47899985,1.89294779 7.29302603,1.70697397 C7.10705221,1.52100015 7,1.26313729 7,1.00019534 C7,0.736862609 7.10705221,0.478999749 7.29302603,0.293025928 C7.47899985,0.107052107 7.73686271,0 7.99980466,0 C8.26391874,0 8.52100025,0.107052107 8.70697397,0.293025928 C8.89294789,0.478999749 9,0.736862609 9,1.00019534 C9,1.26313729 8.89294789,1.52100015 8.70697397,1.70697397 C8.52100025,1.89294779 8.26391874,2 7.99980466,2 Z" id="Shape"></path>
                <path d="M4,4 C3.73700661,4 3.47909336,3.89294789 3.29308319,3.70697397 C3.10668228,3.52100025 3,3.26313729 3,3.00019534 C3,2.73725339 3.10668228,2.47899985 3.29308319,2.29302603 C3.47909336,2.10705221 3.73700661,2 4,2 C4.26299339,2 4.52090664,2.10705221 4.70691681,2.29302603 C4.89292697,2.47899985 5,2.73725339 5,3.00019534 C5,3.26313729 4.89331772,3.52100025 4.70691681,3.70697397 C4.52090664,3.89294789 4.26299339,4 4,4 Z" id="Shape"></path>
                <path d="M0.999804662,7 C0.736862709,7 0.478999749,6.89294779 0.293026028,6.70580184 C0.107052107,6.51982802 0,6.26313729 0,6.00019534 C0,5.73608126 0.107052107,5.4782184 0.293026028,5.2918538 C0.478999749,5.10588008 0.736862709,5 0.999804662,5 C1.26313729,5 1.52100015,5.10588008 1.70697397,5.2918538 C1.89294779,5.4782184 2,5.73608126 2,6.00019534 C2,6.26313729 1.89294779,6.52100015 1.70697397,6.70580184 C1.52100015,6.89294779 1.26313729,7 0.999804662,7 Z" id="Shape"></path>
                <path d="M18.9948384,6 C18.4865435,6 17.9718528,5.87065374 17.500586,5.59848764 C16.8068139,5.19798574 16.3106373,4.5505808 16.1032799,3.7765243 C15.8962592,3.00246772 16.0026308,2.19371676 16.402871,1.49982796 C17.2299442,0.066913859 19.0672116,-0.425881948 20.4991894,0.401395187 C21.1929614,0.80189709 21.6891381,1.44930204 21.8964955,2.22335862 C22.1038529,2.99741511 21.9974813,3.80616615 21.5969044,4.50039177 C21.0421561,5.46173088 20.031962,6 18.9948384,6 Z M17.8951036,2.36179956 C17.7247744,2.65687063 17.6796674,3.00112036 17.7678616,3.33021226 C17.8560558,3.65964107 18.067116,3.93483869 18.3619944,4.10527938 C18.971275,4.45761317 19.7529047,4.24776231 20.1046717,3.63808336 C20.2750011,3.3430122 20.320108,2.99909929 20.2319138,2.66967057 C20.1440562,2.34024185 19.9326593,2.06504414 19.637781,1.89460353 C19.0288369,1.54260657 18.2468706,1.75212052 17.8951036,2.36179956 Z" id="Shape"></path>
                <path d="M30.3102811,45 C29.7648676,45 29.2119075,44.9285069 28.6634068,44.78034 C27.0408873,44.3427469 25.6849002,43.2952174 24.8451692,41.8304722 C24.0054383,40.3660722 23.7821275,38.6599082 24.2170861,37.0262733 L24.2338945,36.9627239 C24.9346994,34.3285309 25.1446321,31.6176641 24.8568322,28.9061066 L24.7275108,27.6865792 C24.5755498,26.2546447 24.6863476,24.823401 25.0564741,23.4325665 C26.2865702,18.8107269 31.0210337,16.0584149 35.6114259,17.2965927 C40.2014749,18.5351158 42.9354029,23.3023592 41.7053068,27.9238535 L41.6891845,27.9846399 C40.3688722,32.94564 38.3271734,37.6693659 35.6210306,42.0235381 C34.447191,43.9124068 32.4360216,45 30.3102811,45 L30.3102811,45 Z M26.6028414,28.7182213 C26.9132812,31.6473666 26.6868831,34.574785 25.9298218,37.4200035 L25.9130134,37.4838983 C25.5998294,38.6612897 25.7603662,39.890833 26.3658095,40.9466515 C26.9709098,42.0021247 27.9481947,42.7571195 29.117575,43.0727944 C31.0539644,43.595005 33.0692501,42.7964926 34.1326349,41.0854932 C36.7465034,36.8801786 38.7182246,32.3184347 39.9932573,27.5263242 L40.0097226,27.4658831 C40.9887227,23.7862329 38.811871,19.9901906 35.1572576,19.0041382 C31.5019581,18.0180859 27.7320875,20.2098506 26.7527443,23.8898462 C26.4385314,25.0696552 26.3445418,26.2840018 26.4735201,27.498694 L26.6028414,28.7182213 Z" id="Shape"></path>
                <path d="M34,14 C33.7370067,14 33.4790934,13.8929479 33.2930833,13.7069741 C33.1070731,13.5210002 33,13.2643094 33,13.0001954 C33,12.7372533 33.1066823,12.4789998 33.2930833,12.2930259 C33.4790934,12.1070521 33.7370067,12 34,12 C34.2629933,12 34.5212974,12.1070521 34.7069167,12.2930259 C34.8929269,12.4789998 35,12.7372533 35,13.0001954 C35,13.2643094 34.8933177,13.5210002 34.7069167,13.7069741 C34.5212974,13.8929479 34.2629933,14 34,14 Z" id="Shape"></path>
                <path d="M38.9998047,15 C38.7356906,15 38.4789997,14.8929478 38.2918539,14.706974 C38.1058801,14.5210002 38,14.2631373 38,14.0001953 C38,13.7368626 38.1058801,13.4789998 38.2918539,13.2930259 C38.4778277,13.1070522 38.7356906,13 38.9998047,13 C39.2627466,13 39.519828,13.1070522 39.7058019,13.2930259 C39.8929478,13.4789998 40,13.7368626 40,14.0001953 C40,14.2631373 39.8929478,14.5210002 39.7058019,14.706974 C39.519828,14.8929478 39.2627466,15 38.9998047,15 Z" id="Shape"></path>
                <path d="M42.0001954,18 C41.7368626,18 41.4789998,17.8929478 41.2930259,17.7069741 C41.1070521,17.5210002 41,17.2631374 41,17.0001953 C41,16.7372534 41.1070521,16.4789998 41.2930259,16.293026 C41.4789998,16.1070522 41.7360813,16 42.0001954,16 C42.2631374,16 42.5210002,16.1070522 42.7069741,16.293026 C42.8929479,16.4789998 43,16.7372534 43,17.0001953 C43,17.2631374 42.8929479,17.5210002 42.7069741,17.7069741 C42.5210002,17.8929478 42.2631374,18 42.0001954,18 Z" id="Shape"></path>
                <path d="M43.9998047,22 C43.7368627,22 43.4789998,21.8937292 43.293026,21.7077554 C43.1070522,21.5210002 43,21.2627467 43,20.9998046 C43,20.7368626 43.1066615,20.4797811 43.293026,20.2930259 C43.4789998,20.1070521 43.7368627,20 43.9998047,20 C44.2627466,20 44.5210003,20.1070521 44.7065833,20.2930259 C44.8925572,20.4797811 45,20.7368626 45,20.9998046 C45,21.2627467 44.8929479,21.5210002 44.7065833,21.7077554 C44.5210003,21.8937292 44.2627466,22 43.9998047,22 Z" id="Shape"></path>
                <path d="M26.9952866,16 C26.4753865,16 25.9625575,15.8636706 25.500237,15.597071 C24.806251,15.1964984 24.3099215,14.5498597 24.1025002,13.7763169 C23.6745254,12.1790756 24.6261043,10.5316785 26.2235178,10.1035034 C26.9976437,9.89614816 27.8057787,10.0025188 28.4997645,10.4030914 C29.1937504,10.803664 29.6900799,11.4503027 29.8975012,12.2238455 C30.325476,13.8210868 29.3738972,15.4684838 27.7761471,15.896659 C27.5178806,15.9656652 27.2555734,16 26.9952866,16 L26.9952866,16 Z M27.0020211,11.7239712 C26.8912392,11.7239712 26.779784,11.7384457 26.6700123,11.7680679 C25.9901688,11.9498404 25.5854278,12.6506741 25.7675949,13.3303012 C25.8558164,13.6591747 26.0669415,13.9345263 26.3619109,14.1048538 C26.6572168,14.2751814 27.0010109,14.3206244 27.3299892,14.2320945 C28.0098327,14.0503221 28.4145737,13.3494882 28.2324065,12.6698612 C28.1445219,12.3409877 27.9330599,12.0656362 27.6380906,11.8953086 C27.4414445,11.7818691 27.223248,11.7239712 27.0020211,11.7239712 L27.0020211,11.7239712 Z" id="Shape"></path>
            </g>
        </g>
    </g>
</svg>