<?xml version="1.0" encoding="UTF-8"?>
<svg width="48px" height="34px" viewBox="0 0 48 34" version="1.1" xmlns="http://www.w3.org/2000/svg" xmlns:xlink="http://www.w3.org/1999/xlink">
    <!-- Generator: Sketch 57.1 (83088) - https://sketch.com -->
    <title>Page 1 Copy 5</title>
    <desc>Created with Sketch.</desc>
    <defs>
        <polygon id="path-1" points="0 33.4664753 47.5515031 33.4664753 47.5515031 0.50330954 0 0.50330954"></polygon>
    </defs>
    <g id="landing-toronto" stroke="none" stroke-width="1" fill="none" fill-rule="evenodd">
        <g id="HomeDesktop_Toronto-Copy-5" transform="translate(-162.000000, -838.000000)">
            <g id="paquete-1" transform="translate(6.000000, 574.000000)">
                <g id="actividades" transform="translate(154.000000, 257.000000)">
                    <g id="Page-1-Copy-5" transform="translate(2.000000, 7.000000)">
                        <polygon id="Fill-1" fill="#FFFFFF" points="0 33.6196336 1.26966602 33.6196336 1.26966602 0.655811674 0 0.655811674"></polygon>
                        <polygon id="Fill-2" fill="#FFFFFF" points="46.2824892 33.6196336 47.5515031 33.6196336 47.5515031 11.4405474 46.2824892 11.4405474"></polygon>
                        <g id="Group-8" transform="translate(0.000000, 0.153158)">
                            <path d="M1.26920954,17.4278967 L14.0454277,17.4278967 C15.9143865,17.4278967 17.4351164,16.2388525 17.4351164,14.7761707 C17.4351164,13.314145 15.9143865,12.1251009 14.0454277,12.1251009 L1.26920954,12.1251009 L1.26920954,17.4278967 Z M14.0454277,18.7048724 L0.634702587,18.7048724 C0.283865238,18.7048724 0.00019563421,18.419423 0.00019563421,18.0670407 L0.00019563421,11.486613 C0.00019563421,11.1342307 0.283865238,10.8481252 0.634702587,10.8481252 L14.0454277,10.8481252 C16.6141048,10.8481252 18.7041303,12.6100366 18.7041303,14.7761707 C18.7041303,16.9429609 16.6141048,18.7048724 14.0454277,18.7048724 Z" id="Fill-3" fill="#FFFFFF"></path>
                            <mask id="mask-2" fill="white">
                                <use xlink:href="#path-1"></use>
                            </mask>
                            <g id="Clip-6"></g>
                            <path d="M1.26901391,25.1320105 L21.439553,25.1320105 L21.439553,18.7051349 L1.26901391,18.7051349 L1.26901391,25.1320105 Z M22.07406,26.4096424 L0.634506953,26.4096424 C0.284321718,26.4096424 0,26.1228807 0,25.7704984 L0,18.066647 C0,17.7142647 0.284321718,17.4281592 0.634506953,17.4281592 L22.07406,17.4281592 C22.4248973,17.4281592 22.7085669,17.7142647 22.7085669,18.066647 L22.7085669,25.7704984 C22.7085669,26.1228807 22.4248973,26.4096424 22.07406,26.4096424 L22.07406,26.4096424 Z" id="Fill-5" fill="#FFFFFF" mask="url(#mask-2)"></path>
                            <path d="M22.7085669,25.1320105 L46.2824892,25.1320105 L46.2824892,18.7051349 L22.7085669,18.7051349 L22.7085669,25.1320105 Z M46.9169961,26.4096424 L22.07406,26.4096424 C21.7238747,26.4096424 21.4402051,26.1228807 21.4402051,25.7704984 L21.4402051,18.066647 C21.4402051,17.7142647 21.7238747,17.4281592 22.07406,17.4281592 L46.9169961,17.4281592 C47.2671814,17.4281592 47.5515031,17.7142647 47.5515031,18.066647 L47.5515031,25.7704984 C47.5515031,26.1228807 47.2671814,26.4096424 46.9169961,26.4096424 L46.9169961,26.4096424 Z" id="Fill-7" fill="#FFFFFF" mask="url(#mask-2)"></path>
                        </g>
                    </g>
                </g>
            </g>
        </g>
    </g>
</svg>