<?xml version="1.0" encoding="UTF-8"?>
<svg width="60px" height="69px" viewBox="0 0 60 69" version="1.1" xmlns="http://www.w3.org/2000/svg" xmlns:xlink="http://www.w3.org/1999/xlink">
    <!-- Generator: Sketch 57.1 (83088) - https://sketch.com -->
    <title>Group</title>
    <desc>Created with Sketch.</desc>
    <g id="Landing-Quebec" stroke="none" stroke-width="1" fill="none" fill-rule="evenodd">
        <g id="HomeDesktop_Quebec" transform="translate(-155.000000, -917.000000)" fill="#FFFFFF">
            <g id="Group" transform="translate(155.000000, 917.000000)">
                <path d="M23.2541211,28.1589654 L36.7000381,28.1589654 L36.7000381,31.9078235 L36.5850208,31.9078235 C36.8343633,31.9452976 37.0803841,32.0008339 37.3228754,32.0767163 L37.3228754,27.536128 L22.6312837,27.536128 L22.6312837,32.0939481 C22.8569585,32.0103841 23.1000727,31.9866125 23.3340519,31.9160242 C23.3387232,31.9146747 23.341526,31.9141557 23.345782,31.91291 C23.3468201,31.9114567 23.3483772,31.9094844 23.349519,31.9078235 L23.2541211,31.9078235 L23.2541211,28.1589654 Z" id="Fill-1"></path>
                <path d="M23.2541522,27.5361592 L36.7000692,27.5361592 L36.7000692,26.6757093 L23.2541522,26.6757093 L23.2541522,27.5361592 Z M22.6313149,28.1589965 L37.3229066,28.1589965 L37.3229066,26.052872 L22.6313149,26.052872 L22.6313149,28.1589965 Z" id="Fill-3"></path>
                <path d="M23.2541522,26.052872 L36.7000692,26.052872 L36.7000692,22.8533564 L23.2541522,22.8533564 L23.2541522,26.052872 Z M22.6313149,26.6757093 L37.3229066,26.6757093 L37.3229066,22.230519 L22.6313149,22.230519 L22.6313149,26.6757093 Z" id="Fill-5"></path>
                <path d="M25.7568166,22.2304152 L34.1974048,22.2304152 L34.1974048,17.4611419 L25.7568166,17.4611419 L25.7568166,22.2304152 Z M25.1339792,22.8532526 L34.8202422,22.8532526 L34.8202422,16.8383045 L25.1339792,16.8383045 L25.1339792,22.8532526 Z" id="Fill-6"></path>
                <path d="M25.7568166,16.8383045 L34.1974048,16.8383045 L34.1974048,16.2715225 L25.7568166,16.2715225 L25.7568166,16.8383045 Z M25.1339792,17.4611419 L34.8202422,17.4611419 L34.8202422,15.6486851 L25.1339792,15.6486851 L25.1339792,17.4611419 Z" id="Fill-7"></path>
                <path d="M27.6468166,15.6487889 L32.3074048,15.6487889 L32.3074048,13.7231834 L27.6468166,13.7231834 L27.6468166,15.6487889 Z M27.0239792,16.2716263 L32.9302422,16.2716263 L32.9302422,13.100346 L27.0239792,13.100346 L27.0239792,16.2716263 Z" id="Fill-8"></path>
                <path d="M27.6468166,25.0883045 L32.3074048,25.0883045 L32.3074048,23.8179239 L27.6468166,23.8179239 L27.6468166,25.0883045 Z M27.0239792,25.7111419 L32.9302422,25.7111419 L32.9302422,23.1950865 L27.0239792,23.1950865 L27.0239792,25.7111419 Z" id="Fill-9"></path>
                <path d="M23.2541522,25.0883045 L25.3460554,25.0883045 L25.3460554,23.8179239 L23.2541522,23.8179239 L23.2541522,25.0883045 Z M22.6313149,25.7111419 L25.9688927,25.7111419 L25.9688927,23.1950865 L22.6313149,23.1950865 L22.6313149,25.7111419 Z" id="Fill-10"></path>
                <path d="M34.6080623,25.0883045 L36.7000692,25.0883045 L36.7000692,23.8179239 L34.6080623,23.8179239 L34.6080623,25.0883045 Z M33.9852249,25.7111419 L37.3229066,25.7111419 L37.3229066,23.1950865 L33.9852249,23.1950865 L33.9852249,25.7111419 Z" id="Fill-11"></path>
                <path d="M58.8641211,36.7734602 L32.2068893,30.6712111 C32.4133599,30.7855017 32.6129792,30.9239792 32.8051246,31.0921453 C32.9494152,31.2184775 33.025609,31.3605882 33.0498997,31.503218 L56.0386194,36.7656747 L3.91553979,36.7656747 L26.3788962,31.6235294 C26.4291384,31.4609689 26.538654,31.3181315 26.7232215,31.2298962 C27.0779273,31.0605882 27.4132215,30.8516263 27.7608685,30.6680969 L1.09003806,36.7734602 C0.935574394,36.8088581 0.832287197,36.9546021 0.850038062,37.1120761 C0.867892734,37.2694464 1.00107612,37.3885121 1.15948443,37.3885121 L58.7946747,37.3885121 C58.953083,37.3885121 59.0862664,37.2694464 59.1041211,37.1120761 C59.121872,36.9546021 59.0185848,36.8088581 58.8641211,36.7734602" id="Fill-12"></path>
                <path d="M0.543415225,36.765654 L0.543415225,38.386173 L14.7914429,38.386173 C14.7753529,38.1614325 14.8440727,37.9289066 14.9966678,37.7633356 L1.1662526,37.7633356 L1.1662526,37.3884913 L58.7879481,37.3884913 L58.7879481,37.7633356 L44.9197474,37.7633356 C45.0741073,37.9239239 45.1421003,38.1575917 45.1227924,38.386173 L59.4107855,38.386173 L59.4107855,36.765654 L0.543415225,36.765654 Z" id="Fill-13"></path>
                <path d="M15.0107751,37.7633772 L2.0827474,37.7633772 L2.0827474,38.3042076 C2.3226436,38.2265606 2.59731488,38.2540692 2.8027474,38.3862145 L15.0471073,38.3862145 C14.959391,38.1943806 14.9475571,37.9655917 15.0107751,37.7633772" id="Fill-14"></path>
                <path d="M15.1525433,46.227436 C15.140917,46.1498927 15.132301,46.0720381 15.1265917,45.993872 C15.1162111,45.884564 15.1305363,45.7864671 15.1626125,45.6993737 L3.53922145,45.6993737 C3.57991349,45.8292353 3.58126298,45.9802734 3.52437716,46.1489585 C3.50382353,46.2099965 3.48088235,46.2674014 3.45534602,46.3222111 L15.1624048,46.3222111 C15.1578374,46.2912768 15.1534775,46.2602388 15.1525433,46.227436" id="Fill-15"></path>
                <path d="M6.89465398,43.1641349 L3.42088235,43.1641349 C3.38361592,43.3573183 3.3400173,43.5485294 3.29081315,43.7354844 C3.28603806,43.7535467 3.27980969,43.7698443 3.27430796,43.7869723 L6.9216436,43.7869723 C6.83901384,43.5925433 6.82427336,43.3647924 6.89465398,43.1641349" id="Fill-16"></path>
                <path d="M6.98353287,40.6288962 L3.37481315,40.6288962 C3.51796194,40.7962318 3.56841176,41.0303149 3.53467474,41.2517336 L6.9673391,41.2517336 C6.88855017,41.0579273 6.89986505,40.8292422 6.98353287,40.6288962" id="Fill-17"></path>
                <path d="M11.6731765,41.2181419 C11.6716194,41.2293529 11.6698547,41.240564 11.6682976,41.2517751 L15.1236955,41.2517751 C15.0723114,41.047692 15.042,40.8408062 15.0493702,40.6289377 L11.5817232,40.6289377 C11.6690242,40.8102872 11.7004775,41.0264118 11.6731765,41.2181419" id="Fill-18"></path>
                <path d="M15.2909481,43.6928304 C15.29209,43.6811003 15.2930242,43.669474 15.2941661,43.6578478 C15.293128,43.6579516 15.2919862,43.6580554 15.2909481,43.658263 C15.2906367,43.621827 15.2905329,43.5857024 15.2903253,43.5493702 C15.2837855,43.419301 15.2852388,43.2915156 15.2914671,43.1641453 L11.5844429,43.1641453 C11.5881799,43.182 11.5911903,43.1998547 11.5953426,43.2177093 C11.6434048,43.4269827 11.6123668,43.6242145 11.5246505,43.7869827 L15.2887682,43.7869827 C15.2885606,43.7562561 15.2877301,43.725737 15.2909481,43.6928304" id="Fill-19"></path>
                <path d="M14.9795294,61.381827 L3.83696886,61.381827 L3.83696886,53.9870865 L15.0780415,53.9870865 C15.0455502,53.7864291 15.0219862,53.585045 15.0140969,53.3813772 C15.0138893,53.375564 15.0149273,53.3700623 15.0148235,53.3642491 L3.21413149,53.3642491 L3.21413149,62.0046644 L14.9795294,62.0046644 L14.9795294,61.381827 Z" id="Fill-20"></path>
                <path d="M15.2293391,53.3642076 L3.83702076,53.3642076 L3.83702076,47.454 L15.2039066,47.454 C15.2291315,47.2458685 15.2619343,47.0382561 15.3018997,46.8311626 L3.21418339,46.8311626 L3.21418339,53.987045 L15.1874014,53.987045 C15.193526,53.7789135 15.2122111,53.5717163 15.2293391,53.3642076" id="Fill-21"></path>
                <path d="M15.1484948,46.8312145 L3.83693772,46.8312145 L3.83693772,46.3222526 L15.1468339,46.3222526 C15.1508824,46.1145363 15.1621972,45.9069239 15.1842042,45.6994152 L3.21410035,45.6994152 L3.21410035,47.4540519 L15.1683218,47.4540519 C15.1605363,47.2463356 15.1529585,47.0387232 15.1484948,46.8312145" id="Fill-22"></path>
                <path d="M3.83698962,64.7032526 L14.5806228,64.7032526 L14.5806228,63.1447059 L3.83698962,63.1447059 L3.83698962,64.7032526 Z M3.21415225,65.32609 L15.2034602,65.32609 L15.2034602,62.5218685 L3.21415225,62.5218685 L3.21415225,65.32609 Z" id="Fill-23"></path>
                <path d="M3.83698962,62.5218685 L14.5806228,62.5218685 L14.5806228,62.0047059 L3.83698962,62.0047059 L3.83698962,62.5218685 Z M3.21415225,63.1447059 L15.2034602,63.1447059 L15.2034602,61.3818685 L3.21415225,61.3818685 L3.21415225,63.1447059 Z" id="Fill-24"></path>
                <path d="M1.40211073,64.7032526 L3.21415225,64.7032526 L3.21415225,50.5893426 L1.40211073,50.5893426 L1.40211073,64.7032526 Z M0.779273356,65.32609 L3.83698962,65.32609 L3.83698962,49.9665052 L0.779273356,49.9665052 L0.779273356,65.32609 Z" id="Fill-25"></path>
                <path d="M0.764948097,49.9665052 L3.21415225,49.9665052 L3.21415225,49.1567128 L0.764948097,49.1567128 L0.764948097,49.9665052 Z M0.142110727,50.5893426 L3.83698962,50.5893426 L3.83698962,48.5338754 L0.142110727,48.5338754 L0.142110727,50.5893426 Z" id="Fill-26"></path>
                <path d="M1.40211073,48.5338754 L3.21415225,48.5338754 L3.21415225,47.454083 L1.40211073,47.454083 L1.40211073,48.5338754 Z M0.779273356,49.1567128 L3.83698962,49.1567128 L3.83698962,46.8312457 L0.779273356,46.8312457 L0.779273356,49.1567128 Z" id="Fill-27"></path>
                <path d="M0.62283737,46.8312457 L3.21415225,46.8312457 L3.21415225,46.3222837 L0.62283737,46.3222837 L0.62283737,46.8312457 Z M0,47.454083 L3.83698962,47.454083 L3.83698962,45.6994464 L0,45.6994464 L0,47.454083 Z" id="Fill-28"></path>
                <path d="M1.59799308,45.6993426 L3.19038062,45.6993426 L3.19038062,42.2685467 L1.59799308,42.2685467 L1.59799308,45.6993426 Z M0.975051903,46.3221799 L3.81311419,46.3221799 L3.81311419,41.6457093 L0.975051903,41.6457093 L0.975051903,46.3221799 Z" id="Fill-29"></path>
                <path d="M1.30806228,41.6458131 L3.48031142,41.6458131 L3.48031142,40.9651557 L1.30806228,40.9651557 L1.30806228,41.6458131 Z M0.685121107,42.2686505 L4.10304498,42.2686505 L4.10304498,40.3423183 L0.685121107,40.3423183 L0.685121107,42.2686505 Z" id="Fill-30"></path>
                <path d="M1.59799308,40.3423183 L3.19038062,40.3423183 L3.19038062,39.4159516 L1.59799308,39.4159516 L1.59799308,40.3423183 Z M0.975051903,40.9651557 L3.81311419,40.9651557 L3.81311419,38.7931142 L0.975051903,38.7931142 L0.975051903,40.9651557 Z" id="Fill-31"></path>
                <path d="M1.243391,38.7931142 L3.54487889,38.7931142 L3.54487889,38.3861938 L1.243391,38.3861938 L1.243391,38.7931142 Z M0.620449827,39.4159516 L4.16761246,39.4159516 L4.16761246,37.7633564 L0.620449827,37.7633564 L0.620449827,39.4159516 Z" id="Fill-32"></path>
                <path d="M7.1499654,60.1797924 L11.2676471,60.1797924 L11.2676471,55.4770588 L7.1499654,55.4770588 L7.1499654,60.1797924 Z M6.52712803,60.8026298 L11.8904844,60.8026298 L11.8904844,54.8542215 L6.52712803,54.8542215 L6.52712803,60.8026298 Z" id="Fill-33"></path>
                <polygon id="Fill-34" points="8.89733564 60.4912111 9.52017301 60.4912111 9.52017301 55.1656401 8.89733564 55.1656401"></polygon>
                <polygon id="Fill-35" points="6.83854671 58.0345329 11.5790657 58.0345329 11.5790657 57.4116955 6.83854671 57.4116955"></polygon>
                <path d="M7.1499654,44.5913149 L11.2676471,44.5913149 L11.2676471,39.8885813 L7.1499654,39.8885813 L7.1499654,44.5913149 Z M6.52712803,45.2141522 L11.8904844,45.2141522 L11.8904844,39.2657439 L6.52712803,39.2657439 L6.52712803,45.2141522 Z" id="Fill-36"></path>
                <polygon id="Fill-37" points="8.89733564 44.9027336 9.52017301 44.9027336 9.52017301 39.5771626 8.89733564 39.5771626"></polygon>
                <polygon id="Fill-38" points="6.83854671 42.4459516 11.5790657 42.4459516 11.5790657 41.8231142 6.83854671 41.8231142"></polygon>
                <path d="M8.15906574,52.3940138 L10.1489273,52.3940138 L10.1489273,48.3437024 L8.15906574,48.3437024 L8.15906574,52.3940138 Z M7.53622837,53.0168512 L10.7717647,53.0168512 L10.7717647,47.7208651 L7.53622837,47.7208651 L7.53622837,53.0168512 Z" id="Fill-39"></path>
                <polygon id="Fill-40" points="8.84252595 52.7054325 9.46536332 52.7054325 9.46536332 48.0322837 8.84252595 48.0322837"></polygon>
                <polygon id="Fill-41" points="7.84764706 50.5877855 10.460346 50.5877855 10.460346 49.9649481 7.84764706 49.9649481"></polygon>
                <path d="M5.11423183,53.3642076 L6.35409343,53.3642076 L6.19340138,47.4541038 L5.27471626,47.4541038 L5.11423183,53.3642076 Z M6.99405882,53.987045 L4.47426644,53.987045 L4.6686955,46.8312664 L6.79952595,46.8312664 L6.99405882,53.987045 Z" id="Fill-42"></path>
                <path d="M11.9538374,53.3642076 L13.193699,53.3642076 L13.0331107,47.4541038 L12.1143218,47.4541038 L11.9538374,53.3642076 Z M13.8336644,53.987045 L11.313872,53.987045 L11.508301,46.8312664 L13.6392353,46.8312664 L13.8336644,53.987045 Z" id="Fill-43"></path>
                <path d="M44.7717093,46.3222215 L56.672263,46.3222215 C56.6500484,46.2755087 56.6322976,46.2269273 56.6250311,46.1749204 C56.6153772,46.1058893 56.6071765,46.0367543 56.5986644,45.9677232 L56.5972111,45.9679308 C56.5974187,45.9659585 56.5977301,45.9639862 56.5979377,45.9620138 C56.5872457,45.8745052 56.5766574,45.7869965 56.566173,45.6993841 L44.7502215,45.6993841 C44.7675571,45.760526 44.7804291,45.824263 44.7892526,45.8900761 C44.8044083,46.0041592 44.8007751,46.1138824 44.7856194,46.2232941 C44.7828166,46.2575502 44.7781453,46.2904567 44.7717093,46.3222215" id="Fill-44"></path>
                <path d="M44.9349446,37.7633772 C45.0710346,37.9551073 45.0956367,38.1755917 45.0389585,38.3862145 L56.1453945,38.3862145 C56.1802734,38.3199862 56.2251176,38.2580138 56.2802388,38.2028927 C56.2888547,38.194173 56.2975744,38.1855571 56.3061903,38.1769412 C56.5042526,37.9788789 56.7898235,37.9124429 57.0475744,37.9759723 C57.0532837,37.9758685 57.058474,37.9748304 57.0642872,37.9748304 C57.0664671,37.9748304 57.0685433,37.9751419 57.0707232,37.9751419 C57.2999273,37.8325121 57.6170554,37.8553495 57.8714844,38.0024429 L57.8714844,37.7633772 L44.9349446,37.7633772 Z" id="Fill-45"></path>
                <path d="M48.5295467,43.1641349 L44.7259827,43.1641349 C44.7333529,43.2108478 44.7377128,43.2599481 44.7372976,43.3121626 C44.7362595,43.4723356 44.7262941,43.6302249 44.7062595,43.7869723 L48.5377474,43.7869723 C48.4795121,43.6403979 48.4632145,43.472128 48.5021419,43.2955536 C48.5114844,43.2534083 48.5206194,43.2092907 48.5295467,43.1641349" id="Fill-46"></path>
                <path d="M45.1017924,40.6288962 C45.0947336,40.7398651 45.0664983,40.8552976 45.0115848,40.9715606 C44.9638339,41.0728754 44.9104775,41.1642249 44.8571211,41.2517336 L48.4739377,41.2517336 C48.3998201,41.0405917 48.3893356,40.8203149 48.4624152,40.6288962 L45.1017924,40.6288962 Z" id="Fill-47"></path>
                <path d="M53.1679204,41.2517336 L56.2728685,41.2517336 C56.2605156,41.0261626 56.3504118,40.7960242 56.5041488,40.6288962 L53.0542526,40.6288962 C53.1300311,40.8027716 53.1675052,41.0042595 53.1680242,41.2283772 C53.1680242,41.2361626 53.1679204,41.2439481 53.1679204,41.2517336" id="Fill-48"></path>
                <path d="M56.5211834,43.6329239 C56.5373772,43.5507093 56.5458893,43.4667301 56.5507682,43.382128 C56.5400761,43.3097751 56.5326021,43.2371107 56.5269965,43.1641349 L53.1290035,43.1641349 C53.1258893,43.2510208 53.1229827,43.3380104 53.1196609,43.4246886 C53.1145744,43.5577682 53.0804221,43.6802595 53.0236401,43.7869723 L56.5048858,43.7869723 C56.5059239,43.7372491 56.510699,43.6860727 56.5211834,43.6329239" id="Fill-49"></path>
                <path d="M44.7658339,53.3642076 C44.7851419,53.4231696 44.7993633,53.4862837 44.806526,53.5543806 C44.8215779,53.6985675 44.8332042,53.8427543 44.8426505,53.987045 L56.1172526,53.987045 L56.1172526,61.3817855 L44.9572526,61.3817855 C45.0146574,61.4863183 45.0487059,61.6108858 45.0487059,61.7550727 L45.0487059,62.0046228 L56.74009,62.0046228 L56.74009,53.3642076 L44.7658339,53.3642076 Z" id="Fill-50"></path>
                <path d="M44.712301,46.8312145 C44.7327509,46.9068893 44.7419896,46.9909723 44.7373183,47.0838789 C44.7311938,47.2072007 44.7268339,47.3306263 44.7213322,47.4540519 L56.1171799,47.4540519 L56.1171799,53.3642595 L44.6800173,53.3642595 C44.7193599,53.5721834 44.7663841,53.7784464 44.7933737,53.9870969 L56.7400173,53.9870969 L56.7400173,46.8312145 L44.712301,46.8312145 Z" id="Fill-51"></path>
                <path d="M44.7014325,45.6993841 C44.7404637,45.9052318 44.7688028,46.1134671 44.7817785,46.3222215 L56.1172111,46.3222215 L56.1172111,46.8311834 L44.7789758,46.8311834 C44.7636125,47.0324637 44.7318478,47.2324983 44.6748581,47.4292111 C44.6723668,47.437827 44.6684221,47.4456125 44.6656194,47.4540208 L56.7400484,47.4540208 L56.7400484,45.6993841 L44.7014325,45.6993841 Z" id="Fill-52"></path>
                <path d="M45.3734948,64.7032526 L56.117128,64.7032526 L56.117128,63.1447059 L45.3734948,63.1447059 L45.3734948,64.7032526 Z M44.7507612,65.32609 L56.7400692,65.32609 L56.7400692,62.5218685 L44.7507612,62.5218685 L44.7507612,65.32609 Z" id="Fill-53"></path>
                <path d="M45.3734948,62.5218685 L56.117128,62.5218685 L56.117128,62.0047059 L45.3734948,62.0047059 L45.3734948,62.5218685 Z M44.7507612,63.1447059 L56.7400692,63.1447059 L56.7400692,61.3818685 L44.7507612,61.3818685 L44.7507612,63.1447059 Z" id="Fill-54"></path>
                <path d="M56.7400692,64.7032526 L58.5520069,64.7032526 L58.5520069,50.5893426 L56.7400692,50.5893426 L56.7400692,64.7032526 Z M56.1172318,65.32609 L59.1748443,65.32609 L59.1748443,49.9665052 L56.1172318,49.9665052 L56.1172318,65.32609 Z" id="Fill-55"></path>
                <path d="M56.7400692,49.9665052 L59.1892734,49.9665052 L59.1892734,49.1567128 L56.7400692,49.1567128 L56.7400692,49.9665052 Z M56.1172318,50.5893426 L59.8121107,50.5893426 L59.8121107,48.5338754 L56.1172318,48.5338754 L56.1172318,50.5893426 Z" id="Fill-56"></path>
                <path d="M56.7400692,48.5338754 L58.5520069,48.5338754 L58.5520069,47.454083 L56.7400692,47.454083 L56.7400692,48.5338754 Z M56.1172318,49.1567128 L59.1748443,49.1567128 L59.1748443,46.8312457 L56.1172318,46.8312457 L56.1172318,49.1567128 Z" id="Fill-57"></path>
                <path d="M56.7400692,46.8312457 L59.3312803,46.8312457 L59.3312803,46.3222837 L56.7400692,46.3222837 L56.7400692,46.8312457 Z M56.1172318,47.454083 L59.9541176,47.454083 L59.9541176,45.6994464 L56.1172318,45.6994464 L56.1172318,47.454083 Z" id="Fill-58"></path>
                <path d="M56.7638408,45.6993426 L58.3562284,45.6993426 L58.3562284,42.2685467 L56.7638408,42.2685467 L56.7638408,45.6993426 Z M56.1410035,46.3221799 L58.9790657,46.3221799 L58.9790657,41.6457093 L56.1410035,41.6457093 L56.1410035,46.3221799 Z" id="Fill-59"></path>
                <path d="M56.47391,41.6458131 L58.6460554,41.6458131 L58.6460554,40.9651557 L56.47391,40.9651557 L56.47391,41.6458131 Z M55.8511765,42.2686505 L59.2689965,42.2686505 L59.2689965,40.3423183 L55.8511765,40.3423183 L55.8511765,42.2686505 Z" id="Fill-60"></path>
                <path d="M56.7638408,40.3423183 L58.3562284,40.3423183 L58.3562284,39.4159516 L56.7638408,39.4159516 L56.7638408,40.3423183 Z M56.1410035,40.9651557 L58.9790657,40.9651557 L58.9790657,38.7931142 L56.1410035,38.7931142 L56.1410035,40.9651557 Z" id="Fill-61"></path>
                <path d="M56.4093426,38.7931142 L58.7107266,38.7931142 L58.7107266,38.3861938 L56.4093426,38.3861938 L56.4093426,38.7931142 Z M55.7865052,39.4159516 L59.333564,39.4159516 L59.333564,37.7633564 L55.7865052,37.7633564 L55.7865052,39.4159516 Z" id="Fill-62"></path>
                <path d="M48.6865744,60.1797924 L52.8042561,60.1797924 L52.8042561,55.4770588 L48.6865744,55.4770588 L48.6865744,60.1797924 Z M48.063737,60.8026298 L53.4269896,60.8026298 L53.4269896,54.8542215 L48.063737,54.8542215 L48.063737,60.8026298 Z" id="Fill-63"></path>
                <polygon id="Fill-64" points="50.4339446 60.4912111 51.056782 60.4912111 51.056782 55.1656401 50.4339446 55.1656401"></polygon>
                <polygon id="Fill-65" points="48.3750519 58.0345329 53.1155709 58.0345329 53.1155709 57.4116955 48.3750519 57.4116955"></polygon>
                <path d="M48.6865744,44.5913149 L52.8042561,44.5913149 L52.8042561,39.8885813 L48.6865744,39.8885813 L48.6865744,44.5913149 Z M48.063737,45.2141522 L53.4269896,45.2141522 L53.4269896,39.2657439 L48.063737,39.2657439 L48.063737,45.2141522 Z" id="Fill-66"></path>
                <polygon id="Fill-67" points="50.4339446 44.9027336 51.056782 44.9027336 51.056782 39.5771626 50.4339446 39.5771626"></polygon>
                <polygon id="Fill-68" points="48.3750519 42.4459516 53.1155709 42.4459516 53.1155709 41.8231142 48.3750519 41.8231142"></polygon>
                <path d="M49.8051903,52.3940138 L51.7950519,52.3940138 L51.7950519,48.3437024 L49.8051903,48.3437024 L49.8051903,52.3940138 Z M49.1824567,53.0168512 L52.4179931,53.0168512 L52.4179931,47.7208651 L49.1824567,47.7208651 L49.1824567,53.0168512 Z" id="Fill-69"></path>
                <polygon id="Fill-70" points="50.4887543 52.7054325 51.1115917 52.7054325 51.1115917 48.0322837 50.4887543 48.0322837"></polygon>
                <polygon id="Fill-71" points="49.4938754 50.5877855 52.1065744 50.5877855 52.1065744 49.9649481 49.4938754 49.9649481"></polygon>
                <path d="M53.6001073,53.3642076 L54.8399689,53.3642076 L54.6793806,47.4541038 L53.7606955,47.4541038 L53.6001073,53.3642076 Z M55.4799343,53.987045 L52.9601419,53.987045 L53.1545709,46.8312664 L55.2855052,46.8312664 L55.4799343,53.987045 Z" id="Fill-72"></path>
                <path d="M46.7604498,53.3642076 L48.0003114,53.3642076 L47.8397232,47.4541038 L46.9210381,47.4541038 L46.7604498,53.3642076 Z M48.6402768,53.987045 L46.1204844,53.987045 L46.3149135,46.8312664 L48.4458478,46.8312664 L48.6402768,53.987045 Z" id="Fill-73"></path>
                <path d="M16.4298478,39.6822664 L43.2578408,39.6822664 C43.3636194,39.6276644 43.4930657,39.5996367 43.6473218,39.6098097 C43.8709204,39.6245502 44.0798824,39.651955 44.2718201,39.7098789 L44.2718201,39.0594291 L15.6824429,39.0594291 L15.6824429,39.50891 C15.9206782,39.4351038 16.1933772,39.4690484 16.4297439,39.6820588 C16.4297439,39.6821626 16.4298478,39.6822664 16.4298478,39.6822664" id="Fill-74"></path>
                <path d="M43.234609,64.9681349 C43.1733633,64.8884118 43.1385882,64.7976851 43.1249896,64.7032215 L16.5888997,64.7032215 C16.5003529,64.9224602 16.4037093,65.1428408 16.2746782,65.3260588 L43.4916332,65.3260588 C43.4088997,65.2048131 43.3244014,65.0848131 43.234609,64.9681349" id="Fill-75"></path>
                <path d="M22.4778062,64.7032215 L24.6849343,64.7032215 L24.6849343,57.8830484 C24.6953149,57.4248478 24.5717855,57.0544671 24.3278408,56.8048131 C24.130609,56.6031176 23.8654879,56.4918374 23.5812664,56.4918374 C23.2971488,56.4918374 23.0320277,56.6031176 22.8347958,56.8048131 C22.5908512,57.0543633 22.4673218,57.4248478 22.4777024,57.8758858 L22.4778062,64.7032215 Z M25.3077716,65.3260588 L21.8549689,65.3260588 L21.8549689,57.8830484 C21.8370104,57.1036713 22.1356609,56.629173 22.3893633,56.3695536 C22.7047266,56.0467163 23.1280484,55.869 23.5812664,55.869 C24.0345882,55.869 24.45791,56.0467163 24.7732734,56.3695536 C25.0269758,56.629173 25.3257301,57.1036713 25.3076678,57.8901073 L25.3077716,65.3260588 Z" id="Fill-76"></path>
                <path d="M21.5639273,53.8639827 L19.910917,53.8639827 C20.0221972,54.0519758 20.0869723,54.2634291 20.1207093,54.4868201 L20.9514706,54.4868201 L21.1224394,64.7032215 L19.9222318,64.7032215 C19.9139273,64.8854014 19.905,65.0676851 19.8930623,65.2499689 C19.8912976,65.276128 19.8879758,65.3012491 19.8842388,65.3260588 L21.7557612,65.3260588 L21.5639273,53.8639827 Z" id="Fill-77"></path>
                <path d="M26.1674325,64.7032215 L27.454526,64.7032215 L27.2835571,54.4868201 L26.3381938,54.4868201 L26.1674325,64.7032215 Z M28.0879516,65.3260588 L25.5340069,65.3260588 L25.725737,53.8639827 L27.8961176,53.8639827 L28.0879516,65.3260588 Z" id="Fill-78"></path>
                <path d="M28.8099862,64.7032215 L31.0171142,64.7032215 L31.0171142,57.8830484 C31.0274948,57.4248478 30.9039654,57.0544671 30.6600208,56.8048131 C30.4627889,56.6031176 30.1976678,56.4918374 29.9134464,56.4918374 C29.6293287,56.4918374 29.3642076,56.6031176 29.1669758,56.8048131 C28.9230311,57.0543633 28.7995017,57.4248478 28.8098824,57.8758858 L28.8099862,64.7032215 Z M31.6399516,65.3260588 L28.1871488,65.3260588 L28.1871488,57.8830484 C28.1691903,57.1036713 28.4678408,56.629173 28.7215433,56.3695536 C29.0369066,56.0467163 29.4602284,55.869 29.9134464,55.869 C30.3667682,55.869 30.79009,56.0467163 31.1054533,56.3695536 C31.3591557,56.629173 31.65791,57.1036713 31.6398478,57.8901073 L31.6399516,65.3260588 Z" id="Fill-79"></path>
                <path d="M32.4996125,64.7032215 L33.7867059,64.7032215 L33.615737,54.4868201 L32.6704775,54.4868201 L32.4996125,64.7032215 Z M34.4201315,65.3260588 L31.8661869,65.3260588 L32.057917,53.8639827 L34.2282976,53.8639827 L34.4201315,65.3260588 Z" id="Fill-80"></path>
                <path d="M35.1421661,64.7032215 L37.3492941,64.7032215 L37.3492941,57.8830484 C37.3596747,57.4248478 37.2361453,57.0544671 36.9922007,56.8048131 C36.7949689,56.6031176 36.5298478,56.4918374 36.2456263,56.4918374 C35.9615087,56.4918374 35.6963875,56.6031176 35.4991557,56.8048131 C35.2552111,57.0543633 35.1316817,57.4248478 35.1420623,57.8758858 L35.1421661,64.7032215 Z M37.9721315,65.3260588 L34.5193287,65.3260588 L34.5193287,57.8830484 C34.5013702,57.1036713 34.8000208,56.629173 35.0537232,56.3695536 C35.3690865,56.0467163 35.7924083,55.869 36.2456263,55.869 C36.6989481,55.869 37.1222699,56.0467163 37.4376332,56.3695536 C37.6913356,56.629173 37.99009,57.1036713 37.9720277,57.8901073 L37.9721315,65.3260588 Z" id="Fill-81"></path>
                <path d="M38.8317924,64.7032215 L40.1188858,64.7032215 L39.947917,54.4868201 L39.0026574,54.4868201 L38.8317924,64.7032215 Z M40.7523114,65.3260588 L38.1983668,65.3260588 L38.3900969,53.8639827 L40.5604775,53.8639827 L40.7523114,65.3260588 Z" id="Fill-82"></path>
                <path d="M19.9206228,53.8640138 L40.0334948,53.8640138 L40.0334948,53.0495502 L19.9206228,53.0495502 L19.9206228,53.8640138 Z M19.2977855,54.4868512 L40.6563322,54.4868512 L40.6563322,52.4267128 L19.2977855,52.4267128 L19.2977855,54.4868512 Z" id="Fill-83"></path>
                <path d="M40.0432422,51.7000692 C40.0555952,51.5229758 40.0640035,51.3453633 40.0660796,51.1669204 C40.066391,51.1356747 40.0698166,51.1065052 40.0730346,51.0772318 L19.7551453,51.0772318 C19.766045,51.2848443 19.7726886,51.4924567 19.7776713,51.7000692 L40.0432422,51.7000692 Z" id="Fill-84"></path>
                <path d="M39.9325017,52.4267128 L19.7882803,52.4267128 C19.7890069,52.5719377 19.7892145,52.7171626 19.7892145,52.8623875 C19.7892145,52.9154325 19.784128,52.9649481 19.7760311,53.0123875 C19.7765502,53.0247405 19.776654,53.0371972 19.777173,53.0495502 L39.8725017,53.0495502 C39.8876574,52.8414187 39.9070692,52.6337024 39.9325017,52.4267128" id="Fill-85"></path>
                <path d="M1.35456747,67.7207958 L58.5994464,67.7207958 L58.5994464,65.32609 L1.35456747,65.32609 L1.35456747,67.7207958 Z M0.73183391,68.3436332 L59.2223875,68.3436332 L59.2223875,64.7032526 L0.73183391,64.7032526 L0.73183391,68.3436332 Z" id="Fill-86"></path>
                <path d="M20.3885813,67.7207958 L39.5655363,67.7207958 L39.5655363,65.32609 L20.3885813,65.32609 L20.3885813,67.7207958 Z M19.7657439,68.3436332 L40.1883737,68.3436332 L40.1883737,64.7032526 L19.7657439,64.7032526 L19.7657439,68.3436332 Z" id="Fill-87"></path>
                <path d="M20.3885813,67.7207958 L39.5655363,67.7207958 L39.5655363,66.8349135 L20.3885813,66.8349135 L20.3885813,67.7207958 Z M19.7657439,68.3436332 L40.1883737,68.3436332 L40.1883737,66.2120761 L19.7657439,66.2120761 L19.7657439,68.3436332 Z" id="Fill-88"></path>
                <path d="M15.155917,64.7032526 L19.7657439,64.7032526 L19.7657439,62.0047059 L15.155917,62.0047059 L15.155917,64.7032526 Z M14.5330796,65.32609 L20.3885813,65.32609 L20.3885813,61.3818685 L14.5330796,61.3818685 L14.5330796,65.32609 Z" id="Fill-89"></path>
                <path d="M15.155917,61.3818685 L19.7657439,61.3818685 L19.7657439,60.3566782 L15.155917,60.3566782 L15.155917,61.3818685 Z M14.5330796,62.0047059 L20.3885813,62.0047059 L20.3885813,59.7338408 L14.5330796,59.7338408 L14.5330796,62.0047059 Z" id="Fill-90"></path>
                <path d="M15.155917,59.7338408 L19.7657439,59.7338408 L19.7657439,58.0414879 L15.155917,58.0414879 L15.155917,59.7338408 Z M14.5330796,60.3566782 L20.3885813,60.3566782 L20.3885813,57.4186505 L14.5330796,57.4186505 L14.5330796,60.3566782 Z" id="Fill-91"></path>
                <path d="M15.155917,57.4186505 L19.7657439,57.4186505 L19.7657439,57.0553287 L15.155917,57.0553287 L15.155917,57.4186505 Z M14.5330796,58.0414879 L20.3885813,58.0414879 L20.3885813,56.4324913 L14.5330796,56.4324913 L14.5330796,58.0414879 Z" id="Fill-92"></path>
                <path d="M15.155917,40.75609 L19.7657439,40.75609 L19.7657439,39.6822145 L15.155917,39.6822145 L15.155917,40.75609 Z M14.5330796,41.3789273 L20.3885813,41.3789273 L20.3885813,39.0593772 L14.5330796,39.0593772 L14.5330796,41.3789273 Z" id="Fill-93"></path>
                <path d="M18.2640727,56.432481 L19.5545917,56.432481 L19.380301,41.378917 L18.4381557,41.378917 L18.2640727,56.432481 Z M20.1845917,57.0553183 L17.6340727,57.0553183 L17.822481,40.7560796 L19.9959758,40.7560796 L20.1845917,57.0553183 Z" id="Fill-94"></path>
                <path d="M15.3671211,56.432481 L16.6576401,56.432481 L16.4834533,41.378917 L15.5412042,41.378917 L15.3671211,56.432481 Z M17.2876401,57.0553183 L14.7371211,57.0553183 L14.9256332,40.7560796 L17.099128,40.7560796 L17.2876401,57.0553183 Z" id="Fill-95"></path>
                <path d="M40.1883737,64.7032526 L44.7983045,64.7032526 L44.7983045,62.0047059 L40.1883737,62.0047059 L40.1883737,64.7032526 Z M39.5655363,65.32609 L45.4211419,65.32609 L45.4211419,61.3818685 L39.5655363,61.3818685 L39.5655363,65.32609 Z" id="Fill-96"></path>
                <path d="M40.1883737,61.3818685 L44.7983045,61.3818685 L44.7983045,60.3566782 L40.1883737,60.3566782 L40.1883737,61.3818685 Z M39.5655363,62.0047059 L45.4211419,62.0047059 L45.4211419,59.7338408 L39.5655363,59.7338408 L39.5655363,62.0047059 Z" id="Fill-97"></path>
                <path d="M40.1883737,59.7338408 L44.7983045,59.7338408 L44.7983045,58.0414879 L40.1883737,58.0414879 L40.1883737,59.7338408 Z M39.5655363,60.3566782 L45.4211419,60.3566782 L45.4211419,57.4186505 L39.5655363,57.4186505 L39.5655363,60.3566782 Z" id="Fill-98"></path>
                <path d="M40.1883737,57.4186505 L44.7983045,57.4186505 L44.7983045,57.0553287 L40.1883737,57.0553287 L40.1883737,57.4186505 Z M39.5655363,58.0414879 L45.4211419,58.0414879 L45.4211419,56.4324913 L39.5655363,56.4324913 L39.5655363,58.0414879 Z" id="Fill-99"></path>
                <path d="M40.1883737,40.75609 L44.7983045,40.75609 L44.7983045,39.6822145 L40.1883737,39.6822145 L40.1883737,40.75609 Z M39.5655363,41.3789273 L45.4211419,41.3789273 L45.4211419,39.0593772 L39.5655363,39.0593772 L39.5655363,41.3789273 Z" id="Fill-100"></path>
                <path d="M43.2965294,56.432481 L44.5870484,56.432481 L44.4128616,41.378917 L43.4706125,41.378917 L43.2965294,56.432481 Z M45.2170484,57.0553183 L42.6665294,57.0553183 L42.8549377,40.7560796 L45.0285363,40.7560796 L45.2170484,57.0553183 Z" id="Fill-101"></path>
                <path d="M40.3996298,56.432481 L41.6901488,56.432481 L41.5158581,41.378917 L40.5737128,41.378917 L40.3996298,56.432481 Z M42.3201488,57.0553183 L39.7696298,57.0553183 L39.9581419,40.7560796 L42.1315329,40.7560796 L42.3201488,57.0553183 Z" id="Fill-102"></path>
                <path d="M15.155917,39.059481 L44.7983045,39.059481 L44.7983045,37.3885121 L15.155917,37.3885121 L15.155917,39.059481 Z M14.5330796,39.6823183 L45.4211419,39.6823183 L45.4211419,36.7656747 L14.5330796,36.7656747 L14.5330796,39.6823183 Z" id="Fill-103"></path>
                <path d="M17.2233218,36.765654 L42.7308997,36.765654 L29.9770588,29.9784913 L17.2233218,36.765654 Z M45.2269204,37.3884913 L14.7270934,37.3884913 L29.9770588,29.2729204 L45.2269204,37.3884913 Z" id="Fill-104"></path>
                <path d="M20.6504948,36.765654 L39.3036436,36.765654 L29.9770692,31.8023668 L20.6504948,36.765654 Z M41.7997682,37.3884913 L18.1543702,37.3884913 L29.9770692,31.0967958 L41.7997682,37.3884913 Z" id="Fill-105"></path>
                <path d="M27.9182699,50.073737 L32.0359516,50.073737 L32.0359516,45.3710035 L27.9182699,45.3710035 L27.9182699,50.073737 Z M27.2953287,50.6965744 L32.6586851,50.6965744 L32.6586851,44.7481661 L27.2953287,44.7481661 L27.2953287,50.6965744 Z" id="Fill-106"></path>
                <polygon id="Fill-107" points="29.6656401 50.3851557 30.2884775 50.3851557 30.2884775 45.0595848 29.6656401 45.0595848"></polygon>
                <polygon id="Fill-108" points="27.6067474 47.9283737 32.3472664 47.9283737 32.3472664 47.3055363 27.6067474 47.3055363"></polygon>
                <path d="M27.9182699,43.4189273 L32.0359516,43.4189273 L32.0359516,40.990692 L27.9182699,40.990692 L27.9182699,43.4189273 Z M27.2953287,44.0417647 L32.6586851,44.0417647 L32.6586851,40.3678547 L27.2953287,40.3678547 L27.2953287,44.0417647 Z" id="Fill-109"></path>
                <polygon id="Fill-110" points="29.6746713 43.730346 30.2975087 43.730346 30.2975087 40.6792734 29.6746713 40.6792734"></polygon>
                <polygon id="Fill-111" points="27.6067474 42.5161246 32.3472664 42.5161246 32.3472664 41.8932872 27.6067474 41.8932872"></polygon>
                <path d="M21.58609,50.073737 L25.7037716,50.073737 L25.7037716,45.3710035 L21.58609,45.3710035 L21.58609,50.073737 Z M20.9631488,50.6965744 L26.3265052,50.6965744 L26.3265052,44.7481661 L20.9631488,44.7481661 L20.9631488,50.6965744 Z" id="Fill-112"></path>
                <polygon id="Fill-113" points="23.3334602 50.3851557 23.9562976 50.3851557 23.9562976 45.0595848 23.3334602 45.0595848"></polygon>
                <polygon id="Fill-114" points="21.2745675 47.9283737 26.0150865 47.9283737 26.0150865 47.3055363 21.2745675 47.3055363"></polygon>
                <path d="M21.58609,43.4189273 L25.7037716,43.4189273 L25.7037716,40.990692 L21.58609,40.990692 L21.58609,43.4189273 Z M20.9631488,44.0417647 L26.3265052,44.0417647 L26.3265052,40.3678547 L20.9631488,40.3678547 L20.9631488,44.0417647 Z" id="Fill-115"></path>
                <polygon id="Fill-116" points="23.3424913 43.730346 23.9653287 43.730346 23.9653287 40.6792734 23.3424913 40.6792734"></polygon>
                <polygon id="Fill-117" points="21.2745675 42.5161246 26.0150865 42.5161246 26.0150865 41.8932872 21.2745675 41.8932872"></polygon>
                <path d="M34.2504498,50.073737 L38.3681315,50.073737 L38.3681315,45.3710035 L34.2504498,45.3710035 L34.2504498,50.073737 Z M33.6275087,50.6965744 L38.9908651,50.6965744 L38.9908651,44.7481661 L33.6275087,44.7481661 L33.6275087,50.6965744 Z" id="Fill-118"></path>
                <polygon id="Fill-119" points="35.9978201 50.3851557 36.6206574 50.3851557 36.6206574 45.0595848 35.9978201 45.0595848"></polygon>
                <polygon id="Fill-120" points="33.9389273 47.9283737 38.6794464 47.9283737 38.6794464 47.3055363 33.9389273 47.3055363"></polygon>
                <path d="M34.2504498,43.4189273 L38.3681315,43.4189273 L38.3681315,40.990692 L34.2504498,40.990692 L34.2504498,43.4189273 Z M33.6275087,44.0417647 L38.9908651,44.0417647 L38.9908651,40.3678547 L33.6275087,40.3678547 L33.6275087,44.0417647 Z" id="Fill-121"></path>
                <polygon id="Fill-122" points="36.0068512 43.730346 36.6296886 43.730346 36.6296886 40.6792734 36.0068512 40.6792734"></polygon>
                <polygon id="Fill-123" points="33.9389273 42.5161246 38.6794464 42.5161246 38.6794464 41.8932872 33.9389273 41.8932872"></polygon>
                <path d="M28.7397924,21.2508997 L31.2143253,21.2508997 L31.2143253,18.3940484 L28.7397924,18.3940484 L28.7397924,21.2508997 Z M28.116955,21.873737 L31.8371626,21.873737 L31.8371626,17.7712111 L28.116955,17.7712111 L28.116955,21.873737 Z" id="Fill-124"></path>
                <polygon id="Fill-125" points="29.6656401 21.5623183 30.2884775 21.5623183 30.2884775 18.0826298 29.6656401 18.0826298"></polygon>
                <polygon id="Fill-126" points="28.4283737 20.0651211 31.5257439 20.0651211 31.5257439 19.4422837 28.4283737 19.4422837"></polygon>
                <path d="M28.1354429,13.1003253 L31.8186955,13.1003253 C31.5954083,12.1655502 30.8502872,11.496519 29.9770692,11.496519 C29.103955,11.496519 28.3588339,12.1655502 28.1354429,13.1003253 L28.1354429,13.1003253 Z M32.5280035,13.7231626 L27.4262388,13.7231626 L27.4588339,13.3820554 C27.5955467,11.9520208 28.6782457,10.8736817 29.9770692,10.8736817 C31.2758927,10.8736817 32.3585917,11.9520208 32.4953045,13.3820554 L32.5280035,13.7231626 Z" id="Fill-127"></path>
                <polygon id="Fill-128" points="29.6656401 11.1851211 30.2884775 11.1851211 30.2884775 -1.13686838e-13 29.6656401 -1.13686838e-13"></polygon>
                <path d="M30.2884775,5.07467128 L36.8691696,5.07467128 L36.8691696,2.44775087 L30.2884775,2.44775087 L30.2884775,5.07467128 Z M29.6656401,5.69750865 L37.4920069,5.69750865 L37.4920069,1.82491349 L29.6656401,1.82491349 L29.6656401,5.69750865 Z" id="Fill-129"></path>
            </g>
        </g>
    </g>
</svg>