<?xml version="1.0" encoding="UTF-8"?>
<svg width="49px" height="34px" viewBox="0 0 49 34" version="1.1" xmlns="http://www.w3.org/2000/svg" xmlns:xlink="http://www.w3.org/1999/xlink">
    <!-- Generator: Sketch 57.1 (83088) - https://sketch.com -->
    <title>Page 1</title>
    <desc>Created with Sketch.</desc>
    <defs>
        <polygon id="path-1" points="0 33.3905815 48.4597436 33.3905815 48.4597436 6.29629626e-05 0 6.29629626e-05"></polygon>
    </defs>
    <g id="landing-toronto" stroke="none" stroke-width="1" fill="none" fill-rule="evenodd">
        <g id="HomeDesktop_Toronto-Copy-5" transform="translate(-164.000000, -3398.000000)">
            <g id="paquete-1-copy-4" transform="translate(48.000000, 2664.000000)">
                <g id="actividades" transform="translate(112.000000, 278.000000)">
                    <g id="Page-1" transform="translate(4.000000, 456.000000)">
                        <path d="M24.6217462,1.75565926 C16.3646179,1.75565926 9.64659231,8.48828889 9.64659231,16.7647704 C9.64659231,25.0406222 16.3646179,31.7732519 24.6217462,31.7732519 C32.8788744,31.7732519 39.5969,25.0406222 39.5969,16.7647704 C39.5969,8.48828889 32.8788744,1.75565926 24.6217462,1.75565926 Z M24.6217462,32.9991407 C15.6905538,32.9991407 8.42410513,25.7168444 8.42410513,16.7647704 C8.42410513,7.81332593 15.6905538,0.5304 24.6217462,0.5304 C33.5529385,0.5304 40.8193872,7.81332593 40.8193872,16.7647704 C40.8193872,25.7168444 33.5529385,32.9991407 24.6217462,32.9991407 Z" id="Fill-1" fill="#FFFFFF"></path>
                        <path d="M24.6217462,7.58432963 C19.5709769,7.58432963 15.4618872,11.702737 15.4618872,16.7649593 C15.4618872,21.8271815 19.5709769,25.9449593 24.6217462,25.9449593 C29.6725154,25.9449593 33.7816051,21.8271815 33.7816051,16.7649593 C33.7816051,11.702737 29.6725154,7.58432963 24.6217462,7.58432963 M24.6217462,27.1702185 C18.897541,27.1702185 14.2400282,22.5021444 14.2400282,16.7649593 C14.2400282,11.0271444 18.897541,6.35907037 24.6217462,6.35907037 C30.3465795,6.35907037 35.0040923,11.0271444 35.0040923,16.7649593 C35.0040923,22.5021444 30.3465795,27.1702185 24.6217462,27.1702185" id="Fill-3" fill="#FFFFFF"></path>
                        <mask id="mask-2" fill="white">
                            <use xlink:href="#path-1"></use>
                        </mask>
                        <g id="Clip-9"></g>
                        <polygon id="Fill-8" fill="#FFFFFF" mask="url(#mask-2)" points="2.93685897 18.6201 4.15934615 18.6201 4.15934615 1.36321111 2.93685897 1.36321111"></polygon>
                        <path d="M3.54803974,19.2324778 C3.0523859,19.2324778 2.64845,19.6373296 2.64845,20.1341074 L2.64845,31.2634407 C2.64845,31.7608481 3.0523859,32.1650704 3.54803974,32.1650704 C4.04432179,32.1650704 4.44825769,31.7608481 4.44825769,31.2634407 L4.44825769,20.1341074 C4.44825769,19.6373296 4.04432179,19.2324778 3.54803974,19.2324778 M3.54803974,33.3903296 C2.37832179,33.3903296 1.42659103,32.4370704 1.42659103,31.2634407 L1.42659103,20.1341074 C1.42659103,18.9611074 2.37832179,18.0072185 3.54803974,18.0072185 C4.7183859,18.0072185 5.67011667,18.9611074 5.67011667,20.1341074 L5.67011667,31.2634407 C5.67011667,32.4370704 4.7183859,33.3903296 3.54803974,33.3903296" id="Fill-10" fill="#FFFFFF" mask="url(#mask-2)"></path>
                        <path d="M45.7258577,1.54013704 C45.5097551,1.76365556 45.2559603,2.14458148 45.0247808,2.79372963 C43.6270244,6.7308037 42.9158962,11.9013222 44.3513449,13.7285074 C44.688691,14.1585444 45.1409987,14.3908778 45.7258577,14.4324333 L45.7258577,1.54013704 Z M46.9483449,18.8253593 L45.7258577,18.8253593 L45.7258577,15.6589519 C44.7584218,15.6098407 43.9599731,15.2119148 43.3908192,14.4865815 C41.3127167,11.8408778 42.7977936,5.41235926 43.8732808,2.38321111 C44.7753833,-0.157974074 46.2592038,-0.0150481481 46.4263064,0.00950740741 C46.7259603,0.0542111111 46.9483449,0.312359259 46.9483449,0.615840741 L46.9483449,18.8253593 Z" id="Fill-11" fill="#FFFFFF" mask="url(#mask-2)"></path>
                        <path d="M46.3371641,19.2324778 C45.8408821,19.2324778 45.4375744,19.6373296 45.4375744,20.1341074 L45.4375744,31.2634407 C45.4375744,31.7608481 45.8408821,32.1650704 46.3371641,32.1650704 C46.8334462,32.1650704 47.2373821,31.7608481 47.2373821,31.2634407 L47.2373821,20.1341074 C47.2373821,19.6373296 46.8334462,19.2324778 46.3371641,19.2324778 M46.3371641,33.3903296 C45.1668179,33.3903296 44.2157154,32.4370704 44.2157154,31.2634407 L44.2157154,20.1341074 C44.2157154,18.9611074 45.1668179,18.0072185 46.3371641,18.0072185 C47.5075103,18.0072185 48.459241,18.9611074 48.459241,20.1341074 L48.459241,31.2634407 C48.459241,32.4370704 47.5075103,33.3903296 46.3371641,33.3903296" id="Fill-12" fill="#FFFFFF" mask="url(#mask-2)"></path>
                        <g id="Group-7" mask="url(#mask-2)" fill="#FFFFFF">
                            <g transform="translate(0.000000, 1.279470)" id="Fill-5">
                                <path d="M3.54866795,7.53093704 C1.59243718,7.53093704 -6.28205129e-05,5.93545556 -6.28205129e-05,3.97415926 L-6.28205129e-05,0.0836777778 L1.22242436,0.0836777778 L1.22242436,3.97415926 C1.22242436,5.25986296 2.26650128,6.30567778 3.54866795,6.30567778 C4.83146282,6.30567778 5.87428333,5.25986296 5.87428333,3.97415926 L5.87428333,0.0836777778 L7.09677051,0.0836777778 L7.09677051,3.97415926 C7.09677051,5.93545556 5.50489872,7.53093704 3.54866795,7.53093704"></path>
                            </g>
                        </g>
                    </g>
                </g>
            </g>
        </g>
    </g>
</svg>