<?xml version="1.0" encoding="utf-8"?>
<!-- Generator: Adobe Illustrator 23.1.1, SVG Export Plug-In . SVG Version: 6.00 Build 0)  -->
<svg version="1.1" id="Capa_1" xmlns="http://www.w3.org/2000/svg" xmlns:xlink="http://www.w3.org/1999/xlink" x="0px" y="0px"
	 viewBox="0 0 84 85" style="enable-background:new 0 0 84 85;" xml:space="preserve">
<style type="text/css">
	.st0{filter:url(#Adobe_OpacityMaskFilter);}
	.st1{fill-rule:evenodd;clip-rule:evenodd;fill:#FFFFFF;}
	.st2{mask:url(#mask-2_1_);fill-rule:evenodd;clip-rule:evenodd;fill:#2A4A96;}
	.st3{fill-rule:evenodd;clip-rule:evenodd;fill:#2A4A96;}
</style>
<title>avion_icono</title>
<desc>Created with Sketch.</desc>
<g id="landing-toronto">
	<g id="HomeDesktop_Toronto-Copy-5" transform="translate(-472.000000, -1057.000000)">
		<g id="paquete-1" transform="translate(6.000000, 574.000000)">
			<g id="avion_icono" transform="translate(466.000000, 482.071429)">
				<g id="Page-1">
					<g id="Group-3" transform="translate(0.000000, 1.026471)">
						<g id="Clip-2">
						</g>
						<defs>
							<filter id="Adobe_OpacityMaskFilter" filterUnits="userSpaceOnUse" x="0" y="0.2" width="83.8" height="84.6">
								<feColorMatrix  type="matrix" values="1 0 0 0 0  0 1 0 0 0  0 0 1 0 0  0 0 0 1 0"/>
							</filter>
						</defs>
						<mask maskUnits="userSpaceOnUse" x="0" y="0.2" width="83.8" height="84.6" id="mask-2_1_">
							<g class="st0">
								<polygon id="path-1_1_" class="st1" points="0,84.8 83.8,84.8 83.8,0.2 0,0.2 								"/>
							</g>
						</mask>
						<path id="Fill-1" class="st2" d="M3.6,57.9L22,61.7c0.5,0.1,0.8,0.5,0.9,0.9l3.7,18.6l5.8-5.9l-1.8-11.5
							c-0.1-0.4,0.1-0.9,0.5-1.1c0.3-0.2,0.6-0.4,0.8-0.7l47.7-48.1c1.2-1.2,1.9-2.9,1.9-4.7c0-1.8-0.7-3.4-1.9-4.7
							c-1.2-1.2-2.9-1.9-4.6-1.9c-1.7,0-3.4,0.7-4.6,1.9L22.6,52.6c-0.2,0.2-0.4,0.5-0.6,0.8c-0.3,0.4-0.7,0.5-1.1,0.5L9.4,52.1
							L3.6,57.9z M25.9,84.8c-0.1,0-0.2,0-0.3-0.1c-0.4-0.1-0.7-0.5-0.8-0.9l-4-20L1,59.8c-0.4-0.1-0.8-0.4-0.9-0.8
							c-0.1-0.4,0-0.9,0.3-1.2L8.1,50c0.3-0.3,0.6-0.4,1-0.3l11.3,1.8c0.1-0.2,0.3-0.3,0.4-0.5L68.6,2.8c1.7-1.7,3.9-2.6,6.3-2.6
							c2.4,0,4.6,0.9,6.3,2.6c1.7,1.7,2.6,4,2.6,6.4c0,2.4-0.9,4.7-2.6,6.4L33.5,63.7c-0.1,0.1-0.3,0.3-0.5,0.4l1.8,11.4
							c0.1,0.4-0.1,0.8-0.3,1l-7.8,7.9C26.5,84.6,26.2,84.8,25.9,84.8L25.9,84.8z"/>
					</g>
					<polygon id="Fill-4" class="st3" points="39.6,18 37.9,16.3 42.5,11.7 44.1,13.4 					"/>
					<polygon id="Fill-6" class="st3" points="22.1,35.6 20.4,33.9 25.8,28.5 27.5,30.2 					"/>
					<polygon id="Fill-8" class="st3" points="27.6,10.4 25.9,8.7 30.9,3.6 32.6,5.3 					"/>
					<polygon id="Fill-10" class="st3" points="12.4,25.7 10.7,24 16,18.6 17.7,20.3 					"/>
					<path id="Fill-12" class="st3" d="M8.8,9.6l27,27.3l12.7-12.8L13.9,4.4L8.8,9.6z M35.8,39.8c-0.3,0-0.6-0.1-0.8-0.4l-28.7-29
						C6,10.3,5.9,10,5.9,9.6C5.9,9.3,6,9,6.3,8.8l6.6-6.7c0.4-0.4,1-0.5,1.4-0.2l36.7,20.9c0.3,0.2,0.5,0.5,0.6,0.9
						c0,0.4-0.1,0.7-0.3,1L36.7,39.5C36.4,39.7,36.1,39.8,35.8,39.8L35.8,39.8z"/>
					<polygon id="Fill-14" class="st3" points="68.9,47.6 67.2,45.9 71.8,41.3 73.4,43 					"/>
					<polygon id="Fill-16" class="st3" points="51.4,65.2 49.7,63.5 55.1,58.1 56.8,59.8 					"/>
					<polygon id="Fill-18" class="st3" points="76.2,59.9 74.5,58.2 79.8,52.9 81.4,54.6 					"/>
					<polygon id="Fill-20" class="st3" points="61.2,75 59.5,73.3 64.9,67.9 66.5,69.6 					"/>
					<path id="Fill-22" class="st3" d="M48.4,49.6l27,27.3l5.2-5.2L61.1,36.8L48.4,49.6z M75.5,79.8L75.5,79.8
						c-0.3,0-0.6-0.1-0.8-0.4l-28.7-29c-0.5-0.5-0.5-1.2,0-1.7L60.6,34c0.3-0.3,0.6-0.4,1-0.3c0.4,0.1,0.7,0.3,0.9,0.6l20.7,37.1
						c0.3,0.5,0.2,1.1-0.2,1.4l-6.6,6.7C76.1,79.7,75.8,79.8,75.5,79.8L75.5,79.8z"/>
					<polygon id="Fill-24" class="st3" points="76.4,13.6 71.5,8.7 73.2,7 78.1,12 					"/>
				</g>
			</g>
		</g>
	</g>
</g>
</svg>
