<?xml version="1.0" encoding="utf-8"?>
<!-- Generator: Adobe Illustrator 23.1.1, SVG Export Plug-In . SVG Version: 6.00 Build 0)  -->
<svg version="1.1" id="Capa_1" xmlns="http://www.w3.org/2000/svg" xmlns:xlink="http://www.w3.org/1999/xlink" x="0px" y="0px"
	 viewBox="0 0 36.9 9.5" style="enable-background:new 0 0 36.9 9.5;" xml:space="preserve">
<style type="text/css">
	.st0{fill:#2A4A96;}
	.st1{fill:#FFFFFF;}
</style>
<g>
	<g>
		<rect x="30.3" y="4.6" class="st0" width="6.6" height="1.5"/>
	</g>
	<g>
		<g>
			<path class="st1" d="M0.7,7.2H0V0.6h0.7V7.2z"/>
		</g>
		<g>
			<path class="st1" d="M5.4,7.2H4.7V4.8c0-0.4-0.1-0.7-0.2-0.9S4.1,3.6,3.8,3.6S3.2,3.8,3,4C2.8,4.3,2.7,4.7,2.7,5.2v2H2V3.1h0.7
				v0.6C2.9,3.5,3,3.3,3.3,3.2C3.5,3.1,3.7,3,4.1,3s0.7,0.1,1,0.4c0.2,0.3,0.4,0.7,0.4,1.2L5.4,7.2L5.4,7.2z"/>
		</g>
		<g>
			<path class="st1" d="M9.8,7C9.6,7.1,9.4,7.2,9.2,7.3c-0.2,0-0.5,0-0.7,0c-0.7,0-1.2-0.2-1.6-0.6S6.3,5.8,6.3,5.2S6.5,4,6.9,3.6
				S7.9,3,8.6,3C8.8,3,9,3,9.2,3.1c0.2,0,0.4,0.1,0.5,0.2V4C9.6,3.9,9.4,3.8,9.2,3.8S8.8,3.7,8.6,3.7c-0.5,0-0.9,0.1-1.2,0.4
				S7,4.7,7,5.2C7,5.6,7.1,6,7.4,6.3s0.7,0.4,1.2,0.4c0.2,0,0.4,0,0.7-0.1c0.2-0.1,0.4-0.2,0.5-0.3V7z"/>
		</g>
		<g>
			<path class="st1" d="M11.4,7.2h-0.7V0h0.7V7.2z"/>
		</g>
		<g>
			<path class="st1" d="M15.8,5.4c0,0.7-0.1,1.1-0.4,1.4s-0.7,0.5-1.2,0.5c-0.6,0-1-0.2-1.2-0.5c-0.3-0.3-0.4-0.8-0.4-1.4V3.1h0.7
				v2.3c0,0.4,0.1,0.7,0.2,0.9c0.1,0.2,0.4,0.3,0.7,0.3s0.6-0.1,0.7-0.3s0.2-0.5,0.2-0.9V3.1h0.7V5.4z"/>
		</g>
		<g>
			<path class="st1" d="M20.6,3.1L18,9.5h-0.8L18.3,7l-1.7-3.9h0.8l1.3,3.1l1.2-3.1H20.6z"/>
		</g>
		<g>
			<path class="st1" d="M24.8,5.3h-3.3c0,0.4,0.2,0.8,0.4,1c0.2,0.2,0.5,0.4,0.9,0.4c0.3,0,0.6-0.1,0.8-0.2C23.9,6.4,24,6.2,24.2,6
				l0.6,0.3c-0.2,0.4-0.4,0.6-0.7,0.8S23.4,7.4,23,7.4c-0.6,0-1.1-0.2-1.5-0.6S21,5.9,21,5.2c0-0.6,0.2-1.1,0.6-1.5
				C21.8,3.2,22.3,3,22.9,3s1.1,0.2,1.4,0.6c0.4,0.4,0.5,0.9,0.5,1.5V5.3z M24.1,4.8c0-0.3-0.2-0.6-0.4-0.8s-0.5-0.3-0.9-0.3
				c-0.3,0-0.6,0.1-0.9,0.3c-0.2,0.2-0.4,0.5-0.4,0.8H24.1z"/>
		</g>
	</g>
</g>
</svg>
