<?xml version="1.0" encoding="UTF-8"?>
<svg width="96px" height="55px" viewBox="0 0 96 55" version="1.1" xmlns="http://www.w3.org/2000/svg" xmlns:xlink="http://www.w3.org/1999/xlink">
    <!-- Generator: Sketch 57.1 (83088) - https://sketch.com -->
    <title>Group 4 Copy</title>
    <desc>Created with Sketch.</desc>
    <defs>
        <polygon id="path-1" points="4.13943355e-05 0.022358209 94.9677797 0.022358209 94.9677797 27.9476567 4.13943355e-05 27.9476567"></polygon>
        <polygon id="path-3" points="0.179443038 0.158852459 15.9311392 0.158852459 15.9311392 24.795082 0.179443038 24.795082"></polygon>
    </defs>
    <g id="Landing-Quebec" stroke="none" stroke-width="1" fill="none" fill-rule="evenodd">
        <g id="HomeDesktop_Quebec" transform="translate(-396.000000, -7783.000000)">
            <g id="Group" transform="translate(396.000000, 7758.000000)">
                <g id="Group-4-Copy" transform="translate(0.000000, 25.000000)">
                    <g id="Group-3">
                        <mask id="mask-2" fill="white">
                            <use xlink:href="#path-1"></use>
                        </mask>
                        <g id="Clip-2"></g>
                        <path d="M69.2051612,12.0411493 C69.6195185,9.53222388 71.7304227,8.6408209 73.4178627,8.6408209 C75.5850632,8.6408209 77.0796057,9.91085075 77.4229717,12.0411493 L69.2051612,12.0411493 Z M57.8840174,19.0288209 C55.9562832,19.0288209 53.2401939,17.451 53.2401939,13.9428507 C53.2401939,10.6380149 55.6327865,8.85520896 57.8840174,8.85520896 C60.1607059,8.85520896 62.4576776,10.4282239 62.4576776,13.9428507 C62.4576776,17.2470597 60.101719,19.0288209 57.8840174,19.0288209 L57.8840174,19.0288209 Z M37.4165882,12.0411493 C37.8326013,9.53222388 39.9426776,8.6408209 41.6301176,8.6408209 C43.7991808,8.6408209 45.2937233,9.91085075 45.6341917,12.0411493 L37.4165882,12.0411493 Z M9.60952941,19.3489403 C7.30117429,19.3489403 4.91313508,17.3498657 4.91313508,14.0061642 C4.91313508,10.4990597 7.27592375,8.66338806 9.60952941,8.66338806 C11.9431351,8.66338806 14.3046819,10.4990597 14.3046819,14.0061642 C14.3046819,17.3498657 11.9178845,19.3489403 9.60952941,19.3489403 L9.60952941,19.3489403 Z M94.9609237,20.8910299 L92.6002048,17.5320746 C92.5946166,17.5245522 92.5863377,17.5189104 92.576817,17.5180746 C92.5675033,17.5151493 92.5573617,17.5199552 92.5507386,17.5264328 C90.9634728,19.0250597 88.8366318,19.4452687 87.0005861,18.6236567 C85.1850305,17.8116567 84.077732,16.0014776 84.1093987,13.899597 C84.1394096,11.6483134 85.1570893,9.90144776 86.9022745,9.10532836 C88.7018932,8.28476119 90.9140065,8.66338806 92.5395621,10.0704925 C92.5459782,10.0761343 92.5544641,10.0798955 92.5648126,10.0780149 C92.5741264,10.0769701 92.5826122,10.0713284 92.5882004,10.063806 L94.9619586,6.68332836 C94.9712723,6.6691194 94.9694096,6.65031343 94.9563704,6.6388209 C93.0698235,4.94022388 91.2712397,4.2471194 88.7505316,4.2471194 C85.3665447,4.26676119 82.5643551,5.76162687 80.8526993,8.45756716 C79.2954444,5.84562687 76.6054336,4.35368657 73.4542898,4.35368657 L73.3822636,4.35368657 C70.1133529,4.37270149 67.423342,5.85043284 65.8025468,8.5171194 C64.1554662,5.80216418 61.2727647,4.2471194 57.8840174,4.2471194 C56.5409782,4.2471194 55.1604771,4.66252239 53.7818388,5.48225373 L53.7818388,0.0563134328 C53.7818388,0.0375074627 53.7667298,0.0222537313 53.7489303,0.0222537313 L49.0285272,0.0222537313 C49.0096928,0.0222537313 48.9947908,0.0375074627 48.9947908,0.0563134328 L48.9947908,8.34326866 C47.9125359,6.59159701 46.2412397,5.31028358 44.2723181,4.72583582 L47.6385054,0.078880597 C47.6451285,0.068641791 47.6469913,0.0552686567 47.6403682,0.0439850746 C47.63478,0.0327014925 47.6236035,0.0251791045 47.6113922,0.0251791045 L42.4766318,0.0251791045 C42.4662832,0.0251791045 42.4559346,0.0308208955 42.4495185,0.0393880597 L39.1683965,4.66252239 C36.9956078,5.22816418 35.2231024,6.54834328 34.0371547,8.4849403 L34.0371547,4.5831194 C34.0371547,4.56535821 34.0212179,4.55010448 34.0034183,4.55010448 L29.2521765,4.55010448 C29.2343769,4.55010448 29.219268,4.56535821 29.219268,4.5831194 L29.219268,14.9957761 C29.2623181,16.1318657 28.9667625,17.0656866 28.3663377,17.6954776 C27.7845403,18.3054179 26.9212614,18.6284627 25.8690174,18.6284627 C24.8178083,18.6284627 23.9534946,18.3054179 23.372732,17.6954776 C22.7712723,17.0646418 22.4765447,16.1318657 22.5195948,14.9949403 L22.5195948,4.5831194 C22.5195948,4.56535821 22.5046928,4.55010448 22.4860654,4.55010448 L17.7354444,4.55010448 C17.716817,4.55010448 17.701915,4.56535821 17.701915,4.5831194 L17.701915,8.22144776 C17.3529608,7.65204478 16.9470893,7.12150746 16.4840937,6.63798507 C14.7442898,4.8248806 12.3032658,3.82691045 9.60952941,3.82691045 C6.91579303,3.82691045 4.47456209,4.8248806 2.73496514,6.63798507 C0.945694989,8.50395522 4.13943355e-05,11.0515373 4.13943355e-05,14.0061642 C4.13943355e-05,16.7503731 0.867873638,19.1383134 2.51122876,20.9127612 C4.11629412,22.6454179 6.31723094,23.6492388 8.8751939,23.8153582 C10.4848126,26.4801642 13.1926231,27.9476567 16.5008584,27.9476567 C18.0833638,27.9476567 19.4986362,27.5773881 20.8286362,26.8153284 C20.844573,26.8069701 20.8501612,26.7879552 20.8416754,26.7718657 L19.1113922,23.326194 C19.1039412,23.3103134 19.0851068,23.3036269 19.0691699,23.3103134 C18.118963,23.7002239 17.3202593,23.8899552 16.6289739,23.8899552 C15.6909782,23.8899552 14.9135926,23.5435075 14.186915,22.8002537 C16.0585599,21.8626716 17.4576885,20.3744925 18.301305,18.5047612 C19.463037,21.5642836 22.2043769,23.3197164 25.8214139,23.3197164 C27.7369368,23.3186716 29.4007821,22.8332687 30.7672092,21.8787612 C32.0206296,21.002403 32.9671111,19.7444925 33.508756,18.2356269 C34.9912941,21.4556269 37.9468497,23.2998657 41.6301176,23.2998657 C43.6184946,23.2998657 45.3657495,22.7114478 46.9679172,21.5009701 C46.9809564,21.4915672 46.9857168,21.473597 46.9782658,21.4593881 L45.2488105,18.0137164 C45.2440501,18.0051493 45.2365991,17.9986716 45.2272854,17.996791 C45.2190065,17.9938657 45.208658,17.9957463 45.201207,18.0005522 C43.5876558,19.0591194 41.4775795,19.3046418 39.8240828,18.6274179 C38.5696275,18.1129701 37.717732,17.1327612 37.4192789,15.8646119 L48.9947908,15.8646119 L48.9947908,22.9768209 C48.9947908,22.9958358 49.0096928,23.0108806 49.0285272,23.0108806 L53.2917298,23.0108806 C53.3103573,23.0108806 53.3244314,22.9958358 53.3244314,22.9768209 L53.3244314,21.9598358 C54.810695,22.8568806 56.3445621,23.3111493 57.8840174,23.3111493 C61.2831133,23.3111493 64.1685054,21.8135672 65.8099978,19.200791 C67.4225142,21.8447015 70.1218388,23.2998657 73.4178627,23.2998657 C75.4072745,23.2998657 77.1524597,22.7114478 78.7548344,21.5009701 C78.7678736,21.4915672 78.7715991,21.473597 78.764976,21.4593881 L77.0357277,18.0137164 C77.0309673,18.0051493 77.0235163,17.9986716 77.0142026,17.996791 C77.0057168,17.9938657 76.9953682,17.9957463 76.9879172,18.0005522 C75.374573,19.0591194 73.2634619,19.3054776 71.610793,18.6274179 C70.3565447,18.1129701 69.5044423,17.1327612 69.207024,15.8646119 L79.4881351,15.8646119 C79.8940065,17.9852985 80.9098235,19.8107313 82.426719,21.1440746 C84.0860109,22.6011194 86.2728736,23.3725821 88.7505316,23.3725821 C91.4432331,23.3725821 93.299976,22.6427015 94.9571983,20.9344925 C94.9677797,20.9221642 94.9704444,20.904194 94.9609237,20.8910299 L94.9609237,20.8910299 Z" id="Fill-1" fill="#2A4A96" mask="url(#mask-2)"></path>
                    </g>
                    <path d="M95.9803735,45.8291449 C95.9686769,45.8170948 95.9490504,45.8089252 95.9345783,45.8115803 C94.9080528,45.8716266 94.2252885,45.6353222 93.8426708,45.0861238 C93.5409381,44.6541586 93.4073193,44.0220392 93.4073193,43.03434 L93.4073193,26.0637225 C93.4073193,26.0285934 93.3795646,26 93.3446731,26 L91.0618532,26 C91.0279529,26 91,26.0285934 91,26.0637225 L91,43.03434 C91,46.3293259 92.4129099,48 95.1990801,48 C95.4365806,48 95.6873637,47.9879499 95.9436977,47.9630328 C95.9758138,47.9601734 96,47.9326012 96,47.8993102 L96,45.8753029 C96,45.8577383 95.9928631,45.841195 95.9803735,45.8291449" id="Fill-4" fill="#2A4A96"></path>
                    <path d="M13.6223471,43.6421356 C12.5346976,44.8537632 11.1369256,45.4678137 9.46719082,45.4678137 C7.81946341,45.4678137 6.43259421,44.8537632 5.34595423,43.6431652 C4.26920747,42.4053859 3.72265704,40.8494618 3.72265704,39.0182238 C3.72265704,37.1746308 4.26839986,35.6300321 5.34595423,34.4268473 C6.42169147,33.1927745 7.80856067,32.5676044 9.46719082,32.5676044 C11.1478284,32.5676044 12.5456003,33.1927745 13.6223471,34.4276709 C14.6988919,35.6290026 15.2446347,37.1738071 15.2446347,39.0182238 C15.2446347,40.8494618 14.6980843,42.4053859 13.6223471,43.6421356 M9.46719082,30 C7.05667526,30 5.01826625,30.8860696 3.41071747,32.6334984 C1.81124479,34.3671307 1,36.5148662 1,39.0182238 C1,41.5213755 1.81124479,43.669111 3.41071747,45.4027433 C5.03098612,47.1260796 7.06858751,48 9.46719082,48 C11.8878015,48 13.9371133,47.1260796 15.5575838,45.4019196 C17.178862,43.6448126 18,41.4970771 18,39.0182238 C18,36.528045 17.1671516,34.37928 15.5246737,32.6334984 C13.9142983,30.8860696 11.8750817,30 9.46719082,30" id="Fill-6" fill="#2A4A96"></path>
                    <path d="M27.9448853,30.0345178 C27.6949083,30 27.4141743,30 27.1668807,30 C24.6576147,30 23.0931422,30.6576437 21.6444725,32.3325581 L21.6444725,30.3012277 C21.6444725,30.26671 21.6155734,30.2386141 21.5800688,30.2386141 L19.0641972,30.2386141 C19.0288991,30.2386141 19,30.26671 19,30.3012277 L19,46.9365836 C19,46.9719041 19.0288991,47 19.0641972,47 L21.6500459,47 C21.6855505,47 21.7144495,46.9719041 21.7144495,46.9365836 L21.7144495,39.8409751 C21.7144495,34.584441 23.2919266,32.5366545 27.3423394,32.5366545 C27.5438073,32.5366545 27.7537385,32.5366545 27.9234174,32.5683626 C27.9419954,32.5701688 27.9616055,32.5675599 27.9766743,32.5557195 C27.9915367,32.5430764 28,32.5258175 28,32.5067524 L28,30.0971314 C28,30.0654232 27.9766743,30.0391335 27.9448853,30.0345178" id="Fill-8" fill="#2A4A96"></path>
                    <path d="M31.9525186,30 L30.0474814,30 C30.020697,30 30,30.0284972 30,30.063508 L30,46.936492 C30,46.972317 30.020697,47 30.0474814,47 L31.9525186,47 C31.9786943,47 32,46.972317 32,46.936492 L32,30.063508 C32,30.0284972 31.9786943,30 31.9525186,30" id="Fill-10" fill="#2A4A96"></path>
                    <path d="M32.9330807,25 L30.0669193,25 C30.0300279,25 30,25.0311665 30,25.0694568 L30,27.9305432 C30,27.9688335 30.0300279,28 30.0669193,28 L32.9330807,28 C32.9699721,28 33,27.9688335 33,27.9305432 L33,25.0694568 C33,25.0311665 32.9699721,25 32.9330807,25" id="Fill-12" fill="#2A4A96"></path>
                    <g id="Group-16" transform="translate(35.000000, 30.000000)">
                        <mask id="mask-4" fill="white">
                            <use xlink:href="#path-3"></use>
                        </mask>
                        <g id="Clip-15"></g>
                        <path d="M11.8462785,13.0760656 C10.8652152,14.2057787 9.6358481,14.754959 8.08911392,14.754959 C6.56627848,14.754959 5.34886076,14.2057787 4.36779747,13.0760656 C3.3875443,11.9453279 2.91058228,10.5303689 2.91058228,8.75045082 C2.91058228,6.94655738 3.3875443,5.52053279 4.36779747,4.38979508 C5.34987342,3.26090164 6.56708861,2.7127459 8.08911392,2.7127459 C9.63503797,2.7127459 10.8652152,3.26090164 11.8462785,4.38897541 C12.8348354,5.52893443 13.3363038,6.9957377 13.3363038,8.75045082 C13.3363038,10.4813934 12.8348354,11.9371311 11.8462785,13.0760656 M15.8679494,0.57545082 L13.3994937,0.57545082 C13.3638481,0.57545082 13.3363038,0.604139344 13.3363038,0.639385246 L13.3363038,2.64061475 C12.0028354,0.99307377 10.1575696,0.158852459 7.85032911,0.158852459 C5.66643038,0.158852459 3.87888608,0.958852459 2.38987342,2.60536885 C0.902683544,4.24901639 0.179443038,6.25946721 0.179443038,8.75045082 C0.179443038,11.217459 0.902683544,13.2168443 2.38987342,14.8615164 C3.87888608,16.5080328 5.66460759,17.3080328 7.85032911,17.3080328 C10.1687089,17.3080328 11.9908861,16.4856967 13.2686582,14.8652049 L13.2686582,16.4467623 C13.2686582,20.1184836 11.2174177,22.3104918 7.78167089,22.3104918 C5.58136709,22.3104918 3.92931646,21.2668443 2.73134177,19.1193033 C2.72121519,19.1027049 2.70481013,19.0906148 2.68556962,19.0869262 C2.66632911,19.0832377 2.64607595,19.0916393 2.63250633,19.1045492 L0.783594937,20.907623 C0.761721519,20.9289344 0.758075949,20.9621311 0.773468354,20.9881557 C2.37974684,23.5143852 4.73741772,24.795123 7.78167089,24.795123 C12.7321519,24.795123 15.9311392,21.4373361 15.9311392,16.2385656 L15.9311392,0.639385246 C15.9311392,0.604139344 15.9027848,0.57545082 15.8679494,0.57545082" id="Fill-14" fill="#2A4A96" mask="url(#mask-4)"></path>
                    </g>
                    <path d="M66.0632732,30 C63.9776315,30 61.8824093,30.952706 60.6665139,32.4398364 L60.6665139,30.4933957 C60.6665139,30.4574167 60.6381889,30.4279603 60.6015329,30.4279603 L58.064981,30.4279603 C58.0291582,30.4279603 58,30.4574167 58,30.4933957 L58,47.9345646 C58,47.9715956 58.0291582,48 58.064981,48 L60.6721373,48 C60.7087933,48 60.7371183,47.9715956 60.7371183,47.9345646 L60.7371183,39.283834 C60.7371183,35.028007 62.6146957,32.5871186 65.8872829,32.5871186 C68.6458533,32.5871186 70.2281001,34.4060549 70.2281001,37.575149 L70.2281001,47.9345646 C70.2281001,47.9715956 70.2562169,48 70.2930812,48 L72.935019,48 C72.9706336,48 73,47.9715956 73,47.9345646 L73,37.7901812 C73,35.3103682 72.3937185,33.3717124 71.1984421,32.0280771 C70.0012913,30.6827586 68.2740867,30 66.0632732,30" id="Fill-17" fill="#2A4A96"></path>
                    <path d="M85.2297133,42.8992998 C84.0517197,44.5240939 82.0366975,45.5720758 80.0920599,45.5720758 C78.1044329,45.5720758 76.7694438,44.4645799 76.7694438,42.8146623 C76.7694438,40.9291598 78.1883044,39.8486409 80.6625122,39.8486409 C82.0337473,39.8486409 83.5278392,40.1167628 85.2297133,40.666804 L85.2297133,42.8992998 Z M81.0167532,30 C78.1187627,30 75.9418981,31.2069605 74.5439001,33.5856672 C74.5285166,33.6118204 74.5333634,33.6451812 74.5552796,33.6647446 L76.3751637,35.3371087 C76.3903364,35.351112 76.4122526,35.3574959 76.4331151,35.3529654 C76.4541883,35.3492586 76.4712576,35.3352554 76.4798976,35.3156919 C77.2484383,33.6256178 79.0158501,32.5331549 80.9824039,32.5331549 C83.6022277,32.5331549 85.2297133,34.0436573 85.2297133,36.4742586 L85.2297133,38.1299423 C83.3803266,37.5901977 81.7956198,37.3156919 80.5185821,37.3156919 C76.4980206,37.3156919 74,39.3964168 74,42.7456755 C74,45.8883855 76.3903364,48 79.9481298,48 C82.20718,48 83.9602619,47.3261944 85.3011515,45.940486 L85.3011515,47.5541598 C85.3011515,47.5895799 85.330654,47.6184102 85.3669,47.6184102 L87.9342515,47.6184102 C87.9704975,47.6184102 88,47.5895799 88,47.5541598 L88,36.7526771 C88,32.5247117 85.3896591,30 81.0167532,30 L81.0167532,30 Z" id="Fill-19" fill="#2A4A96"></path>
                    <path d="M55.9330998,25 L53.0669002,25 C53.0289472,25 53,25.0311665 53,25.0694568 L53,27.9305432 C53,27.9688335 53.0289472,28 53.0669002,28 L55.9330998,28 C55.9699807,28 56,27.9688335 56,27.9305432 L56,25.0694568 C56,25.0311665 55.9699807,25 55.9330998,25" id="Fill-21" fill="#2A4A96"></path>
                    <path d="M54.9525331,30 L53.0474669,30 C53.0205386,30 53,30.0284972 53,30.063508 L53,46.936492 C53,46.972317 53.0205386,47 53.0474669,47 L54.9525331,47 C54.9787007,47 55,46.972317 55,46.936492 L55,30.063508 C55,30.0284972 54.9787007,30 54.9525331,30" id="Fill-23" fill="#2A4A96"></path>
                </g>
            </g>
        </g>
    </g>
</svg>