<?xml version="1.0" encoding="utf-8"?>
<!-- Generator: Adobe Illustrator 23.1.1, SVG Export Plug-In . SVG Version: 6.00 Build 0)  -->
<svg version="1.1" id="Capa_1" xmlns="http://www.w3.org/2000/svg" xmlns:xlink="http://www.w3.org/1999/xlink" x="0px" y="0px"
	 viewBox="0 0 90.8 57.8" style="enable-background:new 0 0 90.8 57.8;" xml:space="preserve">
<style type="text/css">
	.st0{fill-rule:evenodd;clip-rule:evenodd;fill:#FFFFFF;}
</style>
<path class="st0" d="M58.9,0.6h-6.1v44h6.1c3.1,0,4.9-1.8,4.9-4.8V5.4C63.8,2.4,61.9,0.6,58.9,0.6z M59.5,39.3
	c0,0.9-0.3,1.2-1.2,1.2h-1.2V4.8h1.2c0.9,0,1.2,0.3,1.2,1.2V39.3z"/>
<path class="st0" d="M41.3,5.6l-2.5,51h3.9l0.5-12h3.2l0.2,5.4h4.2L48.7,5.6H41.3z M43.3,40.4l1.2-29.1h0.6l1.1,29.1H43.3z"/>
<polygon class="st0" points="33.8,30.4 33.3,30.4 28.8,3.6 24.8,3.6 24.8,48.3 28.8,48.3 28.8,26.2 29.3,26.2 33.7,52.6 37.8,52.6 
	37.8,10.8 33.8,10.8 "/>
<path class="st0" d="M13.9,0.6l-2.1,39.2h3.9l0.2-5.4H19l0.5,10.2h4.2l-2.4-44C21.3,0.6,13.9,0.6,13.9,0.6z M16.1,30.3l1-24h0.7
	l1.1,24H16.1z"/>
<path class="st0" d="M66.6,5.6l-1.8,32h3.5l0.4-8.3H71l0.2,4.1h3.6L73.2,5.6H66.6z M68.8,25.4l0.6-14.3H70l0.7,14.3H68.8z"/>
<path class="st0" d="M6.1,5.6H5.5c-2.9,0-4.7,1.8-4.7,4.8v19.4c0,3,1.8,4.8,4.7,4.8h0.6c2.9,0,4.7-1.8,4.7-4.8v-7.4H6.9v7.1
	c0,0.9-0.3,1.2-1,1.2s-1-0.3-1-1.2V10.8c0-0.9,0.3-1.2,1-1.2s1,0.3,1,1.2v6.8h3.9v-7.1C10.8,7.4,9,5.6,6.1,5.6"/>
<polygon class="st0" points="90.8,6 89.9,5.7 89.9,4 88.3,4.5 87.7,3.7 85.7,6.6 85.5,6.6 85.7,1.7 84.8,2 83.8,0.6 82.8,2 
	81.9,1.7 82.1,6.6 81.9,6.6 79.8,3.7 79.3,4.5 77.6,4 77.7,5.7 76.8,6 80.3,10.2 79.5,11.4 82.9,11.4 82.9,13.6 84.6,13.6 
	84.6,11.4 88,11.4 87.2,10.2 "/>
</svg>
