<?xml version="1.0" encoding="utf-8"?>
<!-- Generator: Adobe Illustrator 23.1.1, SVG Export Plug-In . SVG Version: 6.00 Build 0)  -->
<svg version="1.1" id="Capa_1" xmlns="http://www.w3.org/2000/svg" xmlns:xlink="http://www.w3.org/1999/xlink" x="0px" y="0px"
	 viewBox="0 0 1239.2 1368.9" style="enable-background:new 0 0 1239.2 1368.9;" xml:space="preserve">
<style type="text/css">
	.st0{fill-rule:evenodd;clip-rule:evenodd;fill:#E1191B;}
</style>
<path class="st0" d="M915.2,0H388c-38.4,69.2-77.1,138.2-117.4,206.4c-10.5,17.8-26.5,56.5-56.8,49c-11.9-2.9-18-8.9-22.5-20.1
	c-4-10.2-5.2-20.6-6.5-31.3c-2.5-21.1-3.7-42.3-4.9-63.5c-2.6-46.9-4.6-93.8-6.6-140.6H0v1044.4c15.5-7.9,35.4-5.9,49.6,4.6
	c15.7,11.7,34.5,36.3,47.1,50.5c29,32.7,58.2,65.1,87.5,97.5c47.9,52.9,96.1,105.4,143.9,158.3c2.6,2.9,5.2,5.7,7.8,8.6
	c1.3,1.4,2.6,2.9,3.9,4.3c0.4,0.4,0.7,0.6,0.9,0.6h0c1.1,0,1-3.3,1.5-4.4c1.4-3.5,2.9-7,4.3-10.5c8.6-20.7,17-41.5,25.7-62.2
	c8.1-19.3,20.8-58.8,41.8-72.2c13.5-8.6,26.8-6.5,41-6.4c37.9,0.3,75.7,1.4,113.5,2.4c145.9,3.9,291.7,9.6,437.5,13.2
	c5.5,0.1,10.9,0.1,16.4,0c2.1,0,4.3,0,6.4,0c3.8,0-1.2-3.6-2-5.3c-1.9-3.9-3.8-7.7-5.7-11.6c-3.8-7.7-7.5-15.4-11.3-23.1
	c-1.9-3.9-3.8-7.7-5.7-11.6c-1.2-2.4-2.3-4.7-3.5-7.1c-6.9-13.8-13.9-27.6-19.6-42c-2.7-6.9-5.6-13.3-5.3-21.1
	c0.2-4.8,2-8.1,5.2-11.4c8.5-8.6,18.4-15.2,28-22.4c38.9-28.7,78.9-55.7,118.8-83c28.5-19.5,56.9-39,85-59
	c7.5-5.3,15-10.6,22.3-16.1c1.7-1.3,6.1-2.7,3-4.7c-15.7-10.4-32.5-18.8-49-27.9c-31.4-17.3-63-34.1-94.4-51.4
	c-27.4-15.1-54.8-30.3-81.3-47.1c-7.4-4.7-14.8-9.4-21.5-15.2c-3.2-2.7-5.7-5.5-7.3-9.5c-5.1-12.7,0.7-21.8,4.6-32.5
	c8.9-24.8,20.3-48.4,30.7-72.5c3-7,6.1-14,8.5-21.4c1-3,2.8-5.5,1.1-9c-1.9-3.9-14.7-0.4-17.1-0.1c-73.9,9.3-147.7,19.8-221.7,28.6
	c-21.2,2.5-42.3,5-63.6,6.2c-10.8,0.6-21.3,1.2-32.1-0.9c-11.8-2.4-18.8-7.4-23.8-18.6c-12.7-28.3,22.3-50.8,37.9-64.2
	c111.1-95.2,225.9-185.7,339.1-278.2c5.1-4.2,10.3-8.4,15.4-12.6c0.8-0.7,3.6-1.6,1.8-2.4c-5.3-2.2-10.8-3.4-16.2-4.9
	c-31.1-8.7-62.5-16.4-93.4-25.7c-16.2-4.9-32.4-9.5-48-16.4c-7.1-3.2-13.2-6.5-18.1-13c-5.4-7.3-7.1-14.5-7.2-23.3
	c-0.4-26.5,5.2-51.8,9.7-77.5C899.2,80.4,907.1,40.2,915.2,0z"/>
</svg>
