<?xml version="1.0" encoding="utf-8"?>
<!-- Generator: Adobe Illustrator 23.1.1, SVG Export Plug-In . SVG Version: 6.00 Build 0)  -->
<svg version="1.1" id="Capa_1" xmlns="http://www.w3.org/2000/svg" xmlns:xlink="http://www.w3.org/1999/xlink" x="0px" y="0px"
	 viewBox="0 0 160.2 42.7" style="enable-background:new 0 0 160.2 42.7;" xml:space="preserve">
<style type="text/css">
	.st0{fill:#FFFFFF;}
	.st1{fill:#E41C22;}
</style>
<g>
	<path class="st0" d="M153.4,18.7c0,6.6-5.3,11.9-11.9,11.9c-6.5,0-11.9-5.4-11.9-11.9c0-6.4,5.3-12.5,12.8-12
		C148.5,7.1,153.4,12.3,153.4,18.7z M150.5,18.6c0-5.3-3.9-9-8.3-9.3c-3.1-0.2-5.7,1-7.6,3.4c-1.7,2.2-2.2,4.8-1.8,7.6
		c0.8,5.1,5.9,8.6,10.9,7.3C147.7,26.6,150.5,23,150.5,18.6z"/>
	<path class="st0" d="M40.7,18.6c0,6.6-5.3,11.9-11.8,11.9c-6.6,0-12-5.3-12-11.8c0-6.7,5-11.7,11-12.1
		C35.7,6.1,40.8,12.4,40.7,18.6z M37.8,18.6c-0.1-0.7-0.1-1.5-0.3-2.2c-1.2-5.6-7.1-8.7-12.2-6.5c-4.1,1.8-6.2,6.3-5.2,10.9
		c1.2,5.1,6.5,8.2,11.4,6.5C35.3,26.2,37.8,22.8,37.8,18.6z"/>
	<path class="st0" d="M74.3,6.6c6.7-0.1,11.9,5.6,11.9,12c-0.1,6.6-5.3,11.9-12,11.9c-6.5,0-11.8-5.3-11.8-11.9
		C62.4,11.9,67.9,6.6,74.3,6.6z M83.2,18.6c0-5.2-3.9-9-8.3-9.3c-2.8-0.2-5.3,0.7-7.2,2.9c-2.2,2.4-2.8,5.2-2.3,8.4
		c0.9,5,5.8,8.3,10.8,7.1C80.4,26.7,83.2,23,83.2,18.6z"/>
	<path class="st0" d="M90.9,6.8c5.1,5.4,10.2,10.9,15.4,16.4c0-5.4,0-10.7,0-16c1,0,1.9,0,2.8,0c0,7.7,0,15.4,0,23.3
		c-5.2-5.5-10.3-11-15.4-16.4h-0.1c0,5.3,0,10.5,0,15.9c-0.9,0-1.7,0-2.6,0c-0.1,0-0.2-0.1-0.2-0.3c0-0.1,0-0.3,0-0.4
		c0-7.3,0-14.6,0-22C90.8,7.1,90.8,6.9,90.9,6.8C90.8,6.8,90.8,6.8,90.9,6.8z"/>
	<path class="st0" d="M54.3,23.3c1.8,1.7,3.5,3.4,5.3,5.1c-0.8,0.7-1.4,1.4-2.2,2.1c-0.2-0.3-0.6-0.7-0.9-1c-1.5-1.5-3-3.1-4.5-4.6
		c-0.2-0.2-0.5-0.3-0.7-0.3c-1,0-2,0-3.1,0c0,0.2,0,0.4,0,0.6c0,1.4,0,2.9,0,4.3c0,0.4-0.1,0.5-0.5,0.5c-0.7,0-1.5,0-2.3,0
		c0-7.6,0-15.2,0-22.8c0.5,0,0.9,0,1.4,0c1.5,0,2.9,0,4.4,0.1c3.6,0.4,6.9,3.7,7.3,7.4c0.4,3.5-0.8,6.3-3.7,8.4
		C54.6,23.1,54.5,23.2,54.3,23.3z M48.1,15.9c0,1.8,0,3.6,0,5.4c0,0.3,0.1,0.5,0.4,0.6c1,0.2,1.9,0.2,2.8-0.1
		c2.3-0.7,4.4-3.1,4.2-6.5c-0.3-3.5-3.5-6.1-7-5.4C48.1,10,48,10.1,48,10.5C48.1,12.3,48.1,14.1,48.1,15.9z"/>
	<path class="st1" d="M151,34.2c-0.4-0.1-0.8-0.1-1.1-0.2c0,0.1,0,0.1,0,0.2c0.3,0.1,0.7,0.2,1,0.3v0.1c-0.7,0.1-1.4,0.3-2,0.4
		c-0.1,0-0.3,0-0.4,0c-0.6-0.3-1.2-0.3-1.8,0.1c-0.6-0.4-1.3,0.3-1.9-0.1c-0.2-0.1-0.6,0.2-1,0.3c0,0.1,0,0.1,0,0.2
		c0.4,0,0.8-0.1,1.2-0.1c0,0.1,0,0.1,0,0.2c-0.6,0-1.3,0-1.9,0c-0.4,0-0.8-0.1-1.2,0c-1.5,0.6-3.2,0.8-4.8,1.1
		c-2.2,0.5-4.3,1.1-6.4,1.6c-1.5,0.4-3,0.7-4.5,1.1c-0.9,0.2-1.7,0.7-2.6,1c-0.6,0.2-1.2,0.6-1.8,0.7c-0.6,0.1-1.4,0.2-2,0.1
		c-0.8-0.1-1.6,0-2.3,0.3c-0.1,0-0.2,0.1-0.3,0.2c-0.3,0.6-0.9,0.6-1.4,0.7c-0.5,0.2-1.1,0.3-1.6,0.3c-0.7,0.1-1.5-0.6-1.7-1.3
		s0.1-1.4,0.8-1.8c1.4-0.8,2.7-1.7,4.3-1.9c2.3-0.4,4.5-1.1,6.7-1.9c2.1-0.7,4.4-1,6.6-1.4s4.4-0.7,6.6-1c1.4-0.2,2.8-0.2,4.2-0.3
		c0.1,0,0.3,0,0.4,0.1c0.3,0.2,0.2,0.2,0.5,0c0.1-0.1,0.2-0.1,0.3-0.1c1.4,0.1,2.8,0.3,4.2,0.4c0.9,0.1,1.9,0.2,2.8,0.3
		c0.3,0,0.5,0.1,0.8,0.2C151.1,34.1,151.1,34.1,151,34.2z"/>
	<path class="st0" d="M122.4,30c-0.9,0-1.7,0-2.5,0c-0.3,0-0.4-0.1-0.4-0.4c0-0.1,0-0.3,0-0.4c0-6.2,0-12.4,0-18.6
		c0-0.2,0-0.4,0-0.7c-2.4,0-4.6,0-7,0c0-0.9,0-1.8,0-2.7c5.6,0,11.2,0,16.8,0c0,0.9,0,1.7,0,2.7c-2.3,0-4.6,0-7,0
		C122.4,16.6,122.4,23.3,122.4,30z"/>
	<path class="st0" d="M9.8,30c-0.9,0-1.7,0-2.5,0C7.2,30,7,29.8,7,29.7c-0.1-0.1,0-0.3,0-0.5C7,23,7,16.8,7,10.6c0-0.2,0-0.4,0-0.7
		c-2.4,0-4.7,0-7,0C0,9,0,8.1,0,7.2c5.6,0,11.2,0,16.8,0c0,0.9,0,1.7,0,2.6c-2.3,0-4.6,0-6.9,0C9.8,16.6,9.8,23.3,9.8,30z"/>
	<path class="st1" d="M156.3,30.7c0.3,0.1,0.7,0,0.9,0.2c0.8,0.8,1.9,1.2,2,2.5c0,0.3,0.1,0.5,0.5,0.5c0.3,0,0.6,0.2,0.5,0.6
		c0,0.4,0,0.8-0.5,0.9c-0.1,0-0.2,0.1-0.2,0.1c-0.7,0.9-1.7,1-2.7,1.1c-1.3,0.1-2.9-1-3.2-2.3c-0.1-0.3,0.1-0.7,0.2-1
		c0.1-0.4,0.1-0.7,0.2-1.1C154.4,31.2,155,30.7,156.3,30.7z"/>
</g>
</svg>
