<?xml version="1.0" encoding="utf-8"?>
<!-- Generator: Adobe Illustrator 23.1.1, SVG Export Plug-In . SVG Version: 6.00 Build 0)  -->
<svg version="1.1" id="Capa_1" xmlns="http://www.w3.org/2000/svg" xmlns:xlink="http://www.w3.org/1999/xlink" x="0px" y="0px"
	 viewBox="0 0 96 44" style="enable-background:new 0 0 96 44;" xml:space="preserve">
<style type="text/css">
	.st0{fill:#FFFFFF;}
</style>
<title>Canada</title>
<desc>Created with Sketch.</desc>
<g>
	<path class="st0" d="M52.3,14.3c0-1,0-2,0-3c-0.5,0-1.1,0-1.6,0c0-0.1,0-0.2,0-0.3c1.1,0,2.3,0,3.4,0c0,0.1,0,0.1,0,0.2
		c0,1.3,0,2.6,0,3.9c0,0.2,0.1,0.3,0.2,0.4c2.5,1.7,5.1,3.4,7.6,5c0.1,0,0.1,0.1,0.2,0.1c-2.6-1.6-5.3-3.3-8-4.9c0,2.4,0,4.7,0,7.1
		c0.5,0,1.1,0,1.6,0c0,0.1,0,0.2,0,0.3c-1.7,0-3.3,0-5,0c0-0.1,0-0.2,0-0.3c0.5,0,1.1,0,1.6,0c0-0.1,0-0.2,0-0.3c0-2.5,0-5.1,0-7.6
		c0-0.2-0.1-0.3-0.2-0.3c-5.4-3-10.8-5.8-16.5-8.1C31.9,5.2,28.2,3.9,24.3,3c-2.2-0.5-4.4-0.8-6.7-0.9c-2.2-0.1-4.4,0.1-6.5,0.7
		C7.5,3.9,5,6.3,3.5,9.7c-0.7,1.6-1.1,3.3-1.3,5.1c-0.2,1.5-0.3,3-0.2,4.5C1.9,20.2,2,21,2,21.8c0,0,0,0.1,0,0.1
		c-0.2-1.2-0.3-2.4-0.3-3.6c-0.1-1.6,0-3.2,0.2-4.8c0.3-2.6,1-5.1,2.3-7.4c1.8-3,4.3-4.9,7.7-5.7c2-0.5,4.1-0.6,6.2-0.5
		c4,0.3,7.9,1.4,11.6,2.7c3,1.1,5.8,2.4,8.7,3.7c4.7,2.3,9.2,4.9,13.7,7.7C52.1,14.2,52.2,14.3,52.3,14.3z"/>
	<path class="st0" d="M15.8,34.9c0,0.1,0,0.2,0,0.3c-1.6,0-3.1,0-4.7,0c0-0.1,0-0.2,0-0.3c0.5,0,1,0,1.5,0c0,0,0-0.1,0-0.1
		c0-2.1,0-4.3,0-6.4c0-0.2,0-0.4-0.1-0.5c-0.2-0.7-0.8-1.1-1.5-1c-1.1,0.2-1.7,0.9-2.2,1.8c-0.2,0.5-0.3,1.1-0.3,1.6
		c0,1.5,0,2.9,0,4.4c0,0.1,0,0.1,0,0.2c0.5,0,1,0,1.5,0c0,0.1,0,0.2,0,0.3c-1.6,0-3.1,0-4.7,0c0-0.1,0-0.2,0-0.3c0.5,0,1,0,1.5,0
		c0-2.6,0-5.2,0-7.8c-0.5,0-1,0-1.5,0c0-0.1,0-0.2,0-0.3c1,0,2.1,0,3.1,0c0,0.6,0,1.3,0,1.9c0,0,0,0,0.1,0c0-0.1,0.1-0.2,0.1-0.2
		c0.4-1,1.2-1.7,2.3-1.9c0.7-0.1,1.4,0,2,0.2c0.6,0.3,1,0.7,1.2,1.3c0,0.1,0.1,0.1,0.1,0.2c0-0.1,0-0.1,0.1-0.1
		c0.5-1.1,1.4-1.7,2.6-1.7c0.4,0,0.8,0,1.3,0.1c1,0.2,1.6,1,1.7,2c0,0.3,0.1,0.6,0.1,0.8c0,1.7,0,3.3,0,5c0,0.1,0,0.2,0,0.3
		c0.5,0,1,0,1.5,0c0,0.1,0,0.2,0,0.3c-1.6,0-3.1,0-4.7,0c0-0.1,0-0.2,0-0.3c0.5,0,1,0,1.5,0c0-0.1,0-0.2,0-0.3c0-2.1,0-4.1,0-6.2
		c0-1.3-0.8-1.8-1.9-1.5c-1.1,0.3-1.9,1.2-2.1,2.3c0,0.2,0,0.5-0.1,0.7c0,1.6,0,3.1,0,4.7c0,0.1,0,0.2,0,0.3
		C14.8,34.9,15.3,34.9,15.8,34.9z"/>
	<path class="st0" d="M22.4,27c-0.5,0-1,0-1.5,0c0-0.1,0-0.2,0-0.3c1,0,2.1,0,3.1,0c0,0.5,0,1,0,1.6c0,0,0,0,0,0
		c0-0.1,0.1-0.1,0.1-0.2c0.5-1.1,1.5-1.7,2.8-1.6c1.7,0.1,3.5,1.5,3.9,3.5c0.5,2.3-1,4.7-3.2,5.3c-0.8,0.2-1.5,0.2-2.2-0.1
		c-0.5-0.3-0.9-0.7-1.2-1.2c0-0.1-0.1-0.2-0.1-0.3c0,2.2,0,4.5,0,6.7c0.5,0,1,0,1.5,0c0,0.1,0,0.2,0,0.3c-1.6,0-3.1,0-4.7,0
		c0-0.1,0-0.2,0-0.3c0.5,0,1,0,1.5,0C22.4,35.9,22.4,31.5,22.4,27z M29.1,31.2C29,31.2,29,31.2,29.1,31.2c-0.1-0.3-0.1-0.6-0.1-1
		c0-0.8-0.1-1.5-0.4-2.2c-0.2-0.6-0.7-1.1-1.3-1.2c-0.4-0.1-0.8-0.1-1.2,0c-1,0.2-1.6,0.9-1.8,1.9c-0.3,1.1-0.2,2.3-0.2,3.5
		c0,0.6,0.1,1.1,0.4,1.6c0.4,0.8,0.9,1.3,1.8,1.3c1.2,0.1,2.1-0.3,2.4-1.6C28.9,32.8,29,32,29.1,31.2z"/>
	<path class="st0" d="M78.1,34.9c0.5,0,1,0,1.5,0c0,0.1,0,0.2,0,0.3c-1.6,0-3.1,0-4.7,0c0-0.1,0-0.2,0-0.3c0.5,0,1,0,1.5,0
		c0-2.6,0-5.2,0-7.8c-0.5,0-1,0-1.5,0c0-0.1,0-0.2,0-0.3c1,0,2.1,0,3.1,0c0,0.7,0,1.3,0,2c0,0,0,0,0.1,0c0-0.1,0.1-0.1,0.1-0.2
		c0.5-1,1.2-1.7,2.3-1.9c0.9-0.2,1.7-0.1,2.5,0.2c0.8,0.4,1.2,1,1.3,1.9c0,0.2,0,0.4,0,0.6c0,1.7,0,3.5,0,5.2c0,0.1,0,0.2,0,0.3
		c0.5,0,1,0,1.5,0c0,0.1,0,0.2,0,0.3c-1.6,0-3.1,0-4.7,0c0-0.1,0-0.2,0-0.3c0.5,0,1,0,1.5,0c0-0.1,0-0.2,0-0.3c0-2,0-4,0-5.9
		c0-0.2,0-0.4,0-0.6c-0.2-0.9-0.8-1.4-1.8-1.2c-1.3,0.2-2.1,1-2.5,2.2c-0.2,0.4-0.2,0.9-0.2,1.4c0,1.4,0,2.8,0,4.2
		C78.1,34.7,78.1,34.7,78.1,34.9z"/>
	<path class="st0" d="M33.9,22.8c0.1,0.1,0.1,0.2,0.2,0.2c-0.6,0.5-1.3,0.6-2.1,0.5c-0.6-0.1-1.1-0.4-1.3-0.9
		c-0.1-0.2-0.2-0.4-0.3-0.7c0,0.1-0.1,0.2-0.1,0.2c-0.3,0.7-0.8,1.1-1.5,1.3c-0.8,0.2-1.6,0.2-2.4,0c-1.2-0.3-1.6-1.1-1.5-2.3
		c0.1-0.7,0.5-1.2,1.1-1.5c0.7-0.3,1.3-0.5,2-0.7c0.4-0.2,0.9-0.3,1.3-0.5c0.6-0.2,1-0.6,1-1.3c0.1-0.6,0.1-1.2-0.1-1.8
		c-0.2-0.7-0.5-1-1.2-1.1c-0.5,0-0.9,0-1.3,0.2c-0.4,0.2-0.6,0.4-0.6,0.9c0,0.3,0.1,0.6,0.1,1c0.1,0.6-0.2,0.9-0.8,0.9
		c-0.1,0-0.1,0-0.2,0c-0.6,0-0.9-0.3-0.8-0.9c0-0.9,0.5-1.5,1.2-1.9c0.7-0.4,1.5-0.5,2.3-0.4c0.6,0,1.2,0.1,1.7,0.4
		c1,0.5,1.4,1.4,1.4,2.5c0,1.7,0,3.5,0,5.2c0,0.2,0,0.4,0,0.5c0.1,0.3,0.3,0.5,0.6,0.5C33.2,23.1,33.5,23,33.9,22.8z M30.4,18.2
		c-0.3,0.2-0.5,0.3-0.7,0.4c-0.5,0.2-1.1,0.4-1.6,0.7c-0.7,0.3-1.2,0.8-1.3,1.5c-0.1,0.5-0.1,0.9,0.1,1.4c0.1,0.4,0.4,0.7,0.8,0.8
		c0.6,0.2,1.6,0.2,2.2-0.6c0.3-0.4,0.4-0.8,0.5-1.2C30.3,20.2,30.3,19.2,30.4,18.2z"/>
	<path class="st0" d="M66,30.6c0-1.2,0.8-2.4,2-3.3c2.7-1.9,5.6-0.3,6.7,1.8c0.8,1.6,0.5,3.5-0.8,4.8c-0.9,0.9-2,1.5-3.3,1.5
		c-1.2,0-2.2-0.4-3.1-1.2C66.5,33.3,66,32.2,66,30.6z M73.2,31c0-0.8,0-1.6-0.3-2.4c-0.3-1.1-0.9-1.7-2-1.8c-0.7-0.1-1.4,0-2,0.5
		c-0.4,0.4-0.6,0.8-0.7,1.3c-0.3,1-0.3,2-0.2,3c0,0.8,0.1,1.5,0.5,2.3c0.3,0.6,0.7,1,1.4,1.1c0.3,0,0.6,0.1,0.9,0.1
		c1,0,1.7-0.5,2-1.5C73.1,32.8,73.1,31.9,73.2,31z"/>
	<path class="st0" d="M50.4,18c-2.2,0-4.3,0-6.5,0c0,0.6,0,1.2,0,1.8c0,0.5,0.1,1,0.2,1.4c0.4,1.3,1.2,2,2.6,1.9
		c0.5,0,1-0.1,1.4-0.3c0.7-0.3,1.2-0.9,1.5-1.6c0.1-0.2,0.1-0.3,0.2-0.5c0.1,0,0.2,0,0.3,0.1c-0.1,0.4-0.3,0.8-0.5,1.2
		c-0.6,0.8-1.3,1.2-2.3,1.4c-1.1,0.1-2.2,0-3.3-0.5c-1.4-0.8-2.2-2-2.3-3.6c-0.2-2,0.9-4,2.8-4.9c1.5-0.7,3.3-0.5,4.5,0.6
		c0.8,0.7,1.2,1.7,1.2,2.8C50.4,17.8,50.4,17.9,50.4,18z M43.9,17.7c1.5,0,2.9,0,4.3,0c0-0.9,0.1-1.7-0.2-2.6
		c-0.1-0.3-0.3-0.5-0.6-0.7c-0.9-0.5-2.2-0.2-2.7,0.7C44.1,15.9,44,16.8,43.9,17.7z"/>
	<path class="st0" d="M10.8,14.5c-0.6,0-1.1,0-1.6,0c0-0.1,0-0.2,0-0.3c0.5,0,1,0,1.6,0c0-1.1,0-2.1,0-3.2c0.6,0,1.2,0,1.8,0
		c0,1,0,2.1,0,3.2c1,0,2,0,3,0c0,0.1,0,0.2,0,0.3c-1,0-2,0-3,0c0,0.1,0,0.2,0,0.2c0,2.2,0,4.5,0,6.7c0,0.3,0,0.5,0.1,0.8
		c0.2,0.9,1,1.3,1.8,0.9c0.6-0.3,0.9-0.8,1-1.4c0-0.1,0-0.2,0.1-0.2c0.1,0,0.2,0.1,0.3,0.1c0,1-0.9,1.8-1.8,1.9
		c-0.6,0.1-1.2,0-1.8-0.1c-0.8-0.2-1.3-0.8-1.4-1.7c0-0.2,0-0.4,0-0.6c0-2.1,0-4.2,0-6.2C10.8,14.7,10.8,14.6,10.8,14.5z"/>
	<path class="st0" d="M19.8,16.3c0.2-0.6,0.4-1.1,0.8-1.5c0.8-0.8,2.1-1.1,3-0.5c0.7,0.4,1,1.4,0.7,2.1c-0.1,0.2-0.3,0.4-0.6,0.4
		c-0.2,0-0.5,0.1-0.7,0c-0.6-0.1-0.7-0.4-0.6-1c0.1-0.3,0.2-0.5,0.2-0.8c0-0.5-0.3-0.7-0.8-0.7c-0.4,0.1-0.8,0.3-1,0.6
		c-0.7,0.8-1,1.7-1,2.7c0,1.7,0,3.4,0,5.1c0,0,0,0,0,0.1c0.6,0,1.2,0,1.8,0c0,0.1,0,0.2,0,0.3c-1.7,0-3.5,0-5.2,0c0-0.1,0-0.2,0-0.3
		c0.5,0,1,0,1.6,0c0-2.8,0-5.6,0-8.4c-0.5,0-1,0-1.6,0c0-0.1,0-0.2,0-0.3c1.1,0,2.2,0,3.4,0C19.8,14.9,19.8,15.6,19.8,16.3
		C19.8,16.3,19.8,16.3,19.8,16.3z"/>
	<path class="st0" d="M46.5,30.3c-2,0-4,0-6,0c0,0.5,0,1.1,0,1.6c0,0.6,0.1,1.3,0.4,1.9c0.4,0.9,1.1,1.4,2.1,1.4
		c0.6,0,1.2-0.1,1.7-0.3c0.6-0.3,0.9-0.7,1.2-1.3c0.1-0.2,0.1-0.3,0.2-0.5c0.1,0,0.2,0,0.3,0.1c-0.2,0.3-0.3,0.7-0.5,1
		c-0.5,0.8-1.2,1.3-2.2,1.4c-1.1,0.2-2.1,0-3-0.5c-1.4-0.7-2.1-2-2.2-3.5c-0.2-2.2,1.3-4.1,3.2-4.7c1.9-0.6,3.9,0.3,4.6,2.1
		C46.4,29.3,46.5,29.8,46.5,30.3z M44.4,30c0,0,0-0.1,0-0.1c0-0.6,0-1.2-0.1-1.9c-0.1-0.4-0.3-0.8-0.7-1c-0.7-0.4-1.8-0.2-2.3,0.3
		c-0.5,0.4-0.6,1-0.8,1.6c-0.1,0.4-0.1,0.8-0.2,1.1C41.8,30,43.1,30,44.4,30z"/>
	<path class="st0" d="M39.4,14.5c0-0.1,0-0.2,0-0.3c1.1,0,2.1,0,3.2,0c0,0.1,0,0.2,0,0.3c-0.3,0-0.6,0-0.9,0c-0.2,0-0.3,0.1-0.4,0.2
		c-1.3,3-2.5,6-3.8,8.9c0,0.1-0.1,0.1-0.1,0.2c0-0.1-0.1-0.2-0.1-0.2c-1.2-3-2.4-5.9-3.6-8.9c-0.1-0.2-0.2-0.2-0.3-0.2
		c-0.4,0-0.8,0-1.2,0c0-0.1,0-0.2,0-0.3c1.7,0,3.4,0,5,0c0,0.1,0,0.2,0,0.3c-0.6,0-1.1,0-1.7,0c0.9,2.2,1.8,4.4,2.7,6.6
		c0.9-2.2,1.9-4.4,2.8-6.6C40.5,14.5,40,14.5,39.4,14.5z"/>
	<path class="st0" d="M32.4,27c-0.5,0-1,0-1.5,0c0-0.1,0-0.2,0-0.3c1,0,2.1,0,3.1,0c0,0.6,0,1.3,0,1.9c0,0,0,0,0,0
		c0-0.1,0.1-0.2,0.1-0.2c0.3-0.7,0.7-1.3,1.4-1.6c0.7-0.4,1.5-0.4,2.2,0c0.6,0.4,0.9,1.3,0.6,1.9c-0.1,0.1-0.2,0.3-0.3,0.3
		c-0.4,0.2-0.7,0.2-1.1,0c-0.3-0.1-0.4-0.4-0.2-0.8c0.1-0.2,0.2-0.5,0.2-0.7c0-0.6-0.4-0.9-0.9-0.7c-0.4,0.1-0.7,0.4-0.9,0.7
		c-0.6,0.8-0.9,1.6-0.9,2.6c0,1.5,0,3,0,4.4c0,0,0,0.1,0,0.2c0.6,0,1.1,0,1.7,0c0,0.1,0,0.2,0,0.3c-1.6,0-3.2,0-4.9,0
		c0-0.1,0-0.2,0-0.3c0.5,0,1,0,1.5,0C32.4,32.3,32.4,29.7,32.4,27z"/>
	<path class="st0" d="M53.1,26.8c0,0.7,0,1.5,0,2.2c-0.2,0.1-0.2,0-0.3-0.1c-0.1-0.4-0.3-0.7-0.5-1c-0.4-0.8-1.1-1.1-2-1
		c-0.5,0.1-1,0.2-1.3,0.6c-0.5,0.7-0.4,1.6,0.4,2c0.5,0.3,1.1,0.4,1.7,0.7c0.6,0.2,1.1,0.4,1.7,0.7c0.6,0.3,1.1,0.7,1.2,1.4
		c0.2,1.1-0.3,2.3-1.3,2.8c-0.9,0.5-1.9,0.6-2.9,0.3c-0.3-0.1-0.6-0.2-1-0.3c-0.3-0.1-0.6-0.2-0.9,0.1c0,0-0.1,0-0.2,0.1
		c0-0.5,0-0.9,0-1.4c0-0.4,0-0.9,0-1.3c0.2-0.1,0.2,0,0.3,0.2c0.2,0.7,0.5,1.3,1,1.8c0.6,0.6,1.4,0.8,2.2,0.7c1-0.1,1.5-0.8,1.4-1.8
		c0-0.5-0.3-0.9-0.8-1.1c-0.6-0.2-1.2-0.4-1.7-0.6c-0.3-0.1-0.5-0.2-0.8-0.3c-1.2-0.4-1.6-1.4-1.4-2.5c0.2-1.2,1.2-2.1,2.4-2.2
		c0.6-0.1,1.2,0,1.7,0.3c0.3,0.1,0.6,0.2,0.8,0c0,0,0,0,0.1,0C53,26.7,53,26.8,53.1,26.8z"/>
	<path class="st0" d="M86.7,35.2c0-0.9,0-1.8,0-2.7c0.2-0.1,0.2,0,0.3,0.2c0.2,0.7,0.5,1.3,1,1.8c0.6,0.6,1.4,0.8,2.2,0.8
		c1-0.1,1.5-0.8,1.4-1.8c-0.1-0.5-0.3-0.8-0.7-1c-0.5-0.2-1-0.4-1.6-0.6c-0.3-0.1-0.7-0.2-1-0.4c-1.1-0.4-1.5-1.3-1.4-2.4
		c0.1-1.3,1.2-2.2,2.4-2.3c0.6-0.1,1.2,0,1.8,0.3c0.3,0.1,0.5,0.2,0.8,0c0,0,0.1,0,0.2,0c0,0.1,0,0.1,0,0.2c0,0.7,0,1.4,0,2.1
		c-0.2,0.1-0.2,0-0.3-0.1c-0.1-0.4-0.3-0.7-0.5-1.1c-0.4-0.8-1.1-1.1-2-1c-0.4,0-0.7,0.1-1,0.3c-0.5,0.4-0.8,1-0.5,1.6
		c0.1,0.2,0.2,0.4,0.4,0.5c0.4,0.2,0.8,0.4,1.2,0.5c0.6,0.2,1.3,0.4,1.9,0.7c0.2,0.1,0.4,0.2,0.7,0.3c0.9,0.6,1.2,1.4,1,2.5
		c-0.3,1.2-1.2,1.8-2.3,2c-0.9,0.2-1.7,0-2.6-0.3c-0.1-0.1-0.3-0.1-0.4-0.1c-0.2,0-0.5,0-0.6,0.2C86.9,35.1,86.8,35.1,86.7,35.2z"/>
	<path class="st0" d="M60.2,26.7c0,0.8,0,1.5,0,2.2C60.1,29,60,29,60,28.8c-0.1-0.4-0.3-0.7-0.5-1.1c-0.4-0.8-1.1-1.1-2-1
		c-0.5,0-0.9,0.2-1.2,0.5c-0.6,0.6-0.5,1.7,0.3,2.1c0.5,0.3,1.1,0.4,1.7,0.7c0.4,0.2,0.9,0.3,1.3,0.5c0.2,0.1,0.4,0.2,0.6,0.3
		c0.9,0.6,1.2,1.4,0.9,2.5c-0.3,1.2-1.4,2-2.6,2.1c-0.8,0.1-1.6-0.2-2.3-0.4c-0.2-0.1-0.4-0.1-0.5-0.1c-0.1,0-0.3,0.1-0.4,0.2
		c-0.1,0-0.2,0.1-0.3,0.2c0-1,0-1.9,0-2.8c0.1-0.1,0.2,0,0.3,0.1c0.2,0.7,0.5,1.3,1,1.8c0.6,0.6,1.4,0.8,2.2,0.8
		c1-0.1,1.5-0.8,1.4-1.8c-0.1-0.5-0.2-0.8-0.7-1c-0.5-0.2-1-0.4-1.6-0.6c-0.3-0.1-0.7-0.2-1-0.4c-1.1-0.4-1.5-1.3-1.4-2.4
		c0.1-1.3,1.1-2.3,2.4-2.4c0.6-0.1,1.2,0.1,1.8,0.3c0.2,0.1,0.5,0.2,0.7,0C60.1,26.7,60.1,26.8,60.2,26.7z"/>
	<path class="st0" d="M66.1,34.9c0,0.1,0,0.2,0,0.3c-1.6,0-3.1,0-4.7,0c0-0.1,0-0.2,0-0.3c0.5,0,1,0,1.5,0c0-2.6,0-5.2,0-7.8
		c-0.5,0-1,0-1.5,0c0-0.1,0-0.2,0-0.3c1.1,0,2.1,0,3.2,0c0,2.7,0,5.4,0,8.1C65.1,34.9,65.6,34.9,66.1,34.9z"/>
	<path class="st0" d="M1.6,27c-0.5,0-1,0-1.5,0c0-0.1,0-0.2,0-0.3c1.1,0,2.1,0,3.2,0c0,2.7,0,5.4,0,8.1c0.5,0,1,0,1.5,0
		c0,0.1,0,0.2,0,0.3c-1.6,0-3.1,0-4.7,0c0-0.1,0-0.2,0-0.3c0.5,0,1,0,1.5,0C1.6,32.3,1.6,29.7,1.6,27z"/>
	<path class="st0" d="M65,40.2c0.1,0,0.2,0,0.4,0c0,0.1,0,0.2,0,0.3c0,0,0,0,0,0c0.3-0.3,0.7-0.5,1.1-0.3c0.4,0.1,0.7,0.5,0.7,0.9
		c0,0.3,0,0.6,0,0.8c-0.2,0.7-1.1,1.1-1.8,0.5c0,0.4,0,0.8,0,1.2c-0.2,0-0.3,0-0.4,0C65,42.5,65,41.4,65,40.2z M65.5,41.4
		C65.5,41.4,65.5,41.4,65.5,41.4c0,0.1,0,0.2,0,0.2c0,0.3,0.2,0.6,0.5,0.6c0.3,0.1,0.6-0.1,0.7-0.4c0.2-0.3,0.2-0.7,0-1
		c-0.1-0.3-0.3-0.4-0.6-0.4c-0.3,0-0.5,0.1-0.6,0.4C65.5,41.1,65.5,41.3,65.5,41.4z"/>
	<path class="st0" d="M77.3,43.6c-0.2,0-0.3,0-0.4,0c0-1.1,0-2.3,0-3.4c0.1,0,0.2,0,0.4,0c0,0.1,0,0.2,0,0.3
		c0.1-0.1,0.2-0.2,0.3-0.3c0.5-0.3,1.1-0.1,1.4,0.4c0.3,0.5,0.3,1,0,1.5c-0.3,0.6-1.1,0.7-1.6,0.3c0,0,0,0-0.1,0
		C77.3,42.8,77.3,43.2,77.3,43.6z M77.3,41.4C77.3,41.4,77.3,41.4,77.3,41.4c0,0.1,0,0.1,0,0.2c0,0.3,0.2,0.6,0.5,0.7
		c0.3,0.1,0.6-0.1,0.8-0.4c0.1-0.3,0.2-0.7,0-1c-0.1-0.3-0.3-0.4-0.6-0.4c-0.3,0-0.5,0.2-0.6,0.5C77.3,41.1,77.3,41.3,77.3,41.4z"/>
	<path class="st0" d="M60.3,40.5c0-0.3,0-0.5,0-0.7c0-0.2,0-0.4,0-0.7c0.1,0,0.3,0,0.4,0c0,1.2,0,2.3,0,3.5c-0.1,0-0.2,0-0.4,0
		c0-0.1,0-0.2,0-0.3c-0.2,0.3-0.4,0.4-0.8,0.4c-0.5,0-0.9-0.2-1-0.7c-0.1-0.4-0.1-0.8,0-1.1C58.9,40.1,59.7,39.9,60.3,40.5z
		 M60.3,41.4C60.3,41.4,60.3,41.4,60.3,41.4c0-0.1,0-0.2,0-0.3c0-0.3-0.2-0.6-0.5-0.6c-0.3-0.1-0.6,0.1-0.7,0.4
		c-0.2,0.4-0.2,0.7,0,1.1c0.1,0.2,0.3,0.4,0.6,0.4c0.3,0,0.5-0.2,0.6-0.5C60.3,41.7,60.3,41.6,60.3,41.4z"/>
	<path class="st0" d="M63.7,24.9c-0.6,0-1-0.5-1-1c0-0.6,0.5-1,1.1-1c0.6,0,1,0.5,1,1C64.8,24.4,64.3,24.9,63.7,24.9z"/>
	<path class="st0" d="M2.4,24.9c-0.6,0-1-0.4-1-1c0-0.6,0.4-1.1,1-1.1c0.6,0,1.1,0.5,1,1C3.4,24.4,3,24.9,2.4,24.9z"/>
	<path class="st0" d="M81.9,42.7c-0.7,0-1.2-0.5-1.1-1.3c0-0.8,0.5-1.3,1.2-1.3c0.7,0,1.2,0.5,1.2,1.3
		C83.1,42.2,82.6,42.7,81.9,42.7z M81.1,41.4c0.1,0.2,0.1,0.4,0.2,0.6c0.3,0.4,0.9,0.4,1.1,0c0.2-0.4,0.2-0.8,0-1.2
		c-0.3-0.5-0.9-0.5-1.2,0C81.2,41,81.2,41.2,81.1,41.4z"/>
	<path class="st0" d="M44.1,40.2c0.1,0,0.2,0,0.4,0c0,0.1,0,0.2,0,0.2c0,0.4,0,0.8,0,1.2c0,0.4,0.2,0.6,0.5,0.6
		c0.3,0,0.6-0.3,0.6-0.7c0-0.5,0-0.9,0-1.4c0.2,0,0.3,0,0.4,0c0,0.8,0,1.6,0,2.4c-0.1,0-0.2,0-0.4,0c0-0.1,0-0.2-0.1-0.3
		c-0.2,0.2-0.4,0.4-0.8,0.4c-0.4,0-0.8-0.2-0.8-0.6C44.1,41.4,44.1,40.8,44.1,40.2z"/>
	<path class="st0" d="M53.2,42.6c-0.1,0-0.2,0-0.3,0c0-0.1,0-0.2-0.1-0.3c-0.2,0.2-0.5,0.3-0.8,0.3c-0.3,0-0.6-0.2-0.7-0.5
		c-0.1-0.3,0-0.7,0.3-0.8c0.2-0.1,0.5-0.2,0.8-0.3c0.1,0,0.2,0,0.4,0c0-0.2,0-0.4-0.2-0.5c-0.3-0.2-0.7-0.1-1,0.1
		c0-0.1-0.1-0.2-0.1-0.3c0.4-0.2,0.8-0.3,1.2-0.2c0.4,0.1,0.5,0.4,0.5,0.8C53.2,41.5,53.2,42.1,53.2,42.6z M52.7,41.4
		c-0.3,0-0.5,0-0.8,0.1c-0.2,0.1-0.3,0.3-0.2,0.5c0,0.2,0.2,0.3,0.4,0.3c0.3,0,0.6-0.2,0.6-0.5C52.8,41.7,52.7,41.6,52.7,41.4z"/>
	<path class="st0" d="M91.3,42.6c-0.2,0-0.3,0-0.5,0c0-0.1,0-0.1,0-0.2c0-0.7,0-1.5,0-2.3c0.1,0,0.2,0,0.4,0c0,0.1,0,0.2,0,0.3
		c0.1-0.1,0.2-0.2,0.3-0.3c0.6-0.4,1.3-0.1,1.3,0.6c0,0.6,0,1.1,0,1.7c-0.1,0-0.3,0-0.4,0c0-0.3,0-0.5,0-0.8c0-0.2,0-0.5,0-0.7
		c0-0.4-0.2-0.6-0.5-0.6c-0.3,0-0.6,0.3-0.6,0.6c0,0.4,0,0.8,0,1.2C91.3,42.5,91.3,42.5,91.3,42.6z"/>
	<path class="st0" d="M57.1,41.5c-0.6,0-1.1,0-1.7,0c0,0.7,0.4,0.9,1.5,0.7c0.1,0.3,0.1,0.3-0.2,0.4c-0.2,0-0.5,0.1-0.7,0
		c-0.6-0.1-1-0.6-1-1.3c0-0.2,0.1-0.4,0.1-0.6c0.2-0.5,0.7-0.8,1.2-0.7c0.5,0.1,0.8,0.4,0.8,1C57.1,41.2,57.1,41.4,57.1,41.5z
		 M56.6,41.2c0-0.3-0.1-0.5-0.3-0.6c-0.2-0.1-0.4-0.1-0.6,0c-0.2,0.1-0.3,0.3-0.3,0.6C55.8,41.2,56.2,41.2,56.6,41.2z"/>
	<path class="st0" d="M71.2,42.6c-0.2,0-0.3,0-0.4,0c0-0.8,0-1.6,0-2.4c0.1,0,0.2,0,0.4,0c0,0.1,0,0.2,0.1,0.3
		c0.1-0.1,0.2-0.2,0.2-0.2c0.6-0.4,1.3-0.1,1.4,0.7c0,0.5,0,1.1,0,1.6c-0.1,0-0.3,0-0.4,0c0-0.4,0-0.8,0-1.2c0-0.1,0-0.2,0-0.3
		c-0.1-0.4-0.2-0.6-0.6-0.6c-0.3,0-0.6,0.3-0.6,0.6c0,0.4,0,0.8,0,1.2C71.2,42.5,71.2,42.5,71.2,42.6z"/>
	<path class="st0" d="M86.4,42.6c-0.1,0-0.2,0-0.4,0c0-0.1,0-0.2-0.1-0.3c-0.2,0.2-0.5,0.3-0.8,0.3c-0.3,0-0.5-0.1-0.7-0.4
		c-0.1-0.3-0.1-0.6,0.2-0.8c0.2-0.2,0.5-0.3,0.9-0.3c0.1,0,0.2,0,0.4,0c0-0.2,0-0.4-0.2-0.5c-0.3-0.2-0.7-0.1-1,0
		c-0.2-0.3-0.2-0.3,0.1-0.4c0.1,0,0.3-0.1,0.4-0.1c0.7-0.1,1,0.3,1,1c0,0.3,0,0.5,0,0.8C86.4,42.1,86.4,42.4,86.4,42.6z M86,41.4
		c-0.3,0.1-0.5,0.1-0.8,0.2c-0.2,0.1-0.3,0.3-0.2,0.5c0,0.2,0.2,0.3,0.3,0.3c0.3,0,0.6-0.2,0.7-0.5C86,41.7,86,41.6,86,41.4z"/>
	<path class="st0" d="M63.4,41.5c-0.6,0-1.1,0-1.7,0c-0.1,0.7,0.4,0.9,1.5,0.7c0,0.1,0,0.2,0.1,0.3c-0.7,0.4-1.6,0.2-1.9-0.5
		c-0.2-0.5-0.2-1,0.1-1.5c0.3-0.4,0.7-0.5,1.2-0.4c0.4,0.1,0.7,0.5,0.7,1C63.5,41.3,63.4,41.4,63.4,41.5z M63,41.2
		c0-0.4-0.2-0.7-0.6-0.7c-0.4,0-0.7,0.3-0.6,0.7C62.2,41.2,62.6,41.2,63,41.2z"/>
	<path class="st0" d="M94.6,28c-0.8,0-1.4-0.6-1.4-1.3c0-0.7,0.6-1.3,1.4-1.3c0.8,0,1.3,0.6,1.3,1.3C96,27.4,95.4,28,94.6,28z
		 M95.7,26.7c0-0.6-0.4-1-1-1c-0.6,0-1,0.5-1,1c0,0.6,0.5,1,1,1C95.2,27.7,95.7,27.3,95.7,26.7z"/>
	<path class="st0" d="M41.5,39.3c0.8,0,1.7,0,2.5,0c0,0.1,0,0.2,0,0.4c-0.3,0-0.7,0-1,0c0,1,0,2,0,3c-0.2,0-0.3,0-0.5,0c0-1,0-2,0-3
		c-0.3,0-0.7,0-1,0C41.5,39.5,41.5,39.4,41.5,39.3z"/>
	<path class="st0" d="M88.7,42.6c-0.2,0-0.3,0-0.4,0c0-0.7,0-1.4,0-2.1c-0.1,0-0.2,0-0.3,0c0-0.1,0-0.2,0-0.3c0.1,0,0.2,0,0.3,0
		c0-0.4,0-0.9,0.5-1.1c0.2-0.1,0.5-0.1,0.8,0c0,0.1,0,0.2-0.1,0.3c-0.6,0-0.8,0.2-0.7,0.8c0.2,0,0.4,0,0.5,0c0,0.1,0,0.2,0,0.3
		c-0.2,0-0.4,0-0.6,0c0,0.4,0,0.7,0,1C88.7,41.9,88.7,42.3,88.7,42.6z"/>
	<path class="st0" d="M48.5,42.6c-0.3-0.8-0.6-1.6-0.9-2.3c0,0,0,0,0-0.1c0.1,0,0.2,0,0.3,0c0.1,0,0.2,0,0.2,0.2
		c0.2,0.6,0.4,1.2,0.6,1.8c0.1-0.3,0.2-0.5,0.3-0.8c0.1-0.3,0.2-0.6,0.3-0.9c0.1-0.2,0.2-0.3,0.4-0.3c0,0,0.1,0,0.2,0
		c0,0.1-0.1,0.1-0.1,0.2c-0.2,0.6-0.5,1.2-0.7,1.9C48.9,42.7,48.9,42.7,48.5,42.6z"/>
	<path class="st0" d="M75.2,40.3c0,0.1-0.1,0.2-0.1,0.3c-0.5-0.1-0.9-0.2-1.2,0.3c-0.2,0.3-0.2,0.7,0,1.1c0.3,0.5,0.8,0.4,1.2,0.3
		c0,0.1,0.1,0.2,0.1,0.3c-0.5,0.3-1.2,0.2-1.6-0.2c-0.4-0.4-0.4-1.2,0-1.7C73.9,40.2,74.7,40,75.2,40.3z"/>
	<path class="st0" d="M53.3,43.7c0-0.1,0-0.2-0.1-0.3c0.1,0,0.1,0,0.1,0c0.3-0.1,0.5-0.2,0.5-0.5c0-0.7,0-1.4,0-2.1
		c0-0.2,0-0.3,0-0.5c0.1,0,0.3,0,0.4,0c0,0.1,0,0.1,0,0.2c0,0.7,0,1.4,0,2.2c0,0.2-0.1,0.5-0.2,0.7C54.1,43.6,53.7,43.7,53.3,43.7z"
		/>
	<path class="st0" d="M67.9,40.2c0.1,0,0.2,0,0.3,0c0,0.1,0,0.2,0,0.3c0.1-0.1,0.3-0.3,0.5-0.4c0.3-0.1,0.4-0.1,0.4,0.2
		c0,0,0,0.1,0,0.1c-0.5,0.1-0.7,0.3-0.7,0.8c0,0.4,0,0.8,0,1.2c-0.1,0-0.3,0-0.4,0C67.9,41.8,67.9,41,67.9,40.2z"/>
	<path class="st0" d="M50.7,42.6c-0.1,0-0.3,0-0.4,0c0-0.8,0-1.6,0-2.4c0.1,0,0.3,0,0.4,0C50.7,41,50.7,41.8,50.7,42.6z"/>
	<path class="st0" d="M90.1,42.6c-0.1,0-0.3,0-0.4,0c0-0.8,0-1.6,0-2.4c0.1,0,0.3,0,0.4,0C90.1,41,90.1,41.8,90.1,42.6z"/>
	<path class="st0" d="M70,42.6c-0.1,0-0.3,0-0.4,0c0-0.8,0-1.6,0-2.4c0.1,0,0.3,0,0.4,0C70,41,70,41.8,70,42.6z"/>
	<path class="st0" d="M75.7,40.2c0.1,0,0.3,0,0.4,0c0,0.8,0,1.6,0,2.4c-0.1,0-0.3,0-0.4,0C75.7,41.8,75.7,41,75.7,40.2z"/>
	<path class="st0" d="M80.2,42.6c-0.1,0-0.3,0-0.4,0c0-0.8,0-1.6,0-2.4c0.1,0,0.3,0,0.4,0C80.2,41,80.2,41.8,80.2,42.6z"/>
	<path class="st0" d="M75.9,39.8c-0.2,0-0.3-0.1-0.3-0.3c0-0.2,0.1-0.3,0.3-0.3c0.2,0,0.3,0.1,0.3,0.3
		C76.2,39.7,76.1,39.8,75.9,39.8z"/>
	<path class="st0" d="M89.9,39.8c-0.2,0-0.3-0.1-0.3-0.3c0-0.2,0.1-0.3,0.3-0.3c0.2,0,0.3,0.1,0.3,0.3
		C90.2,39.7,90.1,39.8,89.9,39.8z"/>
	<path class="st0" d="M80.2,39.5c0,0.2-0.1,0.3-0.3,0.3c-0.2,0-0.3-0.1-0.3-0.3c0-0.2,0.1-0.3,0.3-0.3
		C80.1,39.3,80.2,39.4,80.2,39.5z"/>
	<path class="st0" d="M70,39.6c0,0.2-0.1,0.2-0.3,0.2c-0.2,0-0.3-0.1-0.3-0.3c0-0.2,0.1-0.3,0.3-0.3C69.9,39.3,70,39.4,70,39.6z"/>
	<path class="st0" d="M54.2,39.8c-0.2,0-0.3-0.1-0.3-0.3c0-0.2,0.1-0.3,0.3-0.3c0.2,0,0.3,0.1,0.3,0.3
		C54.4,39.7,54.3,39.8,54.2,39.8z"/>
	<path class="st0" d="M50.5,39.3c0.2,0,0.3,0.1,0.3,0.3c0,0.2-0.1,0.3-0.3,0.3c-0.2,0-0.3-0.1-0.3-0.3
		C50.3,39.4,50.3,39.3,50.5,39.3z"/>
	<path class="st0" d="M95,26.7c0.1,0.2,0.2,0.4,0.2,0.6c-0.3,0.1-0.3,0.1-0.4-0.2c-0.1-0.3-0.1-0.3-0.4-0.2c0,0.2,0,0.3,0,0.5
		c-0.1,0-0.2,0-0.3,0c0-0.4,0-0.9,0-1.3c0.2,0,0.4,0,0.7,0c0.2,0,0.4,0.1,0.4,0.3C95.3,26.5,95.2,26.6,95,26.7z M94.4,26.6
		c0.2,0,0.4,0.1,0.4-0.2c0-0.2-0.1-0.2-0.3-0.2C94.3,26.2,94.5,26.5,94.4,26.6z"/>
</g>
</svg>
